<?xml version="1.0" encoding="UTF-8" standalone="no"?>
<!DOCTYPE svg PUBLIC "-//W3C//DTD SVG 1.1//EN"
 "http://www.w3.org/Graphics/SVG/1.1/DTD/svg11.dtd">
<!-- Generated by graphviz version 14.0.2 (20251019.1705)
 -->
<!-- Title: src/Component/Animation.h Pages: 1 -->
<svg width="784pt" height="252pt"
 viewBox="0.00 0.00 784.00 252.00" xmlns="http://www.w3.org/2000/svg" xmlns:xlink="http://www.w3.org/1999/xlink">
<g id="graph0" class="graph" transform="scale(1 1) rotate(0) translate(4 248)">
<title>src/Component/Animation.h</title>
<!-- Node1 -->
<g id="Node000001" class="node">
<title>Node1</title>
<g id="a_Node000001"><a xlink:title="アニメーションパターンの定義">
<polygon fill="#999999" stroke="#666666" points="745,-244 607.5,-244 607.5,-224 745,-224 745,-244"/>
<text xml:space="preserve" text-anchor="middle" x="676.25" y="-230.5" font-family="Helvetica,sans-Serif" font-size="10.00">src/Component/Animation.h</text>
</a>
</g>
</g>
<!-- Node2 -->
<g id="Node000002" class="node">
<title>Node2</title>
<g id="a_Node000002"><a xlink:href="_animation_controller_8h.html" target="_top" xlink:title="アニメーション再生管理クラス">
<polygon fill="white" stroke="#666666" points="480,-188 300.5,-188 300.5,-168 480,-168 480,-188"/>
<text xml:space="preserve" text-anchor="middle" x="390.25" y="-174.5" font-family="Helvetica,sans-Serif" font-size="10.00">src/Component/AnimationController.h</text>
</a>
</g>
</g>
<!-- Node1&#45;&gt;Node2 -->
<g id="edge1_Node000001_Node000002" class="edge">
<title>Node1&#45;&gt;Node2</title>
<g id="a_edge1_Node000001_Node000002"><a xlink:title=" ">
<path fill="none" stroke="#63b8ff" d="M615.01,-221.44C562.9,-211.6 488.97,-197.64 440.34,-188.46"/>
<polygon fill="#63b8ff" stroke="#63b8ff" points="614.14,-224.84 624.62,-223.25 615.44,-217.96 614.14,-224.84"/>
</a>
</g>
</g>
<!-- Node6 -->
<g id="Node000006" class="node">
<title>Node6</title>
<g id="a_Node000006"><a xlink:href="_enemy_8cpp.html" target="_top" xlink:title=" ">
<polygon fill="white" stroke="#666666" points="420.25,-76 308.25,-76 308.25,-56 420.25,-56 420.25,-76"/>
<text xml:space="preserve" text-anchor="middle" x="364.25" y="-62.5" font-family="Helvetica,sans-Serif" font-size="10.00">src/Entitie/Enemy.cpp</text>
</a>
</g>
</g>
<!-- Node1&#45;&gt;Node6 -->
<g id="edge16_Node000001_Node000006" class="edge">
<title>Node1&#45;&gt;Node6</title>
<g id="a_edge16_Node000001_Node000006"><a xlink:title=" ">
<path fill="none" stroke="#63b8ff" d="M676.01,-212.43C674.51,-185.12 667.54,-137.41 638.25,-112 622.05,-97.94 495.91,-81.68 420.55,-73.07"/>
<polygon fill="#63b8ff" stroke="#63b8ff" points="672.51,-212.3 676.33,-222.18 679.5,-212.07 672.51,-212.3"/>
</a>
</g>
</g>
<!-- Node11 -->
<g id="Node000011" class="node">
<title>Node11</title>
<g id="a_Node000011"><a xlink:href="_oxygen_spot_8cpp.html" target="_top" xlink:title=" ">
<polygon fill="white" stroke="#666666" points="776.25,-76 640.25,-76 640.25,-56 776.25,-56 776.25,-76"/>
<text xml:space="preserve" text-anchor="middle" x="708.25" y="-62.5" font-family="Helvetica,sans-Serif" font-size="10.00">src/Entitie/OxygenSpot.cpp</text>
</a>
</g>
</g>
<!-- Node1&#45;&gt;Node11 -->
<g id="edge17_Node000001_Node000011" class="edge">
<title>Node1&#45;&gt;Node11</title>
<g id="a_edge17_Node000001_Node000011"><a xlink:title=" ">
<path fill="none" stroke="#63b8ff" d="M693.31,-215.25C699.61,-207.52 705.99,-197.95 709.25,-188 722.26,-148.27 714.44,-97.19 710.31,-76.42"/>
<polygon fill="#63b8ff" stroke="#63b8ff" points="690.87,-212.73 686.9,-222.55 696.13,-217.35 690.87,-212.73"/>
</a>
</g>
</g>
<!-- Node13 -->
<g id="Node000013" class="node">
<title>Node13</title>
<g id="a_Node000013"><a xlink:href="_player_8cpp.html" target="_top" xlink:title=" ">
<polygon fill="white" stroke="#666666" points="597.12,-76 487.38,-76 487.38,-56 597.12,-56 597.12,-76"/>
<text xml:space="preserve" text-anchor="middle" x="542.25" y="-62.5" font-family="Helvetica,sans-Serif" font-size="10.00">src/Entitie/Player.cpp</text>
</a>
</g>
</g>
<!-- Node1&#45;&gt;Node13 -->
<g id="edge18_Node000001_Node000013" class="edge">
<title>Node1&#45;&gt;Node13</title>
<g id="a_edge18_Node000001_Node000013"><a xlink:title=" ">
<path fill="none" stroke="#63b8ff" d="M681.79,-212.57C687.55,-186.51 692.99,-141.31 671.25,-112 654.08,-88.85 624.15,-77.54 597.44,-72.04"/>
<polygon fill="#63b8ff" stroke="#63b8ff" points="678.41,-211.66 679.42,-222.2 685.21,-213.33 678.41,-211.66"/>
</a>
</g>
</g>
<!-- Node3 -->
<g id="Node000003" class="node">
<title>Node3</title>
<g id="a_Node000003"><a xlink:href="_animation_controller_8cpp.html" target="_top" xlink:title=" ">
<polygon fill="white" stroke="#666666" points="485.25,-132 295.25,-132 295.25,-112 485.25,-112 485.25,-132"/>
<text xml:space="preserve" text-anchor="middle" x="390.25" y="-118.5" font-family="Helvetica,sans-Serif" font-size="10.00">src/Component/AnimationController.cpp</text>
</a>
</g>
</g>
<!-- Node2&#45;&gt;Node3 -->
<g id="edge2_Node000002_Node000003" class="edge">
<title>Node2&#45;&gt;Node3</title>
<g id="a_edge2_Node000002_Node000003"><a xlink:title=" ">
<path fill="none" stroke="#63b8ff" d="M390.25,-156.13C390.25,-147.9 390.25,-138.85 390.25,-132.3"/>
<polygon fill="#63b8ff" stroke="#63b8ff" points="386.75,-156.08 390.25,-166.08 393.75,-156.08 386.75,-156.08"/>
</a>
</g>
</g>
<!-- Node4 -->
<g id="Node000004" class="node">
<title>Node4</title>
<g id="a_Node000004"><a xlink:href="_enemy_8h.html" target="_top" xlink:title="敵クラスの定義">
<polygon fill="white" stroke="#666666" points="160,-132 58.5,-132 58.5,-112 160,-112 160,-132"/>
<text xml:space="preserve" text-anchor="middle" x="109.25" y="-118.5" font-family="Helvetica,sans-Serif" font-size="10.00">src/Entitie/Enemy.h</text>
</a>
</g>
</g>
<!-- Node2&#45;&gt;Node4 -->
<g id="edge3_Node000002_Node000004" class="edge">
<title>Node2&#45;&gt;Node4</title>
<g id="a_edge3_Node000002_Node000004"><a xlink:title=" ">
<path fill="none" stroke="#63b8ff" d="M329.75,-165.37C278.57,-155.54 206.15,-141.62 158.46,-132.46"/>
<polygon fill="#63b8ff" stroke="#63b8ff" points="329.01,-168.8 339.5,-167.25 330.34,-161.92 329.01,-168.8"/>
</a>
</g>
</g>
<!-- Node10 -->
<g id="Node000010" class="node">
<title>Node10</title>
<g id="a_Node000010"><a xlink:href="_oxygen_spot_8h.html" target="_top" xlink:title="酸素スポットクラスの定義">
<polygon fill="white" stroke="#666666" points="629,-132 503.5,-132 503.5,-112 629,-112 629,-132"/>
<text xml:space="preserve" text-anchor="middle" x="566.25" y="-118.5" font-family="Helvetica,sans-Serif" font-size="10.00">src/Entitie/OxygenSpot.h</text>
</a>
</g>
</g>
<!-- Node2&#45;&gt;Node10 -->
<g id="edge9_Node000002_Node000010" class="edge">
<title>Node2&#45;&gt;Node10</title>
<g id="a_edge9_Node000002_Node000010"><a xlink:title=" ">
<path fill="none" stroke="#63b8ff" d="M431.63,-164.31C463.39,-154.56 506.55,-141.32 535.35,-132.48"/>
<polygon fill="#63b8ff" stroke="#63b8ff" points="430.89,-160.87 422.35,-167.15 432.94,-167.56 430.89,-160.87"/>
</a>
</g>
</g>
<!-- Node12 -->
<g id="Node000012" class="node">
<title>Node12</title>
<g id="a_Node000012"><a xlink:href="_player_8h.html" target="_top" xlink:title="プレイヤークラスの定義">
<polygon fill="white" stroke="#666666" points="276.88,-132 177.62,-132 177.62,-112 276.88,-112 276.88,-132"/>
<text xml:space="preserve" text-anchor="middle" x="227.25" y="-118.5" font-family="Helvetica,sans-Serif" font-size="10.00">src/Entitie/Player.h</text>
</a>
</g>
</g>
<!-- Node2&#45;&gt;Node12 -->
<g id="edge12_Node000002_Node000012" class="edge">
<title>Node2&#45;&gt;Node12</title>
<g id="a_edge12_Node000002_Node000012"><a xlink:title=" ">
<path fill="none" stroke="#63b8ff" d="M351.16,-164.05C321.81,-154.33 282.3,-141.24 255.86,-132.48"/>
<polygon fill="#63b8ff" stroke="#63b8ff" points="349.83,-167.3 360.42,-167.12 352.03,-160.65 349.83,-167.3"/>
</a>
</g>
</g>
<!-- Node5 -->
<g id="Node000005" class="node">
<title>Node5</title>
<g id="a_Node000005"><a xlink:href="_behavior_strategies_8cpp.html" target="_top" xlink:title=" ">
<polygon fill="white" stroke="#666666" points="146.5,-76 0,-76 0,-56 146.5,-56 146.5,-76"/>
<text xml:space="preserve" text-anchor="middle" x="73.25" y="-62.5" font-family="Helvetica,sans-Serif" font-size="10.00">src/AI/BehaviorStrategies.cpp</text>
</a>
</g>
</g>
<!-- Node4&#45;&gt;Node5 -->
<g id="edge4_Node000004_Node000005" class="edge">
<title>Node4&#45;&gt;Node5</title>
<g id="a_edge4_Node000004_Node000005"><a xlink:title=" ">
<path fill="none" stroke="#63b8ff" d="M96.68,-102.15C90.85,-93.4 84.18,-83.39 79.45,-76.3"/>
<polygon fill="#63b8ff" stroke="#63b8ff" points="93.68,-103.96 102.14,-110.33 99.5,-100.07 93.68,-103.96"/>
</a>
</g>
</g>
<!-- Node4&#45;&gt;Node6 -->
<g id="edge5_Node000004_Node000006" class="edge">
<title>Node4&#45;&gt;Node6</title>
<g id="a_edge5_Node000004_Node000006"><a xlink:title=" ">
<path fill="none" stroke="#63b8ff" d="M165.03,-109.19C211.42,-99.36 276.59,-85.56 319.59,-76.46"/>
<polygon fill="#63b8ff" stroke="#63b8ff" points="164.5,-105.72 155.44,-111.22 165.95,-112.57 164.5,-105.72"/>
</a>
</g>
</g>
<!-- Node7 -->
<g id="Node000007" class="node">
<title>Node7</title>
<g id="a_Node000007"><a xlink:href="_game_scene_8h.html" target="_top" xlink:title="ゲームシーンの定義">
<polygon fill="white" stroke="#666666" points="290,-76 164.5,-76 164.5,-56 290,-56 290,-76"/>
<text xml:space="preserve" text-anchor="middle" x="227.25" y="-62.5" font-family="Helvetica,sans-Serif" font-size="10.00">src/Scene/GameScene.h</text>
</a>
</g>
</g>
<!-- Node4&#45;&gt;Node7 -->
<g id="edge6_Node000004_Node000007" class="edge">
<title>Node4&#45;&gt;Node7</title>
<g id="a_edge6_Node000004_Node000007"><a xlink:title=" ">
<path fill="none" stroke="#63b8ff" d="M140.11,-106.88C161.05,-97.3 188.15,-84.89 206.54,-76.48"/>
<polygon fill="#63b8ff" stroke="#63b8ff" points="138.82,-103.62 131.18,-110.96 141.73,-109.99 138.82,-103.62"/>
</a>
</g>
</g>
<!-- Node8 -->
<g id="Node000008" class="node">
<title>Node8</title>
<g id="a_Node000008"><a xlink:href="_main_8cpp.html" target="_top" xlink:title=" ">
<polygon fill="white" stroke="#666666" points="202.38,-20 130.12,-20 130.12,0 202.38,0 202.38,-20"/>
<text xml:space="preserve" text-anchor="middle" x="166.25" y="-6.5" font-family="Helvetica,sans-Serif" font-size="10.00">src/Main.cpp</text>
</a>
</g>
</g>
<!-- Node7&#45;&gt;Node8 -->
<g id="edge7_Node000007_Node000008" class="edge">
<title>Node7&#45;&gt;Node8</title>
<g id="a_edge7_Node000007_Node000008"><a xlink:title=" ">
<path fill="none" stroke="#63b8ff" d="M208.19,-48.13C197.81,-38.94 185.38,-27.93 176.75,-20.3"/>
<polygon fill="#63b8ff" stroke="#63b8ff" points="205.68,-50.58 215.49,-54.59 210.32,-45.34 205.68,-50.58"/>
</a>
</g>
</g>
<!-- Node9 -->
<g id="Node000009" class="node">
<title>Node9</title>
<g id="a_Node000009"><a xlink:href="_game_scene_8cpp.html" target="_top" xlink:title=" ">
<polygon fill="white" stroke="#666666" points="356.25,-20 220.25,-20 220.25,0 356.25,0 356.25,-20"/>
<text xml:space="preserve" text-anchor="middle" x="288.25" y="-6.5" font-family="Helvetica,sans-Serif" font-size="10.00">src/Scene/GameScene.cpp</text>
</a>
</g>
</g>
<!-- Node7&#45;&gt;Node9 -->
<g id="edge8_Node000007_Node000009" class="edge">
<title>Node7&#45;&gt;Node9</title>
<g id="a_edge8_Node000007_Node000009"><a xlink:title=" ">
<path fill="none" stroke="#63b8ff" d="M246.31,-48.13C256.69,-38.94 269.12,-27.93 277.75,-20.3"/>
<polygon fill="#63b8ff" stroke="#63b8ff" points="244.18,-45.34 239.01,-54.59 248.82,-50.58 244.18,-45.34"/>
</a>
</g>
</g>
<!-- Node10&#45;&gt;Node7 -->
<g id="edge11_Node000010_Node000007" class="edge">
<title>Node10&#45;&gt;Node7</title>
<g id="a_edge11_Node000010_Node000007"><a xlink:title=" ">
<path fill="none" stroke="#63b8ff" d="M495.59,-109.74C433.73,-99.89 344.87,-85.74 286.62,-76.46"/>
<polygon fill="#63b8ff" stroke="#63b8ff" points="494.89,-113.18 505.32,-111.29 495.99,-106.26 494.89,-113.18"/>
</a>
</g>
</g>
<!-- Node10&#45;&gt;Node11 -->
<g id="edge10_Node000010_Node000011" class="edge">
<title>Node10&#45;&gt;Node11</title>
<g id="a_edge10_Node000010_Node000011"><a xlink:title=" ">
<path fill="none" stroke="#63b8ff" d="M601.67,-107.53C627.08,-97.87 660.69,-85.08 683.32,-76.48"/>
<polygon fill="#63b8ff" stroke="#63b8ff" points="600.5,-104.23 592.4,-111.06 602.99,-110.77 600.5,-104.23"/>
</a>
</g>
</g>
<!-- Node12&#45;&gt;Node6 -->
<g id="edge13_Node000012_Node000006" class="edge">
<title>Node12&#45;&gt;Node6</title>
<g id="a_edge13_Node000012_Node000006"><a xlink:title=" ">
<path fill="none" stroke="#63b8ff" d="M261.75,-107.4C286.23,-97.75 318.47,-85.05 340.2,-76.48"/>
<polygon fill="#63b8ff" stroke="#63b8ff" points="260.54,-104.12 252.52,-111.04 263.11,-110.63 260.54,-104.12"/>
</a>
</g>
</g>
<!-- Node12&#45;&gt;Node7 -->
<g id="edge15_Node000012_Node000007" class="edge">
<title>Node12&#45;&gt;Node7</title>
<g id="a_edge15_Node000012_Node000007"><a xlink:title=" ">
<path fill="none" stroke="#63b8ff" d="M227.25,-100.13C227.25,-91.9 227.25,-82.85 227.25,-76.3"/>
<polygon fill="#63b8ff" stroke="#63b8ff" points="223.75,-100.08 227.25,-110.08 230.75,-100.08 223.75,-100.08"/>
</a>
</g>
</g>
<!-- Node12&#45;&gt;Node13 -->
<g id="edge14_Node000012_Node000013" class="edge">
<title>Node12&#45;&gt;Node13</title>
<g id="a_edge14_Node000012_Node000013"><a xlink:title=" ">
<path fill="none" stroke="#63b8ff" d="M288.29,-110.54C345.86,-100.67 431.41,-86 487.01,-76.47"/>
<polygon fill="#63b8ff" stroke="#63b8ff" points="287.92,-107.05 278.65,-112.19 289.1,-113.95 287.92,-107.05"/>
</a>
</g>
</g>
</g>
</svg>
