<?xml version="1.0" encoding="UTF-8" standalone="no"?>
<!DOCTYPE svg PUBLIC "-//W3C//DTD SVG 1.1//EN"
 "http://www.w3.org/Graphics/SVG/1.1/DTD/svg11.dtd">
<!-- Generated by graphviz version 14.0.2 (20251019.1705)
 -->
<!-- Title: src/Component/AnimationController.h Pages: 1 -->
<svg width="188pt" height="140pt"
 viewBox="0.00 0.00 188.00 140.00" xmlns="http://www.w3.org/2000/svg" xmlns:xlink="http://www.w3.org/1999/xlink">
<g id="graph0" class="graph" transform="scale(1 1) rotate(0) translate(4 136)">
<title>src/Component/AnimationController.h</title>
<!-- Node1 -->
<g id="Node000001" class="node">
<title>Node1</title>
<g id="a_Node000001"><a xlink:title="アニメーション再生管理クラス">
<polygon fill="#999999" stroke="#666666" points="179.5,-132 0,-132 0,-112 179.5,-112 179.5,-132"/>
<text xml:space="preserve" text-anchor="middle" x="89.75" y="-118.5" font-family="Helvetica,sans-Serif" font-size="10.00">src/Component/AnimationController.h</text>
</a>
</g>
</g>
<!-- Node2 -->
<g id="Node000002" class="node">
<title>Node2</title>
<g id="a_Node000002"><a xlink:href="_animation_8h.html" target="_top" xlink:title="アニメーションパターンの定義">
<polygon fill="white" stroke="#666666" points="92.62,-76 24.88,-76 24.88,-56 92.62,-56 92.62,-76"/>
<text xml:space="preserve" text-anchor="middle" x="58.75" y="-62.5" font-family="Helvetica,sans-Serif" font-size="10.00">Animation.h</text>
</a>
</g>
</g>
<!-- Node1&#45;&gt;Node2 -->
<g id="edge1_Node000001_Node000002" class="edge">
<title>Node1&#45;&gt;Node2</title>
<g id="a_edge1_Node000001_Node000002"><a xlink:title=" ">
<path fill="none" stroke="#63b8ff" d="M84.35,-111.59C80.31,-104.55 74.63,-94.67 69.66,-86"/>
<polygon fill="#63b8ff" stroke="#63b8ff" points="72.86,-84.54 64.84,-77.61 66.78,-88.03 72.86,-84.54"/>
</a>
</g>
</g>
<!-- Node3 -->
<g id="Node000003" class="node">
<title>Node3</title>
<g id="a_Node000003"><a xlink:title=" ">
<polygon fill="#e0e0e0" stroke="#999999" points="120.62,-20 58.88,-20 58.88,0 120.62,0 120.62,-20"/>
<text xml:space="preserve" text-anchor="middle" x="89.75" y="-6.5" font-family="Helvetica,sans-Serif" font-size="10.00">Siv3D.hpp</text>
</a>
</g>
</g>
<!-- Node1&#45;&gt;Node3 -->
<g id="edge3_Node000001_Node000003" class="edge">
<title>Node1&#45;&gt;Node3</title>
<g id="a_edge3_Node000001_Node000003"><a xlink:title=" ">
<path fill="none" stroke="#63b8ff" d="M92.95,-111.83C95.91,-102.84 100.09,-88.67 101.75,-76 103.74,-60.82 100.4,-43.82 96.74,-31.01"/>
<polygon fill="#63b8ff" stroke="#63b8ff" points="100.13,-30.12 93.76,-21.65 93.46,-32.24 100.13,-30.12"/>
</a>
</g>
</g>
<!-- Node2&#45;&gt;Node3 -->
<g id="edge2_Node000002_Node000003" class="edge">
<title>Node2&#45;&gt;Node3</title>
<g id="a_edge2_Node000002_Node000003"><a xlink:title=" ">
<path fill="none" stroke="#63b8ff" d="M64.15,-55.59C68.19,-48.55 73.87,-38.67 78.84,-30"/>
<polygon fill="#63b8ff" stroke="#63b8ff" points="81.72,-32.03 83.66,-21.61 75.64,-28.54 81.72,-32.03"/>
</a>
</g>
</g>
</g>
</svg>
