<?xml version="1.0" encoding="UTF-8" standalone="no"?>
<!DOCTYPE svg PUBLIC "-//W3C//DTD SVG 1.1//EN"
 "http://www.w3.org/Graphics/SVG/1.1/DTD/svg11.dtd">
<!-- Generated by graphviz version 14.0.2 (20251019.1705)
 -->
<!-- Title: src/Component/AnimationController.h Pages: 1 -->
<svg width="738pt" height="196pt"
 viewBox="0.00 0.00 738.00 196.00" xmlns="http://www.w3.org/2000/svg" xmlns:xlink="http://www.w3.org/1999/xlink">
<g id="graph0" class="graph" transform="scale(1 1) rotate(0) translate(4 192)">
<title>src/Component/AnimationController.h</title>
<!-- Node1 -->
<g id="Node000001" class="node">
<title>Node1</title>
<g id="a_Node000001"><a xlink:title="アニメーション再生管理クラス">
<polygon fill="#999999" stroke="#666666" points="407.75,-188 228.25,-188 228.25,-168 407.75,-168 407.75,-188"/>
<text xml:space="preserve" text-anchor="middle" x="318" y="-174.5" font-family="Helvetica,sans-Serif" font-size="10.00">src/Component/AnimationController.h</text>
</a>
</g>
</g>
<!-- Node2 -->
<g id="Node000002" class="node">
<title>Node2</title>
<g id="a_Node000002"><a xlink:href="_animation_controller_8cpp.html" target="_top" xlink:title=" ">
<polygon fill="white" stroke="#666666" points="190,-132 0,-132 0,-112 190,-112 190,-132"/>
<text xml:space="preserve" text-anchor="middle" x="95" y="-118.5" font-family="Helvetica,sans-Serif" font-size="10.00">src/Component/AnimationController.cpp</text>
</a>
</g>
</g>
<!-- Node1&#45;&gt;Node2 -->
<g id="edge1_Node000001_Node000002" class="edge">
<title>Node1&#45;&gt;Node2</title>
<g id="a_edge1_Node000001_Node000002"><a xlink:title=" ">
<path fill="none" stroke="#63b8ff" d="M267.93,-164.88C227.45,-155.07 171.26,-141.47 134.05,-132.46"/>
<polygon fill="#63b8ff" stroke="#63b8ff" points="266.89,-168.22 277.43,-167.18 268.53,-161.42 266.89,-168.22"/>
</a>
</g>
</g>
<!-- Node3 -->
<g id="Node000003" class="node">
<title>Node3</title>
<g id="a_Node000003"><a xlink:href="_enemy_8h.html" target="_top" xlink:title="敵クラスの定義">
<polygon fill="white" stroke="#666666" points="309.75,-132 208.25,-132 208.25,-112 309.75,-112 309.75,-132"/>
<text xml:space="preserve" text-anchor="middle" x="259" y="-118.5" font-family="Helvetica,sans-Serif" font-size="10.00">src/Entitie/Enemy.h</text>
</a>
</g>
</g>
<!-- Node1&#45;&gt;Node3 -->
<g id="edge2_Node000001_Node000003" class="edge">
<title>Node1&#45;&gt;Node3</title>
<g id="a_edge2_Node000001_Node000003"><a xlink:title=" ">
<path fill="none" stroke="#63b8ff" d="M299.26,-159.85C289.29,-150.72 277.42,-139.86 269.16,-132.3"/>
<polygon fill="#63b8ff" stroke="#63b8ff" points="296.87,-162.4 306.61,-166.57 301.59,-157.24 296.87,-162.4"/>
</a>
</g>
</g>
<!-- Node9 -->
<g id="Node000009" class="node">
<title>Node9</title>
<g id="a_Node000009"><a xlink:href="_oxygen_spot_8h.html" target="_top" xlink:title="酸素スポットクラスの定義">
<polygon fill="white" stroke="#666666" points="575.75,-132 450.25,-132 450.25,-112 575.75,-112 575.75,-132"/>
<text xml:space="preserve" text-anchor="middle" x="513" y="-118.5" font-family="Helvetica,sans-Serif" font-size="10.00">src/Entitie/OxygenSpot.h</text>
</a>
</g>
</g>
<!-- Node1&#45;&gt;Node9 -->
<g id="edge8_Node000001_Node000009" class="edge">
<title>Node1&#45;&gt;Node9</title>
<g id="a_edge8_Node000001_Node000009"><a xlink:title=" ">
<path fill="none" stroke="#63b8ff" d="M362.92,-164.56C398.2,-154.79 446.58,-141.39 478.77,-132.48"/>
<polygon fill="#63b8ff" stroke="#63b8ff" points="362.13,-161.15 353.43,-167.19 364,-167.89 362.13,-161.15"/>
</a>
</g>
</g>
<!-- Node11 -->
<g id="Node000011" class="node">
<title>Node11</title>
<g id="a_Node000011"><a xlink:href="_player_8h.html" target="_top" xlink:title="プレイヤークラスの定義">
<polygon fill="white" stroke="#666666" points="426.62,-132 327.38,-132 327.38,-112 426.62,-112 426.62,-132"/>
<text xml:space="preserve" text-anchor="middle" x="377" y="-118.5" font-family="Helvetica,sans-Serif" font-size="10.00">src/Entitie/Player.h</text>
</a>
</g>
</g>
<!-- Node1&#45;&gt;Node11 -->
<g id="edge11_Node000001_Node000011" class="edge">
<title>Node1&#45;&gt;Node11</title>
<g id="a_edge11_Node000001_Node000011"><a xlink:title=" ">
<path fill="none" stroke="#63b8ff" d="M336.74,-159.85C346.71,-150.72 358.58,-139.86 366.84,-132.3"/>
<polygon fill="#63b8ff" stroke="#63b8ff" points="334.41,-157.24 329.39,-166.57 339.13,-162.4 334.41,-157.24"/>
</a>
</g>
</g>
<!-- Node4 -->
<g id="Node000004" class="node">
<title>Node4</title>
<g id="a_Node000004"><a xlink:href="_behavior_strategies_8cpp.html" target="_top" xlink:title=" ">
<polygon fill="white" stroke="#666666" points="174.25,-76 27.75,-76 27.75,-56 174.25,-56 174.25,-76"/>
<text xml:space="preserve" text-anchor="middle" x="101" y="-62.5" font-family="Helvetica,sans-Serif" font-size="10.00">src/AI/BehaviorStrategies.cpp</text>
</a>
</g>
</g>
<!-- Node3&#45;&gt;Node4 -->
<g id="edge3_Node000003_Node000004" class="edge">
<title>Node3&#45;&gt;Node4</title>
<g id="a_edge3_Node000003_Node000004"><a xlink:title=" ">
<path fill="none" stroke="#63b8ff" d="M220.73,-107.92C192.33,-98.21 154.25,-85.2 128.74,-76.48"/>
<polygon fill="#63b8ff" stroke="#63b8ff" points="219.45,-111.18 230.05,-111.1 221.72,-104.56 219.45,-111.18"/>
</a>
</g>
</g>
<!-- Node5 -->
<g id="Node000005" class="node">
<title>Node5</title>
<g id="a_Node000005"><a xlink:href="_enemy_8cpp.html" target="_top" xlink:title=" ">
<polygon fill="white" stroke="#666666" points="304,-76 192,-76 192,-56 304,-56 304,-76"/>
<text xml:space="preserve" text-anchor="middle" x="248" y="-62.5" font-family="Helvetica,sans-Serif" font-size="10.00">src/Entitie/Enemy.cpp</text>
</a>
</g>
</g>
<!-- Node3&#45;&gt;Node5 -->
<g id="edge4_Node000003_Node000005" class="edge">
<title>Node3&#45;&gt;Node5</title>
<g id="a_edge4_Node000003_Node000005"><a xlink:title=" ">
<path fill="none" stroke="#63b8ff" d="M254.81,-100.43C253.11,-92.11 251.25,-82.93 249.89,-76.3"/>
<polygon fill="#63b8ff" stroke="#63b8ff" points="251.36,-101.01 256.78,-110.11 258.22,-99.61 251.36,-101.01"/>
</a>
</g>
</g>
<!-- Node6 -->
<g id="Node000006" class="node">
<title>Node6</title>
<g id="a_Node000006"><a xlink:href="_game_scene_8h.html" target="_top" xlink:title="ゲームシーンの定義">
<polygon fill="white" stroke="#666666" points="575.75,-76 450.25,-76 450.25,-56 575.75,-56 575.75,-76"/>
<text xml:space="preserve" text-anchor="middle" x="513" y="-62.5" font-family="Helvetica,sans-Serif" font-size="10.00">src/Scene/GameScene.h</text>
</a>
</g>
</g>
<!-- Node3&#45;&gt;Node6 -->
<g id="edge5_Node000003_Node000006" class="edge">
<title>Node3&#45;&gt;Node6</title>
<g id="a_edge5_Node000003_Node000006"><a xlink:title=" ">
<path fill="none" stroke="#63b8ff" d="M314.56,-109.19C360.77,-99.36 425.69,-85.56 468.52,-76.46"/>
<polygon fill="#63b8ff" stroke="#63b8ff" points="314.07,-105.71 305.01,-111.22 315.52,-112.56 314.07,-105.71"/>
</a>
</g>
</g>
<!-- Node7 -->
<g id="Node000007" class="node">
<title>Node7</title>
<g id="a_Node000007"><a xlink:href="_main_8cpp.html" target="_top" xlink:title=" ">
<polygon fill="white" stroke="#666666" points="488.12,-20 415.88,-20 415.88,0 488.12,0 488.12,-20"/>
<text xml:space="preserve" text-anchor="middle" x="452" y="-6.5" font-family="Helvetica,sans-Serif" font-size="10.00">src/Main.cpp</text>
</a>
</g>
</g>
<!-- Node6&#45;&gt;Node7 -->
<g id="edge6_Node000006_Node000007" class="edge">
<title>Node6&#45;&gt;Node7</title>
<g id="a_edge6_Node000006_Node000007"><a xlink:title=" ">
<path fill="none" stroke="#63b8ff" d="M493.94,-48.13C483.56,-38.94 471.13,-27.93 462.5,-20.3"/>
<polygon fill="#63b8ff" stroke="#63b8ff" points="491.43,-50.58 501.24,-54.59 496.07,-45.34 491.43,-50.58"/>
</a>
</g>
</g>
<!-- Node8 -->
<g id="Node000008" class="node">
<title>Node8</title>
<g id="a_Node000008"><a xlink:href="_game_scene_8cpp.html" target="_top" xlink:title=" ">
<polygon fill="white" stroke="#666666" points="642,-20 506,-20 506,0 642,0 642,-20"/>
<text xml:space="preserve" text-anchor="middle" x="574" y="-6.5" font-family="Helvetica,sans-Serif" font-size="10.00">src/Scene/GameScene.cpp</text>
</a>
</g>
</g>
<!-- Node6&#45;&gt;Node8 -->
<g id="edge7_Node000006_Node000008" class="edge">
<title>Node6&#45;&gt;Node8</title>
<g id="a_edge7_Node000006_Node000008"><a xlink:title=" ">
<path fill="none" stroke="#63b8ff" d="M532.06,-48.13C542.44,-38.94 554.87,-27.93 563.5,-20.3"/>
<polygon fill="#63b8ff" stroke="#63b8ff" points="529.93,-45.34 524.76,-54.59 534.57,-50.58 529.93,-45.34"/>
</a>
</g>
</g>
<!-- Node9&#45;&gt;Node6 -->
<g id="edge10_Node000009_Node000006" class="edge">
<title>Node9&#45;&gt;Node6</title>
<g id="a_edge10_Node000009_Node000006"><a xlink:title=" ">
<path fill="none" stroke="#63b8ff" d="M513,-100.13C513,-91.9 513,-82.85 513,-76.3"/>
<polygon fill="#63b8ff" stroke="#63b8ff" points="509.5,-100.08 513,-110.08 516.5,-100.08 509.5,-100.08"/>
</a>
</g>
</g>
<!-- Node10 -->
<g id="Node000010" class="node">
<title>Node10</title>
<g id="a_Node000010"><a xlink:href="_oxygen_spot_8cpp.html" target="_top" xlink:title=" ">
<polygon fill="white" stroke="#666666" points="730,-76 594,-76 594,-56 730,-56 730,-76"/>
<text xml:space="preserve" text-anchor="middle" x="662" y="-62.5" font-family="Helvetica,sans-Serif" font-size="10.00">src/Entitie/OxygenSpot.cpp</text>
</a>
</g>
</g>
<!-- Node9&#45;&gt;Node10 -->
<g id="edge9_Node000009_Node000010" class="edge">
<title>Node9&#45;&gt;Node10</title>
<g id="a_edge9_Node000009_Node000010"><a xlink:title=" ">
<path fill="none" stroke="#63b8ff" d="M549.45,-107.79C576.19,-98.1 611.89,-85.16 635.84,-76.48"/>
<polygon fill="#63b8ff" stroke="#63b8ff" points="548.59,-104.38 540.38,-111.08 550.97,-110.96 548.59,-104.38"/>
</a>
</g>
</g>
<!-- Node11&#45;&gt;Node5 -->
<g id="edge12_Node000011_Node000005" class="edge">
<title>Node11&#45;&gt;Node5</title>
<g id="a_edge12_Node000011_Node000005"><a xlink:title=" ">
<path fill="none" stroke="#63b8ff" d="M344.2,-107.27C321.19,-97.64 291.02,-85.01 270.65,-76.48"/>
<polygon fill="#63b8ff" stroke="#63b8ff" points="342.56,-110.38 353.13,-111.01 345.26,-103.92 342.56,-110.38"/>
</a>
</g>
</g>
<!-- Node11&#45;&gt;Node6 -->
<g id="edge14_Node000011_Node000006" class="edge">
<title>Node11&#45;&gt;Node6</title>
<g id="a_edge14_Node000011_Node000006"><a xlink:title=" ">
<path fill="none" stroke="#63b8ff" d="M411.25,-107.4C435.55,-97.75 467.55,-85.05 489.13,-76.48"/>
<polygon fill="#63b8ff" stroke="#63b8ff" points="410.1,-104.09 402.1,-111.04 412.68,-110.6 410.1,-104.09"/>
</a>
</g>
</g>
<!-- Node12 -->
<g id="Node000012" class="node">
<title>Node12</title>
<g id="a_Node000012"><a xlink:href="_player_8cpp.html" target="_top" xlink:title=" ">
<polygon fill="white" stroke="#666666" points="431.88,-76 322.12,-76 322.12,-56 431.88,-56 431.88,-76"/>
<text xml:space="preserve" text-anchor="middle" x="377" y="-62.5" font-family="Helvetica,sans-Serif" font-size="10.00">src/Entitie/Player.cpp</text>
</a>
</g>
</g>
<!-- Node11&#45;&gt;Node12 -->
<g id="edge13_Node000011_Node000012" class="edge">
<title>Node11&#45;&gt;Node12</title>
<g id="a_edge13_Node000011_Node000012"><a xlink:title=" ">
<path fill="none" stroke="#63b8ff" d="M377,-100.13C377,-91.9 377,-82.85 377,-76.3"/>
<polygon fill="#63b8ff" stroke="#63b8ff" points="373.5,-100.08 377,-110.08 380.5,-100.08 373.5,-100.08"/>
</a>
</g>
</g>
</g>
</svg>
