<?xml version="1.0" encoding="UTF-8" standalone="no"?>
<!DOCTYPE svg PUBLIC "-//W3C//DTD SVG 1.1//EN"
 "http://www.w3.org/Graphics/SVG/1.1/DTD/svg11.dtd">
<!-- Generated by graphviz version 14.0.2 (20251019.1705)
 -->
<!-- Title: src/Component/AnimationController.cpp Pages: 1 -->
<svg width="198pt" height="196pt"
 viewBox="0.00 0.00 198.00 196.00" xmlns="http://www.w3.org/2000/svg" xmlns:xlink="http://www.w3.org/1999/xlink">
<g id="graph0" class="graph" transform="scale(1 1) rotate(0) translate(4 192)">
<title>src/Component/AnimationController.cpp</title>
<!-- Node1 -->
<g id="Node000001" class="node">
<title>Node1</title>
<g id="a_Node000001"><a xlink:title=" ">
<polygon fill="#999999" stroke="#666666" points="190,-188 0,-188 0,-168 190,-168 190,-188"/>
<text xml:space="preserve" text-anchor="middle" x="95" y="-174.5" font-family="Helvetica,sans-Serif" font-size="10.00">src/Component/AnimationController.cpp</text>
</a>
</g>
</g>
<!-- Node2 -->
<g id="Node000002" class="node">
<title>Node2</title>
<g id="a_Node000002"><a xlink:href="_animation_controller_8h.html" target="_top" xlink:title="アニメーション再生管理クラス">
<polygon fill="white" stroke="#666666" points="149.88,-132 40.12,-132 40.12,-112 149.88,-112 149.88,-132"/>
<text xml:space="preserve" text-anchor="middle" x="95" y="-118.5" font-family="Helvetica,sans-Serif" font-size="10.00">AnimationController.h</text>
</a>
</g>
</g>
<!-- Node1&#45;&gt;Node2 -->
<g id="edge1_Node000001_Node000002" class="edge">
<title>Node1&#45;&gt;Node2</title>
<g id="a_edge1_Node000001_Node000002"><a xlink:title=" ">
<path fill="none" stroke="#63b8ff" d="M95,-167.59C95,-161.01 95,-151.96 95,-143.73"/>
<polygon fill="#63b8ff" stroke="#63b8ff" points="98.5,-143.81 95,-133.81 91.5,-143.81 98.5,-143.81"/>
</a>
</g>
</g>
<!-- Node3 -->
<g id="Node000003" class="node">
<title>Node3</title>
<g id="a_Node000003"><a xlink:href="_animation_8h.html" target="_top" xlink:title="アニメーションパターンの定義">
<polygon fill="white" stroke="#666666" points="97.88,-76 30.12,-76 30.12,-56 97.88,-56 97.88,-76"/>
<text xml:space="preserve" text-anchor="middle" x="64" y="-62.5" font-family="Helvetica,sans-Serif" font-size="10.00">Animation.h</text>
</a>
</g>
</g>
<!-- Node2&#45;&gt;Node3 -->
<g id="edge2_Node000002_Node000003" class="edge">
<title>Node2&#45;&gt;Node3</title>
<g id="a_edge2_Node000002_Node000003"><a xlink:title=" ">
<path fill="none" stroke="#63b8ff" d="M89.6,-111.59C85.56,-104.55 79.88,-94.67 74.91,-86"/>
<polygon fill="#63b8ff" stroke="#63b8ff" points="78.11,-84.54 70.09,-77.61 72.03,-88.03 78.11,-84.54"/>
</a>
</g>
</g>
<!-- Node4 -->
<g id="Node000004" class="node">
<title>Node4</title>
<g id="a_Node000004"><a xlink:title=" ">
<polygon fill="#e0e0e0" stroke="#999999" points="125.88,-20 64.12,-20 64.12,0 125.88,0 125.88,-20"/>
<text xml:space="preserve" text-anchor="middle" x="95" y="-6.5" font-family="Helvetica,sans-Serif" font-size="10.00">Siv3D.hpp</text>
</a>
</g>
</g>
<!-- Node2&#45;&gt;Node4 -->
<g id="edge4_Node000002_Node000004" class="edge">
<title>Node2&#45;&gt;Node4</title>
<g id="a_edge4_Node000002_Node000004"><a xlink:title=" ">
<path fill="none" stroke="#63b8ff" d="M98.2,-111.83C101.16,-102.84 105.34,-88.67 107,-76 108.99,-60.82 105.65,-43.82 101.99,-31.01"/>
<polygon fill="#63b8ff" stroke="#63b8ff" points="105.38,-30.12 99.01,-21.65 98.71,-32.24 105.38,-30.12"/>
</a>
</g>
</g>
<!-- Node3&#45;&gt;Node4 -->
<g id="edge3_Node000003_Node000004" class="edge">
<title>Node3&#45;&gt;Node4</title>
<g id="a_edge3_Node000003_Node000004"><a xlink:title=" ">
<path fill="none" stroke="#63b8ff" d="M69.4,-55.59C73.44,-48.55 79.12,-38.67 84.09,-30"/>
<polygon fill="#63b8ff" stroke="#63b8ff" points="86.97,-32.03 88.91,-21.61 80.89,-28.54 86.97,-32.03"/>
</a>
</g>
</g>
</g>
</svg>
