<?xml version="1.0" encoding="UTF-8" standalone="no"?>
<!DOCTYPE svg PUBLIC "-//W3C//DTD SVG 1.1//EN"
 "http://www.w3.org/Graphics/SVG/1.1/DTD/svg11.dtd">
<!-- Generated by graphviz version 14.0.2 (20251019.1705)
 -->
<!-- Title: src/System/AssetSystem.cpp Pages: 1 -->
<svg width="312pt" height="140pt"
 viewBox="0.00 0.00 312.00 140.00" xmlns="http://www.w3.org/2000/svg" xmlns:xlink="http://www.w3.org/1999/xlink">
<g id="graph0" class="graph" transform="scale(1 1) rotate(0) translate(4 136)">
<title>src/System/AssetSystem.cpp</title>
<!-- Node1 -->
<g id="Node000001" class="node">
<title>Node1</title>
<g id="a_Node000001"><a xlink:title=" ">
<polygon fill="#999999" stroke="#666666" points="171.5,-132 24.25,-132 24.25,-112 171.5,-112 171.5,-132"/>
<text xml:space="preserve" text-anchor="middle" x="97.88" y="-118.5" font-family="Helvetica,sans-Serif" font-size="10.00">src/System/AssetSystem.cpp</text>
</a>
</g>
</g>
<!-- Node2 -->
<g id="Node000002" class="node">
<title>Node2</title>
<g id="a_Node000002"><a xlink:href="_asset_system_8h.html" target="_top" xlink:title="アセット管理システムの定義">
<polygon fill="white" stroke="#666666" points="175.62,-76 92.12,-76 92.12,-56 175.62,-56 175.62,-76"/>
<text xml:space="preserve" text-anchor="middle" x="133.88" y="-62.5" font-family="Helvetica,sans-Serif" font-size="10.00">AssetSystem.h</text>
</a>
</g>
</g>
<!-- Node1&#45;&gt;Node2 -->
<g id="edge1_Node000001_Node000002" class="edge">
<title>Node1&#45;&gt;Node2</title>
<g id="a_edge1_Node000001_Node000002"><a xlink:title=" ">
<path fill="none" stroke="#63b8ff" d="M104.15,-111.59C108.89,-104.47 115.57,-94.45 121.4,-85.72"/>
<polygon fill="#63b8ff" stroke="#63b8ff" points="124.2,-87.82 126.84,-77.56 118.38,-83.94 124.2,-87.82"/>
</a>
</g>
</g>
<!-- Node4 -->
<g id="Node000004" class="node">
<title>Node4</title>
<g id="a_Node000004"><a xlink:title=" ">
<polygon fill="#e0e0e0" stroke="#999999" points="61.75,-20 0,-20 0,0 61.75,0 61.75,-20"/>
<text xml:space="preserve" text-anchor="middle" x="30.88" y="-6.5" font-family="Helvetica,sans-Serif" font-size="10.00">Siv3D.hpp</text>
</a>
</g>
</g>
<!-- Node1&#45;&gt;Node4 -->
<g id="edge7_Node000001_Node000004" class="edge">
<title>Node1&#45;&gt;Node4</title>
<g id="a_edge7_Node000001_Node000004"><a xlink:title=" ">
<path fill="none" stroke="#63b8ff" d="M92.16,-111.62C81.19,-93.6 56.95,-53.81 42.46,-30.02"/>
<polygon fill="#63b8ff" stroke="#63b8ff" points="45.55,-28.37 37.36,-21.65 39.57,-32.01 45.55,-28.37"/>
</a>
</g>
</g>
<!-- Node3 -->
<g id="Node000003" class="node">
<title>Node3</title>
<g id="a_Node000003"><a xlink:title=" ">
<polygon fill="#e0e0e0" stroke="#999999" points="125.5,-20 80.25,-20 80.25,0 125.5,0 125.5,-20"/>
<text xml:space="preserve" text-anchor="middle" x="102.88" y="-6.5" font-family="Helvetica,sans-Serif" font-size="10.00">chrono</text>
</a>
</g>
</g>
<!-- Node2&#45;&gt;Node3 -->
<g id="edge2_Node000002_Node000003" class="edge">
<title>Node2&#45;&gt;Node3</title>
<g id="a_edge2_Node000002_Node000003"><a xlink:title=" ">
<path fill="none" stroke="#63b8ff" d="M128.48,-55.59C124.43,-48.55 118.76,-38.67 113.78,-30"/>
<polygon fill="#63b8ff" stroke="#63b8ff" points="116.98,-28.54 108.97,-21.61 110.91,-32.03 116.98,-28.54"/>
</a>
</g>
</g>
<!-- Node2&#45;&gt;Node4 -->
<g id="edge3_Node000002_Node000004" class="edge">
<title>Node2&#45;&gt;Node4</title>
<g id="a_edge3_Node000002_Node000004"><a xlink:title=" ">
<path fill="none" stroke="#63b8ff" d="M115.93,-55.59C100.23,-47.36 77.14,-35.26 58.99,-25.74"/>
<polygon fill="#63b8ff" stroke="#63b8ff" points="60.78,-22.73 50.3,-21.18 57.53,-28.93 60.78,-22.73"/>
</a>
</g>
</g>
<!-- Node5 -->
<g id="Node000005" class="node">
<title>Node5</title>
<g id="a_Node000005"><a xlink:title=" ">
<polygon fill="#e0e0e0" stroke="#999999" points="186.38,-20 143.38,-20 143.38,0 186.38,0 186.38,-20"/>
<text xml:space="preserve" text-anchor="middle" x="164.88" y="-6.5" font-family="Helvetica,sans-Serif" font-size="10.00">thread</text>
</a>
</g>
</g>
<!-- Node2&#45;&gt;Node5 -->
<g id="edge4_Node000002_Node000005" class="edge">
<title>Node2&#45;&gt;Node5</title>
<g id="a_edge4_Node000002_Node000005"><a xlink:title=" ">
<path fill="none" stroke="#63b8ff" d="M139.27,-55.59C143.32,-48.55 148.99,-38.67 153.97,-30"/>
<polygon fill="#63b8ff" stroke="#63b8ff" points="156.84,-32.03 158.78,-21.61 150.77,-28.54 156.84,-32.03"/>
</a>
</g>
</g>
<!-- Node6 -->
<g id="Node000006" class="node">
<title>Node6</title>
<g id="a_Node000006"><a xlink:title=" ">
<polygon fill="#e0e0e0" stroke="#999999" points="243.5,-20 204.25,-20 204.25,0 243.5,0 243.5,-20"/>
<text xml:space="preserve" text-anchor="middle" x="223.88" y="-6.5" font-family="Helvetica,sans-Serif" font-size="10.00">utility</text>
</a>
</g>
</g>
<!-- Node2&#45;&gt;Node6 -->
<g id="edge5_Node000002_Node000006" class="edge">
<title>Node2&#45;&gt;Node6</title>
<g id="a_edge5_Node000002_Node000006"><a xlink:title=" ">
<path fill="none" stroke="#63b8ff" d="M149.55,-55.59C163.02,-47.51 182.69,-35.71 198.42,-26.27"/>
<polygon fill="#63b8ff" stroke="#63b8ff" points="200,-29.4 206.78,-21.26 196.4,-23.4 200,-29.4"/>
</a>
</g>
</g>
<!-- Node7 -->
<g id="Node000007" class="node">
<title>Node7</title>
<g id="a_Node000007"><a xlink:title=" ">
<polygon fill="#e0e0e0" stroke="#999999" points="304.38,-20 261.38,-20 261.38,0 304.38,0 304.38,-20"/>
<text xml:space="preserve" text-anchor="middle" x="282.88" y="-6.5" font-family="Helvetica,sans-Serif" font-size="10.00">vector</text>
</a>
</g>
</g>
<!-- Node2&#45;&gt;Node7 -->
<g id="edge6_Node000002_Node000007" class="edge">
<title>Node2&#45;&gt;Node7</title>
<g id="a_edge6_Node000002_Node000007"><a xlink:title=" ">
<path fill="none" stroke="#63b8ff" d="M159.83,-55.59C185.04,-46.46 223.38,-32.56 250.56,-22.71"/>
<polygon fill="#63b8ff" stroke="#63b8ff" points="251.46,-26.11 259.67,-19.41 249.07,-19.53 251.46,-26.11"/>
</a>
</g>
</g>
</g>
</svg>
