<?xml version="1.0" encoding="UTF-8" standalone="no"?>
<!DOCTYPE svg PUBLIC "-//W3C//DTD SVG 1.1//EN"
 "http://www.w3.org/Graphics/SVG/1.1/DTD/svg11.dtd">
<!-- Generated by graphviz version 14.0.2 (20251019.1705)
 -->
<!-- Title: src/System/AssetSystem.h Pages: 1 -->
<svg width="312pt" height="84pt"
 viewBox="0.00 0.00 312.00 84.00" xmlns="http://www.w3.org/2000/svg" xmlns:xlink="http://www.w3.org/1999/xlink">
<g id="graph0" class="graph" transform="scale(1 1) rotate(0) translate(4 80)">
<title>src/System/AssetSystem.h</title>
<!-- Node1 -->
<g id="Node000001" class="node">
<title>Node1</title>
<g id="a_Node000001"><a xlink:title="アセット管理システムの定義">
<polygon fill="#999999" stroke="#666666" points="233,-76 96.25,-76 96.25,-56 233,-56 233,-76"/>
<text xml:space="preserve" text-anchor="middle" x="164.62" y="-62.5" font-family="Helvetica,sans-Serif" font-size="10.00">src/System/AssetSystem.h</text>
</a>
</g>
</g>
<!-- Node2 -->
<g id="Node000002" class="node">
<title>Node2</title>
<g id="a_Node000002"><a xlink:title=" ">
<polygon fill="#e0e0e0" stroke="#999999" points="45.25,-20 0,-20 0,0 45.25,0 45.25,-20"/>
<text xml:space="preserve" text-anchor="middle" x="22.62" y="-6.5" font-family="Helvetica,sans-Serif" font-size="10.00">chrono</text>
</a>
</g>
</g>
<!-- Node1&#45;&gt;Node2 -->
<g id="edge1_Node000001_Node000002" class="edge">
<title>Node1&#45;&gt;Node2</title>
<g id="a_edge1_Node000001_Node000002"><a xlink:title=" ">
<path fill="none" stroke="#63b8ff" d="M139.89,-55.59C116.77,-46.8 82.06,-33.6 56.4,-23.84"/>
<polygon fill="#63b8ff" stroke="#63b8ff" points="57.67,-20.58 47.08,-20.3 55.18,-27.13 57.67,-20.58"/>
</a>
</g>
</g>
<!-- Node3 -->
<g id="Node000003" class="node">
<title>Node3</title>
<g id="a_Node000003"><a xlink:title=" ">
<polygon fill="#e0e0e0" stroke="#999999" points="125.5,-20 63.75,-20 63.75,0 125.5,0 125.5,-20"/>
<text xml:space="preserve" text-anchor="middle" x="94.62" y="-6.5" font-family="Helvetica,sans-Serif" font-size="10.00">Siv3D.hpp</text>
</a>
</g>
</g>
<!-- Node1&#45;&gt;Node3 -->
<g id="edge2_Node000001_Node000003" class="edge">
<title>Node1&#45;&gt;Node3</title>
<g id="a_edge2_Node000001_Node000003"><a xlink:title=" ">
<path fill="none" stroke="#63b8ff" d="M152.43,-55.59C142.29,-47.77 127.63,-36.46 115.61,-27.19"/>
<polygon fill="#63b8ff" stroke="#63b8ff" points="117.93,-24.56 107.88,-21.22 113.66,-30.1 117.93,-24.56"/>
</a>
</g>
</g>
<!-- Node4 -->
<g id="Node000004" class="node">
<title>Node4</title>
<g id="a_Node000004"><a xlink:title=" ">
<polygon fill="#e0e0e0" stroke="#999999" points="186.12,-20 143.12,-20 143.12,0 186.12,0 186.12,-20"/>
<text xml:space="preserve" text-anchor="middle" x="164.62" y="-6.5" font-family="Helvetica,sans-Serif" font-size="10.00">thread</text>
</a>
</g>
</g>
<!-- Node1&#45;&gt;Node4 -->
<g id="edge3_Node000001_Node000004" class="edge">
<title>Node1&#45;&gt;Node4</title>
<g id="a_edge3_Node000001_Node000004"><a xlink:title=" ">
<path fill="none" stroke="#63b8ff" d="M164.62,-55.59C164.62,-49.01 164.62,-39.96 164.62,-31.73"/>
<polygon fill="#63b8ff" stroke="#63b8ff" points="168.13,-31.81 164.63,-21.81 161.13,-31.81 168.13,-31.81"/>
</a>
</g>
</g>
<!-- Node5 -->
<g id="Node000005" class="node">
<title>Node5</title>
<g id="a_Node000005"><a xlink:title=" ">
<polygon fill="#e0e0e0" stroke="#999999" points="243.25,-20 204,-20 204,0 243.25,0 243.25,-20"/>
<text xml:space="preserve" text-anchor="middle" x="223.62" y="-6.5" font-family="Helvetica,sans-Serif" font-size="10.00">utility</text>
</a>
</g>
</g>
<!-- Node1&#45;&gt;Node5 -->
<g id="edge4_Node000001_Node000005" class="edge">
<title>Node1&#45;&gt;Node5</title>
<g id="a_edge4_Node000001_Node000005"><a xlink:title=" ">
<path fill="none" stroke="#63b8ff" d="M174.9,-55.59C183.19,-48.01 195.07,-37.13 205.03,-28.02"/>
<polygon fill="#63b8ff" stroke="#63b8ff" points="207.34,-30.65 212.35,-21.32 202.61,-25.49 207.34,-30.65"/>
</a>
</g>
</g>
<!-- Node6 -->
<g id="Node000006" class="node">
<title>Node6</title>
<g id="a_Node000006"><a xlink:title=" ">
<polygon fill="#e0e0e0" stroke="#999999" points="304.12,-20 261.12,-20 261.12,0 304.12,0 304.12,-20"/>
<text xml:space="preserve" text-anchor="middle" x="282.62" y="-6.5" font-family="Helvetica,sans-Serif" font-size="10.00">vector</text>
</a>
</g>
</g>
<!-- Node1&#45;&gt;Node6 -->
<g id="edge5_Node000001_Node000006" class="edge">
<title>Node1&#45;&gt;Node6</title>
<g id="a_edge5_Node000001_Node000006"><a xlink:title=" ">
<path fill="none" stroke="#63b8ff" d="M185.18,-55.59C203.51,-47.21 230.61,-34.8 251.58,-25.21"/>
<polygon fill="#63b8ff" stroke="#63b8ff" points="252.9,-28.45 260.53,-21.11 249.98,-22.09 252.9,-28.45"/>
</a>
</g>
</g>
</g>
</svg>
