<?xml version="1.0" encoding="UTF-8" standalone="no"?>
<!DOCTYPE svg PUBLIC "-//W3C//DTD SVG 1.1//EN"
 "http://www.w3.org/Graphics/SVG/1.1/DTD/svg11.dtd">
<!-- Generated by graphviz version 14.0.2 (20251019.1705)
 -->
<!-- Title: src/AI/BehaviorStrategies.cpp Pages: 1 -->
<svg width="671pt" height="252pt"
 viewBox="0.00 0.00 671.00 252.00" xmlns="http://www.w3.org/2000/svg" xmlns:xlink="http://www.w3.org/1999/xlink">
<g id="graph0" class="graph" transform="scale(1 1) rotate(0) translate(4 248)">
<title>src/AI/BehaviorStrategies.cpp</title>
<!-- Node1 -->
<g id="Node000001" class="node">
<title>Node1</title>
<g id="a_Node000001"><a xlink:title=" ">
<polygon fill="#999999" stroke="#666666" points="457.88,-244 311.38,-244 311.38,-224 457.88,-224 457.88,-244"/>
<text xml:space="preserve" text-anchor="middle" x="384.62" y="-230.5" font-family="Helvetica,sans-Serif" font-size="10.00">src/AI/BehaviorStrategies.cpp</text>
</a>
</g>
</g>
<!-- Node2 -->
<g id="Node000002" class="node">
<title>Node2</title>
<g id="a_Node000002"><a xlink:href="_enemy_8h.html" target="_top" xlink:title="敵クラスの定義">
<polygon fill="white" stroke="#666666" points="394.62,-188 300.62,-188 300.62,-168 394.62,-168 394.62,-188"/>
<text xml:space="preserve" text-anchor="middle" x="347.62" y="-174.5" font-family="Helvetica,sans-Serif" font-size="10.00">../Entitie/Enemy.h</text>
</a>
</g>
</g>
<!-- Node1&#45;&gt;Node2 -->
<g id="edge1_Node000001_Node000002" class="edge">
<title>Node1&#45;&gt;Node2</title>
<g id="a_edge1_Node000001_Node000002"><a xlink:title=" ">
<path fill="none" stroke="#63b8ff" d="M378.18,-223.59C373.3,-216.47 366.43,-206.45 360.45,-197.72"/>
<polygon fill="#63b8ff" stroke="#63b8ff" points="363.39,-195.82 354.85,-189.55 357.62,-199.77 363.39,-195.82"/>
</a>
</g>
</g>
<!-- Node9 -->
<g id="Node000009" class="node">
<title>Node9</title>
<g id="a_Node000009"><a xlink:href="_stage_8h.html" target="_top" xlink:title="ステージ管理の定義">
<polygon fill="white" stroke="#666666" points="662.88,-132 576.38,-132 576.38,-112 662.88,-112 662.88,-132"/>
<text xml:space="preserve" text-anchor="middle" x="619.62" y="-118.5" font-family="Helvetica,sans-Serif" font-size="10.00">../World/Stage.h</text>
</a>
</g>
</g>
<!-- Node1&#45;&gt;Node9 -->
<g id="edge16_Node000001_Node000009" class="edge">
<title>Node1&#45;&gt;Node9</title>
<g id="a_edge16_Node000001_Node000009"><a xlink:title=" ">
<path fill="none" stroke="#63b8ff" d="M390.16,-223.89C399.28,-209.7 418.84,-182.44 442.62,-168 463.07,-155.59 520.89,-142.18 564.93,-133.25"/>
<polygon fill="#63b8ff" stroke="#63b8ff" points="565.48,-136.71 574.6,-131.33 564.11,-129.85 565.48,-136.71"/>
</a>
</g>
</g>
<!-- Node12 -->
<g id="Node000012" class="node">
<title>Node12</title>
<g id="a_Node000012"><a xlink:href="_behavior_strategies_8h.html" target="_top" xlink:title="敵の行動戦略具象クラスの定義">
<polygon fill="white" stroke="#666666" points="240,-188 133.25,-188 133.25,-168 240,-168 240,-188"/>
<text xml:space="preserve" text-anchor="middle" x="186.62" y="-174.5" font-family="Helvetica,sans-Serif" font-size="10.00">BehaviorStrategies.h</text>
</a>
</g>
</g>
<!-- Node1&#45;&gt;Node12 -->
<g id="edge17_Node000001_Node000012" class="edge">
<title>Node1&#45;&gt;Node12</title>
<g id="a_edge17_Node000001_Node000012"><a xlink:title=" ">
<path fill="none" stroke="#63b8ff" d="M350.14,-223.59C317.4,-214.67 268,-201.19 232.07,-191.39"/>
<polygon fill="#63b8ff" stroke="#63b8ff" points="233.41,-188.13 222.84,-188.88 231.57,-194.89 233.41,-188.13"/>
</a>
</g>
</g>
<!-- Node13 -->
<g id="Node000013" class="node">
<title>Node13</title>
<g id="a_Node000013"><a xlink:title=" ">
<polygon fill="#e0e0e0" stroke="#999999" points="494.12,-188 451.12,-188 451.12,-168 494.12,-168 494.12,-188"/>
<text xml:space="preserve" text-anchor="middle" x="472.62" y="-174.5" font-family="Helvetica,sans-Serif" font-size="10.00">cmath</text>
</a>
</g>
</g>
<!-- Node1&#45;&gt;Node13 -->
<g id="edge19_Node000001_Node000013" class="edge">
<title>Node1&#45;&gt;Node13</title>
<g id="a_edge19_Node000001_Node000013"><a xlink:title=" ">
<path fill="none" stroke="#63b8ff" d="M399.95,-223.59C413.12,-215.51 432.36,-203.71 447.73,-194.27"/>
<polygon fill="#63b8ff" stroke="#63b8ff" points="449.19,-197.48 455.89,-189.27 445.53,-191.52 449.19,-197.48"/>
</a>
</g>
</g>
<!-- Node3 -->
<g id="Node000003" class="node">
<title>Node3</title>
<g id="a_Node000003"><a xlink:href="_i_behavior_strategy_8h.html" target="_top" xlink:title="敵の行動戦略インターフェースの定義">
<polygon fill="white" stroke="#666666" points="123.25,-132 0,-132 0,-112 123.25,-112 123.25,-132"/>
<text xml:space="preserve" text-anchor="middle" x="61.62" y="-118.5" font-family="Helvetica,sans-Serif" font-size="10.00">../AI/IBehaviorStrategy.h</text>
</a>
</g>
</g>
<!-- Node2&#45;&gt;Node3 -->
<g id="edge2_Node000002_Node000003" class="edge">
<title>Node2&#45;&gt;Node3</title>
<g id="a_edge2_Node000002_Node000003"><a xlink:title=" ">
<path fill="none" stroke="#63b8ff" d="M300.4,-168.08C251.92,-158.93 176.25,-144.64 123.12,-134.61"/>
<polygon fill="#63b8ff" stroke="#63b8ff" points="123.77,-131.17 113.3,-132.76 122.47,-138.05 123.77,-131.17"/>
</a>
</g>
</g>
<!-- Node4 -->
<g id="Node000004" class="node">
<title>Node4</title>
<g id="a_Node000004"><a xlink:href="_animation_controller_8h.html" target="_top" xlink:title="アニメーション再生管理クラス">
<polygon fill="white" stroke="#666666" points="351.62,-132 179.62,-132 179.62,-112 351.62,-112 351.62,-132"/>
<text xml:space="preserve" text-anchor="middle" x="265.62" y="-118.5" font-family="Helvetica,sans-Serif" font-size="10.00">../Component/AnimationController.h</text>
</a>
</g>
</g>
<!-- Node2&#45;&gt;Node4 -->
<g id="edge3_Node000002_Node000004" class="edge">
<title>Node2&#45;&gt;Node4</title>
<g id="a_edge3_Node000002_Node000004"><a xlink:title=" ">
<path fill="none" stroke="#63b8ff" d="M333.34,-167.59C321.19,-159.59 303.49,-147.93 289.23,-138.54"/>
<polygon fill="#63b8ff" stroke="#63b8ff" points="291.56,-135.89 281.28,-133.31 287.71,-141.73 291.56,-135.89"/>
</a>
</g>
</g>
<!-- Node6 -->
<g id="Node000006" class="node">
<title>Node6</title>
<g id="a_Node000006"><a xlink:title=" ">
<polygon fill="#e0e0e0" stroke="#999999" points="389.5,-20 327.75,-20 327.75,0 389.5,0 389.5,-20"/>
<text xml:space="preserve" text-anchor="middle" x="358.62" y="-6.5" font-family="Helvetica,sans-Serif" font-size="10.00">Siv3D.hpp</text>
</a>
</g>
</g>
<!-- Node2&#45;&gt;Node6 -->
<g id="edge15_Node000002_Node000006" class="edge">
<title>Node2&#45;&gt;Node6</title>
<g id="a_edge15_Node000002_Node000006"><a xlink:title=" ">
<path fill="none" stroke="#63b8ff" d="M300.37,-171.52C253.49,-164.99 186.44,-152.34 170.62,-132 125.82,-74.38 248.26,-36.13 316.43,-19.87"/>
<polygon fill="#63b8ff" stroke="#63b8ff" points="316.85,-23.37 325.8,-17.71 315.27,-16.55 316.85,-23.37"/>
</a>
</g>
</g>
<!-- Node7 -->
<g id="Node000007" class="node">
<title>Node7</title>
<g id="a_Node000007"><a xlink:href="_collider_8h.html" target="_top" xlink:title="衝突判定用のコンポーネント定義">
<polygon fill="white" stroke="#666666" points="489.38,-132 369.88,-132 369.88,-112 489.38,-112 489.38,-132"/>
<text xml:space="preserve" text-anchor="middle" x="429.62" y="-118.5" font-family="Helvetica,sans-Serif" font-size="10.00">../Component/Collider.h</text>
</a>
</g>
</g>
<!-- Node2&#45;&gt;Node7 -->
<g id="edge7_Node000002_Node000007" class="edge">
<title>Node2&#45;&gt;Node7</title>
<g id="a_edge7_Node000002_Node000007"><a xlink:title=" ">
<path fill="none" stroke="#63b8ff" d="M361.91,-167.59C374.06,-159.59 391.76,-147.93 406.02,-138.54"/>
<polygon fill="#63b8ff" stroke="#63b8ff" points="407.54,-141.73 413.97,-133.31 403.69,-135.89 407.54,-141.73"/>
</a>
</g>
</g>
<!-- Node2&#45;&gt;Node9 -->
<g id="edge10_Node000002_Node000009" class="edge">
<title>Node2&#45;&gt;Node9</title>
<g id="a_edge10_Node000002_Node000009"><a xlink:title=" ">
<path fill="none" stroke="#63b8ff" d="M395,-167.59C442.31,-158.2 514.95,-143.78 564.74,-133.9"/>
<polygon fill="#63b8ff" stroke="#63b8ff" points="565.32,-137.35 574.45,-131.97 563.96,-130.48 565.32,-137.35"/>
</a>
</g>
</g>
<!-- Node11 -->
<g id="Node000011" class="node">
<title>Node11</title>
<g id="a_Node000011"><a xlink:title=" ">
<polygon fill="#e0e0e0" stroke="#999999" points="558.25,-132 507,-132 507,-112 558.25,-112 558.25,-132"/>
<text xml:space="preserve" text-anchor="middle" x="532.62" y="-118.5" font-family="Helvetica,sans-Serif" font-size="10.00">memory</text>
</a>
</g>
</g>
<!-- Node2&#45;&gt;Node11 -->
<g id="edge14_Node000002_Node000011" class="edge">
<title>Node2&#45;&gt;Node11</title>
<g id="a_edge14_Node000002_Node000011"><a xlink:title=" ">
<path fill="none" stroke="#63b8ff" d="M379.85,-167.59C412.22,-158.15 462.02,-143.61 495.9,-133.72"/>
<polygon fill="#63b8ff" stroke="#63b8ff" points="496.66,-137.14 505.28,-130.98 494.7,-130.42 496.66,-137.14"/>
</a>
</g>
</g>
<!-- Node5 -->
<g id="Node000005" class="node">
<title>Node5</title>
<g id="a_Node000005"><a xlink:href="_animation_8h.html" target="_top" xlink:title="アニメーションパターンの定義">
<polygon fill="white" stroke="#666666" points="361.5,-76 293.75,-76 293.75,-56 361.5,-56 361.5,-76"/>
<text xml:space="preserve" text-anchor="middle" x="327.62" y="-62.5" font-family="Helvetica,sans-Serif" font-size="10.00">Animation.h</text>
</a>
</g>
</g>
<!-- Node4&#45;&gt;Node5 -->
<g id="edge4_Node000004_Node000005" class="edge">
<title>Node4&#45;&gt;Node5</title>
<g id="a_edge4_Node000004_Node000005"><a xlink:title=" ">
<path fill="none" stroke="#63b8ff" d="M276.42,-111.59C285.23,-103.93 297.88,-92.91 308.4,-83.75"/>
<polygon fill="#63b8ff" stroke="#63b8ff" points="310.57,-86.5 315.81,-77.29 305.97,-81.22 310.57,-86.5"/>
</a>
</g>
</g>
<!-- Node4&#45;&gt;Node6 -->
<g id="edge6_Node000004_Node000006" class="edge">
<title>Node4&#45;&gt;Node6</title>
<g id="a_edge6_Node000004_Node000006"><a xlink:title=" ">
<path fill="none" stroke="#63b8ff" d="M266.25,-111.65C267.58,-98.1 271.74,-72.79 284.62,-56 294.69,-42.88 309.76,-32.73 323.68,-25.42"/>
<polygon fill="#63b8ff" stroke="#63b8ff" points="325.19,-28.57 332.64,-21.04 322.12,-22.28 325.19,-28.57"/>
</a>
</g>
</g>
<!-- Node5&#45;&gt;Node6 -->
<g id="edge5_Node000005_Node000006" class="edge">
<title>Node5&#45;&gt;Node6</title>
<g id="a_edge5_Node000005_Node000006"><a xlink:title=" ">
<path fill="none" stroke="#63b8ff" d="M333.02,-55.59C337.07,-48.55 342.74,-38.67 347.72,-30"/>
<polygon fill="#63b8ff" stroke="#63b8ff" points="350.59,-32.03 352.53,-21.61 344.52,-28.54 350.59,-32.03"/>
</a>
</g>
</g>
<!-- Node7&#45;&gt;Node6 -->
<g id="edge8_Node000007_Node000006" class="edge">
<title>Node7&#45;&gt;Node6</title>
<g id="a_edge8_Node000007_Node000006"><a xlink:title=" ">
<path fill="none" stroke="#63b8ff" d="M423.57,-111.62C411.94,-93.6 386.26,-53.81 370.9,-30.02"/>
<polygon fill="#63b8ff" stroke="#63b8ff" points="373.85,-28.13 365.48,-21.63 367.97,-31.93 373.85,-28.13"/>
</a>
</g>
</g>
<!-- Node8 -->
<g id="Node000008" class="node">
<title>Node8</title>
<g id="a_Node000008"><a xlink:title=" ">
<polygon fill="#e0e0e0" stroke="#999999" points="463.25,-76 418,-76 418,-56 463.25,-56 463.25,-76"/>
<text xml:space="preserve" text-anchor="middle" x="440.62" y="-62.5" font-family="Helvetica,sans-Serif" font-size="10.00">variant</text>
</a>
</g>
</g>
<!-- Node7&#45;&gt;Node8 -->
<g id="edge9_Node000007_Node000008" class="edge">
<title>Node7&#45;&gt;Node8</title>
<g id="a_edge9_Node000007_Node000008"><a xlink:title=" ">
<path fill="none" stroke="#63b8ff" d="M431.54,-111.59C432.9,-104.93 434.77,-95.75 436.46,-87.44"/>
<polygon fill="#63b8ff" stroke="#63b8ff" points="439.86,-88.28 438.43,-77.78 433,-86.88 439.86,-88.28"/>
</a>
</g>
</g>
<!-- Node9&#45;&gt;Node6 -->
<g id="edge13_Node000009_Node000006" class="edge">
<title>Node9&#45;&gt;Node6</title>
<g id="a_edge13_Node000009_Node000006"><a xlink:title=" ">
<path fill="none" stroke="#63b8ff" d="M599.29,-111.7C571.02,-98.84 518.19,-75.06 472.62,-56 446.31,-44.99 416.29,-33.17 393.67,-24.41"/>
<polygon fill="#63b8ff" stroke="#63b8ff" points="395.2,-21.25 384.61,-20.92 392.68,-27.78 395.2,-21.25"/>
</a>
</g>
</g>
<!-- Node10 -->
<g id="Node000010" class="node">
<title>Node10</title>
<g id="a_Node000010"><a xlink:href="_spawn_info_8h.html" target="_top" xlink:title="スポーン情報の定義">
<polygon fill="white" stroke="#666666" points="638,-76 567.25,-76 567.25,-56 638,-56 638,-76"/>
<text xml:space="preserve" text-anchor="middle" x="602.62" y="-62.5" font-family="Helvetica,sans-Serif" font-size="10.00">SpawnInfo.h</text>
</a>
</g>
</g>
<!-- Node9&#45;&gt;Node10 -->
<g id="edge11_Node000009_Node000010" class="edge">
<title>Node9&#45;&gt;Node10</title>
<g id="a_edge11_Node000009_Node000010"><a xlink:title=" ">
<path fill="none" stroke="#63b8ff" d="M616.66,-111.59C614.54,-104.86 611.61,-95.53 608.97,-87.15"/>
<polygon fill="#63b8ff" stroke="#63b8ff" points="612.35,-86.23 606.01,-77.74 605.67,-88.33 612.35,-86.23"/>
</a>
</g>
</g>
<!-- Node10&#45;&gt;Node6 -->
<g id="edge12_Node000010_Node000006" class="edge">
<title>Node10&#45;&gt;Node6</title>
<g id="a_edge12_Node000010_Node000006"><a xlink:title=" ">
<path fill="none" stroke="#63b8ff" d="M566.88,-57.09C522.74,-47.32 447.74,-30.72 400.82,-20.34"/>
<polygon fill="#63b8ff" stroke="#63b8ff" points="401.81,-16.97 391.29,-18.23 400.3,-23.81 401.81,-16.97"/>
</a>
</g>
</g>
<!-- Node12&#45;&gt;Node3 -->
<g id="edge18_Node000012_Node000003" class="edge">
<title>Node12&#45;&gt;Node3</title>
<g id="a_edge18_Node000012_Node000003"><a xlink:title=" ">
<path fill="none" stroke="#63b8ff" d="M164.85,-167.59C145.26,-159.13 116.2,-146.58 93.9,-136.94"/>
<polygon fill="#63b8ff" stroke="#63b8ff" points="95.53,-133.83 84.96,-133.08 92.75,-140.26 95.53,-133.83"/>
</a>
</g>
</g>
</g>
</svg>
