<?xml version="1.0" encoding="UTF-8" standalone="no"?>
<!DOCTYPE svg PUBLIC "-//W3C//DTD SVG 1.1//EN"
 "http://www.w3.org/Graphics/SVG/1.1/DTD/svg11.dtd">
<!-- Generated by graphviz version 14.0.2 (20251019.1705)
 -->
<!-- Title: src/System/CameraSystem.cpp Pages: 1 -->
<svg width="238pt" height="140pt"
 viewBox="0.00 0.00 238.00 140.00" xmlns="http://www.w3.org/2000/svg" xmlns:xlink="http://www.w3.org/1999/xlink">
<g id="graph0" class="graph" transform="scale(1 1) rotate(0) translate(4 136)">
<title>src/System/CameraSystem.cpp</title>
<!-- Node1 -->
<g id="Node000001" class="node">
<title>Node1</title>
<g id="a_Node000001"><a xlink:title=" ">
<polygon fill="#999999" stroke="#666666" points="188.12,-132 31.88,-132 31.88,-112 188.12,-112 188.12,-132"/>
<text xml:space="preserve" text-anchor="middle" x="110" y="-118.5" font-family="Helvetica,sans-Serif" font-size="10.00">src/System/CameraSystem.cpp</text>
</a>
</g>
</g>
<!-- Node2 -->
<g id="Node000002" class="node">
<title>Node2</title>
<g id="a_Node000002"><a xlink:href="_utility_8h.html" target="_top" xlink:title="ユーティリティ関数の定義">
<polygon fill="white" stroke="#666666" points="82,-76 0,-76 0,-56 82,-56 82,-76"/>
<text xml:space="preserve" text-anchor="middle" x="41" y="-62.5" font-family="Helvetica,sans-Serif" font-size="10.00">../Core/Utility.h</text>
</a>
</g>
</g>
<!-- Node1&#45;&gt;Node2 -->
<g id="edge1_Node000001_Node000002" class="edge">
<title>Node1&#45;&gt;Node2</title>
<g id="a_edge1_Node000001_Node000002"><a xlink:title=" ">
<path fill="none" stroke="#63b8ff" d="M97.98,-111.59C87.99,-103.77 73.54,-92.46 61.69,-83.19"/>
<polygon fill="#63b8ff" stroke="#63b8ff" points="64.11,-80.64 54.07,-77.23 59.79,-86.15 64.11,-80.64"/>
</a>
</g>
</g>
<!-- Node4 -->
<g id="Node000004" class="node">
<title>Node4</title>
<g id="a_Node000004"><a xlink:title=" ">
<polygon fill="#e0e0e0" stroke="#999999" points="141.88,-20 80.12,-20 80.12,0 141.88,0 141.88,-20"/>
<text xml:space="preserve" text-anchor="middle" x="111" y="-6.5" font-family="Helvetica,sans-Serif" font-size="10.00">Siv3D.hpp</text>
</a>
</g>
</g>
<!-- Node1&#45;&gt;Node4 -->
<g id="edge6_Node000001_Node000004" class="edge">
<title>Node1&#45;&gt;Node4</title>
<g id="a_edge6_Node000001_Node000004"><a xlink:title=" ">
<path fill="none" stroke="#63b8ff" d="M110.09,-111.62C110.25,-94.01 110.59,-55.59 110.81,-31.65"/>
<polygon fill="#63b8ff" stroke="#63b8ff" points="114.31,-31.9 110.9,-21.87 107.31,-31.84 114.31,-31.9"/>
</a>
</g>
</g>
<!-- Node5 -->
<g id="Node000005" class="node">
<title>Node5</title>
<g id="a_Node000005"><a xlink:href="_camera_system_8h.html" target="_top" xlink:title="カメラ管理システムの定義">
<polygon fill="white" stroke="#666666" points="230.25,-76 137.75,-76 137.75,-56 230.25,-56 230.25,-76"/>
<text xml:space="preserve" text-anchor="middle" x="184" y="-62.5" font-family="Helvetica,sans-Serif" font-size="10.00">CameraSystem.h</text>
</a>
</g>
</g>
<!-- Node1&#45;&gt;Node5 -->
<g id="edge4_Node000001_Node000005" class="edge">
<title>Node1&#45;&gt;Node5</title>
<g id="a_edge4_Node000001_Node000005"><a xlink:title=" ">
<path fill="none" stroke="#63b8ff" d="M122.89,-111.59C133.71,-103.7 149.41,-92.24 162.19,-82.92"/>
<polygon fill="#63b8ff" stroke="#63b8ff" points="164.02,-85.91 170.04,-77.19 159.89,-80.26 164.02,-85.91"/>
</a>
</g>
</g>
<!-- Node3 -->
<g id="Node000003" class="node">
<title>Node3</title>
<g id="a_Node000003"><a xlink:title=" ">
<polygon fill="#e0e0e0" stroke="#999999" points="62.5,-20 19.5,-20 19.5,0 62.5,0 62.5,-20"/>
<text xml:space="preserve" text-anchor="middle" x="41" y="-6.5" font-family="Helvetica,sans-Serif" font-size="10.00">cmath</text>
</a>
</g>
</g>
<!-- Node2&#45;&gt;Node3 -->
<g id="edge2_Node000002_Node000003" class="edge">
<title>Node2&#45;&gt;Node3</title>
<g id="a_edge2_Node000002_Node000003"><a xlink:title=" ">
<path fill="none" stroke="#63b8ff" d="M41,-55.59C41,-49.01 41,-39.96 41,-31.73"/>
<polygon fill="#63b8ff" stroke="#63b8ff" points="44.5,-31.81 41,-21.81 37.5,-31.81 44.5,-31.81"/>
</a>
</g>
</g>
<!-- Node2&#45;&gt;Node4 -->
<g id="edge3_Node000002_Node000004" class="edge">
<title>Node2&#45;&gt;Node4</title>
<g id="a_edge3_Node000002_Node000004"><a xlink:title=" ">
<path fill="none" stroke="#63b8ff" d="M53.19,-55.59C63.33,-47.77 77.99,-36.46 90.01,-27.19"/>
<polygon fill="#63b8ff" stroke="#63b8ff" points="91.97,-30.1 97.75,-21.22 87.69,-24.56 91.97,-30.1"/>
</a>
</g>
</g>
<!-- Node5&#45;&gt;Node4 -->
<g id="edge5_Node000005_Node000004" class="edge">
<title>Node5&#45;&gt;Node4</title>
<g id="a_edge5_Node000005_Node000004"><a xlink:title=" ">
<path fill="none" stroke="#63b8ff" d="M171.28,-55.59C160.61,-47.7 145.12,-36.24 132.52,-26.92"/>
<polygon fill="#63b8ff" stroke="#63b8ff" points="134.91,-24.33 124.79,-21.2 130.74,-29.96 134.91,-24.33"/>
</a>
</g>
</g>
</g>
</svg>
