<?xml version="1.0" encoding="UTF-8" standalone="no"?>
<!DOCTYPE svg PUBLIC "-//W3C//DTD SVG 1.1//EN"
 "http://www.w3.org/Graphics/SVG/1.1/DTD/svg11.dtd">
<!-- Generated by graphviz version 14.0.2 (20251019.1705)
 -->
<!-- Title: src/System/CameraSystem.h Pages: 1 -->
<svg width="342pt" height="140pt"
 viewBox="0.00 0.00 342.00 140.00" xmlns="http://www.w3.org/2000/svg" xmlns:xlink="http://www.w3.org/1999/xlink">
<g id="graph0" class="graph" transform="scale(1 1) rotate(0) translate(4 136)">
<title>src/System/CameraSystem.h</title>
<!-- Node1 -->
<g id="Node000001" class="node">
<title>Node1</title>
<g id="a_Node000001"><a xlink:title="カメラ管理システムの定義">
<polygon fill="#999999" stroke="#666666" points="249,-132 103.25,-132 103.25,-112 249,-112 249,-132"/>
<text xml:space="preserve" text-anchor="middle" x="176.12" y="-118.5" font-family="Helvetica,sans-Serif" font-size="10.00">src/System/CameraSystem.h</text>
</a>
</g>
</g>
<!-- Node2 -->
<g id="Node000002" class="node">
<title>Node2</title>
<g id="a_Node000002"><a xlink:href="_game_scene_8h.html" target="_top" xlink:title="ゲームシーンの定義">
<polygon fill="white" stroke="#666666" points="159.88,-76 34.38,-76 34.38,-56 159.88,-56 159.88,-76"/>
<text xml:space="preserve" text-anchor="middle" x="97.12" y="-62.5" font-family="Helvetica,sans-Serif" font-size="10.00">src/Scene/GameScene.h</text>
</a>
</g>
</g>
<!-- Node1&#45;&gt;Node2 -->
<g id="edge1_Node000001_Node000002" class="edge">
<title>Node1&#45;&gt;Node2</title>
<g id="a_edge1_Node000001_Node000002"><a xlink:title=" ">
<path fill="none" stroke="#63b8ff" d="M153.11,-105.27C139.47,-95.94 122.62,-84.43 110.99,-76.48"/>
<polygon fill="#63b8ff" stroke="#63b8ff" points="150.88,-107.99 161.11,-110.74 154.83,-102.21 150.88,-107.99"/>
</a>
</g>
</g>
<!-- Node5 -->
<g id="Node000005" class="node">
<title>Node5</title>
<g id="a_Node000005"><a xlink:href="_camera_system_8cpp.html" target="_top" xlink:title=" ">
<polygon fill="white" stroke="#666666" points="334.25,-76 178,-76 178,-56 334.25,-56 334.25,-76"/>
<text xml:space="preserve" text-anchor="middle" x="256.12" y="-62.5" font-family="Helvetica,sans-Serif" font-size="10.00">src/System/CameraSystem.cpp</text>
</a>
</g>
</g>
<!-- Node1&#45;&gt;Node5 -->
<g id="edge4_Node000001_Node000005" class="edge">
<title>Node1&#45;&gt;Node5</title>
<g id="a_edge4_Node000001_Node000005"><a xlink:title=" ">
<path fill="none" stroke="#63b8ff" d="M199.43,-105.27C213.25,-95.94 230.31,-84.43 242.08,-76.48"/>
<polygon fill="#63b8ff" stroke="#63b8ff" points="197.64,-102.25 191.31,-110.75 201.56,-108.05 197.64,-102.25"/>
</a>
</g>
</g>
<!-- Node3 -->
<g id="Node000003" class="node">
<title>Node3</title>
<g id="a_Node000003"><a xlink:href="_main_8cpp.html" target="_top" xlink:title=" ">
<polygon fill="white" stroke="#666666" points="72.25,-20 0,-20 0,0 72.25,0 72.25,-20"/>
<text xml:space="preserve" text-anchor="middle" x="36.12" y="-6.5" font-family="Helvetica,sans-Serif" font-size="10.00">src/Main.cpp</text>
</a>
</g>
</g>
<!-- Node2&#45;&gt;Node3 -->
<g id="edge2_Node000002_Node000003" class="edge">
<title>Node2&#45;&gt;Node3</title>
<g id="a_edge2_Node000002_Node000003"><a xlink:title=" ">
<path fill="none" stroke="#63b8ff" d="M78.06,-48.13C67.69,-38.94 55.25,-27.93 46.63,-20.3"/>
<polygon fill="#63b8ff" stroke="#63b8ff" points="75.56,-50.58 85.37,-54.59 80.2,-45.34 75.56,-50.58"/>
</a>
</g>
</g>
<!-- Node4 -->
<g id="Node000004" class="node">
<title>Node4</title>
<g id="a_Node000004"><a xlink:href="_game_scene_8cpp.html" target="_top" xlink:title=" ">
<polygon fill="white" stroke="#666666" points="226.12,-20 90.12,-20 90.12,0 226.12,0 226.12,-20"/>
<text xml:space="preserve" text-anchor="middle" x="158.12" y="-6.5" font-family="Helvetica,sans-Serif" font-size="10.00">src/Scene/GameScene.cpp</text>
</a>
</g>
</g>
<!-- Node2&#45;&gt;Node4 -->
<g id="edge3_Node000002_Node000004" class="edge">
<title>Node2&#45;&gt;Node4</title>
<g id="a_edge3_Node000002_Node000004"><a xlink:title=" ">
<path fill="none" stroke="#63b8ff" d="M116.19,-48.13C126.56,-38.94 139,-27.93 147.62,-20.3"/>
<polygon fill="#63b8ff" stroke="#63b8ff" points="114.05,-45.34 108.88,-54.59 118.69,-50.58 114.05,-45.34"/>
</a>
</g>
</g>
</g>
</svg>
