<?xml version="1.0" encoding="UTF-8" standalone="no"?>
<!DOCTYPE svg PUBLIC "-//W3C//DTD SVG 1.1//EN"
 "http://www.w3.org/Graphics/SVG/1.1/DTD/svg11.dtd">
<!-- Generated by graphviz version 14.0.2 (20251019.1705)
 -->
<!-- Title: src/Component/Collider.h Pages: 1 -->
<svg width="888pt" height="196pt"
 viewBox="0.00 0.00 888.00 196.00" xmlns="http://www.w3.org/2000/svg" xmlns:xlink="http://www.w3.org/1999/xlink">
<g id="graph0" class="graph" transform="scale(1 1) rotate(0) translate(4 192)">
<title>src/Component/Collider.h</title>
<!-- Node1 -->
<g id="Node000001" class="node">
<title>Node1</title>
<g id="a_Node000001"><a xlink:title="衝突判定用のコンポーネント定義">
<polygon fill="#999999" stroke="#666666" points="478.75,-188 351.75,-188 351.75,-168 478.75,-168 478.75,-188"/>
<text xml:space="preserve" text-anchor="middle" x="415.25" y="-174.5" font-family="Helvetica,sans-Serif" font-size="10.00">src/Component/Collider.h</text>
</a>
</g>
</g>
<!-- Node2 -->
<g id="Node000002" class="node">
<title>Node2</title>
<g id="a_Node000002"><a xlink:href="_enemy_8h.html" target="_top" xlink:title="敵クラスの定義">
<polygon fill="white" stroke="#666666" points="278,-132 176.5,-132 176.5,-112 278,-112 278,-132"/>
<text xml:space="preserve" text-anchor="middle" x="227.25" y="-118.5" font-family="Helvetica,sans-Serif" font-size="10.00">src/Entitie/Enemy.h</text>
</a>
</g>
</g>
<!-- Node1&#45;&gt;Node2 -->
<g id="edge1_Node000001_Node000002" class="edge">
<title>Node1&#45;&gt;Node2</title>
<g id="a_edge1_Node000001_Node000002"><a xlink:title=" ">
<path fill="none" stroke="#63b8ff" d="M371.5,-164.43C337.52,-154.67 291.15,-141.35 260.25,-132.48"/>
<polygon fill="#63b8ff" stroke="#63b8ff" points="370.47,-167.78 381.05,-167.18 372.4,-161.05 370.47,-167.78"/>
</a>
</g>
</g>
<!-- Node8 -->
<g id="Node000008" class="node">
<title>Node8</title>
<g id="a_Node000008"><a xlink:href="_oxygen_spot_8h.html" target="_top" xlink:title="酸素スポットクラスの定義">
<polygon fill="white" stroke="#666666" points="546,-132 420.5,-132 420.5,-112 546,-112 546,-132"/>
<text xml:space="preserve" text-anchor="middle" x="483.25" y="-118.5" font-family="Helvetica,sans-Serif" font-size="10.00">src/Entitie/OxygenSpot.h</text>
</a>
</g>
</g>
<!-- Node1&#45;&gt;Node8 -->
<g id="edge7_Node000001_Node000008" class="edge">
<title>Node1&#45;&gt;Node8</title>
<g id="a_edge7_Node000001_Node000008"><a xlink:title=" ">
<path fill="none" stroke="#63b8ff" d="M435.8,-160.68C447.5,-151.39 461.73,-140.09 471.54,-132.3"/>
<polygon fill="#63b8ff" stroke="#63b8ff" points="433.93,-157.69 428.28,-166.65 438.29,-163.17 433.93,-157.69"/>
</a>
</g>
</g>
<!-- Node10 -->
<g id="Node000010" class="node">
<title>Node10</title>
<g id="a_Node000010"><a xlink:href="_player_8h.html" target="_top" xlink:title="プレイヤークラスの定義">
<polygon fill="white" stroke="#666666" points="399.88,-132 300.62,-132 300.62,-112 399.88,-112 399.88,-132"/>
<text xml:space="preserve" text-anchor="middle" x="350.25" y="-118.5" font-family="Helvetica,sans-Serif" font-size="10.00">src/Entitie/Player.h</text>
</a>
</g>
</g>
<!-- Node1&#45;&gt;Node10 -->
<g id="edge10_Node000001_Node000010" class="edge">
<title>Node1&#45;&gt;Node10</title>
<g id="a_edge10_Node000001_Node000010"><a xlink:title=" ">
<path fill="none" stroke="#63b8ff" d="M395.27,-160.4C384.15,-151.17 370.72,-140.01 361.44,-132.3"/>
<polygon fill="#63b8ff" stroke="#63b8ff" points="392.84,-162.93 402.76,-166.63 397.31,-157.54 392.84,-162.93"/>
</a>
</g>
</g>
<!-- Node12 -->
<g id="Node000012" class="node">
<title>Node12</title>
<g id="a_Node000012"><a xlink:href="_collision_system_8h.html" target="_top" xlink:title="衝突判定システムの定義">
<polygon fill="white" stroke="#666666" points="712.62,-132 563.88,-132 563.88,-112 712.62,-112 712.62,-132"/>
<text xml:space="preserve" text-anchor="middle" x="638.25" y="-118.5" font-family="Helvetica,sans-Serif" font-size="10.00">src/System/CollisionSystem.h</text>
</a>
</g>
</g>
<!-- Node1&#45;&gt;Node12 -->
<g id="edge14_Node000001_Node000012" class="edge">
<title>Node1&#45;&gt;Node12</title>
<g id="a_edge14_Node000001_Node000012"><a xlink:title=" ">
<path fill="none" stroke="#63b8ff" d="M465.32,-164.88C505.8,-155.07 561.99,-141.47 599.2,-132.46"/>
<polygon fill="#63b8ff" stroke="#63b8ff" points="464.72,-161.42 455.82,-167.18 466.36,-168.22 464.72,-161.42"/>
</a>
</g>
</g>
<!-- Node3 -->
<g id="Node000003" class="node">
<title>Node3</title>
<g id="a_Node000003"><a xlink:href="_behavior_strategies_8cpp.html" target="_top" xlink:title=" ">
<polygon fill="white" stroke="#666666" points="146.5,-76 0,-76 0,-56 146.5,-56 146.5,-76"/>
<text xml:space="preserve" text-anchor="middle" x="73.25" y="-62.5" font-family="Helvetica,sans-Serif" font-size="10.00">src/AI/BehaviorStrategies.cpp</text>
</a>
</g>
</g>
<!-- Node2&#45;&gt;Node3 -->
<g id="edge2_Node000002_Node000003" class="edge">
<title>Node2&#45;&gt;Node3</title>
<g id="a_edge2_Node000002_Node000003"><a xlink:title=" ">
<path fill="none" stroke="#63b8ff" d="M189.58,-107.79C161.94,-98.1 125.04,-85.16 100.28,-76.48"/>
<polygon fill="#63b8ff" stroke="#63b8ff" points="188.4,-111.09 199,-111.09 190.72,-104.48 188.4,-111.09"/>
</a>
</g>
</g>
<!-- Node4 -->
<g id="Node000004" class="node">
<title>Node4</title>
<g id="a_Node000004"><a xlink:href="_enemy_8cpp.html" target="_top" xlink:title=" ">
<polygon fill="white" stroke="#666666" points="276.25,-76 164.25,-76 164.25,-56 276.25,-56 276.25,-76"/>
<text xml:space="preserve" text-anchor="middle" x="220.25" y="-62.5" font-family="Helvetica,sans-Serif" font-size="10.00">src/Entitie/Enemy.cpp</text>
</a>
</g>
</g>
<!-- Node2&#45;&gt;Node4 -->
<g id="edge3_Node000002_Node000004" class="edge">
<title>Node2&#45;&gt;Node4</title>
<g id="a_edge3_Node000002_Node000004"><a xlink:title=" ">
<path fill="none" stroke="#63b8ff" d="M224.58,-100.43C223.5,-92.11 222.32,-82.93 221.46,-76.3"/>
<polygon fill="#63b8ff" stroke="#63b8ff" points="221.08,-100.63 225.84,-110.09 228.02,-99.73 221.08,-100.63"/>
</a>
</g>
</g>
<!-- Node5 -->
<g id="Node000005" class="node">
<title>Node5</title>
<g id="a_Node000005"><a xlink:href="_game_scene_8h.html" target="_top" xlink:title="ゲームシーンの定義">
<polygon fill="white" stroke="#666666" points="548,-76 422.5,-76 422.5,-56 548,-56 548,-76"/>
<text xml:space="preserve" text-anchor="middle" x="485.25" y="-62.5" font-family="Helvetica,sans-Serif" font-size="10.00">src/Scene/GameScene.h</text>
</a>
</g>
</g>
<!-- Node2&#45;&gt;Node5 -->
<g id="edge4_Node000002_Node000005" class="edge">
<title>Node2&#45;&gt;Node5</title>
<g id="a_edge4_Node000002_Node000005"><a xlink:title=" ">
<path fill="none" stroke="#63b8ff" d="M283.69,-109.19C330.62,-99.36 396.56,-85.56 440.07,-76.46"/>
<polygon fill="#63b8ff" stroke="#63b8ff" points="283.04,-105.75 273.97,-111.22 284.47,-112.6 283.04,-105.75"/>
</a>
</g>
</g>
<!-- Node6 -->
<g id="Node000006" class="node">
<title>Node6</title>
<g id="a_Node000006"><a xlink:href="_main_8cpp.html" target="_top" xlink:title=" ">
<polygon fill="white" stroke="#666666" points="460.38,-20 388.12,-20 388.12,0 460.38,0 460.38,-20"/>
<text xml:space="preserve" text-anchor="middle" x="424.25" y="-6.5" font-family="Helvetica,sans-Serif" font-size="10.00">src/Main.cpp</text>
</a>
</g>
</g>
<!-- Node5&#45;&gt;Node6 -->
<g id="edge5_Node000005_Node000006" class="edge">
<title>Node5&#45;&gt;Node6</title>
<g id="a_edge5_Node000005_Node000006"><a xlink:title=" ">
<path fill="none" stroke="#63b8ff" d="M466.19,-48.13C455.81,-38.94 443.38,-27.93 434.75,-20.3"/>
<polygon fill="#63b8ff" stroke="#63b8ff" points="463.68,-50.58 473.49,-54.59 468.32,-45.34 463.68,-50.58"/>
</a>
</g>
</g>
<!-- Node7 -->
<g id="Node000007" class="node">
<title>Node7</title>
<g id="a_Node000007"><a xlink:href="_game_scene_8cpp.html" target="_top" xlink:title=" ">
<polygon fill="white" stroke="#666666" points="614.25,-20 478.25,-20 478.25,0 614.25,0 614.25,-20"/>
<text xml:space="preserve" text-anchor="middle" x="546.25" y="-6.5" font-family="Helvetica,sans-Serif" font-size="10.00">src/Scene/GameScene.cpp</text>
</a>
</g>
</g>
<!-- Node5&#45;&gt;Node7 -->
<g id="edge6_Node000005_Node000007" class="edge">
<title>Node5&#45;&gt;Node7</title>
<g id="a_edge6_Node000005_Node000007"><a xlink:title=" ">
<path fill="none" stroke="#63b8ff" d="M504.31,-48.13C514.69,-38.94 527.12,-27.93 535.75,-20.3"/>
<polygon fill="#63b8ff" stroke="#63b8ff" points="502.18,-45.34 497.01,-54.59 506.82,-50.58 502.18,-45.34"/>
</a>
</g>
</g>
<!-- Node8&#45;&gt;Node5 -->
<g id="edge9_Node000008_Node000005" class="edge">
<title>Node8&#45;&gt;Node5</title>
<g id="a_edge9_Node000008_Node000005"><a xlink:title=" ">
<path fill="none" stroke="#63b8ff" d="M484.02,-100.13C484.33,-91.9 484.66,-82.85 484.91,-76.3"/>
<polygon fill="#63b8ff" stroke="#63b8ff" points="480.53,-99.96 483.65,-110.08 487.52,-100.22 480.53,-99.96"/>
</a>
</g>
</g>
<!-- Node9 -->
<g id="Node000009" class="node">
<title>Node9</title>
<g id="a_Node000009"><a xlink:href="_oxygen_spot_8cpp.html" target="_top" xlink:title=" ">
<polygon fill="white" stroke="#666666" points="702.25,-76 566.25,-76 566.25,-56 702.25,-56 702.25,-76"/>
<text xml:space="preserve" text-anchor="middle" x="634.25" y="-62.5" font-family="Helvetica,sans-Serif" font-size="10.00">src/Entitie/OxygenSpot.cpp</text>
</a>
</g>
</g>
<!-- Node8&#45;&gt;Node9 -->
<g id="edge8_Node000008_Node000009" class="edge">
<title>Node8&#45;&gt;Node9</title>
<g id="a_edge8_Node000008_Node000009"><a xlink:title=" ">
<path fill="none" stroke="#63b8ff" d="M520.19,-107.79C547.29,-98.1 583.46,-85.16 607.74,-76.48"/>
<polygon fill="#63b8ff" stroke="#63b8ff" points="519.21,-104.42 510.98,-111.08 521.57,-111.01 519.21,-104.42"/>
</a>
</g>
</g>
<!-- Node10&#45;&gt;Node4 -->
<g id="edge11_Node000010_Node000004" class="edge">
<title>Node10&#45;&gt;Node4</title>
<g id="a_edge11_Node000010_Node000004"><a xlink:title=" ">
<path fill="none" stroke="#63b8ff" d="M317.2,-107.27C294.01,-97.64 263.6,-85.01 243.07,-76.48"/>
<polygon fill="#63b8ff" stroke="#63b8ff" points="315.63,-110.41 326.21,-111.01 318.32,-103.94 315.63,-110.41"/>
</a>
</g>
</g>
<!-- Node10&#45;&gt;Node5 -->
<g id="edge13_Node000010_Node000005" class="edge">
<title>Node10&#45;&gt;Node5</title>
<g id="a_edge13_Node000010_Node000005"><a xlink:title=" ">
<path fill="none" stroke="#63b8ff" d="M384.25,-107.4C408.37,-97.75 440.14,-85.05 461.55,-76.48"/>
<polygon fill="#63b8ff" stroke="#63b8ff" points="383.16,-104.07 375.17,-111.03 385.76,-110.57 383.16,-104.07"/>
</a>
</g>
</g>
<!-- Node11 -->
<g id="Node000011" class="node">
<title>Node11</title>
<g id="a_Node000011"><a xlink:href="_player_8cpp.html" target="_top" xlink:title=" ">
<polygon fill="white" stroke="#666666" points="404.12,-76 294.38,-76 294.38,-56 404.12,-56 404.12,-76"/>
<text xml:space="preserve" text-anchor="middle" x="349.25" y="-62.5" font-family="Helvetica,sans-Serif" font-size="10.00">src/Entitie/Player.cpp</text>
</a>
</g>
</g>
<!-- Node10&#45;&gt;Node11 -->
<g id="edge12_Node000010_Node000011" class="edge">
<title>Node10&#45;&gt;Node11</title>
<g id="a_edge12_Node000010_Node000011"><a xlink:title=" ">
<path fill="none" stroke="#63b8ff" d="M349.86,-100.13C349.71,-91.9 349.54,-82.85 349.42,-76.3"/>
<polygon fill="#63b8ff" stroke="#63b8ff" points="346.36,-100.15 350.05,-110.08 353.36,-100.02 346.36,-100.15"/>
</a>
</g>
</g>
<!-- Node12&#45;&gt;Node5 -->
<g id="edge15_Node000012_Node000005" class="edge">
<title>Node12&#45;&gt;Node5</title>
<g id="a_edge15_Node000012_Node000005"><a xlink:title=" ">
<path fill="none" stroke="#63b8ff" d="M600.83,-107.79C573.36,-98.1 536.71,-85.16 512.11,-76.48"/>
<polygon fill="#63b8ff" stroke="#63b8ff" points="599.58,-111.06 610.17,-111.09 601.91,-104.46 599.58,-111.06"/>
</a>
</g>
</g>
<!-- Node13 -->
<g id="Node000013" class="node">
<title>Node13</title>
<g id="a_Node000013"><a xlink:href="_collision_system_8cpp.html" target="_top" xlink:title=" ">
<polygon fill="white" stroke="#666666" points="879.88,-76 720.62,-76 720.62,-56 879.88,-56 879.88,-76"/>
<text xml:space="preserve" text-anchor="middle" x="800.25" y="-62.5" font-family="Helvetica,sans-Serif" font-size="10.00">src/System/CollisionSystem.cpp</text>
</a>
</g>
</g>
<!-- Node12&#45;&gt;Node13 -->
<g id="edge16_Node000012_Node000013" class="edge">
<title>Node12&#45;&gt;Node13</title>
<g id="a_edge16_Node000012_Node000013"><a xlink:title=" ">
<path fill="none" stroke="#63b8ff" d="M677.1,-108.05C706.27,-98.33 745.53,-85.24 771.81,-76.48"/>
<polygon fill="#63b8ff" stroke="#63b8ff" points="676.28,-104.63 667.9,-111.12 678.5,-111.27 676.28,-104.63"/>
</a>
</g>
</g>
</g>
</svg>
