<?xml version="1.0" encoding="UTF-8" standalone="no"?>
<!DOCTYPE svg PUBLIC "-//W3C//DTD SVG 1.1//EN"
 "http://www.w3.org/Graphics/SVG/1.1/DTD/svg11.dtd">
<!-- Generated by graphviz version 14.0.2 (20251019.1705)
 -->
<!-- Title: src/System/CollisionSystem.cpp Pages: 1 -->
<svg width="304pt" height="196pt"
 viewBox="0.00 0.00 304.00 196.00" xmlns="http://www.w3.org/2000/svg" xmlns:xlink="http://www.w3.org/1999/xlink">
<g id="graph0" class="graph" transform="scale(1 1) rotate(0) translate(4 192)">
<title>src/System/CollisionSystem.cpp</title>
<!-- Node1 -->
<g id="Node000001" class="node">
<title>Node1</title>
<g id="a_Node000001"><a xlink:title=" ">
<polygon fill="#999999" stroke="#666666" points="241.32,-188 82.07,-188 82.07,-168 241.32,-168 241.32,-188"/>
<text xml:space="preserve" text-anchor="middle" x="161.7" y="-174.5" font-family="Helvetica,sans-Serif" font-size="10.00">src/System/CollisionSystem.cpp</text>
</a>
</g>
</g>
<!-- Node2 -->
<g id="Node000002" class="node">
<title>Node2</title>
<g id="a_Node000002"><a xlink:href="_collision_system_8h.html" target="_top" xlink:title="衝突判定システムの定義">
<polygon fill="white" stroke="#666666" points="209.45,-132 113.95,-132 113.95,-112 209.45,-112 209.45,-132"/>
<text xml:space="preserve" text-anchor="middle" x="161.7" y="-118.5" font-family="Helvetica,sans-Serif" font-size="10.00">CollisionSystem.h</text>
</a>
</g>
</g>
<!-- Node1&#45;&gt;Node2 -->
<g id="edge1_Node000001_Node000002" class="edge">
<title>Node1&#45;&gt;Node2</title>
<g id="a_edge1_Node000001_Node000002"><a xlink:title=" ">
<path fill="none" stroke="#63b8ff" d="M161.7,-167.59C161.7,-161.01 161.7,-151.96 161.7,-143.73"/>
<polygon fill="#63b8ff" stroke="#63b8ff" points="165.2,-143.81 161.7,-133.81 158.2,-143.81 165.2,-143.81"/>
</a>
</g>
</g>
<!-- Node3 -->
<g id="Node000003" class="node">
<title>Node3</title>
<g id="a_Node000003"><a xlink:href="_collider_8h.html" target="_top" xlink:title="衝突判定用のコンポーネント定義">
<polygon fill="white" stroke="#666666" points="133.45,-76 13.95,-76 13.95,-56 133.45,-56 133.45,-76"/>
<text xml:space="preserve" text-anchor="middle" x="73.7" y="-62.5" font-family="Helvetica,sans-Serif" font-size="10.00">../Component/Collider.h</text>
</a>
</g>
</g>
<!-- Node2&#45;&gt;Node3 -->
<g id="edge2_Node000002_Node000003" class="edge">
<title>Node2&#45;&gt;Node3</title>
<g id="a_edge2_Node000002_Node000003"><a xlink:title=" ">
<path fill="none" stroke="#63b8ff" d="M146.37,-111.59C133.2,-103.51 113.96,-91.71 98.59,-82.27"/>
<polygon fill="#63b8ff" stroke="#63b8ff" points="100.79,-79.52 90.44,-77.27 97.13,-85.48 100.79,-79.52"/>
</a>
</g>
</g>
<!-- Node4 -->
<g id="Node000004" class="node">
<title>Node4</title>
<g id="a_Node000004"><a xlink:title=" ">
<polygon fill="#e0e0e0" stroke="#999999" points="64.57,-20 2.82,-20 2.82,0 64.57,0 64.57,-20"/>
<text xml:space="preserve" text-anchor="middle" x="33.7" y="-6.5" font-family="Helvetica,sans-Serif" font-size="10.00">Siv3D.hpp</text>
</a>
</g>
</g>
<!-- Node2&#45;&gt;Node4 -->
<g id="edge6_Node000002_Node000004" class="edge">
<title>Node2&#45;&gt;Node4</title>
<g id="a_edge6_Node000002_Node000004"><a xlink:title=" ">
<path fill="none" stroke="#63b8ff" d="M113.84,-113.71C72.69,-106.34 17.92,-93.55 4.7,-76 -6.28,-61.43 5.05,-42.04 16.61,-28.24"/>
<polygon fill="#63b8ff" stroke="#63b8ff" points="18.87,-30.97 22.99,-21.21 13.68,-26.26 18.87,-30.97"/>
</a>
</g>
</g>
<!-- Node5 -->
<g id="Node000005" class="node">
<title>Node5</title>
<g id="a_Node000005"><a xlink:title=" ">
<polygon fill="#e0e0e0" stroke="#999999" points="136.32,-20 91.07,-20 91.07,0 136.32,0 136.32,-20"/>
<text xml:space="preserve" text-anchor="middle" x="113.7" y="-6.5" font-family="Helvetica,sans-Serif" font-size="10.00">variant</text>
</a>
</g>
</g>
<!-- Node2&#45;&gt;Node5 -->
<g id="edge7_Node000002_Node000005" class="edge">
<title>Node2&#45;&gt;Node5</title>
<g id="a_edge7_Node000002_Node000005"><a xlink:title=" ">
<path fill="none" stroke="#63b8ff" d="M159.9,-111.88C157.18,-99.02 151.39,-75.04 142.7,-56 138.51,-46.83 132.66,-37.35 127.32,-29.47"/>
<polygon fill="#63b8ff" stroke="#63b8ff" points="130.26,-27.58 121.63,-21.43 124.55,-31.62 130.26,-27.58"/>
</a>
</g>
</g>
<!-- Node6 -->
<g id="Node000006" class="node">
<title>Node6</title>
<g id="a_Node000006"><a xlink:title=" ">
<polygon fill="#e0e0e0" stroke="#999999" points="235.32,-76 190.07,-76 190.07,-56 235.32,-56 235.32,-76"/>
<text xml:space="preserve" text-anchor="middle" x="212.7" y="-62.5" font-family="Helvetica,sans-Serif" font-size="10.00">cstdint</text>
</a>
</g>
</g>
<!-- Node2&#45;&gt;Node6 -->
<g id="edge5_Node000002_Node000006" class="edge">
<title>Node2&#45;&gt;Node6</title>
<g id="a_edge5_Node000002_Node000006"><a xlink:title=" ">
<path fill="none" stroke="#63b8ff" d="M170.58,-111.59C177.6,-104.16 187.6,-93.58 196.09,-84.58"/>
<polygon fill="#63b8ff" stroke="#63b8ff" points="198.56,-87.07 202.88,-77.4 193.47,-82.27 198.56,-87.07"/>
</a>
</g>
</g>
<!-- Node7 -->
<g id="Node000007" class="node">
<title>Node7</title>
<g id="a_Node000007"><a xlink:title=" ">
<polygon fill="#e0e0e0" stroke="#999999" points="296.2,-76 253.2,-76 253.2,-56 296.2,-56 296.2,-76"/>
<text xml:space="preserve" text-anchor="middle" x="274.7" y="-62.5" font-family="Helvetica,sans-Serif" font-size="10.00">vector</text>
</a>
</g>
</g>
<!-- Node2&#45;&gt;Node7 -->
<g id="edge8_Node000002_Node000007" class="edge">
<title>Node2&#45;&gt;Node7</title>
<g id="a_edge8_Node000002_Node000007"><a xlink:title=" ">
<path fill="none" stroke="#63b8ff" d="M181.38,-111.59C198.85,-103.24 224.65,-90.92 244.69,-81.34"/>
<polygon fill="#63b8ff" stroke="#63b8ff" points="245.98,-84.6 253.5,-77.13 242.96,-78.29 245.98,-84.6"/>
</a>
</g>
</g>
<!-- Node3&#45;&gt;Node4 -->
<g id="edge3_Node000003_Node000004" class="edge">
<title>Node3&#45;&gt;Node4</title>
<g id="a_edge3_Node000003_Node000004"><a xlink:title=" ">
<path fill="none" stroke="#63b8ff" d="M66.73,-55.59C61.4,-48.39 53.87,-38.23 47.35,-29.43"/>
<polygon fill="#63b8ff" stroke="#63b8ff" points="50.25,-27.47 41.49,-21.51 44.63,-31.63 50.25,-27.47"/>
</a>
</g>
</g>
<!-- Node3&#45;&gt;Node5 -->
<g id="edge4_Node000003_Node000005" class="edge">
<title>Node3&#45;&gt;Node5</title>
<g id="a_edge4_Node000003_Node000005"><a xlink:title=" ">
<path fill="none" stroke="#63b8ff" d="M80.67,-55.59C86,-48.39 93.52,-38.23 100.05,-29.43"/>
<polygon fill="#63b8ff" stroke="#63b8ff" points="102.77,-31.63 105.91,-21.51 97.14,-27.47 102.77,-31.63"/>
</a>
</g>
</g>
</g>
</svg>
