<?xml version="1.0" encoding="UTF-8" standalone="no"?>
<!DOCTYPE svg PUBLIC "-//W3C//DTD SVG 1.1//EN"
 "http://www.w3.org/Graphics/SVG/1.1/DTD/svg11.dtd">
<!-- Generated by graphviz version 14.0.2 (20251019.1705)
 -->
<!-- Title: src/Core/Config.h Pages: 1 -->
<svg width="503pt" height="140pt"
 viewBox="0.00 0.00 503.00 140.00" xmlns="http://www.w3.org/2000/svg" xmlns:xlink="http://www.w3.org/1999/xlink">
<g id="graph0" class="graph" transform="scale(1 1) rotate(0) translate(4 136)">
<title>src/Core/Config.h</title>
<!-- Node1 -->
<g id="Node000001" class="node">
<title>Node1</title>
<g id="a_Node000001"><a xlink:title="ゲーム設定の定義">
<polygon fill="#999999" stroke="#666666" points="306.5,-132 213.25,-132 213.25,-112 306.5,-112 306.5,-132"/>
<text xml:space="preserve" text-anchor="middle" x="259.88" y="-118.5" font-family="Helvetica,sans-Serif" font-size="10.00">src/Core/Config.h</text>
</a>
</g>
</g>
<!-- Node2 -->
<g id="Node000002" class="node">
<title>Node2</title>
<g id="a_Node000002"><a xlink:href="_config_8cpp.html" target="_top" xlink:title=" ">
<polygon fill="white" stroke="#666666" points="103.75,-76 0,-76 0,-56 103.75,-56 103.75,-76"/>
<text xml:space="preserve" text-anchor="middle" x="51.88" y="-62.5" font-family="Helvetica,sans-Serif" font-size="10.00">src/Core/Config.cpp</text>
</a>
</g>
</g>
<!-- Node1&#45;&gt;Node2 -->
<g id="edge1_Node000001_Node000002" class="edge">
<title>Node1&#45;&gt;Node2</title>
<g id="a_edge1_Node000001_Node000002"><a xlink:title=" ">
<path fill="none" stroke="#63b8ff" d="M212.93,-108.81C175.22,-99.02 123.02,-85.47 88.39,-76.48"/>
<polygon fill="#63b8ff" stroke="#63b8ff" points="211.62,-112.09 222.18,-111.21 213.38,-105.31 211.62,-112.09"/>
</a>
</g>
</g>
<!-- Node3 -->
<g id="Node000003" class="node">
<title>Node3</title>
<g id="a_Node000003"><a xlink:href="_player_8cpp.html" target="_top" xlink:title=" ">
<polygon fill="white" stroke="#666666" points="231.75,-76 122,-76 122,-56 231.75,-56 231.75,-76"/>
<text xml:space="preserve" text-anchor="middle" x="176.88" y="-62.5" font-family="Helvetica,sans-Serif" font-size="10.00">src/Entitie/Player.cpp</text>
</a>
</g>
</g>
<!-- Node1&#45;&gt;Node3 -->
<g id="edge2_Node000001_Node000003" class="edge">
<title>Node1&#45;&gt;Node3</title>
<g id="a_edge2_Node000001_Node000003"><a xlink:title=" ">
<path fill="none" stroke="#63b8ff" d="M236.12,-105.54C221.71,-96.17 203.78,-84.51 191.45,-76.48"/>
<polygon fill="#63b8ff" stroke="#63b8ff" points="233.86,-108.25 244.15,-110.77 237.68,-102.38 233.86,-108.25"/>
</a>
</g>
</g>
<!-- Node4 -->
<g id="Node000004" class="node">
<title>Node4</title>
<g id="a_Node000004"><a xlink:href="_main_8cpp.html" target="_top" xlink:title=" ">
<polygon fill="white" stroke="#666666" points="326,-20 253.75,-20 253.75,0 326,0 326,-20"/>
<text xml:space="preserve" text-anchor="middle" x="289.88" y="-6.5" font-family="Helvetica,sans-Serif" font-size="10.00">src/Main.cpp</text>
</a>
</g>
</g>
<!-- Node1&#45;&gt;Node4 -->
<g id="edge3_Node000001_Node000004" class="edge">
<title>Node1&#45;&gt;Node4</title>
<g id="a_edge3_Node000001_Node000004"><a xlink:title=" ">
<path fill="none" stroke="#63b8ff" d="M265.43,-100.64C271.95,-76.72 282.5,-38.03 287.32,-20.35"/>
<polygon fill="#63b8ff" stroke="#63b8ff" points="262.09,-99.59 262.83,-110.16 268.84,-101.43 262.09,-99.59"/>
</a>
</g>
</g>
<!-- Node5 -->
<g id="Node000005" class="node">
<title>Node5</title>
<g id="a_Node000005"><a xlink:href="_game_scene_8cpp.html" target="_top" xlink:title=" ">
<polygon fill="white" stroke="#666666" points="494.88,-20 358.88,-20 358.88,0 494.88,0 494.88,-20"/>
<text xml:space="preserve" text-anchor="middle" x="426.88" y="-6.5" font-family="Helvetica,sans-Serif" font-size="10.00">src/Scene/GameScene.cpp</text>
</a>
</g>
</g>
<!-- Node1&#45;&gt;Node5 -->
<g id="edge4_Node000001_Node000005" class="edge">
<title>Node1&#45;&gt;Node5</title>
<g id="a_edge4_Node000001_Node000005"><a xlink:title=" ">
<path fill="none" stroke="#63b8ff" d="M317.9,-112.24C359.14,-104.73 409.49,-92.5 422.88,-76 435.84,-60.02 432.39,-33.91 429.31,-20.15"/>
<polygon fill="#63b8ff" stroke="#63b8ff" points="317.56,-108.74 308.32,-113.92 318.77,-115.64 317.56,-108.74"/>
</a>
</g>
</g>
<!-- Node6 -->
<g id="Node000006" class="node">
<title>Node6</title>
<g id="a_Node000006"><a xlink:href="_game_scene_8h.html" target="_top" xlink:title="ゲームシーンの定義">
<polygon fill="white" stroke="#666666" points="413.62,-76 288.12,-76 288.12,-56 413.62,-56 413.62,-76"/>
<text xml:space="preserve" text-anchor="middle" x="350.88" y="-62.5" font-family="Helvetica,sans-Serif" font-size="10.00">src/Scene/GameScene.h</text>
</a>
</g>
</g>
<!-- Node1&#45;&gt;Node6 -->
<g id="edge5_Node000001_Node000006" class="edge">
<title>Node1&#45;&gt;Node6</title>
<g id="a_edge5_Node000001_Node000006"><a xlink:title=" ">
<path fill="none" stroke="#63b8ff" d="M285.47,-105.81C301.34,-96.39 321.24,-84.58 334.9,-76.48"/>
<polygon fill="#63b8ff" stroke="#63b8ff" points="283.84,-102.71 277.03,-110.82 287.41,-108.73 283.84,-102.71"/>
</a>
</g>
</g>
<!-- Node6&#45;&gt;Node4 -->
<g id="edge6_Node000006_Node000004" class="edge">
<title>Node6&#45;&gt;Node4</title>
<g id="a_edge6_Node000006_Node000004"><a xlink:title=" ">
<path fill="none" stroke="#63b8ff" d="M331.81,-48.13C321.44,-38.94 309,-27.93 300.38,-20.3"/>
<polygon fill="#63b8ff" stroke="#63b8ff" points="329.31,-50.58 339.12,-54.59 333.95,-45.34 329.31,-50.58"/>
</a>
</g>
</g>
<!-- Node6&#45;&gt;Node5 -->
<g id="edge7_Node000006_Node000005" class="edge">
<title>Node6&#45;&gt;Node5</title>
<g id="a_edge7_Node000006_Node000005"><a xlink:title=" ">
<path fill="none" stroke="#63b8ff" d="M373.4,-49C386.45,-39.72 402.45,-28.35 413.53,-20.48"/>
<polygon fill="#63b8ff" stroke="#63b8ff" points="371.47,-46.07 365.35,-54.72 375.53,-51.78 371.47,-46.07"/>
</a>
</g>
</g>
</g>
</svg>
