<?xml version="1.0" encoding="UTF-8" standalone="no"?>
<!DOCTYPE svg PUBLIC "-//W3C//DTD SVG 1.1//EN"
 "http://www.w3.org/Graphics/SVG/1.1/DTD/svg11.dtd">
<!-- Generated by graphviz version 14.0.2 (20251019.1705)
 -->
<!-- Title: src/Core/Config.cpp Pages: 1 -->
<svg width="113pt" height="140pt"
 viewBox="0.00 0.00 113.00 140.00" xmlns="http://www.w3.org/2000/svg" xmlns:xlink="http://www.w3.org/1999/xlink">
<g id="graph0" class="graph" transform="scale(1 1) rotate(0) translate(4 136)">
<title>src/Core/Config.cpp</title>
<!-- Node1 -->
<g id="Node000001" class="node">
<title>Node1</title>
<g id="a_Node000001"><a xlink:title=" ">
<polygon fill="#999999" stroke="#666666" points="105.25,-132 1.5,-132 1.5,-112 105.25,-112 105.25,-132"/>
<text xml:space="preserve" text-anchor="middle" x="53.38" y="-118.5" font-family="Helvetica,sans-Serif" font-size="10.00">src/Core/Config.cpp</text>
</a>
</g>
</g>
<!-- Node2 -->
<g id="Node000002" class="node">
<title>Node2</title>
<g id="a_Node000002"><a xlink:href="_config_8h.html" target="_top" xlink:title="ゲーム設定の定義">
<polygon fill="white" stroke="#666666" points="52.75,-76 0,-76 0,-56 52.75,-56 52.75,-76"/>
<text xml:space="preserve" text-anchor="middle" x="26.38" y="-62.5" font-family="Helvetica,sans-Serif" font-size="10.00">Config.h</text>
</a>
</g>
</g>
<!-- Node1&#45;&gt;Node2 -->
<g id="edge1_Node000001_Node000002" class="edge">
<title>Node1&#45;&gt;Node2</title>
<g id="a_edge1_Node000001_Node000002"><a xlink:title=" ">
<path fill="none" stroke="#63b8ff" d="M48.67,-111.59C45.23,-104.7 40.43,-95.1 36.16,-86.57"/>
<polygon fill="#63b8ff" stroke="#63b8ff" points="39.3,-85.03 31.7,-77.65 33.04,-88.16 39.3,-85.03"/>
</a>
</g>
</g>
<!-- Node3 -->
<g id="Node000003" class="node">
<title>Node3</title>
<g id="a_Node000003"><a xlink:title=" ">
<polygon fill="#e0e0e0" stroke="#999999" points="84.25,-20 22.5,-20 22.5,0 84.25,0 84.25,-20"/>
<text xml:space="preserve" text-anchor="middle" x="53.38" y="-6.5" font-family="Helvetica,sans-Serif" font-size="10.00">Siv3D.hpp</text>
</a>
</g>
</g>
<!-- Node1&#45;&gt;Node3 -->
<g id="edge3_Node000001_Node000003" class="edge">
<title>Node1&#45;&gt;Node3</title>
<g id="a_edge3_Node000001_Node000003"><a xlink:title=" ">
<path fill="none" stroke="#63b8ff" d="M55.51,-111.76C57.48,-102.7 60.27,-88.49 61.38,-76 62.69,-61.05 60.53,-44.24 58.12,-31.45"/>
<polygon fill="#63b8ff" stroke="#63b8ff" points="61.55,-30.78 56.06,-21.72 54.7,-32.22 61.55,-30.78"/>
</a>
</g>
</g>
<!-- Node2&#45;&gt;Node3 -->
<g id="edge2_Node000002_Node000003" class="edge">
<title>Node2&#45;&gt;Node3</title>
<g id="a_edge2_Node000002_Node000003"><a xlink:title=" ">
<path fill="none" stroke="#63b8ff" d="M31.08,-55.59C34.52,-48.7 39.32,-39.1 43.59,-30.57"/>
<polygon fill="#63b8ff" stroke="#63b8ff" points="46.71,-32.16 48.05,-21.65 40.45,-29.03 46.71,-32.16"/>
</a>
</g>
</g>
</g>
</svg>
