<?xml version="1.0" encoding="UTF-8" standalone="no"?>
<!DOCTYPE svg PUBLIC "-//W3C//DTD SVG 1.1//EN"
 "http://www.w3.org/Graphics/SVG/1.1/DTD/svg11.dtd">
<!-- Generated by graphviz version 14.0.2 (20251019.1705)
 -->
<!-- Title: src/Entitie/Enemy.h Pages: 1 -->
<svg width="671pt" height="196pt"
 viewBox="0.00 0.00 671.00 196.00" xmlns="http://www.w3.org/2000/svg" xmlns:xlink="http://www.w3.org/1999/xlink">
<g id="graph0" class="graph" transform="scale(1 1) rotate(0) translate(4 192)">
<title>src/Entitie/Enemy.h</title>
<!-- Node1 -->
<g id="Node000001" class="node">
<title>Node1</title>
<g id="a_Node000001"><a xlink:title="敵クラスの定義">
<polygon fill="#999999" stroke="#666666" points="436.38,-188 334.88,-188 334.88,-168 436.38,-168 436.38,-188"/>
<text xml:space="preserve" text-anchor="middle" x="385.62" y="-174.5" font-family="Helvetica,sans-Serif" font-size="10.00">src/Entitie/Enemy.h</text>
</a>
</g>
</g>
<!-- Node2 -->
<g id="Node000002" class="node">
<title>Node2</title>
<g id="a_Node000002"><a xlink:href="_i_behavior_strategy_8h.html" target="_top" xlink:title="敵の行動戦略インターフェースの定義">
<polygon fill="white" stroke="#666666" points="123.25,-132 0,-132 0,-112 123.25,-112 123.25,-132"/>
<text xml:space="preserve" text-anchor="middle" x="61.62" y="-118.5" font-family="Helvetica,sans-Serif" font-size="10.00">../AI/IBehaviorStrategy.h</text>
</a>
</g>
</g>
<!-- Node1&#45;&gt;Node2 -->
<g id="edge1_Node000001_Node000002" class="edge">
<title>Node1&#45;&gt;Node2</title>
<g id="a_edge1_Node000001_Node000002"><a xlink:title=" ">
<path fill="none" stroke="#63b8ff" d="M334.64,-168.5C279.36,-159.29 190.86,-144.54 129.67,-134.34"/>
<polygon fill="#63b8ff" stroke="#63b8ff" points="130.51,-130.93 120.07,-132.74 129.36,-137.84 130.51,-130.93"/>
</a>
</g>
</g>
<!-- Node3 -->
<g id="Node000003" class="node">
<title>Node3</title>
<g id="a_Node000003"><a xlink:href="_animation_controller_8h.html" target="_top" xlink:title="アニメーション再生管理クラス">
<polygon fill="white" stroke="#666666" points="313.62,-132 141.62,-132 141.62,-112 313.62,-112 313.62,-132"/>
<text xml:space="preserve" text-anchor="middle" x="227.62" y="-118.5" font-family="Helvetica,sans-Serif" font-size="10.00">../Component/AnimationController.h</text>
</a>
</g>
</g>
<!-- Node1&#45;&gt;Node3 -->
<g id="edge2_Node000001_Node000003" class="edge">
<title>Node1&#45;&gt;Node3</title>
<g id="a_edge2_Node000001_Node000003"><a xlink:title=" ">
<path fill="none" stroke="#63b8ff" d="M358.1,-167.59C332.66,-158.9 294.59,-145.89 266.13,-136.16"/>
<polygon fill="#63b8ff" stroke="#63b8ff" points="267.39,-132.89 256.79,-132.97 265.12,-139.52 267.39,-132.89"/>
</a>
</g>
</g>
<!-- Node5 -->
<g id="Node000005" class="node">
<title>Node5</title>
<g id="a_Node000005"><a xlink:title=" ">
<polygon fill="#e0e0e0" stroke="#999999" points="391.5,-20 329.75,-20 329.75,0 391.5,0 391.5,-20"/>
<text xml:space="preserve" text-anchor="middle" x="360.62" y="-6.5" font-family="Helvetica,sans-Serif" font-size="10.00">Siv3D.hpp</text>
</a>
</g>
</g>
<!-- Node1&#45;&gt;Node5 -->
<g id="edge14_Node000001_Node000005" class="edge">
<title>Node1&#45;&gt;Node5</title>
<g id="a_edge14_Node000001_Node000005"><a xlink:title=" ">
<path fill="none" stroke="#63b8ff" d="M378.53,-167.61C372.42,-158.9 364.08,-145.32 360.62,-132 351.74,-97.7 354.56,-56.07 357.52,-31.66"/>
<polygon fill="#63b8ff" stroke="#63b8ff" points="360.98,-32.19 358.86,-21.81 354.05,-31.24 360.98,-32.19"/>
</a>
</g>
</g>
<!-- Node6 -->
<g id="Node000006" class="node">
<title>Node6</title>
<g id="a_Node000006"><a xlink:href="_collider_8h.html" target="_top" xlink:title="衝突判定用のコンポーネント定義">
<polygon fill="white" stroke="#666666" points="489.38,-132 369.88,-132 369.88,-112 489.38,-112 489.38,-132"/>
<text xml:space="preserve" text-anchor="middle" x="429.62" y="-118.5" font-family="Helvetica,sans-Serif" font-size="10.00">../Component/Collider.h</text>
</a>
</g>
</g>
<!-- Node1&#45;&gt;Node6 -->
<g id="edge6_Node000001_Node000006" class="edge">
<title>Node1&#45;&gt;Node6</title>
<g id="a_edge6_Node000001_Node000006"><a xlink:title=" ">
<path fill="none" stroke="#63b8ff" d="M393.29,-167.59C399.22,-160.32 407.61,-150.02 414.84,-141.15"/>
<polygon fill="#63b8ff" stroke="#63b8ff" points="417.49,-143.43 421.09,-133.47 412.06,-139.01 417.49,-143.43"/>
</a>
</g>
</g>
<!-- Node8 -->
<g id="Node000008" class="node">
<title>Node8</title>
<g id="a_Node000008"><a xlink:href="_stage_8h.html" target="_top" xlink:title="ステージ管理の定義">
<polygon fill="white" stroke="#666666" points="593.88,-132 507.38,-132 507.38,-112 593.88,-112 593.88,-132"/>
<text xml:space="preserve" text-anchor="middle" x="550.62" y="-118.5" font-family="Helvetica,sans-Serif" font-size="10.00">../World/Stage.h</text>
</a>
</g>
</g>
<!-- Node1&#45;&gt;Node8 -->
<g id="edge9_Node000001_Node000008" class="edge">
<title>Node1&#45;&gt;Node8</title>
<g id="a_edge9_Node000001_Node000008"><a xlink:title=" ">
<path fill="none" stroke="#63b8ff" d="M414.37,-167.59C441.06,-158.86 481.04,-145.77 510.8,-136.03"/>
<polygon fill="#63b8ff" stroke="#63b8ff" points="511.81,-139.39 520.22,-132.95 509.63,-132.73 511.81,-139.39"/>
</a>
</g>
</g>
<!-- Node10 -->
<g id="Node000010" class="node">
<title>Node10</title>
<g id="a_Node000010"><a xlink:title=" ">
<polygon fill="#e0e0e0" stroke="#999999" points="663.25,-132 612,-132 612,-112 663.25,-112 663.25,-132"/>
<text xml:space="preserve" text-anchor="middle" x="637.62" y="-118.5" font-family="Helvetica,sans-Serif" font-size="10.00">memory</text>
</a>
</g>
</g>
<!-- Node1&#45;&gt;Node10 -->
<g id="edge13_Node000001_Node000010" class="edge">
<title>Node1&#45;&gt;Node10</title>
<g id="a_edge13_Node000001_Node000010"><a xlink:title=" ">
<path fill="none" stroke="#63b8ff" d="M434.46,-167.56C476.13,-159.35 537.88,-146.82 600.75,-132.35"/>
<polygon fill="#63b8ff" stroke="#63b8ff" points="601.24,-135.83 610.19,-130.16 599.66,-129.01 601.24,-135.83"/>
</a>
</g>
</g>
<!-- Node4 -->
<g id="Node000004" class="node">
<title>Node4</title>
<g id="a_Node000004"><a xlink:href="_animation_8h.html" target="_top" xlink:title="アニメーションパターンの定義">
<polygon fill="white" stroke="#666666" points="265.5,-76 197.75,-76 197.75,-56 265.5,-56 265.5,-76"/>
<text xml:space="preserve" text-anchor="middle" x="231.62" y="-62.5" font-family="Helvetica,sans-Serif" font-size="10.00">Animation.h</text>
</a>
</g>
</g>
<!-- Node3&#45;&gt;Node4 -->
<g id="edge3_Node000003_Node000004" class="edge">
<title>Node3&#45;&gt;Node4</title>
<g id="a_edge3_Node000003_Node000004"><a xlink:title=" ">
<path fill="none" stroke="#63b8ff" d="M228.32,-111.59C228.81,-105.01 229.48,-95.96 230.09,-87.73"/>
<polygon fill="#63b8ff" stroke="#63b8ff" points="233.58,-88.04 230.82,-77.81 226.6,-87.52 233.58,-88.04"/>
</a>
</g>
</g>
<!-- Node3&#45;&gt;Node5 -->
<g id="edge5_Node000003_Node000005" class="edge">
<title>Node3&#45;&gt;Node5</title>
<g id="a_edge5_Node000003_Node000005"><a xlink:title=" ">
<path fill="none" stroke="#63b8ff" d="M238.96,-111.62C261.54,-92.95 312.36,-50.92 340.66,-27.52"/>
<polygon fill="#63b8ff" stroke="#63b8ff" points="342.67,-30.39 348.15,-21.32 338.21,-25 342.67,-30.39"/>
</a>
</g>
</g>
<!-- Node4&#45;&gt;Node5 -->
<g id="edge4_Node000004_Node000005" class="edge">
<title>Node4&#45;&gt;Node5</title>
<g id="a_edge4_Node000004_Node000005"><a xlink:title=" ">
<path fill="none" stroke="#63b8ff" d="M254.1,-55.59C274.41,-47.09 304.58,-34.46 327.63,-24.81"/>
<polygon fill="#63b8ff" stroke="#63b8ff" points="328.71,-28.15 336.58,-21.06 326.01,-21.7 328.71,-28.15"/>
</a>
</g>
</g>
<!-- Node6&#45;&gt;Node5 -->
<g id="edge7_Node000006_Node000005" class="edge">
<title>Node6&#45;&gt;Node5</title>
<g id="a_edge7_Node000006_Node000005"><a xlink:title=" ">
<path fill="none" stroke="#63b8ff" d="M423.01,-111.83C416.59,-102.83 406.66,-88.65 398.62,-76 388.98,-60.83 378.74,-43.2 371.32,-30.14"/>
<polygon fill="#63b8ff" stroke="#63b8ff" points="374.52,-28.7 366.57,-21.71 368.43,-32.14 374.52,-28.7"/>
</a>
</g>
</g>
<!-- Node7 -->
<g id="Node000007" class="node">
<title>Node7</title>
<g id="a_Node000007"><a xlink:title=" ">
<polygon fill="#e0e0e0" stroke="#999999" points="453.25,-76 408,-76 408,-56 453.25,-56 453.25,-76"/>
<text xml:space="preserve" text-anchor="middle" x="430.62" y="-62.5" font-family="Helvetica,sans-Serif" font-size="10.00">variant</text>
</a>
</g>
</g>
<!-- Node6&#45;&gt;Node7 -->
<g id="edge8_Node000006_Node000007" class="edge">
<title>Node6&#45;&gt;Node7</title>
<g id="a_edge8_Node000006_Node000007"><a xlink:title=" ">
<path fill="none" stroke="#63b8ff" d="M429.8,-111.59C429.92,-105.01 430.09,-95.96 430.24,-87.73"/>
<polygon fill="#63b8ff" stroke="#63b8ff" points="433.74,-87.87 430.42,-77.81 426.74,-87.75 433.74,-87.87"/>
</a>
</g>
</g>
<!-- Node8&#45;&gt;Node5 -->
<g id="edge12_Node000008_Node000005" class="edge">
<title>Node8&#45;&gt;Node5</title>
<g id="a_edge12_Node000008_Node000005"><a xlink:title=" ">
<path fill="none" stroke="#63b8ff" d="M539.51,-111.53C523.34,-98.04 492.03,-73.07 462.62,-56 441.58,-43.79 416.61,-32.72 396.64,-24.61"/>
<polygon fill="#63b8ff" stroke="#63b8ff" points="398.11,-21.43 387.52,-20.99 395.52,-27.93 398.11,-21.43"/>
</a>
</g>
</g>
<!-- Node9 -->
<g id="Node000009" class="node">
<title>Node9</title>
<g id="a_Node000009"><a xlink:href="_spawn_info_8h.html" target="_top" xlink:title="スポーン情報の定義">
<polygon fill="white" stroke="#666666" points="584,-76 513.25,-76 513.25,-56 584,-56 584,-76"/>
<text xml:space="preserve" text-anchor="middle" x="548.62" y="-62.5" font-family="Helvetica,sans-Serif" font-size="10.00">SpawnInfo.h</text>
</a>
</g>
</g>
<!-- Node8&#45;&gt;Node9 -->
<g id="edge10_Node000008_Node000009" class="edge">
<title>Node8&#45;&gt;Node9</title>
<g id="a_edge10_Node000008_Node000009"><a xlink:title=" ">
<path fill="none" stroke="#63b8ff" d="M550.28,-111.59C550.03,-105.01 549.7,-95.96 549.39,-87.73"/>
<polygon fill="#63b8ff" stroke="#63b8ff" points="552.89,-87.67 549.03,-77.81 545.9,-87.93 552.89,-87.67"/>
</a>
</g>
</g>
<!-- Node9&#45;&gt;Node5 -->
<g id="edge11_Node000009_Node000005" class="edge">
<title>Node9&#45;&gt;Node5</title>
<g id="a_edge11_Node000009_Node000005"><a xlink:title=" ">
<path fill="none" stroke="#63b8ff" d="M515.88,-55.59C484.5,-46.58 436.99,-32.93 402.79,-23.11"/>
<polygon fill="#63b8ff" stroke="#63b8ff" points="403.78,-19.75 393.2,-20.36 401.85,-26.48 403.78,-19.75"/>
</a>
</g>
</g>
</g>
</svg>
