<?xml version="1.0" encoding="UTF-8" standalone="no"?>
<!DOCTYPE svg PUBLIC "-//W3C//DTD SVG 1.1//EN"
 "http://www.w3.org/Graphics/SVG/1.1/DTD/svg11.dtd">
<!-- Generated by graphviz version 14.0.2 (20251019.1705)
 -->
<!-- Title: src/Entitie/Enemy.h Pages: 1 -->
<svg width="494pt" height="140pt"
 viewBox="0.00 0.00 494.00 140.00" xmlns="http://www.w3.org/2000/svg" xmlns:xlink="http://www.w3.org/1999/xlink">
<g id="graph0" class="graph" transform="scale(1 1) rotate(0) translate(4 136)">
<title>src/Entitie/Enemy.h</title>
<!-- Node1 -->
<g id="Node000001" class="node">
<title>Node1</title>
<g id="a_Node000001"><a xlink:title="敵クラスの定義">
<polygon fill="#999999" stroke="#666666" points="271,-132 169.5,-132 169.5,-112 271,-112 271,-132"/>
<text xml:space="preserve" text-anchor="middle" x="220.25" y="-118.5" font-family="Helvetica,sans-Serif" font-size="10.00">src/Entitie/Enemy.h</text>
</a>
</g>
</g>
<!-- Node2 -->
<g id="Node000002" class="node">
<title>Node2</title>
<g id="a_Node000002"><a xlink:href="_behavior_strategies_8cpp.html" target="_top" xlink:title=" ">
<polygon fill="white" stroke="#666666" points="146.5,-76 0,-76 0,-56 146.5,-56 146.5,-76"/>
<text xml:space="preserve" text-anchor="middle" x="73.25" y="-62.5" font-family="Helvetica,sans-Serif" font-size="10.00">src/AI/BehaviorStrategies.cpp</text>
</a>
</g>
</g>
<!-- Node1&#45;&gt;Node2 -->
<g id="edge1_Node000001_Node000002" class="edge">
<title>Node1&#45;&gt;Node2</title>
<g id="a_edge1_Node000001_Node000002"><a xlink:title=" ">
<path fill="none" stroke="#63b8ff" d="M183.94,-107.66C157.59,-97.98 122.58,-85.12 99.06,-76.48"/>
<polygon fill="#63b8ff" stroke="#63b8ff" points="182.63,-110.91 193.22,-111.07 185.04,-104.34 182.63,-110.91"/>
</a>
</g>
</g>
<!-- Node3 -->
<g id="Node000003" class="node">
<title>Node3</title>
<g id="a_Node000003"><a xlink:href="_enemy_8cpp.html" target="_top" xlink:title=" ">
<polygon fill="white" stroke="#666666" points="276.25,-76 164.25,-76 164.25,-56 276.25,-56 276.25,-76"/>
<text xml:space="preserve" text-anchor="middle" x="220.25" y="-62.5" font-family="Helvetica,sans-Serif" font-size="10.00">src/Entitie/Enemy.cpp</text>
</a>
</g>
</g>
<!-- Node1&#45;&gt;Node3 -->
<g id="edge2_Node000001_Node000003" class="edge">
<title>Node1&#45;&gt;Node3</title>
<g id="a_edge2_Node000001_Node000003"><a xlink:title=" ">
<path fill="none" stroke="#63b8ff" d="M220.25,-100.13C220.25,-91.9 220.25,-82.85 220.25,-76.3"/>
<polygon fill="#63b8ff" stroke="#63b8ff" points="216.75,-100.08 220.25,-110.08 223.75,-100.08 216.75,-100.08"/>
</a>
</g>
</g>
<!-- Node4 -->
<g id="Node000004" class="node">
<title>Node4</title>
<g id="a_Node000004"><a xlink:href="_game_scene_8h.html" target="_top" xlink:title="ゲームシーンの定義">
<polygon fill="white" stroke="#666666" points="420,-76 294.5,-76 294.5,-56 420,-56 420,-76"/>
<text xml:space="preserve" text-anchor="middle" x="357.25" y="-62.5" font-family="Helvetica,sans-Serif" font-size="10.00">src/Scene/GameScene.h</text>
</a>
</g>
</g>
<!-- Node1&#45;&gt;Node4 -->
<g id="edge3_Node000001_Node000004" class="edge">
<title>Node1&#45;&gt;Node4</title>
<g id="a_edge3_Node000001_Node000004"><a xlink:title=" ">
<path fill="none" stroke="#63b8ff" d="M254.75,-107.4C279.23,-97.75 311.47,-85.05 333.2,-76.48"/>
<polygon fill="#63b8ff" stroke="#63b8ff" points="253.54,-104.12 245.52,-111.04 256.11,-110.63 253.54,-104.12"/>
</a>
</g>
</g>
<!-- Node5 -->
<g id="Node000005" class="node">
<title>Node5</title>
<g id="a_Node000005"><a xlink:href="_main_8cpp.html" target="_top" xlink:title=" ">
<polygon fill="white" stroke="#666666" points="332.38,-20 260.12,-20 260.12,0 332.38,0 332.38,-20"/>
<text xml:space="preserve" text-anchor="middle" x="296.25" y="-6.5" font-family="Helvetica,sans-Serif" font-size="10.00">src/Main.cpp</text>
</a>
</g>
</g>
<!-- Node4&#45;&gt;Node5 -->
<g id="edge4_Node000004_Node000005" class="edge">
<title>Node4&#45;&gt;Node5</title>
<g id="a_edge4_Node000004_Node000005"><a xlink:title=" ">
<path fill="none" stroke="#63b8ff" d="M338.19,-48.13C327.81,-38.94 315.38,-27.93 306.75,-20.3"/>
<polygon fill="#63b8ff" stroke="#63b8ff" points="335.68,-50.58 345.49,-54.59 340.32,-45.34 335.68,-50.58"/>
</a>
</g>
</g>
<!-- Node6 -->
<g id="Node000006" class="node">
<title>Node6</title>
<g id="a_Node000006"><a xlink:href="_game_scene_8cpp.html" target="_top" xlink:title=" ">
<polygon fill="white" stroke="#666666" points="486.25,-20 350.25,-20 350.25,0 486.25,0 486.25,-20"/>
<text xml:space="preserve" text-anchor="middle" x="418.25" y="-6.5" font-family="Helvetica,sans-Serif" font-size="10.00">src/Scene/GameScene.cpp</text>
</a>
</g>
</g>
<!-- Node4&#45;&gt;Node6 -->
<g id="edge5_Node000004_Node000006" class="edge">
<title>Node4&#45;&gt;Node6</title>
<g id="a_edge5_Node000004_Node000006"><a xlink:title=" ">
<path fill="none" stroke="#63b8ff" d="M376.31,-48.13C386.69,-38.94 399.12,-27.93 407.75,-20.3"/>
<polygon fill="#63b8ff" stroke="#63b8ff" points="374.18,-45.34 369.01,-54.59 378.82,-50.58 374.18,-45.34"/>
</a>
</g>
</g>
</g>
</svg>
