<?xml version="1.0" encoding="UTF-8" standalone="no"?>
<!DOCTYPE svg PUBLIC "-//W3C//DTD SVG 1.1//EN"
 "http://www.w3.org/Graphics/SVG/1.1/DTD/svg11.dtd">
<!-- Generated by graphviz version 14.0.2 (20251019.1705)
 -->
<!-- Title: src/System/EnemyDataSystem.cpp Pages: 1 -->
<svg width="182pt" height="140pt"
 viewBox="0.00 0.00 182.00 140.00" xmlns="http://www.w3.org/2000/svg" xmlns:xlink="http://www.w3.org/1999/xlink">
<g id="graph0" class="graph" transform="scale(1 1) rotate(0) translate(4 136)">
<title>src/System/EnemyDataSystem.cpp</title>
<!-- Node1 -->
<g id="Node000001" class="node">
<title>Node1</title>
<g id="a_Node000001"><a xlink:title=" ">
<polygon fill="#999999" stroke="#666666" points="173.5,-132 0,-132 0,-112 173.5,-112 173.5,-132"/>
<text xml:space="preserve" text-anchor="middle" x="86.75" y="-118.5" font-family="Helvetica,sans-Serif" font-size="10.00">src/System/EnemyDataSystem.cpp</text>
</a>
</g>
</g>
<!-- Node2 -->
<g id="Node000002" class="node">
<title>Node2</title>
<g id="a_Node000002"><a xlink:href="_enemy_data_system_8h.html" target="_top" xlink:title="敵データ管理システムの定義">
<polygon fill="white" stroke="#666666" points="141.62,-76 31.88,-76 31.88,-56 141.62,-56 141.62,-76"/>
<text xml:space="preserve" text-anchor="middle" x="86.75" y="-62.5" font-family="Helvetica,sans-Serif" font-size="10.00">EnemyDataSystem.h</text>
</a>
</g>
</g>
<!-- Node1&#45;&gt;Node2 -->
<g id="edge1_Node000001_Node000002" class="edge">
<title>Node1&#45;&gt;Node2</title>
<g id="a_edge1_Node000001_Node000002"><a xlink:title=" ">
<path fill="none" stroke="#63b8ff" d="M86.75,-111.59C86.75,-105.01 86.75,-95.96 86.75,-87.73"/>
<polygon fill="#63b8ff" stroke="#63b8ff" points="90.25,-87.81 86.75,-77.81 83.25,-87.81 90.25,-87.81"/>
</a>
</g>
</g>
<!-- Node3 -->
<g id="Node000003" class="node">
<title>Node3</title>
<g id="a_Node000003"><a xlink:title=" ">
<polygon fill="#e0e0e0" stroke="#999999" points="117.62,-20 55.88,-20 55.88,0 117.62,0 117.62,-20"/>
<text xml:space="preserve" text-anchor="middle" x="86.75" y="-6.5" font-family="Helvetica,sans-Serif" font-size="10.00">Siv3D.hpp</text>
</a>
</g>
</g>
<!-- Node2&#45;&gt;Node3 -->
<g id="edge2_Node000002_Node000003" class="edge">
<title>Node2&#45;&gt;Node3</title>
<g id="a_edge2_Node000002_Node000003"><a xlink:title=" ">
<path fill="none" stroke="#63b8ff" d="M86.75,-55.59C86.75,-49.01 86.75,-39.96 86.75,-31.73"/>
<polygon fill="#63b8ff" stroke="#63b8ff" points="90.25,-31.81 86.75,-21.81 83.25,-31.81 90.25,-31.81"/>
</a>
</g>
</g>
</g>
</svg>
