<?xml version="1.0" encoding="UTF-8" standalone="no"?>
<!DOCTYPE svg PUBLIC "-//W3C//DTD SVG 1.1//EN"
 "http://www.w3.org/Graphics/SVG/1.1/DTD/svg11.dtd">
<!-- Generated by graphviz version 14.0.2 (20251019.1705)
 -->
<!-- Title: src/System/EnemyDataSystem.h Pages: 1 -->
<svg width="312pt" height="84pt"
 viewBox="0.00 0.00 312.00 84.00" xmlns="http://www.w3.org/2000/svg" xmlns:xlink="http://www.w3.org/1999/xlink">
<g id="graph0" class="graph" transform="scale(1 1) rotate(0) translate(4 80)">
<title>src/System/EnemyDataSystem.h</title>
<!-- Node1 -->
<g id="Node000001" class="node">
<title>Node1</title>
<g id="a_Node000001"><a xlink:title="敵データ管理システムの定義">
<polygon fill="#999999" stroke="#666666" points="217.5,-76 54.5,-76 54.5,-56 217.5,-56 217.5,-76"/>
<text xml:space="preserve" text-anchor="middle" x="136" y="-62.5" font-family="Helvetica,sans-Serif" font-size="10.00">src/System/EnemyDataSystem.h</text>
</a>
</g>
</g>
<!-- Node2 -->
<g id="Node000002" class="node">
<title>Node2</title>
<g id="a_Node000002"><a xlink:href="_enemy_8cpp.html" target="_top" xlink:title=" ">
<polygon fill="white" stroke="#666666" points="112,-20 0,-20 0,0 112,0 112,-20"/>
<text xml:space="preserve" text-anchor="middle" x="56" y="-6.5" font-family="Helvetica,sans-Serif" font-size="10.00">src/Entitie/Enemy.cpp</text>
</a>
</g>
</g>
<!-- Node1&#45;&gt;Node2 -->
<g id="edge1_Node000001_Node000002" class="edge">
<title>Node1&#45;&gt;Node2</title>
<g id="a_edge1_Node000001_Node000002"><a xlink:title=" ">
<path fill="none" stroke="#63b8ff" d="M112.7,-49.27C98.88,-39.94 81.82,-28.43 70.04,-20.48"/>
<polygon fill="#63b8ff" stroke="#63b8ff" points="110.56,-52.05 120.81,-54.75 114.48,-46.25 110.56,-52.05"/>
</a>
</g>
</g>
<!-- Node3 -->
<g id="Node000003" class="node">
<title>Node3</title>
<g id="a_Node000003"><a xlink:href="_enemy_data_system_8cpp.html" target="_top" xlink:title=" ">
<polygon fill="white" stroke="#666666" points="303.75,-20 130.25,-20 130.25,0 303.75,0 303.75,-20"/>
<text xml:space="preserve" text-anchor="middle" x="217" y="-6.5" font-family="Helvetica,sans-Serif" font-size="10.00">src/System/EnemyDataSystem.cpp</text>
</a>
</g>
</g>
<!-- Node1&#45;&gt;Node3 -->
<g id="edge2_Node000001_Node000003" class="edge">
<title>Node1&#45;&gt;Node3</title>
<g id="a_edge2_Node000001_Node000003"><a xlink:title=" ">
<path fill="none" stroke="#63b8ff" d="M159.59,-49.27C173.59,-39.94 190.86,-28.43 202.78,-20.48"/>
<polygon fill="#63b8ff" stroke="#63b8ff" points="157.75,-46.3 151.37,-54.75 161.63,-52.12 157.75,-46.3"/>
</a>
</g>
</g>
</g>
</svg>
