<?xml version="1.0" encoding="UTF-8" standalone="no"?>
<!DOCTYPE svg PUBLIC "-//W3C//DTD SVG 1.1//EN"
 "http://www.w3.org/Graphics/SVG/1.1/DTD/svg11.dtd">
<!-- Generated by graphviz version 14.0.2 (20251019.1705)
 -->
<!-- Title: src/Entitie/Enemy.cpp Pages: 1 -->
<svg width="1002pt" height="252pt"
 viewBox="0.00 0.00 1002.00 252.00" xmlns="http://www.w3.org/2000/svg" xmlns:xlink="http://www.w3.org/1999/xlink">
<g id="graph0" class="graph" transform="scale(1 1) rotate(0) translate(4 248)">
<title>src/Entitie/Enemy.cpp</title>
<!-- Node1 -->
<g id="Node000001" class="node">
<title>Node1</title>
<g id="a_Node000001"><a xlink:title=" ">
<polygon fill="#999999" stroke="#666666" points="653.25,-244 541.25,-244 541.25,-224 653.25,-224 653.25,-244"/>
<text xml:space="preserve" text-anchor="middle" x="597.25" y="-230.5" font-family="Helvetica,sans-Serif" font-size="10.00">src/Entitie/Enemy.cpp</text>
</a>
</g>
</g>
<!-- Node2 -->
<g id="Node000002" class="node">
<title>Node2</title>
<g id="a_Node000002"><a xlink:href="_behavior_strategies_8h.html" target="_top" xlink:title="敵の行動戦略具象クラスの定義">
<polygon fill="white" stroke="#666666" points="190.5,-188 62,-188 62,-168 190.5,-168 190.5,-188"/>
<text xml:space="preserve" text-anchor="middle" x="126.25" y="-174.5" font-family="Helvetica,sans-Serif" font-size="10.00">../AI/BehaviorStrategies.h</text>
</a>
</g>
</g>
<!-- Node1&#45;&gt;Node2 -->
<g id="edge1_Node000001_Node000002" class="edge">
<title>Node1&#45;&gt;Node2</title>
<g id="a_edge1_Node000001_Node000002"><a xlink:title=" ">
<path fill="none" stroke="#63b8ff" d="M540.9,-226.54C456.43,-216.86 296.81,-198.56 202.15,-187.7"/>
<polygon fill="#63b8ff" stroke="#63b8ff" points="202.78,-184.25 192.45,-186.59 201.98,-191.21 202.78,-184.25"/>
</a>
</g>
</g>
<!-- Node4 -->
<g id="Node000004" class="node">
<title>Node4</title>
<g id="a_Node000004"><a xlink:href="_animation_8h.html" target="_top" xlink:title="アニメーションパターンの定義">
<polygon fill="white" stroke="#666666" points="180.25,-76 50.25,-76 50.25,-56 180.25,-56 180.25,-76"/>
<text xml:space="preserve" text-anchor="middle" x="115.25" y="-62.5" font-family="Helvetica,sans-Serif" font-size="10.00">../Component/Animation.h</text>
</a>
</g>
</g>
<!-- Node1&#45;&gt;Node4 -->
<g id="edge3_Node000001_Node000004" class="edge">
<title>Node1&#45;&gt;Node4</title>
<g id="a_edge3_Node000001_Node000004"><a xlink:title=" ">
<path fill="none" stroke="#63b8ff" d="M540.77,-233.81C419.16,-234.69 136.76,-231.78 53.25,-188 18.28,-169.67 -14.65,-144.85 7.25,-112 17.32,-96.88 33.54,-86.84 50.38,-80.16"/>
<polygon fill="#63b8ff" stroke="#63b8ff" points="51.22,-83.58 59.47,-76.94 48.87,-76.98 51.22,-83.58"/>
</a>
</g>
</g>
<!-- Node5 -->
<g id="Node000005" class="node">
<title>Node5</title>
<g id="a_Node000005"><a xlink:title=" ">
<polygon fill="#e0e0e0" stroke="#999999" points="495.12,-20 433.37,-20 433.37,0 495.12,0 495.12,-20"/>
<text xml:space="preserve" text-anchor="middle" x="464.25" y="-6.5" font-family="Helvetica,sans-Serif" font-size="10.00">Siv3D.hpp</text>
</a>
</g>
</g>
<!-- Node1&#45;&gt;Node5 -->
<g id="edge30_Node000001_Node000005" class="edge">
<title>Node1&#45;&gt;Node5</title>
<g id="a_edge30_Node000001_Node000005"><a xlink:title=" ">
<path fill="none" stroke="#63b8ff" d="M623.14,-223.67C688.94,-198.61 853.12,-126.97 791.25,-56 754.82,-14.21 586.66,-9.89 506.71,-10.26"/>
<polygon fill="#63b8ff" stroke="#63b8ff" points="507.06,-6.76 497.09,-10.34 507.12,-13.76 507.06,-6.76"/>
</a>
</g>
</g>
<!-- Node6 -->
<g id="Node000006" class="node">
<title>Node6</title>
<g id="a_Node000006"><a xlink:href="_enemy_data_system_8h.html" target="_top" xlink:title="敵データ管理システムの定義">
<polygon fill="white" stroke="#666666" points="994,-76 838.5,-76 838.5,-56 994,-56 994,-76"/>
<text xml:space="preserve" text-anchor="middle" x="916.25" y="-62.5" font-family="Helvetica,sans-Serif" font-size="10.00">../System/EnemyDataSystem.h</text>
</a>
</g>
</g>
<!-- Node1&#45;&gt;Node6 -->
<g id="edge5_Node000001_Node000006" class="edge">
<title>Node1&#45;&gt;Node6</title>
<g id="a_edge5_Node000001_Node000006"><a xlink:title=" ">
<path fill="none" stroke="#63b8ff" d="M653.55,-232.77C702.13,-230.15 772.45,-220.35 824.25,-188 864.2,-163.05 893.17,-114.07 907.04,-86.69"/>
<polygon fill="#63b8ff" stroke="#63b8ff" points="910.15,-88.3 911.39,-77.78 903.86,-85.23 910.15,-88.3"/>
</a>
</g>
</g>
<!-- Node7 -->
<g id="Node000007" class="node">
<title>Node7</title>
<g id="a_Node000007"><a xlink:href="_stage_8h.html" target="_top" xlink:title="ステージ管理の定義">
<polygon fill="white" stroke="#666666" points="291.5,-132 205,-132 205,-112 291.5,-112 291.5,-132"/>
<text xml:space="preserve" text-anchor="middle" x="248.25" y="-118.5" font-family="Helvetica,sans-Serif" font-size="10.00">../World/Stage.h</text>
</a>
</g>
</g>
<!-- Node1&#45;&gt;Node7 -->
<g id="edge7_Node000001_Node000007" class="edge">
<title>Node1&#45;&gt;Node7</title>
<g id="a_edge7_Node000001_Node000007"><a xlink:title=" ">
<path fill="none" stroke="#63b8ff" d="M541.07,-230.94C462.23,-227.07 323.83,-216.34 283.25,-188 267.99,-177.35 258.78,-157.87 253.67,-143"/>
<polygon fill="#63b8ff" stroke="#63b8ff" points="257.12,-142.32 250.85,-133.78 250.42,-144.36 257.12,-142.32"/>
</a>
</g>
</g>
<!-- Node9 -->
<g id="Node000009" class="node">
<title>Node9</title>
<g id="a_Node000009"><a xlink:href="_enemy_8h.html" target="_top" xlink:title="敵クラスの定義">
<polygon fill="white" stroke="#666666" points="346.37,-188 292.12,-188 292.12,-168 346.37,-168 346.37,-188"/>
<text xml:space="preserve" text-anchor="middle" x="319.25" y="-174.5" font-family="Helvetica,sans-Serif" font-size="10.00">Enemy.h</text>
</a>
</g>
</g>
<!-- Node1&#45;&gt;Node9 -->
<g id="edge11_Node000001_Node000009" class="edge">
<title>Node1&#45;&gt;Node9</title>
<g id="a_edge11_Node000001_Node000009"><a xlink:title=" ">
<path fill="none" stroke="#63b8ff" d="M548.5,-223.53C494.3,-213 407.83,-196.21 358.02,-186.53"/>
<polygon fill="#63b8ff" stroke="#63b8ff" points="358.76,-183.11 348.27,-184.64 357.42,-189.98 358.76,-183.11"/>
</a>
</g>
</g>
<!-- Node12 -->
<g id="Node000012" class="node">
<title>Node12</title>
<g id="a_Node000012"><a xlink:title=" ">
<polygon fill="#e0e0e0" stroke="#999999" points="607.87,-76 562.62,-76 562.62,-56 607.87,-56 607.87,-76"/>
<text xml:space="preserve" text-anchor="middle" x="585.25" y="-62.5" font-family="Helvetica,sans-Serif" font-size="10.00">variant</text>
</a>
</g>
</g>
<!-- Node1&#45;&gt;Node12 -->
<g id="edge31_Node000001_Node000012" class="edge">
<title>Node1&#45;&gt;Node12</title>
<g id="a_edge31_Node000001_Node000012"><a xlink:title=" ">
<path fill="none" stroke="#63b8ff" d="M616.42,-223.51C653.66,-203.8 729.54,-156.52 699.25,-112 694.44,-104.94 650.82,-89.03 618.96,-78.15"/>
<polygon fill="#63b8ff" stroke="#63b8ff" points="620.29,-74.91 609.7,-75.02 618.05,-81.54 620.29,-74.91"/>
</a>
</g>
</g>
<!-- Node14 -->
<g id="Node000014" class="node">
<title>Node14</title>
<g id="a_Node000014"><a xlink:href="_player_8h.html" target="_top" xlink:title="プレイヤークラスの定義">
<polygon fill="white" stroke="#666666" points="623.25,-188 571.25,-188 571.25,-168 623.25,-168 623.25,-188"/>
<text xml:space="preserve" text-anchor="middle" x="597.25" y="-174.5" font-family="Helvetica,sans-Serif" font-size="10.00">Player.h</text>
</a>
</g>
</g>
<!-- Node1&#45;&gt;Node14 -->
<g id="edge22_Node000001_Node000014" class="edge">
<title>Node1&#45;&gt;Node14</title>
<g id="a_edge22_Node000001_Node000014"><a xlink:title=" ">
<path fill="none" stroke="#63b8ff" d="M597.25,-223.59C597.25,-217.01 597.25,-207.96 597.25,-199.73"/>
<polygon fill="#63b8ff" stroke="#63b8ff" points="600.75,-199.81 597.25,-189.81 593.75,-199.81 600.75,-199.81"/>
</a>
</g>
</g>
<!-- Node16 -->
<g id="Node000016" class="node">
<title>Node16</title>
<g id="a_Node000016"><a xlink:title=" ">
<polygon fill="#e0e0e0" stroke="#999999" points="919.75,-188 876.75,-188 876.75,-168 919.75,-168 919.75,-188"/>
<text xml:space="preserve" text-anchor="middle" x="898.25" y="-174.5" font-family="Helvetica,sans-Serif" font-size="10.00">cmath</text>
</a>
</g>
</g>
<!-- Node1&#45;&gt;Node16 -->
<g id="edge29_Node000001_Node000016" class="edge">
<title>Node1&#45;&gt;Node16</title>
<g id="a_edge29_Node000001_Node000016"><a xlink:title=" ">
<path fill="none" stroke="#63b8ff" d="M653.57,-224.72C707.38,-216.51 790.65,-203 862.25,-188 863.41,-187.76 864.6,-187.5 865.8,-187.23"/>
<polygon fill="#63b8ff" stroke="#63b8ff" points="866.2,-190.74 875.13,-185.04 864.6,-183.92 866.2,-190.74"/>
</a>
</g>
</g>
<!-- Node3 -->
<g id="Node000003" class="node">
<title>Node3</title>
<g id="a_Node000003"><a xlink:href="_i_behavior_strategy_8h.html" target="_top" xlink:title="敵の行動戦略インターフェースの定義">
<polygon fill="white" stroke="#666666" points="118,-132 16.5,-132 16.5,-112 118,-112 118,-132"/>
<text xml:space="preserve" text-anchor="middle" x="67.25" y="-118.5" font-family="Helvetica,sans-Serif" font-size="10.00">IBehaviorStrategy.h</text>
</a>
</g>
</g>
<!-- Node2&#45;&gt;Node3 -->
<g id="edge2_Node000002_Node000003" class="edge">
<title>Node2&#45;&gt;Node3</title>
<g id="a_edge2_Node000002_Node000003"><a xlink:title=" ">
<path fill="none" stroke="#63b8ff" d="M115.97,-167.59C107.68,-160.01 95.8,-149.13 85.85,-140.02"/>
<polygon fill="#63b8ff" stroke="#63b8ff" points="88.26,-137.49 78.52,-133.32 83.54,-142.65 88.26,-137.49"/>
</a>
</g>
</g>
<!-- Node4&#45;&gt;Node5 -->
<g id="edge4_Node000004_Node000005" class="edge">
<title>Node4&#45;&gt;Node5</title>
<g id="a_edge4_Node000004_Node000005"><a xlink:title=" ">
<path fill="none" stroke="#63b8ff" d="M176.44,-55.53C246.78,-44.65 360.39,-27.07 421.72,-17.58"/>
<polygon fill="#63b8ff" stroke="#63b8ff" points="422.06,-21.07 431.41,-16.08 420.99,-14.15 422.06,-21.07"/>
</a>
</g>
</g>
<!-- Node6&#45;&gt;Node5 -->
<g id="edge6_Node000006_Node000005" class="edge">
<title>Node6&#45;&gt;Node5</title>
<g id="a_edge6_Node000006_Node000005"><a xlink:title=" ">
<path fill="none" stroke="#63b8ff" d="M838.03,-55.66C741.9,-44.17 582.23,-25.1 506.54,-16.05"/>
<polygon fill="#63b8ff" stroke="#63b8ff" points="507.42,-12.63 497.07,-14.92 506.59,-19.58 507.42,-12.63"/>
</a>
</g>
</g>
<!-- Node7&#45;&gt;Node5 -->
<g id="edge10_Node000007_Node000005" class="edge">
<title>Node7&#45;&gt;Node5</title>
<g id="a_edge10_Node000007_Node000005"><a xlink:title=" ">
<path fill="none" stroke="#63b8ff" d="M256.14,-111.65C268.47,-97.64 293.63,-71.19 320.25,-56 352.12,-37.81 392.23,-26.05 422.02,-19.13"/>
<polygon fill="#63b8ff" stroke="#63b8ff" points="422.42,-22.63 431.42,-17.04 420.9,-15.8 422.42,-22.63"/>
</a>
</g>
</g>
<!-- Node8 -->
<g id="Node000008" class="node">
<title>Node8</title>
<g id="a_Node000008"><a xlink:href="_spawn_info_8h.html" target="_top" xlink:title="スポーン情報の定義">
<polygon fill="white" stroke="#666666" points="268.62,-76 197.87,-76 197.87,-56 268.62,-56 268.62,-76"/>
<text xml:space="preserve" text-anchor="middle" x="233.25" y="-62.5" font-family="Helvetica,sans-Serif" font-size="10.00">SpawnInfo.h</text>
</a>
</g>
</g>
<!-- Node7&#45;&gt;Node8 -->
<g id="edge8_Node000007_Node000008" class="edge">
<title>Node7&#45;&gt;Node8</title>
<g id="a_edge8_Node000007_Node000008"><a xlink:title=" ">
<path fill="none" stroke="#63b8ff" d="M245.63,-111.59C243.76,-104.86 241.17,-95.53 238.84,-87.15"/>
<polygon fill="#63b8ff" stroke="#63b8ff" points="242.28,-86.46 236.23,-77.76 235.54,-88.33 242.28,-86.46"/>
</a>
</g>
</g>
<!-- Node8&#45;&gt;Node5 -->
<g id="edge9_Node000008_Node000005" class="edge">
<title>Node8&#45;&gt;Node5</title>
<g id="a_edge9_Node000008_Node000005"><a xlink:title=" ">
<path fill="none" stroke="#63b8ff" d="M269.09,-56.62C310.38,-46.97 378.17,-31.12 422,-20.88"/>
<polygon fill="#63b8ff" stroke="#63b8ff" points="422.72,-24.3 431.67,-18.62 421.13,-17.48 422.72,-24.3"/>
</a>
</g>
</g>
<!-- Node9&#45;&gt;Node3 -->
<g id="edge12_Node000009_Node000003" class="edge">
<title>Node9&#45;&gt;Node3</title>
<g id="a_edge12_Node000009_Node000003"><a xlink:title=" ">
<path fill="none" stroke="#63b8ff" d="M291.8,-171.12C251.39,-162.46 175.03,-146.1 122.68,-134.88"/>
<polygon fill="#63b8ff" stroke="#63b8ff" points="123.55,-131.49 113.04,-132.81 122.09,-138.33 123.55,-131.49"/>
</a>
</g>
</g>
<!-- Node9&#45;&gt;Node5 -->
<g id="edge21_Node000009_Node000005" class="edge">
<title>Node9&#45;&gt;Node5</title>
<g id="a_edge21_Node000009_Node000005"><a xlink:title=" ">
<path fill="none" stroke="#63b8ff" d="M320.16,-167.87C321.87,-154.58 326.48,-129.59 338.25,-112 363.8,-73.82 408.27,-43.13 436.97,-25.99"/>
<polygon fill="#63b8ff" stroke="#63b8ff" points="438.56,-29.11 445.45,-21.06 435.05,-23.06 438.56,-29.11"/>
</a>
</g>
</g>
<!-- Node9&#45;&gt;Node7 -->
<g id="edge19_Node000009_Node000007" class="edge">
<title>Node9&#45;&gt;Node7</title>
<g id="a_edge19_Node000009_Node000007"><a xlink:title=" ">
<path fill="none" stroke="#63b8ff" d="M306.88,-167.59C296.6,-159.77 281.73,-148.46 269.54,-139.19"/>
<polygon fill="#63b8ff" stroke="#63b8ff" points="271.76,-136.48 261.68,-133.21 267.52,-142.05 271.76,-136.48"/>
</a>
</g>
</g>
<!-- Node10 -->
<g id="Node000010" class="node">
<title>Node10</title>
<g id="a_Node000010"><a xlink:href="_animation_controller_8h.html" target="_top" xlink:title="アニメーション再生管理クラス">
<polygon fill="white" stroke="#666666" points="519.25,-132 347.25,-132 347.25,-112 519.25,-112 519.25,-132"/>
<text xml:space="preserve" text-anchor="middle" x="433.25" y="-118.5" font-family="Helvetica,sans-Serif" font-size="10.00">../Component/AnimationController.h</text>
</a>
</g>
</g>
<!-- Node9&#45;&gt;Node10 -->
<g id="edge13_Node000009_Node000010" class="edge">
<title>Node9&#45;&gt;Node10</title>
<g id="a_edge13_Node000009_Node000010"><a xlink:title=" ">
<path fill="none" stroke="#63b8ff" d="M339.1,-167.59C356.73,-159.24 382.76,-146.92 402.98,-137.34"/>
<polygon fill="#63b8ff" stroke="#63b8ff" points="404.33,-140.57 411.87,-133.13 401.33,-134.25 404.33,-140.57"/>
</a>
</g>
</g>
<!-- Node11 -->
<g id="Node000011" class="node">
<title>Node11</title>
<g id="a_Node000011"><a xlink:href="_collider_8h.html" target="_top" xlink:title="衝突判定用のコンポーネント定義">
<polygon fill="white" stroke="#666666" points="657,-132 537.5,-132 537.5,-112 657,-112 657,-132"/>
<text xml:space="preserve" text-anchor="middle" x="597.25" y="-118.5" font-family="Helvetica,sans-Serif" font-size="10.00">../Component/Collider.h</text>
</a>
</g>
</g>
<!-- Node9&#45;&gt;Node11 -->
<g id="edge16_Node000009_Node000011" class="edge">
<title>Node9&#45;&gt;Node11</title>
<g id="a_edge16_Node000009_Node000011"><a xlink:title=" ">
<path fill="none" stroke="#63b8ff" d="M346.66,-171.67C390.74,-163.11 478.38,-146.09 537.43,-134.62"/>
<polygon fill="#63b8ff" stroke="#63b8ff" points="537.83,-138.11 546.98,-132.76 536.5,-131.24 537.83,-138.11"/>
</a>
</g>
</g>
<!-- Node13 -->
<g id="Node000013" class="node">
<title>Node13</title>
<g id="a_Node000013"><a xlink:title=" ">
<polygon fill="#e0e0e0" stroke="#999999" points="186.87,-132 135.62,-132 135.62,-112 186.87,-112 186.87,-132"/>
<text xml:space="preserve" text-anchor="middle" x="161.25" y="-118.5" font-family="Helvetica,sans-Serif" font-size="10.00">memory</text>
</a>
</g>
</g>
<!-- Node9&#45;&gt;Node13 -->
<g id="edge20_Node000009_Node000013" class="edge">
<title>Node9&#45;&gt;Node13</title>
<g id="a_edge20_Node000009_Node000013"><a xlink:title=" ">
<path fill="none" stroke="#63b8ff" d="M291.73,-167.59C265.73,-158.71 226.57,-145.33 197.94,-135.54"/>
<polygon fill="#63b8ff" stroke="#63b8ff" points="199.17,-132.26 188.58,-132.34 196.91,-138.89 199.17,-132.26"/>
</a>
</g>
</g>
<!-- Node10&#45;&gt;Node4 -->
<g id="edge14_Node000010_Node000004" class="edge">
<title>Node10&#45;&gt;Node4</title>
<g id="a_edge14_Node000010_Node000004"><a xlink:title=" ">
<path fill="none" stroke="#63b8ff" d="M377.49,-111.53C323.05,-102.29 240.16,-88.21 182.19,-78.37"/>
<polygon fill="#63b8ff" stroke="#63b8ff" points="182.87,-74.93 172.43,-76.71 181.7,-81.84 182.87,-74.93"/>
</a>
</g>
</g>
<!-- Node10&#45;&gt;Node5 -->
<g id="edge15_Node000010_Node000005" class="edge">
<title>Node10&#45;&gt;Node5</title>
<g id="a_edge15_Node000010_Node000005"><a xlink:title=" ">
<path fill="none" stroke="#63b8ff" d="M435.89,-111.62C440.88,-93.92 451.78,-55.24 458.52,-31.32"/>
<polygon fill="#63b8ff" stroke="#63b8ff" points="461.86,-32.39 461.2,-21.81 455.12,-30.49 461.86,-32.39"/>
</a>
</g>
</g>
<!-- Node11&#45;&gt;Node5 -->
<g id="edge17_Node000011_Node000005" class="edge">
<title>Node11&#45;&gt;Node5</title>
<g id="a_edge17_Node000011_Node000005"><a xlink:title=" ">
<path fill="none" stroke="#63b8ff" d="M577.1,-111.56C560.84,-103.41 537.86,-90.66 520.25,-76 503.67,-62.2 487.92,-43.2 477.37,-29.31"/>
<polygon fill="#63b8ff" stroke="#63b8ff" points="480.33,-27.43 471.57,-21.47 474.7,-31.59 480.33,-27.43"/>
</a>
</g>
</g>
<!-- Node11&#45;&gt;Node12 -->
<g id="edge18_Node000011_Node000012" class="edge">
<title>Node11&#45;&gt;Node12</title>
<g id="a_edge18_Node000011_Node000012"><a xlink:title=" ">
<path fill="none" stroke="#63b8ff" d="M595.16,-111.59C593.68,-104.93 591.63,-95.75 589.79,-87.44"/>
<polygon fill="#63b8ff" stroke="#63b8ff" points="593.23,-86.78 587.64,-77.78 586.39,-88.3 593.23,-86.78"/>
</a>
</g>
</g>
<!-- Node14&#45;&gt;Node5 -->
<g id="edge28_Node000014_Node000005" class="edge">
<title>Node14&#45;&gt;Node5</title>
<g id="a_edge28_Node000014_Node000005"><a xlink:title=" ">
<path fill="none" stroke="#63b8ff" d="M620.97,-167.57C646.91,-155.84 682.76,-134.59 666.25,-112 635.14,-69.45 600.25,-99.85 553.25,-76 539.26,-68.9 506.71,-44.25 485.09,-27.43"/>
<polygon fill="#63b8ff" stroke="#63b8ff" points="487.26,-24.68 477.22,-21.28 482.94,-30.2 487.26,-24.68"/>
</a>
</g>
</g>
<!-- Node14&#45;&gt;Node7 -->
<g id="edge27_Node000014_Node000007" class="edge">
<title>Node14&#45;&gt;Node7</title>
<g id="a_edge27_Node000014_Node000007"><a xlink:title=" ">
<path fill="none" stroke="#63b8ff" d="M571.01,-172.94C514.32,-164.17 379.34,-143.28 303.11,-131.49"/>
<polygon fill="#63b8ff" stroke="#63b8ff" points="303.77,-128.05 293.35,-129.98 302.69,-134.97 303.77,-128.05"/>
</a>
</g>
</g>
<!-- Node14&#45;&gt;Node10 -->
<g id="edge23_Node000014_Node000010" class="edge">
<title>Node14&#45;&gt;Node10</title>
<g id="a_edge23_Node000014_Node000010"><a xlink:title=" ">
<path fill="none" stroke="#63b8ff" d="M570.9,-168.32C544.37,-159.59 503.12,-146.01 472.69,-135.99"/>
<polygon fill="#63b8ff" stroke="#63b8ff" points="474.04,-132.75 463.45,-132.95 471.86,-139.4 474.04,-132.75"/>
</a>
</g>
</g>
<!-- Node14&#45;&gt;Node11 -->
<g id="edge24_Node000014_Node000011" class="edge">
<title>Node14&#45;&gt;Node11</title>
<g id="a_edge24_Node000014_Node000011"><a xlink:title=" ">
<path fill="none" stroke="#63b8ff" d="M597.25,-167.59C597.25,-161.01 597.25,-151.96 597.25,-143.73"/>
<polygon fill="#63b8ff" stroke="#63b8ff" points="600.75,-143.81 597.25,-133.81 593.75,-143.81 600.75,-143.81"/>
</a>
</g>
</g>
<!-- Node15 -->
<g id="Node000015" class="node">
<title>Node15</title>
<g id="a_Node000015"><a xlink:href="_sound_controller_8h.html" target="_top" xlink:title="サウンド再生管理クラス">
<polygon fill="white" stroke="#666666" points="782.37,-76 626.12,-76 626.12,-56 782.37,-56 782.37,-76"/>
<text xml:space="preserve" text-anchor="middle" x="704.25" y="-62.5" font-family="Helvetica,sans-Serif" font-size="10.00">../Component/SoundController.h</text>
</a>
</g>
</g>
<!-- Node14&#45;&gt;Node15 -->
<g id="edge25_Node000014_Node000015" class="edge">
<title>Node14&#45;&gt;Node15</title>
<g id="a_edge25_Node000014_Node000015"><a xlink:title=" ">
<path fill="none" stroke="#63b8ff" d="M623.33,-173.14C647.3,-168.11 681.69,-156.8 699.25,-132 708.26,-119.27 709.02,-101.41 707.8,-87.63"/>
<polygon fill="#63b8ff" stroke="#63b8ff" points="711.29,-87.34 706.5,-77.89 704.35,-88.26 711.29,-87.34"/>
</a>
</g>
</g>
<!-- Node15&#45;&gt;Node5 -->
<g id="edge26_Node000015_Node000005" class="edge">
<title>Node15&#45;&gt;Node5</title>
<g id="a_edge26_Node000015_Node000005"><a xlink:title=" ">
<path fill="none" stroke="#63b8ff" d="M662.17,-55.53C618.48,-45.7 550.52,-30.41 506.7,-20.55"/>
<polygon fill="#63b8ff" stroke="#63b8ff" points="507.56,-17.16 497.04,-18.38 506.03,-23.99 507.56,-17.16"/>
</a>
</g>
</g>
</g>
</svg>
