<?xml version="1.0" encoding="UTF-8" standalone="no"?>
<!DOCTYPE svg PUBLIC "-//W3C//DTD SVG 1.1//EN"
 "http://www.w3.org/Graphics/SVG/1.1/DTD/svg11.dtd">
<!-- Generated by graphviz version 14.0.2 (20251019.1705)
 -->
<!-- Title: src/Scene/GameScene.cpp Pages: 1 -->
<svg width="1665pt" height="308pt"
 viewBox="0.00 0.00 1665.00 308.00" xmlns="http://www.w3.org/2000/svg" xmlns:xlink="http://www.w3.org/1999/xlink">
<g id="graph0" class="graph" transform="scale(1 1) rotate(0) translate(4 304)">
<title>src/Scene/GameScene.cpp</title>
<!-- Node1 -->
<g id="Node000001" class="node">
<title>Node1</title>
<g id="a_Node000001"><a xlink:title=" ">
<polygon fill="#999999" stroke="#666666" points="1416.88,-300 1280.88,-300 1280.88,-280 1416.88,-280 1416.88,-300"/>
<text xml:space="preserve" text-anchor="middle" x="1348.88" y="-286.5" font-family="Helvetica,sans-Serif" font-size="10.00">src/Scene/GameScene.cpp</text>
</a>
</g>
</g>
<!-- Node2 -->
<g id="Node000002" class="node">
<title>Node2</title>
<g id="a_Node000002"><a xlink:href="_config_8h.html" target="_top" xlink:title="ゲーム設定の定義">
<polygon fill="white" stroke="#666666" points="85.75,-188 0,-188 0,-168 85.75,-168 85.75,-188"/>
<text xml:space="preserve" text-anchor="middle" x="42.88" y="-174.5" font-family="Helvetica,sans-Serif" font-size="10.00">../Core/Config.h</text>
</a>
</g>
</g>
<!-- Node1&#45;&gt;Node2 -->
<g id="edge1_Node000001_Node000002" class="edge">
<title>Node1&#45;&gt;Node2</title>
<g id="a_edge1_Node000001_Node000002"><a xlink:title=" ">
<path fill="none" stroke="#63b8ff" d="M1280.46,-287.43C1084.85,-282.72 525.64,-267.53 343.88,-244 252.17,-232.13 146.98,-206.63 88.39,-191.33"/>
<polygon fill="#63b8ff" stroke="#63b8ff" points="89.33,-187.96 78.77,-188.8 87.55,-194.73 89.33,-187.96"/>
</a>
</g>
</g>
<!-- Node3 -->
<g id="Node000003" class="node">
<title>Node3</title>
<g id="a_Node000003"><a xlink:title=" ">
<polygon fill="#e0e0e0" stroke="#999999" points="591.75,-20 530,-20 530,0 591.75,0 591.75,-20"/>
<text xml:space="preserve" text-anchor="middle" x="560.88" y="-6.5" font-family="Helvetica,sans-Serif" font-size="10.00">Siv3D.hpp</text>
</a>
</g>
</g>
<!-- Node1&#45;&gt;Node3 -->
<g id="edge52_Node000001_Node000003" class="edge">
<title>Node1&#45;&gt;Node3</title>
<g id="a_edge52_Node000001_Node000003"><a xlink:title=" ">
<path fill="none" stroke="#63b8ff" d="M1412.32,-279.5C1502.48,-264.19 1656.88,-230.46 1656.88,-179 1656.88,-179 1656.88,-179 1656.88,-121 1656.88,-13.13 805.49,-9.96 603.49,-10.72"/>
<polygon fill="#63b8ff" stroke="#63b8ff" points="603.7,-7.22 593.72,-10.77 603.73,-14.22 603.7,-7.22"/>
</a>
</g>
</g>
<!-- Node4 -->
<g id="Node000004" class="node">
<title>Node4</title>
<g id="a_Node000004"><a xlink:href="_asset_system_8h.html" target="_top" xlink:title="アセット管理システムの定義">
<polygon fill="white" stroke="#666666" points="1556.5,-188 1427.25,-188 1427.25,-168 1556.5,-168 1556.5,-188"/>
<text xml:space="preserve" text-anchor="middle" x="1491.88" y="-174.5" font-family="Helvetica,sans-Serif" font-size="10.00">../System/AssetSystem.h</text>
</a>
</g>
</g>
<!-- Node1&#45;&gt;Node4 -->
<g id="edge3_Node000001_Node000004" class="edge">
<title>Node1&#45;&gt;Node4</title>
<g id="a_edge3_Node000001_Node000004"><a xlink:title=" ">
<path fill="none" stroke="#63b8ff" d="M1362.82,-279.64C1375.94,-270.74 1396.02,-256.83 1412.88,-244 1433.9,-227.99 1457.18,-208.63 1472.98,-195.23"/>
<polygon fill="#63b8ff" stroke="#63b8ff" points="1474.86,-198.23 1480.2,-189.07 1470.32,-192.9 1474.86,-198.23"/>
</a>
</g>
</g>
<!-- Node9 -->
<g id="Node000009" class="node">
<title>Node9</title>
<g id="a_Node000009"><a xlink:href="_spawn_info_8h.html" target="_top" xlink:title="スポーン情報の定義">
<polygon fill="white" stroke="#666666" points="667.62,-76 560.12,-76 560.12,-56 667.62,-56 667.62,-76"/>
<text xml:space="preserve" text-anchor="middle" x="613.88" y="-62.5" font-family="Helvetica,sans-Serif" font-size="10.00">../World/SpawnInfo.h</text>
</a>
</g>
</g>
<!-- Node1&#45;&gt;Node9 -->
<g id="edge9_Node000001_Node000009" class="edge">
<title>Node1&#45;&gt;Node9</title>
<g id="a_edge9_Node000001_Node000009"><a xlink:title=" ">
<path fill="none" stroke="#63b8ff" d="M1346.47,-279.51C1338.15,-248.85 1307.41,-152.12 1241.88,-112 1194.77,-83.17 830.61,-71.81 679.38,-68.31"/>
<polygon fill="#63b8ff" stroke="#63b8ff" points="679.6,-64.81 669.52,-68.09 679.44,-71.81 679.6,-64.81"/>
</a>
</g>
</g>
<!-- Node10 -->
<g id="Node000010" class="node">
<title>Node10</title>
<g id="a_Node000010"><a xlink:href="_game_scene_8h.html" target="_top" xlink:title="ゲームシーンの定義">
<polygon fill="white" stroke="#666666" points="431,-244 352.75,-244 352.75,-224 431,-224 431,-244"/>
<text xml:space="preserve" text-anchor="middle" x="391.88" y="-230.5" font-family="Helvetica,sans-Serif" font-size="10.00">GameScene.h</text>
</a>
</g>
</g>
<!-- Node1&#45;&gt;Node10 -->
<g id="edge11_Node000001_Node000010" class="edge">
<title>Node1&#45;&gt;Node10</title>
<g id="a_edge11_Node000001_Node000010"><a xlink:title=" ">
<path fill="none" stroke="#63b8ff" d="M1280.43,-285.14C1098.05,-274.85 603.32,-246.93 442.86,-237.88"/>
<polygon fill="#63b8ff" stroke="#63b8ff" points="443.15,-234.39 432.97,-237.32 442.75,-241.38 443.15,-234.39"/>
</a>
</g>
</g>
<!-- Node17 -->
<g id="Node000017" class="node">
<title>Node17</title>
<g id="a_Node000017"><a xlink:title=" ">
<polygon fill="#e0e0e0" stroke="#999999" points="1283.5,-76 1238.25,-76 1238.25,-56 1283.5,-56 1283.5,-76"/>
<text xml:space="preserve" text-anchor="middle" x="1260.88" y="-62.5" font-family="Helvetica,sans-Serif" font-size="10.00">variant</text>
</a>
</g>
</g>
<!-- Node1&#45;&gt;Node17 -->
<g id="edge53_Node000001_Node000017" class="edge">
<title>Node1&#45;&gt;Node17</title>
<g id="a_edge53_Node000001_Node000017"><a xlink:title=" ">
<path fill="none" stroke="#63b8ff" d="M1354.88,-279.54C1371.97,-251.28 1417.29,-166.16 1379.88,-112 1377.29,-108.26 1328.79,-90.71 1294.51,-78.67"/>
<polygon fill="#63b8ff" stroke="#63b8ff" points="1295.99,-75.47 1285.39,-75.47 1293.67,-82.08 1295.99,-75.47"/>
</a>
</g>
</g>
<!-- Node2&#45;&gt;Node3 -->
<g id="edge2_Node000002_Node000003" class="edge">
<title>Node2&#45;&gt;Node3</title>
<g id="a_edge2_Node000002_Node000003"><a xlink:title=" ">
<path fill="none" stroke="#63b8ff" d="M36.43,-167.7C21.78,-145.33 -10.57,-87.99 18.88,-56 52.49,-19.48 396.47,-12.59 518.35,-11.3"/>
<polygon fill="#63b8ff" stroke="#63b8ff" points="518.29,-14.8 528.25,-11.2 518.22,-7.8 518.29,-14.8"/>
</a>
</g>
</g>
<!-- Node4&#45;&gt;Node3 -->
<g id="edge5_Node000004_Node000003" class="edge">
<title>Node4&#45;&gt;Node3</title>
<g id="a_edge5_Node000004_Node000003"><a xlink:title=" ">
<path fill="none" stroke="#63b8ff" d="M1482.27,-167.72C1467.99,-154.26 1439.92,-129.05 1412.88,-112 1363.09,-80.61 1349.91,-70.5 1292.88,-56 1160.98,-22.46 738.95,-13.56 603.29,-11.53"/>
<polygon fill="#63b8ff" stroke="#63b8ff" points="603.74,-8.04 593.69,-11.39 603.64,-15.04 603.74,-8.04"/>
</a>
</g>
</g>
<!-- Node5 -->
<g id="Node000005" class="node">
<title>Node5</title>
<g id="a_Node000005"><a xlink:title=" ">
<polygon fill="#e0e0e0" stroke="#999999" points="1510.5,-132 1465.25,-132 1465.25,-112 1510.5,-112 1510.5,-132"/>
<text xml:space="preserve" text-anchor="middle" x="1487.88" y="-118.5" font-family="Helvetica,sans-Serif" font-size="10.00">chrono</text>
</a>
</g>
</g>
<!-- Node4&#45;&gt;Node5 -->
<g id="edge4_Node000004_Node000005" class="edge">
<title>Node4&#45;&gt;Node5</title>
<g id="a_edge4_Node000004_Node000005"><a xlink:title=" ">
<path fill="none" stroke="#63b8ff" d="M1491.18,-167.59C1490.69,-161.01 1490.02,-151.96 1489.41,-143.73"/>
<polygon fill="#63b8ff" stroke="#63b8ff" points="1492.9,-143.52 1488.68,-133.81 1485.92,-144.04 1492.9,-143.52"/>
</a>
</g>
</g>
<!-- Node6 -->
<g id="Node000006" class="node">
<title>Node6</title>
<g id="a_Node000006"><a xlink:title=" ">
<polygon fill="#e0e0e0" stroke="#999999" points="1571.38,-132 1528.38,-132 1528.38,-112 1571.38,-112 1571.38,-132"/>
<text xml:space="preserve" text-anchor="middle" x="1549.88" y="-118.5" font-family="Helvetica,sans-Serif" font-size="10.00">thread</text>
</a>
</g>
</g>
<!-- Node4&#45;&gt;Node6 -->
<g id="edge6_Node000004_Node000006" class="edge">
<title>Node4&#45;&gt;Node6</title>
<g id="a_edge6_Node000004_Node000006"><a xlink:title=" ">
<path fill="none" stroke="#63b8ff" d="M1501.98,-167.59C1510.13,-160.01 1521.81,-149.13 1531.59,-140.02"/>
<polygon fill="#63b8ff" stroke="#63b8ff" points="1533.85,-142.71 1538.78,-133.33 1529.08,-137.58 1533.85,-142.71"/>
</a>
</g>
</g>
<!-- Node7 -->
<g id="Node000007" class="node">
<title>Node7</title>
<g id="a_Node000007"><a xlink:title=" ">
<polygon fill="#e0e0e0" stroke="#999999" points="1628.5,-132 1589.25,-132 1589.25,-112 1628.5,-112 1628.5,-132"/>
<text xml:space="preserve" text-anchor="middle" x="1608.88" y="-118.5" font-family="Helvetica,sans-Serif" font-size="10.00">utility</text>
</a>
</g>
</g>
<!-- Node4&#45;&gt;Node7 -->
<g id="edge7_Node000004_Node000007" class="edge">
<title>Node4&#45;&gt;Node7</title>
<g id="a_edge7_Node000004_Node000007"><a xlink:title=" ">
<path fill="none" stroke="#63b8ff" d="M1512.25,-167.59C1530.65,-159.1 1557.96,-146.5 1578.86,-136.85"/>
<polygon fill="#63b8ff" stroke="#63b8ff" points="1580.13,-140.12 1587.74,-132.75 1577.2,-133.77 1580.13,-140.12"/>
</a>
</g>
</g>
<!-- Node8 -->
<g id="Node000008" class="node">
<title>Node8</title>
<g id="a_Node000008"><a xlink:title=" ">
<polygon fill="#e0e0e0" stroke="#999999" points="1370.38,-132 1327.38,-132 1327.38,-112 1370.38,-112 1370.38,-132"/>
<text xml:space="preserve" text-anchor="middle" x="1348.88" y="-118.5" font-family="Helvetica,sans-Serif" font-size="10.00">vector</text>
</a>
</g>
</g>
<!-- Node4&#45;&gt;Node8 -->
<g id="edge8_Node000004_Node000008" class="edge">
<title>Node4&#45;&gt;Node8</title>
<g id="a_edge8_Node000004_Node000008"><a xlink:title=" ">
<path fill="none" stroke="#63b8ff" d="M1466.97,-167.59C1443.16,-158.6 1407.15,-145.01 1381.15,-135.19"/>
<polygon fill="#63b8ff" stroke="#63b8ff" points="1382.7,-132.03 1372.11,-131.77 1380.23,-138.58 1382.7,-132.03"/>
</a>
</g>
</g>
<!-- Node9&#45;&gt;Node3 -->
<g id="edge10_Node000009_Node000003" class="edge">
<title>Node9&#45;&gt;Node3</title>
<g id="a_edge10_Node000009_Node000003"><a xlink:title=" ">
<path fill="none" stroke="#63b8ff" d="M604.64,-55.59C597.27,-48.08 586.74,-37.35 577.86,-28.3"/>
<polygon fill="#63b8ff" stroke="#63b8ff" points="580.56,-26.06 571.06,-21.38 575.57,-30.97 580.56,-26.06"/>
</a>
</g>
</g>
<!-- Node10&#45;&gt;Node2 -->
<g id="edge14_Node000010_Node000002" class="edge">
<title>Node10&#45;&gt;Node2</title>
<g id="a_edge14_Node000010_Node000002"><a xlink:title=" ">
<path fill="none" stroke="#63b8ff" d="M352.67,-227C296.61,-218.42 190.34,-202.11 99.88,-188 99.04,-187.87 98.2,-187.74 97.35,-187.61"/>
<polygon fill="#63b8ff" stroke="#63b8ff" points="98.05,-184.17 87.63,-186.08 96.96,-191.09 98.05,-184.17"/>
</a>
</g>
</g>
<!-- Node10&#45;&gt;Node3 -->
<g id="edge51_Node000010_Node000003" class="edge">
<title>Node10&#45;&gt;Node3</title>
<g id="a_edge51_Node000010_Node000003"><a xlink:title=" ">
<path fill="none" stroke="#63b8ff" d="M352.4,-229.64C318.52,-225.01 269.91,-214.03 235.88,-188 188.58,-151.82 169.41,-96.71 212.88,-56 256.2,-15.42 435.22,-10.55 518.24,-10.53"/>
<polygon fill="#63b8ff" stroke="#63b8ff" points="518.01,-14.03 528.02,-10.56 518.02,-7.03 518.01,-14.03"/>
</a>
</g>
</g>
<!-- Node11 -->
<g id="Node000011" class="node">
<title>Node11</title>
<g id="a_Node000011"><a xlink:href="_sound_controller_8h.html" target="_top" xlink:title="サウンド再生管理クラス">
<polygon fill="white" stroke="#666666" points="374,-132 217.75,-132 217.75,-112 374,-112 374,-132"/>
<text xml:space="preserve" text-anchor="middle" x="295.88" y="-118.5" font-family="Helvetica,sans-Serif" font-size="10.00">../Component/SoundController.h</text>
</a>
</g>
</g>
<!-- Node10&#45;&gt;Node11 -->
<g id="edge12_Node000010_Node000011" class="edge">
<title>Node10&#45;&gt;Node11</title>
<g id="a_edge12_Node000010_Node000011"><a xlink:title=" ">
<path fill="none" stroke="#63b8ff" d="M383.69,-223.62C367.68,-205.27 331.98,-164.37 311.37,-140.75"/>
<polygon fill="#63b8ff" stroke="#63b8ff" points="314.25,-138.73 305.03,-133.5 308.97,-143.33 314.25,-138.73"/>
</a>
</g>
</g>
<!-- Node12 -->
<g id="Node000012" class="node">
<title>Node12</title>
<g id="a_Node000012"><a xlink:href="_enemy_8h.html" target="_top" xlink:title="敵クラスの定義">
<polygon fill="white" stroke="#666666" points="868.88,-188 774.88,-188 774.88,-168 868.88,-168 868.88,-188"/>
<text xml:space="preserve" text-anchor="middle" x="821.88" y="-174.5" font-family="Helvetica,sans-Serif" font-size="10.00">../Entitie/Enemy.h</text>
</a>
</g>
</g>
<!-- Node10&#45;&gt;Node12 -->
<g id="edge15_Node000010_Node000012" class="edge">
<title>Node10&#45;&gt;Node12</title>
<g id="a_edge15_Node000010_Node000012"><a xlink:title=" ">
<path fill="none" stroke="#63b8ff" d="M431.17,-228.06C507.05,-218.54 674.06,-197.56 763.17,-186.37"/>
<polygon fill="#63b8ff" stroke="#63b8ff" points="763.43,-189.87 772.92,-185.15 762.56,-182.92 763.43,-189.87"/>
</a>
</g>
</g>
<!-- Node18 -->
<g id="Node000018" class="node">
<title>Node18</title>
<g id="a_Node000018"><a xlink:href="_stage_8h.html" target="_top" xlink:title="ステージ管理の定義">
<polygon fill="white" stroke="#666666" points="516.12,-132 429.62,-132 429.62,-112 516.12,-112 516.12,-132"/>
<text xml:space="preserve" text-anchor="middle" x="472.88" y="-118.5" font-family="Helvetica,sans-Serif" font-size="10.00">../World/Stage.h</text>
</a>
</g>
</g>
<!-- Node10&#45;&gt;Node18 -->
<g id="edge50_Node000010_Node000018" class="edge">
<title>Node10&#45;&gt;Node18</title>
<g id="a_edge50_Node000010_Node000018"><a xlink:title=" ">
<path fill="none" stroke="#63b8ff" d="M392.68,-223.79C394.25,-210.41 398.69,-185.3 410.88,-168 419.43,-155.85 432.33,-145.74 444.15,-138.19"/>
<polygon fill="#63b8ff" stroke="#63b8ff" points="445.62,-141.39 452.4,-133.25 442.02,-135.38 445.62,-141.39"/>
</a>
</g>
</g>
<!-- Node20 -->
<g id="Node000020" class="node">
<title>Node20</title>
<g id="a_Node000020"><a xlink:href="_oxygen_spot_8h.html" target="_top" xlink:title="酸素スポットクラスの定義">
<polygon fill="white" stroke="#666666" points="537.88,-188 419.88,-188 419.88,-168 537.88,-168 537.88,-188"/>
<text xml:space="preserve" text-anchor="middle" x="478.88" y="-174.5" font-family="Helvetica,sans-Serif" font-size="10.00">../Entitie/OxygenSpot.h</text>
</a>
</g>
</g>
<!-- Node10&#45;&gt;Node20 -->
<g id="edge29_Node000010_Node000020" class="edge">
<title>Node10&#45;&gt;Node20</title>
<g id="a_edge29_Node000010_Node000020"><a xlink:title=" ">
<path fill="none" stroke="#63b8ff" d="M407.03,-223.59C419.92,-215.59 438.71,-203.93 453.83,-194.54"/>
<polygon fill="#63b8ff" stroke="#63b8ff" points="455.67,-197.53 462.32,-189.28 451.97,-191.58 455.67,-197.53"/>
</a>
</g>
</g>
<!-- Node21 -->
<g id="Node000021" class="node">
<title>Node21</title>
<g id="a_Node000021"><a xlink:href="_player_8h.html" target="_top" xlink:title="プレイヤークラスの定義">
<polygon fill="white" stroke="#666666" points="659.75,-188 568,-188 568,-168 659.75,-168 659.75,-188"/>
<text xml:space="preserve" text-anchor="middle" x="613.88" y="-174.5" font-family="Helvetica,sans-Serif" font-size="10.00">../Entitie/Player.h</text>
</a>
</g>
</g>
<!-- Node10&#45;&gt;Node21 -->
<g id="edge34_Node000010_Node000021" class="edge">
<title>Node10&#45;&gt;Node21</title>
<g id="a_edge34_Node000010_Node000021"><a xlink:title=" ">
<path fill="none" stroke="#63b8ff" d="M430.8,-223.53C467.77,-214.54 523.55,-200.97 563.82,-191.18"/>
<polygon fill="#63b8ff" stroke="#63b8ff" points="564.64,-194.58 573.53,-188.81 562.98,-187.78 564.64,-194.58"/>
</a>
</g>
</g>
<!-- Node22 -->
<g id="Node000022" class="node">
<title>Node22</title>
<g id="a_Node000022"><a xlink:href="_camera_system_8h.html" target="_top" xlink:title="カメラ管理システムの定義">
<polygon fill="white" stroke="#666666" points="166,-76 27.75,-76 27.75,-56 166,-56 166,-76"/>
<text xml:space="preserve" text-anchor="middle" x="96.88" y="-62.5" font-family="Helvetica,sans-Serif" font-size="10.00">../System/CameraSystem.h</text>
</a>
</g>
</g>
<!-- Node10&#45;&gt;Node22 -->
<g id="edge40_Node000010_Node000022" class="edge">
<title>Node10&#45;&gt;Node22</title>
<g id="a_edge40_Node000010_Node000022"><a xlink:title=" ">
<path fill="none" stroke="#63b8ff" d="M352.35,-228.23C285.07,-219.79 153.95,-201.81 137.88,-188 108.25,-162.55 99.98,-114.85 97.7,-87.56"/>
<polygon fill="#63b8ff" stroke="#63b8ff" points="101.21,-87.58 97.11,-77.81 94.23,-88.01 101.21,-87.58"/>
</a>
</g>
</g>
<!-- Node23 -->
<g id="Node000023" class="node">
<title>Node23</title>
<g id="a_Node000023"><a xlink:href="_collision_system_8h.html" target="_top" xlink:title="衝突判定システムの定義">
<polygon fill="white" stroke="#666666" points="1250.5,-188 1109.25,-188 1109.25,-168 1250.5,-168 1250.5,-188"/>
<text xml:space="preserve" text-anchor="middle" x="1179.88" y="-174.5" font-family="Helvetica,sans-Serif" font-size="10.00">../System/CollisionSystem.h</text>
</a>
</g>
</g>
<!-- Node10&#45;&gt;Node23 -->
<g id="edge42_Node000010_Node000023" class="edge">
<title>Node10&#45;&gt;Node23</title>
<g id="a_edge42_Node000010_Node000023"><a xlink:title=" ">
<path fill="none" stroke="#63b8ff" d="M431.49,-230.29C554.15,-221.88 929.47,-196.16 1097.29,-184.66"/>
<polygon fill="#63b8ff" stroke="#63b8ff" points="1097.51,-188.15 1107.25,-183.98 1097.04,-181.17 1097.51,-188.15"/>
</a>
</g>
</g>
<!-- Node25 -->
<g id="Node000025" class="node">
<title>Node25</title>
<g id="a_Node000025"><a xlink:href="_u_i_system_8h.html" target="_top" xlink:title="UI表示管理システムの定義">
<polygon fill="white" stroke="#666666" points="336,-76 221.75,-76 221.75,-56 336,-56 336,-76"/>
<text xml:space="preserve" text-anchor="middle" x="278.88" y="-62.5" font-family="Helvetica,sans-Serif" font-size="10.00">../System/UISystem.h</text>
</a>
</g>
</g>
<!-- Node10&#45;&gt;Node25 -->
<g id="edge48_Node000010_Node000025" class="edge">
<title>Node10&#45;&gt;Node25</title>
<g id="a_edge48_Node000010_Node000025"><a xlink:title=" ">
<path fill="none" stroke="#63b8ff" d="M352.46,-223.9C308.58,-211.43 239.77,-184.34 208.88,-132 196.61,-111.22 220.89,-93.07 244.14,-81.27"/>
<polygon fill="#63b8ff" stroke="#63b8ff" points="245.37,-84.56 252.9,-77.11 242.37,-78.23 245.37,-84.56"/>
</a>
</g>
</g>
<!-- Node11&#45;&gt;Node3 -->
<g id="edge13_Node000011_Node000003" class="edge">
<title>Node11&#45;&gt;Node3</title>
<g id="a_edge13_Node000011_Node000003"><a xlink:title=" ">
<path fill="none" stroke="#63b8ff" d="M306.4,-111.6C322.71,-97.52 355.59,-70.99 387.88,-56 430.29,-36.3 482.71,-24.2 518.67,-17.58"/>
<polygon fill="#63b8ff" stroke="#63b8ff" points="519,-21.07 528.24,-15.88 517.78,-14.18 519,-21.07"/>
</a>
</g>
</g>
<!-- Node12&#45;&gt;Node3 -->
<g id="edge28_Node000012_Node000003" class="edge">
<title>Node12&#45;&gt;Node3</title>
<g id="a_edge28_Node000012_Node000003"><a xlink:title=" ">
<path fill="none" stroke="#63b8ff" d="M868.96,-171.92C918.63,-164.58 986.33,-147.77 959.88,-112 917.34,-54.5 697.34,-25.17 603.43,-15.11"/>
<polygon fill="#63b8ff" stroke="#63b8ff" points="603.92,-11.64 593.61,-14.08 603.19,-18.6 603.92,-11.64"/>
</a>
</g>
</g>
<!-- Node13 -->
<g id="Node000013" class="node">
<title>Node13</title>
<g id="a_Node000013"><a xlink:href="_i_behavior_strategy_8h.html" target="_top" xlink:title="敵の行動戦略インターフェースの定義">
<polygon fill="white" stroke="#666666" points="1130.5,-132 1007.25,-132 1007.25,-112 1130.5,-112 1130.5,-132"/>
<text xml:space="preserve" text-anchor="middle" x="1068.88" y="-118.5" font-family="Helvetica,sans-Serif" font-size="10.00">../AI/IBehaviorStrategy.h</text>
</a>
</g>
</g>
<!-- Node12&#45;&gt;Node13 -->
<g id="edge16_Node000012_Node000013" class="edge">
<title>Node12&#45;&gt;Node13</title>
<g id="a_edge16_Node000012_Node000013"><a xlink:title=" ">
<path fill="none" stroke="#63b8ff" d="M865.18,-167.53C906.76,-158.44 969.71,-144.68 1014.61,-134.86"/>
<polygon fill="#63b8ff" stroke="#63b8ff" points="1015.12,-138.34 1024.14,-132.78 1013.62,-131.5 1015.12,-138.34"/>
</a>
</g>
</g>
<!-- Node14 -->
<g id="Node000014" class="node">
<title>Node14</title>
<g id="a_Node000014"><a xlink:href="_animation_controller_8h.html" target="_top" xlink:title="アニメーション再生管理クラス">
<polygon fill="white" stroke="#666666" points="705.88,-132 533.88,-132 533.88,-112 705.88,-112 705.88,-132"/>
<text xml:space="preserve" text-anchor="middle" x="619.88" y="-118.5" font-family="Helvetica,sans-Serif" font-size="10.00">../Component/AnimationController.h</text>
</a>
</g>
</g>
<!-- Node12&#45;&gt;Node14 -->
<g id="edge17_Node000012_Node000014" class="edge">
<title>Node12&#45;&gt;Node14</title>
<g id="a_edge17_Node000012_Node000014"><a xlink:title=" ">
<path fill="none" stroke="#63b8ff" d="M786.69,-167.59C753.29,-158.67 702.9,-145.19 666.24,-135.39"/>
<polygon fill="#63b8ff" stroke="#63b8ff" points="667.36,-132.07 656.8,-132.87 665.55,-138.83 667.36,-132.07"/>
</a>
</g>
</g>
<!-- Node16 -->
<g id="Node000016" class="node">
<title>Node16</title>
<g id="a_Node000016"><a xlink:href="_collider_8h.html" target="_top" xlink:title="衝突判定用のコンポーネント定義">
<polygon fill="white" stroke="#666666" points="881.62,-132 762.12,-132 762.12,-112 881.62,-112 881.62,-132"/>
<text xml:space="preserve" text-anchor="middle" x="821.88" y="-118.5" font-family="Helvetica,sans-Serif" font-size="10.00">../Component/Collider.h</text>
</a>
</g>
</g>
<!-- Node12&#45;&gt;Node16 -->
<g id="edge21_Node000012_Node000016" class="edge">
<title>Node12&#45;&gt;Node16</title>
<g id="a_edge21_Node000012_Node000016"><a xlink:title=" ">
<path fill="none" stroke="#63b8ff" d="M821.88,-167.59C821.88,-161.01 821.88,-151.96 821.88,-143.73"/>
<polygon fill="#63b8ff" stroke="#63b8ff" points="825.38,-143.81 821.88,-133.81 818.38,-143.81 825.38,-143.81"/>
</a>
</g>
</g>
<!-- Node12&#45;&gt;Node18 -->
<g id="edge24_Node000012_Node000018" class="edge">
<title>Node12&#45;&gt;Node18</title>
<g id="a_edge24_Node000012_Node000018"><a xlink:title=" ">
<path fill="none" stroke="#63b8ff" d="M774.5,-170.14C718.14,-161.9 620.88,-147.47 527.87,-132.46"/>
<polygon fill="#63b8ff" stroke="#63b8ff" points="528.48,-129.01 518.05,-130.87 527.36,-135.92 528.48,-129.01"/>
</a>
</g>
</g>
<!-- Node19 -->
<g id="Node000019" class="node">
<title>Node19</title>
<g id="a_Node000019"><a xlink:title=" ">
<polygon fill="#e0e0e0" stroke="#999999" points="950.5,-132 899.25,-132 899.25,-112 950.5,-112 950.5,-132"/>
<text xml:space="preserve" text-anchor="middle" x="924.88" y="-118.5" font-family="Helvetica,sans-Serif" font-size="10.00">memory</text>
</a>
</g>
</g>
<!-- Node12&#45;&gt;Node19 -->
<g id="edge27_Node000012_Node000019" class="edge">
<title>Node12&#45;&gt;Node19</title>
<g id="a_edge27_Node000012_Node000019"><a xlink:title=" ">
<path fill="none" stroke="#63b8ff" d="M839.82,-167.59C855.52,-159.36 878.61,-147.26 896.76,-137.74"/>
<polygon fill="#63b8ff" stroke="#63b8ff" points="898.22,-140.93 905.45,-133.18 894.97,-134.73 898.22,-140.93"/>
</a>
</g>
</g>
<!-- Node14&#45;&gt;Node3 -->
<g id="edge20_Node000014_Node000003" class="edge">
<title>Node14&#45;&gt;Node3</title>
<g id="a_edge20_Node000014_Node000003"><a xlink:title=" ">
<path fill="none" stroke="#63b8ff" d="M638.59,-111.69C660.36,-99.58 691.54,-77.43 676.88,-56 660.45,-32.01 629.24,-20.81 603.32,-15.58"/>
<polygon fill="#63b8ff" stroke="#63b8ff" points="604.17,-12.17 593.72,-13.89 602.96,-19.07 604.17,-12.17"/>
</a>
</g>
</g>
<!-- Node15 -->
<g id="Node000015" class="node">
<title>Node15</title>
<g id="a_Node000015"><a xlink:href="_animation_8h.html" target="_top" xlink:title="アニメーションパターンの定義">
<polygon fill="white" stroke="#666666" points="541.75,-76 474,-76 474,-56 541.75,-56 541.75,-76"/>
<text xml:space="preserve" text-anchor="middle" x="507.88" y="-62.5" font-family="Helvetica,sans-Serif" font-size="10.00">Animation.h</text>
</a>
</g>
</g>
<!-- Node14&#45;&gt;Node15 -->
<g id="edge18_Node000014_Node000015" class="edge">
<title>Node14&#45;&gt;Node15</title>
<g id="a_edge18_Node000014_Node000015"><a xlink:title=" ">
<path fill="none" stroke="#63b8ff" d="M600.37,-111.59C583.13,-103.28 557.72,-91.03 537.89,-81.47"/>
<polygon fill="#63b8ff" stroke="#63b8ff" points="539.43,-78.33 528.9,-77.14 536.39,-84.63 539.43,-78.33"/>
</a>
</g>
</g>
<!-- Node15&#45;&gt;Node3 -->
<g id="edge19_Node000015_Node000003" class="edge">
<title>Node15&#45;&gt;Node3</title>
<g id="a_edge19_Node000015_Node000003"><a xlink:title=" ">
<path fill="none" stroke="#63b8ff" d="M517.11,-55.59C524.48,-48.08 535.01,-37.35 543.89,-28.3"/>
<polygon fill="#63b8ff" stroke="#63b8ff" points="546.18,-30.97 550.69,-21.38 541.19,-26.06 546.18,-30.97"/>
</a>
</g>
</g>
<!-- Node16&#45;&gt;Node3 -->
<g id="edge22_Node000016_Node000003" class="edge">
<title>Node16&#45;&gt;Node3</title>
<g id="a_edge22_Node000016_Node000003"><a xlink:title=" ">
<path fill="none" stroke="#63b8ff" d="M814.24,-111.9C801.81,-97.73 775.81,-70.49 747.88,-56 701.7,-32.05 642.49,-20.59 603.2,-15.28"/>
<polygon fill="#63b8ff" stroke="#63b8ff" points="603.79,-11.83 593.43,-14.04 602.91,-18.77 603.79,-11.83"/>
</a>
</g>
</g>
<!-- Node16&#45;&gt;Node17 -->
<g id="edge23_Node000016_Node000017" class="edge">
<title>Node16&#45;&gt;Node17</title>
<g id="a_edge23_Node000016_Node000017"><a xlink:title=" ">
<path fill="none" stroke="#63b8ff" d="M881.94,-113.01C884.62,-112.67 887.28,-112.33 889.88,-112 1013.79,-96.28 1161.15,-78.76 1226.61,-71.03"/>
<polygon fill="#63b8ff" stroke="#63b8ff" points="1226.83,-74.53 1236.35,-69.88 1226.01,-67.58 1226.83,-74.53"/>
</a>
</g>
</g>
<!-- Node18&#45;&gt;Node3 -->
<g id="edge26_Node000018_Node000003" class="edge">
<title>Node18&#45;&gt;Node3</title>
<g id="a_edge26_Node000018_Node000003"><a xlink:title=" ">
<path fill="none" stroke="#63b8ff" d="M468.28,-111.78C462.31,-98.39 453.9,-73.27 464.88,-56 476.79,-37.26 498.8,-26.19 518.74,-19.72"/>
<polygon fill="#63b8ff" stroke="#63b8ff" points="519.45,-23.16 528.07,-17 517.49,-16.43 519.45,-23.16"/>
</a>
</g>
</g>
<!-- Node18&#45;&gt;Node9 -->
<g id="edge25_Node000018_Node000009" class="edge">
<title>Node18&#45;&gt;Node9</title>
<g id="a_edge25_Node000018_Node000009"><a xlink:title=" ">
<path fill="none" stroke="#63b8ff" d="M497.44,-111.59C519.84,-103.01 553.21,-90.23 578.49,-80.55"/>
<polygon fill="#63b8ff" stroke="#63b8ff" points="579.62,-83.87 587.71,-77.02 577.12,-77.33 579.62,-83.87"/>
</a>
</g>
</g>
<!-- Node20&#45;&gt;Node3 -->
<g id="edge33_Node000020_Node000003" class="edge">
<title>Node20&#45;&gt;Node3</title>
<g id="a_edge33_Node000020_Node000003"><a xlink:title=" ">
<path fill="none" stroke="#63b8ff" d="M458.78,-167.52C445.33,-159.98 428.72,-148.02 420.88,-132 416.96,-124.02 418.42,-120.54 420.88,-112 428.97,-83.79 433.59,-75.1 455.88,-56 474,-40.47 498.29,-29.59 518.95,-22.43"/>
<polygon fill="#63b8ff" stroke="#63b8ff" points="519.82,-25.83 528.24,-19.39 517.64,-19.17 519.82,-25.83"/>
</a>
</g>
</g>
<!-- Node20&#45;&gt;Node14 -->
<g id="edge30_Node000020_Node000014" class="edge">
<title>Node20&#45;&gt;Node14</title>
<g id="a_edge30_Node000020_Node000014"><a xlink:title=" ">
<path fill="none" stroke="#63b8ff" d="M503.44,-167.59C525.84,-159.01 559.21,-146.23 584.49,-136.55"/>
<polygon fill="#63b8ff" stroke="#63b8ff" points="585.62,-139.87 593.71,-133.02 583.12,-133.33 585.62,-139.87"/>
</a>
</g>
</g>
<!-- Node20&#45;&gt;Node16 -->
<g id="edge31_Node000020_Node000016" class="edge">
<title>Node20&#45;&gt;Node16</title>
<g id="a_edge31_Node000020_Node000016"><a xlink:title=" ">
<path fill="none" stroke="#63b8ff" d="M538.23,-167.66C597.29,-158.36 687.94,-144.09 750.8,-134.19"/>
<polygon fill="#63b8ff" stroke="#63b8ff" points="750.98,-137.7 760.31,-132.69 749.89,-130.79 750.98,-137.7"/>
</a>
</g>
</g>
<!-- Node20&#45;&gt;Node18 -->
<g id="edge32_Node000020_Node000018" class="edge">
<title>Node20&#45;&gt;Node18</title>
<g id="a_edge32_Node000020_Node000018"><a xlink:title=" ">
<path fill="none" stroke="#63b8ff" d="M477.83,-167.59C477.1,-161.01 476.09,-151.96 475.18,-143.73"/>
<polygon fill="#63b8ff" stroke="#63b8ff" points="478.66,-143.35 474.08,-133.8 471.7,-144.13 478.66,-143.35"/>
</a>
</g>
</g>
<!-- Node21&#45;&gt;Node3 -->
<g id="edge39_Node000021_Node000003" class="edge">
<title>Node21&#45;&gt;Node3</title>
<g id="a_edge39_Node000021_Node000003"><a xlink:title=" ">
<path fill="none" stroke="#63b8ff" d="M660.05,-168.27C680.5,-161.86 702.65,-150.84 714.88,-132 719.72,-124.54 716.53,-120.73 714.88,-112 709.9,-85.73 712.21,-74.47 692.88,-56 668.64,-32.85 632.02,-21.58 603.49,-16.11"/>
<polygon fill="#63b8ff" stroke="#63b8ff" points="604.16,-12.67 593.71,-14.42 602.97,-19.57 604.16,-12.67"/>
</a>
</g>
</g>
<!-- Node21&#45;&gt;Node11 -->
<g id="edge37_Node000021_Node000011" class="edge">
<title>Node21&#45;&gt;Node11</title>
<g id="a_edge37_Node000021_Node000011"><a xlink:title=" ">
<path fill="none" stroke="#63b8ff" d="M567.64,-169.15C513.8,-160.01 424.42,-144.83 362.96,-134.39"/>
<polygon fill="#63b8ff" stroke="#63b8ff" points="363.76,-130.98 353.31,-132.75 362.58,-137.88 363.76,-130.98"/>
</a>
</g>
</g>
<!-- Node21&#45;&gt;Node14 -->
<g id="edge35_Node000021_Node000014" class="edge">
<title>Node21&#45;&gt;Node14</title>
<g id="a_edge35_Node000021_Node000014"><a xlink:title=" ">
<path fill="none" stroke="#63b8ff" d="M614.92,-167.59C615.65,-161.01 616.66,-151.96 617.57,-143.73"/>
<polygon fill="#63b8ff" stroke="#63b8ff" points="621.05,-144.13 618.67,-133.8 614.09,-143.35 621.05,-144.13"/>
</a>
</g>
</g>
<!-- Node21&#45;&gt;Node16 -->
<g id="edge36_Node000021_Node000016" class="edge">
<title>Node21&#45;&gt;Node16</title>
<g id="a_edge36_Node000021_Node000016"><a xlink:title=" ">
<path fill="none" stroke="#63b8ff" d="M650.11,-167.59C684.64,-158.63 736.84,-145.08 774.62,-135.27"/>
<polygon fill="#63b8ff" stroke="#63b8ff" points="775.1,-138.76 783.9,-132.86 773.34,-131.99 775.1,-138.76"/>
</a>
</g>
</g>
<!-- Node21&#45;&gt;Node18 -->
<g id="edge38_Node000021_Node000018" class="edge">
<title>Node21&#45;&gt;Node18</title>
<g id="a_edge38_Node000021_Node000018"><a xlink:title=" ">
<path fill="none" stroke="#63b8ff" d="M589.31,-167.59C566.91,-159.01 533.54,-146.23 508.26,-136.55"/>
<polygon fill="#63b8ff" stroke="#63b8ff" points="509.63,-133.33 499.04,-133.02 507.13,-139.87 509.63,-133.33"/>
</a>
</g>
</g>
<!-- Node22&#45;&gt;Node3 -->
<g id="edge41_Node000022_Node000003" class="edge">
<title>Node22&#45;&gt;Node3</title>
<g id="a_edge41_Node000022_Node000003"><a xlink:title=" ">
<path fill="none" stroke="#63b8ff" d="M166.34,-56.92C263.81,-45.57 438.2,-25.28 518.4,-15.94"/>
<polygon fill="#63b8ff" stroke="#63b8ff" points="518.49,-19.46 528.02,-14.82 517.68,-12.5 518.49,-19.46"/>
</a>
</g>
</g>
<!-- Node23&#45;&gt;Node3 -->
<g id="edge45_Node000023_Node000003" class="edge">
<title>Node23&#45;&gt;Node3</title>
<g id="a_edge45_Node000023_Node000003"><a xlink:title=" ">
<path fill="none" stroke="#63b8ff" d="M1176.87,-167.83C1171.7,-153.55 1159.72,-126.17 1139.88,-112 1053.07,-50.01 721.88,-21.91 603.36,-13.69"/>
<polygon fill="#63b8ff" stroke="#63b8ff" points="603.65,-10.2 593.43,-13.01 603.17,-17.18 603.65,-10.2"/>
</a>
</g>
</g>
<!-- Node23&#45;&gt;Node8 -->
<g id="edge47_Node000023_Node000008" class="edge">
<title>Node23&#45;&gt;Node8</title>
<g id="a_edge47_Node000023_Node000008"><a xlink:title=" ">
<path fill="none" stroke="#63b8ff" d="M1209.31,-167.59C1239.21,-158.04 1285.4,-143.28 1316.37,-133.39"/>
<polygon fill="#63b8ff" stroke="#63b8ff" points="1317.12,-136.82 1325.58,-130.44 1314.99,-130.15 1317.12,-136.82"/>
</a>
</g>
</g>
<!-- Node23&#45;&gt;Node16 -->
<g id="edge43_Node000023_Node000016" class="edge">
<title>Node23&#45;&gt;Node16</title>
<g id="a_edge43_Node000023_Node000016"><a xlink:title=" ">
<path fill="none" stroke="#63b8ff" d="M1117.11,-167.53C1054.45,-158.08 958.33,-143.58 892.92,-133.72"/>
<polygon fill="#63b8ff" stroke="#63b8ff" points="893.79,-130.31 883.38,-132.28 892.75,-137.23 893.79,-130.31"/>
</a>
</g>
</g>
<!-- Node23&#45;&gt;Node17 -->
<g id="edge46_Node000023_Node000017" class="edge">
<title>Node23&#45;&gt;Node17</title>
<g id="a_edge46_Node000023_Node000017"><a xlink:title=" ">
<path fill="none" stroke="#63b8ff" d="M1199.05,-167.53C1212.86,-159.77 1230.92,-147.55 1241.88,-132 1251.21,-118.75 1256,-100.93 1258.43,-87.3"/>
<polygon fill="#63b8ff" stroke="#63b8ff" points="1261.85,-88.11 1259.85,-77.71 1254.92,-87.09 1261.85,-88.11"/>
</a>
</g>
</g>
<!-- Node24 -->
<g id="Node000024" class="node">
<title>Node24</title>
<g id="a_Node000024"><a xlink:title=" ">
<polygon fill="#e0e0e0" stroke="#999999" points="1232.5,-132 1187.25,-132 1187.25,-112 1232.5,-112 1232.5,-132"/>
<text xml:space="preserve" text-anchor="middle" x="1209.88" y="-118.5" font-family="Helvetica,sans-Serif" font-size="10.00">cstdint</text>
</a>
</g>
</g>
<!-- Node23&#45;&gt;Node24 -->
<g id="edge44_Node000023_Node000024" class="edge">
<title>Node23&#45;&gt;Node24</title>
<g id="a_edge44_Node000023_Node000024"><a xlink:title=" ">
<path fill="none" stroke="#63b8ff" d="M1185.1,-167.59C1188.97,-160.63 1194.38,-150.89 1199.16,-142.29"/>
<polygon fill="#63b8ff" stroke="#63b8ff" points="1202.18,-144.06 1203.97,-133.62 1196.06,-140.66 1202.18,-144.06"/>
</a>
</g>
</g>
<!-- Node25&#45;&gt;Node3 -->
<g id="edge49_Node000025_Node000003" class="edge">
<title>Node25&#45;&gt;Node3</title>
<g id="a_edge49_Node000025_Node000003"><a xlink:title=" ">
<path fill="none" stroke="#63b8ff" d="M328.32,-55.53C382.25,-45.21 467.66,-28.85 518.59,-19.1"/>
<polygon fill="#63b8ff" stroke="#63b8ff" points="519.18,-22.55 528.34,-17.23 517.86,-15.67 519.18,-22.55"/>
</a>
</g>
</g>
</g>
</svg>
