<?xml version="1.0" encoding="UTF-8" standalone="no"?>
<!DOCTYPE svg PUBLIC "-//W3C//DTD SVG 1.1//EN"
 "http://www.w3.org/Graphics/SVG/1.1/DTD/svg11.dtd">
<!-- Generated by graphviz version 14.0.2 (20251019.1705)
 -->
<!-- Title: src/Scene/GameScene.h Pages: 1 -->
<svg width="1339pt" height="252pt"
 viewBox="0.00 0.00 1339.00 252.00" xmlns="http://www.w3.org/2000/svg" xmlns:xlink="http://www.w3.org/1999/xlink">
<g id="graph0" class="graph" transform="scale(1 1) rotate(0) translate(4 248)">
<title>src/Scene/GameScene.h</title>
<!-- Node1 -->
<g id="Node000001" class="node">
<title>Node1</title>
<g id="a_Node000001"><a xlink:title="ゲームシーンの定義">
<polygon fill="#999999" stroke="#666666" points="852.88,-244 727.38,-244 727.38,-224 852.88,-224 852.88,-244"/>
<text xml:space="preserve" text-anchor="middle" x="790.12" y="-230.5" font-family="Helvetica,sans-Serif" font-size="10.00">src/Scene/GameScene.h</text>
</a>
</g>
</g>
<!-- Node2 -->
<g id="Node000002" class="node">
<title>Node2</title>
<g id="a_Node000002"><a xlink:href="_sound_controller_8h.html" target="_top" xlink:title="サウンド再生管理クラス">
<polygon fill="white" stroke="#666666" points="156.25,-132 0,-132 0,-112 156.25,-112 156.25,-132"/>
<text xml:space="preserve" text-anchor="middle" x="78.12" y="-118.5" font-family="Helvetica,sans-Serif" font-size="10.00">../Component/SoundController.h</text>
</a>
</g>
</g>
<!-- Node1&#45;&gt;Node2 -->
<g id="edge1_Node000001_Node000002" class="edge">
<title>Node1&#45;&gt;Node2</title>
<g id="a_edge1_Node000001_Node000002"><a xlink:title=" ">
<path fill="none" stroke="#63b8ff" d="M727.23,-231.26C597.16,-227.14 302.69,-215.08 206.12,-188 167.28,-177.11 126.38,-154 101.56,-138.48"/>
<polygon fill="#63b8ff" stroke="#63b8ff" points="103.54,-135.6 93.23,-133.17 99.78,-141.5 103.54,-135.6"/>
</a>
</g>
</g>
<!-- Node3 -->
<g id="Node000003" class="node">
<title>Node3</title>
<g id="a_Node000003"><a xlink:title=" ">
<polygon fill="#e0e0e0" stroke="#999999" points="600,-20 538.25,-20 538.25,0 600,0 600,-20"/>
<text xml:space="preserve" text-anchor="middle" x="569.12" y="-6.5" font-family="Helvetica,sans-Serif" font-size="10.00">Siv3D.hpp</text>
</a>
</g>
</g>
<!-- Node1&#45;&gt;Node3 -->
<g id="edge42_Node000001_Node000003" class="edge">
<title>Node1&#45;&gt;Node3</title>
<g id="a_edge42_Node000001_Node000003"><a xlink:title=" ">
<path fill="none" stroke="#63b8ff" d="M852.96,-229.78C958.16,-223.81 1160.85,-209.64 1185.12,-188 1210.71,-165.2 1218.63,-139.46 1198.12,-112 1127.86,-17.9 741.3,-10.42 611.58,-10.6"/>
<polygon fill="#63b8ff" stroke="#63b8ff" points="611.71,-7.1 601.72,-10.63 611.73,-14.1 611.71,-7.1"/>
</a>
</g>
</g>
<!-- Node4 -->
<g id="Node000004" class="node">
<title>Node4</title>
<g id="a_Node000004"><a xlink:href="_config_8h.html" target="_top" xlink:title="ゲーム設定の定義">
<polygon fill="white" stroke="#666666" points="1331,-76 1245.25,-76 1245.25,-56 1331,-56 1331,-76"/>
<text xml:space="preserve" text-anchor="middle" x="1288.12" y="-62.5" font-family="Helvetica,sans-Serif" font-size="10.00">../Core/Config.h</text>
</a>
</g>
</g>
<!-- Node1&#45;&gt;Node4 -->
<g id="edge3_Node000001_Node000004" class="edge">
<title>Node1&#45;&gt;Node4</title>
<g id="a_edge3_Node000001_Node000004"><a xlink:title=" ">
<path fill="none" stroke="#63b8ff" d="M852.93,-229.99C967.38,-224.02 1200.94,-209.37 1231.12,-188 1264.82,-164.14 1279.2,-115.07 1284.85,-87.31"/>
<polygon fill="#63b8ff" stroke="#63b8ff" points="1288.25,-88.17 1286.59,-77.71 1281.36,-86.92 1288.25,-88.17"/>
</a>
</g>
</g>
<!-- Node5 -->
<g id="Node000005" class="node">
<title>Node5</title>
<g id="a_Node000005"><a xlink:href="_enemy_8h.html" target="_top" xlink:title="敵クラスの定義">
<polygon fill="white" stroke="#666666" points="754.12,-188 660.12,-188 660.12,-168 754.12,-168 754.12,-188"/>
<text xml:space="preserve" text-anchor="middle" x="707.12" y="-174.5" font-family="Helvetica,sans-Serif" font-size="10.00">../Entitie/Enemy.h</text>
</a>
</g>
</g>
<!-- Node1&#45;&gt;Node5 -->
<g id="edge5_Node000001_Node000005" class="edge">
<title>Node1&#45;&gt;Node5</title>
<g id="a_edge5_Node000001_Node000005"><a xlink:title=" ">
<path fill="none" stroke="#63b8ff" d="M775.67,-223.59C763.37,-215.59 745.45,-203.93 731.02,-194.54"/>
<polygon fill="#63b8ff" stroke="#63b8ff" points="733.25,-191.82 722.96,-189.3 729.44,-197.69 733.25,-191.82"/>
</a>
</g>
</g>
<!-- Node11 -->
<g id="Node000011" class="node">
<title>Node11</title>
<g id="a_Node000011"><a xlink:href="_stage_8h.html" target="_top" xlink:title="ステージ管理の定義">
<polygon fill="white" stroke="#666666" points="298.38,-132 211.88,-132 211.88,-112 298.38,-112 298.38,-132"/>
<text xml:space="preserve" text-anchor="middle" x="255.12" y="-118.5" font-family="Helvetica,sans-Serif" font-size="10.00">../World/Stage.h</text>
</a>
</g>
</g>
<!-- Node1&#45;&gt;Node11 -->
<g id="edge41_Node000001_Node000011" class="edge">
<title>Node1&#45;&gt;Node11</title>
<g id="a_edge41_Node000001_Node000011"><a xlink:title=" ">
<path fill="none" stroke="#63b8ff" d="M726.92,-233.93C643.64,-233.43 493.53,-226.51 372.12,-188 336.78,-176.79 300.04,-154.3 277.38,-138.95"/>
<polygon fill="#63b8ff" stroke="#63b8ff" points="279.47,-136.14 269.26,-133.33 275.49,-141.9 279.47,-136.14"/>
</a>
</g>
</g>
<!-- Node14 -->
<g id="Node000014" class="node">
<title>Node14</title>
<g id="a_Node000014"><a xlink:href="_oxygen_spot_8h.html" target="_top" xlink:title="酸素スポットクラスの定義">
<polygon fill="white" stroke="#666666" points="499.12,-188 381.12,-188 381.12,-168 499.12,-168 499.12,-188"/>
<text xml:space="preserve" text-anchor="middle" x="440.12" y="-174.5" font-family="Helvetica,sans-Serif" font-size="10.00">../Entitie/OxygenSpot.h</text>
</a>
</g>
</g>
<!-- Node1&#45;&gt;Node14 -->
<g id="edge20_Node000001_Node000014" class="edge">
<title>Node1&#45;&gt;Node14</title>
<g id="a_edge20_Node000001_Node000014"><a xlink:title=" ">
<path fill="none" stroke="#63b8ff" d="M728.76,-223.53C667.82,-214.13 574.49,-199.73 510.56,-189.87"/>
<polygon fill="#63b8ff" stroke="#63b8ff" points="511.29,-186.44 500.87,-188.37 510.22,-193.36 511.29,-186.44"/>
</a>
</g>
</g>
<!-- Node15 -->
<g id="Node000015" class="node">
<title>Node15</title>
<g id="a_Node000015"><a xlink:href="_player_8h.html" target="_top" xlink:title="プレイヤークラスの定義">
<polygon fill="white" stroke="#666666" points="307,-188 215.25,-188 215.25,-168 307,-168 307,-188"/>
<text xml:space="preserve" text-anchor="middle" x="261.12" y="-174.5" font-family="Helvetica,sans-Serif" font-size="10.00">../Entitie/Player.h</text>
</a>
</g>
</g>
<!-- Node1&#45;&gt;Node15 -->
<g id="edge25_Node000001_Node000015" class="edge">
<title>Node1&#45;&gt;Node15</title>
<g id="a_edge25_Node000001_Node000015"><a xlink:title=" ">
<path fill="none" stroke="#63b8ff" d="M727.24,-227.33C639.08,-219.27 473.76,-203.71 333.12,-188 328.41,-187.47 323.52,-186.91 318.61,-186.32"/>
<polygon fill="#63b8ff" stroke="#63b8ff" points="319.05,-182.85 308.7,-185.12 318.2,-189.8 319.05,-182.85"/>
</a>
</g>
</g>
<!-- Node16 -->
<g id="Node000016" class="node">
<title>Node16</title>
<g id="a_Node000016"><a xlink:href="_camera_system_8h.html" target="_top" xlink:title="カメラ管理システムの定義">
<polygon fill="white" stroke="#666666" points="886.25,-76 748,-76 748,-56 886.25,-56 886.25,-76"/>
<text xml:space="preserve" text-anchor="middle" x="817.12" y="-62.5" font-family="Helvetica,sans-Serif" font-size="10.00">../System/CameraSystem.h</text>
</a>
</g>
</g>
<!-- Node1&#45;&gt;Node16 -->
<g id="edge31_Node000001_Node000016" class="edge">
<title>Node1&#45;&gt;Node16</title>
<g id="a_edge31_Node000001_Node000016"><a xlink:title=" ">
<path fill="none" stroke="#63b8ff" d="M811.07,-223.61C840.87,-208.94 894.29,-177.49 916.12,-132 928.21,-106.82 899.61,-90.07 870.08,-79.88"/>
<polygon fill="#63b8ff" stroke="#63b8ff" points="871.27,-76.59 860.68,-76.88 869.15,-83.25 871.27,-76.59"/>
</a>
</g>
</g>
<!-- Node17 -->
<g id="Node000017" class="node">
<title>Node17</title>
<g id="a_Node000017"><a xlink:href="_collision_system_8h.html" target="_top" xlink:title="衝突判定システムの定義">
<polygon fill="white" stroke="#666666" points="1175.75,-188 1034.5,-188 1034.5,-168 1175.75,-168 1175.75,-188"/>
<text xml:space="preserve" text-anchor="middle" x="1105.12" y="-174.5" font-family="Helvetica,sans-Serif" font-size="10.00">../System/CollisionSystem.h</text>
</a>
</g>
</g>
<!-- Node1&#45;&gt;Node17 -->
<g id="edge33_Node000001_Node000017" class="edge">
<title>Node1&#45;&gt;Node17</title>
<g id="a_edge33_Node000001_Node000017"><a xlink:title=" ">
<path fill="none" stroke="#63b8ff" d="M845.35,-223.53C899.28,-214.29 981.39,-200.21 1038.82,-190.37"/>
<polygon fill="#63b8ff" stroke="#63b8ff" points="1039.2,-193.85 1048.47,-188.71 1038.02,-186.95 1039.2,-193.85"/>
</a>
</g>
</g>
<!-- Node20 -->
<g id="Node000020" class="node">
<title>Node20</title>
<g id="a_Node000020"><a xlink:href="_u_i_system_8h.html" target="_top" xlink:title="UI表示管理システムの定義">
<polygon fill="white" stroke="#666666" points="1016.25,-188 902,-188 902,-168 1016.25,-168 1016.25,-188"/>
<text xml:space="preserve" text-anchor="middle" x="959.12" y="-174.5" font-family="Helvetica,sans-Serif" font-size="10.00">../System/UISystem.h</text>
</a>
</g>
</g>
<!-- Node1&#45;&gt;Node20 -->
<g id="edge39_Node000001_Node000020" class="edge">
<title>Node1&#45;&gt;Node20</title>
<g id="a_edge39_Node000001_Node000020"><a xlink:title=" ">
<path fill="none" stroke="#63b8ff" d="M819.56,-223.59C847.02,-214.82 888.22,-201.66 918.74,-191.9"/>
<polygon fill="#63b8ff" stroke="#63b8ff" points="919.56,-195.32 928.02,-188.94 917.43,-188.65 919.56,-195.32"/>
</a>
</g>
</g>
<!-- Node2&#45;&gt;Node3 -->
<g id="edge2_Node000002_Node000003" class="edge">
<title>Node2&#45;&gt;Node3</title>
<g id="a_edge2_Node000002_Node000003"><a xlink:title=" ">
<path fill="none" stroke="#63b8ff" d="M87.88,-111.51C103.68,-96.78 136.49,-68.8 170.12,-56 234.58,-31.47 437.76,-17.97 526.71,-13.11"/>
<polygon fill="#63b8ff" stroke="#63b8ff" points="526.67,-16.62 536.47,-12.59 526.3,-9.63 526.67,-16.62"/>
</a>
</g>
</g>
<!-- Node4&#45;&gt;Node3 -->
<g id="edge4_Node000004_Node000003" class="edge">
<title>Node4&#45;&gt;Node3</title>
<g id="a_edge4_Node000004_Node000003"><a xlink:title=" ">
<path fill="none" stroke="#63b8ff" d="M1244.92,-57.77C1240.27,-57.11 1235.6,-56.5 1231.12,-56 998,-29.72 716.84,-16.78 611.6,-12.58"/>
<polygon fill="#63b8ff" stroke="#63b8ff" points="611.88,-9.09 601.75,-12.19 611.6,-16.08 611.88,-9.09"/>
</a>
</g>
</g>
<!-- Node5&#45;&gt;Node3 -->
<g id="edge19_Node000005_Node000003" class="edge">
<title>Node5&#45;&gt;Node3</title>
<g id="a_edge19_Node000005_Node000003"><a xlink:title=" ">
<path fill="none" stroke="#63b8ff" d="M754.52,-175.4C818.1,-171.5 919.11,-158.08 883.12,-112 842.53,-60 802.05,-95.82 739.12,-76 690.45,-60.67 635.52,-38.81 601.61,-24.76"/>
<polygon fill="#63b8ff" stroke="#63b8ff" points="603.34,-21.69 592.77,-21.08 600.65,-28.15 603.34,-21.69"/>
</a>
</g>
</g>
<!-- Node6 -->
<g id="Node000006" class="node">
<title>Node6</title>
<g id="a_Node000006"><a xlink:href="_i_behavior_strategy_8h.html" target="_top" xlink:title="敵の行動戦略インターフェースの定義">
<polygon fill="white" stroke="#666666" points="873.75,-132 750.5,-132 750.5,-112 873.75,-112 873.75,-132"/>
<text xml:space="preserve" text-anchor="middle" x="812.12" y="-118.5" font-family="Helvetica,sans-Serif" font-size="10.00">../AI/IBehaviorStrategy.h</text>
</a>
</g>
</g>
<!-- Node5&#45;&gt;Node6 -->
<g id="edge6_Node000005_Node000006" class="edge">
<title>Node5&#45;&gt;Node6</title>
<g id="a_edge6_Node000005_Node000006"><a xlink:title=" ">
<path fill="none" stroke="#63b8ff" d="M725.41,-167.59C741.43,-159.36 764.96,-147.26 783.47,-137.74"/>
<polygon fill="#63b8ff" stroke="#63b8ff" points="785.05,-140.86 792.35,-133.17 781.85,-134.63 785.05,-140.86"/>
</a>
</g>
</g>
<!-- Node7 -->
<g id="Node000007" class="node">
<title>Node7</title>
<g id="a_Node000007"><a xlink:href="_animation_controller_8h.html" target="_top" xlink:title="アニメーション再生管理クラス">
<polygon fill="white" stroke="#666666" points="526.12,-132 354.12,-132 354.12,-112 526.12,-112 526.12,-132"/>
<text xml:space="preserve" text-anchor="middle" x="440.12" y="-118.5" font-family="Helvetica,sans-Serif" font-size="10.00">../Component/AnimationController.h</text>
</a>
</g>
</g>
<!-- Node5&#45;&gt;Node7 -->
<g id="edge7_Node000005_Node000007" class="edge">
<title>Node5&#45;&gt;Node7</title>
<g id="a_edge7_Node000005_Node000007"><a xlink:title=" ">
<path fill="none" stroke="#63b8ff" d="M660.31,-167.53C615.17,-158.4 546.74,-144.56 498.16,-134.74"/>
<polygon fill="#63b8ff" stroke="#63b8ff" points="498.86,-131.31 488.37,-132.76 497.48,-138.17 498.86,-131.31"/>
</a>
</g>
</g>
<!-- Node9 -->
<g id="Node000009" class="node">
<title>Node9</title>
<g id="a_Node000009"><a xlink:href="_collider_8h.html" target="_top" xlink:title="衝突判定用のコンポーネント定義">
<polygon fill="white" stroke="#666666" points="663.88,-132 544.38,-132 544.38,-112 663.88,-112 663.88,-132"/>
<text xml:space="preserve" text-anchor="middle" x="604.12" y="-118.5" font-family="Helvetica,sans-Serif" font-size="10.00">../Component/Collider.h</text>
</a>
</g>
</g>
<!-- Node5&#45;&gt;Node9 -->
<g id="edge11_Node000005_Node000009" class="edge">
<title>Node5&#45;&gt;Node9</title>
<g id="a_edge11_Node000005_Node000009"><a xlink:title=" ">
<path fill="none" stroke="#63b8ff" d="M689.18,-167.59C673.48,-159.36 650.39,-147.26 632.24,-137.74"/>
<polygon fill="#63b8ff" stroke="#63b8ff" points="634.03,-134.73 623.55,-133.18 630.78,-140.93 634.03,-134.73"/>
</a>
</g>
</g>
<!-- Node5&#45;&gt;Node11 -->
<g id="edge14_Node000005_Node000011" class="edge">
<title>Node5&#45;&gt;Node11</title>
<g id="a_edge14_Node000005_Node000011"><a xlink:title=" ">
<path fill="none" stroke="#63b8ff" d="M660.03,-171.37C575.77,-161.31 399.66,-140.27 310.04,-129.56"/>
<polygon fill="#63b8ff" stroke="#63b8ff" points="310.62,-126.11 300.28,-128.39 309.79,-133.06 310.62,-126.11"/>
</a>
</g>
</g>
<!-- Node13 -->
<g id="Node000013" class="node">
<title>Node13</title>
<g id="a_Node000013"><a xlink:title=" ">
<polygon fill="#e0e0e0" stroke="#999999" points="732.75,-132 681.5,-132 681.5,-112 732.75,-112 732.75,-132"/>
<text xml:space="preserve" text-anchor="middle" x="707.12" y="-118.5" font-family="Helvetica,sans-Serif" font-size="10.00">memory</text>
</a>
</g>
</g>
<!-- Node5&#45;&gt;Node13 -->
<g id="edge18_Node000005_Node000013" class="edge">
<title>Node5&#45;&gt;Node13</title>
<g id="a_edge18_Node000005_Node000013"><a xlink:title=" ">
<path fill="none" stroke="#63b8ff" d="M707.12,-167.59C707.12,-161.01 707.12,-151.96 707.12,-143.73"/>
<polygon fill="#63b8ff" stroke="#63b8ff" points="710.63,-143.81 707.13,-133.81 703.63,-143.81 710.63,-143.81"/>
</a>
</g>
</g>
<!-- Node7&#45;&gt;Node3 -->
<g id="edge10_Node000007_Node000003" class="edge">
<title>Node7&#45;&gt;Node3</title>
<g id="a_edge10_Node000007_Node000003"><a xlink:title=" ">
<path fill="none" stroke="#63b8ff" d="M451.12,-111.62C472.92,-93.03 521.89,-51.28 549.4,-27.82"/>
<polygon fill="#63b8ff" stroke="#63b8ff" points="551.66,-30.49 557,-21.34 547.12,-25.16 551.66,-30.49"/>
</a>
</g>
</g>
<!-- Node8 -->
<g id="Node000008" class="node">
<title>Node8</title>
<g id="a_Node000008"><a xlink:href="_animation_8h.html" target="_top" xlink:title="アニメーションパターンの定義">
<polygon fill="white" stroke="#666666" points="482,-76 414.25,-76 414.25,-56 482,-56 482,-76"/>
<text xml:space="preserve" text-anchor="middle" x="448.12" y="-62.5" font-family="Helvetica,sans-Serif" font-size="10.00">Animation.h</text>
</a>
</g>
</g>
<!-- Node7&#45;&gt;Node8 -->
<g id="edge8_Node000007_Node000008" class="edge">
<title>Node7&#45;&gt;Node8</title>
<g id="a_edge8_Node000007_Node000008"><a xlink:title=" ">
<path fill="none" stroke="#63b8ff" d="M441.52,-111.59C442.51,-104.93 443.87,-95.75 445.1,-87.44"/>
<polygon fill="#63b8ff" stroke="#63b8ff" points="448.52,-88.2 446.53,-77.8 441.6,-87.17 448.52,-88.2"/>
</a>
</g>
</g>
<!-- Node8&#45;&gt;Node3 -->
<g id="edge9_Node000008_Node000003" class="edge">
<title>Node8&#45;&gt;Node3</title>
<g id="a_edge9_Node000008_Node000003"><a xlink:title=" ">
<path fill="none" stroke="#63b8ff" d="M469.2,-55.59C488.08,-47.17 516.04,-34.69 537.59,-25.07"/>
<polygon fill="#63b8ff" stroke="#63b8ff" points="538.8,-28.37 546.5,-21.1 535.94,-21.98 538.8,-28.37"/>
</a>
</g>
</g>
<!-- Node9&#45;&gt;Node3 -->
<g id="edge12_Node000009_Node000003" class="edge">
<title>Node9&#45;&gt;Node3</title>
<g id="a_edge12_Node000009_Node000003"><a xlink:title=" ">
<path fill="none" stroke="#63b8ff" d="M601.14,-111.62C595.51,-93.92 583.2,-55.24 575.59,-31.32"/>
<polygon fill="#63b8ff" stroke="#63b8ff" points="578.93,-30.27 572.56,-21.8 572.26,-32.39 578.93,-30.27"/>
</a>
</g>
</g>
<!-- Node10 -->
<g id="Node000010" class="node">
<title>Node10</title>
<g id="a_Node000010"><a xlink:title=" ">
<polygon fill="#e0e0e0" stroke="#999999" points="949.75,-76 904.5,-76 904.5,-56 949.75,-56 949.75,-76"/>
<text xml:space="preserve" text-anchor="middle" x="927.12" y="-62.5" font-family="Helvetica,sans-Serif" font-size="10.00">variant</text>
</a>
</g>
</g>
<!-- Node9&#45;&gt;Node10 -->
<g id="edge13_Node000009_Node000010" class="edge">
<title>Node9&#45;&gt;Node10</title>
<g id="a_edge13_Node000009_Node000010"><a xlink:title=" ">
<path fill="none" stroke="#63b8ff" d="M664.31,-112.57C731.47,-103.02 837.07,-87.53 892.99,-76.18"/>
<polygon fill="#63b8ff" stroke="#63b8ff" points="893.6,-79.63 902.66,-74.14 892.15,-72.78 893.6,-79.63"/>
</a>
</g>
</g>
<!-- Node11&#45;&gt;Node3 -->
<g id="edge17_Node000011_Node000003" class="edge">
<title>Node11&#45;&gt;Node3</title>
<g id="a_edge17_Node000011_Node000003"><a xlink:title=" ">
<path fill="none" stroke="#63b8ff" d="M263.34,-111.76C276.67,-97.39 304.54,-69.89 334.12,-56 397,-26.49 478,-16.33 526.62,-12.83"/>
<polygon fill="#63b8ff" stroke="#63b8ff" points="526.7,-16.34 536.45,-12.2 526.24,-9.35 526.7,-16.34"/>
</a>
</g>
</g>
<!-- Node12 -->
<g id="Node000012" class="node">
<title>Node12</title>
<g id="a_Node000012"><a xlink:href="_spawn_info_8h.html" target="_top" xlink:title="スポーン情報の定義">
<polygon fill="white" stroke="#666666" points="282.5,-76 211.75,-76 211.75,-56 282.5,-56 282.5,-76"/>
<text xml:space="preserve" text-anchor="middle" x="247.12" y="-62.5" font-family="Helvetica,sans-Serif" font-size="10.00">SpawnInfo.h</text>
</a>
</g>
</g>
<!-- Node11&#45;&gt;Node12 -->
<g id="edge15_Node000011_Node000012" class="edge">
<title>Node11&#45;&gt;Node12</title>
<g id="a_edge15_Node000011_Node000012"><a xlink:title=" ">
<path fill="none" stroke="#63b8ff" d="M253.73,-111.59C252.74,-104.93 251.38,-95.75 250.15,-87.44"/>
<polygon fill="#63b8ff" stroke="#63b8ff" points="253.65,-87.17 248.72,-77.8 246.73,-88.2 253.65,-87.17"/>
</a>
</g>
</g>
<!-- Node12&#45;&gt;Node3 -->
<g id="edge16_Node000012_Node000003" class="edge">
<title>Node12&#45;&gt;Node3</title>
<g id="a_edge16_Node000012_Node000003"><a xlink:title=" ">
<path fill="none" stroke="#63b8ff" d="M282.97,-58.34C287.4,-57.54 291.86,-56.74 296.12,-56 377.69,-41.79 473.17,-26.32 526.86,-17.72"/>
<polygon fill="#63b8ff" stroke="#63b8ff" points="527.16,-21.22 536.48,-16.18 526.06,-14.31 527.16,-21.22"/>
</a>
</g>
</g>
<!-- Node14&#45;&gt;Node3 -->
<g id="edge24_Node000014_Node000003" class="edge">
<title>Node14&#45;&gt;Node3</title>
<g id="a_edge24_Node000014_Node000003"><a xlink:title=" ">
<path fill="none" stroke="#63b8ff" d="M400.45,-167.52C369.25,-157.78 332.94,-140.04 345.12,-112 375.2,-42.78 470.69,-21 526.81,-14.14"/>
<polygon fill="#63b8ff" stroke="#63b8ff" points="527.09,-17.63 536.65,-13.06 526.33,-10.68 527.09,-17.63"/>
</a>
</g>
</g>
<!-- Node14&#45;&gt;Node7 -->
<g id="edge21_Node000014_Node000007" class="edge">
<title>Node14&#45;&gt;Node7</title>
<g id="a_edge21_Node000014_Node000007"><a xlink:title=" ">
<path fill="none" stroke="#63b8ff" d="M440.12,-167.59C440.12,-161.01 440.12,-151.96 440.12,-143.73"/>
<polygon fill="#63b8ff" stroke="#63b8ff" points="443.63,-143.81 440.13,-133.81 436.63,-143.81 443.63,-143.81"/>
</a>
</g>
</g>
<!-- Node14&#45;&gt;Node9 -->
<g id="edge22_Node000014_Node000009" class="edge">
<title>Node14&#45;&gt;Node9</title>
<g id="a_edge22_Node000014_Node000009"><a xlink:title=" ">
<path fill="none" stroke="#63b8ff" d="M468.69,-167.59C495.22,-158.86 534.96,-145.77 564.54,-136.03"/>
<polygon fill="#63b8ff" stroke="#63b8ff" points="565.49,-139.4 573.9,-132.95 563.3,-132.76 565.49,-139.4"/>
</a>
</g>
</g>
<!-- Node14&#45;&gt;Node11 -->
<g id="edge23_Node000014_Node000011" class="edge">
<title>Node14&#45;&gt;Node11</title>
<g id="a_edge23_Node000014_Node000011"><a xlink:title=" ">
<path fill="none" stroke="#63b8ff" d="M407.9,-167.59C377.58,-158.74 331.95,-145.43 298.46,-135.65"/>
<polygon fill="#63b8ff" stroke="#63b8ff" points="299.63,-132.35 289.05,-132.9 297.67,-139.07 299.63,-132.35"/>
</a>
</g>
</g>
<!-- Node15&#45;&gt;Node2 -->
<g id="edge28_Node000015_Node000002" class="edge">
<title>Node15&#45;&gt;Node2</title>
<g id="a_edge28_Node000015_Node000002"><a xlink:title=" ">
<path fill="none" stroke="#63b8ff" d="M229.25,-167.59C199.26,-158.74 154.12,-145.43 120.99,-135.65"/>
<polygon fill="#63b8ff" stroke="#63b8ff" points="122.28,-132.38 111.7,-132.91 120.3,-139.09 122.28,-132.38"/>
</a>
</g>
</g>
<!-- Node15&#45;&gt;Node3 -->
<g id="edge30_Node000015_Node000003" class="edge">
<title>Node15&#45;&gt;Node3</title>
<g id="a_edge30_Node000015_Node000003"><a xlink:title=" ">
<path fill="none" stroke="#63b8ff" d="M241.03,-167.52C227.58,-159.98 210.97,-148.02 203.12,-132 188.27,-101.67 180.75,-81.3 203.12,-56 224.28,-32.08 434.75,-18.11 526.61,-13.11"/>
<polygon fill="#63b8ff" stroke="#63b8ff" points="526.67,-16.61 536.47,-12.59 526.3,-9.62 526.67,-16.61"/>
</a>
</g>
</g>
<!-- Node15&#45;&gt;Node7 -->
<g id="edge26_Node000015_Node000007" class="edge">
<title>Node15&#45;&gt;Node7</title>
<g id="a_edge26_Node000015_Node000007"><a xlink:title=" ">
<path fill="none" stroke="#63b8ff" d="M292.3,-167.59C321.51,-158.78 365.4,-145.54 397.78,-135.78"/>
<polygon fill="#63b8ff" stroke="#63b8ff" points="398.69,-139.16 407.25,-132.92 396.67,-132.45 398.69,-139.16"/>
</a>
</g>
</g>
<!-- Node15&#45;&gt;Node9 -->
<g id="edge27_Node000015_Node000009" class="edge">
<title>Node15&#45;&gt;Node9</title>
<g id="a_edge27_Node000015_Node000009"><a xlink:title=" ">
<path fill="none" stroke="#63b8ff" d="M307.38,-169.72C365.32,-160.6 465.2,-144.87 532.92,-134.21"/>
<polygon fill="#63b8ff" stroke="#63b8ff" points="533.09,-137.73 542.42,-132.71 532,-130.81 533.09,-137.73"/>
</a>
</g>
</g>
<!-- Node15&#45;&gt;Node11 -->
<g id="edge29_Node000015_Node000011" class="edge">
<title>Node15&#45;&gt;Node11</title>
<g id="a_edge29_Node000015_Node000011"><a xlink:title=" ">
<path fill="none" stroke="#63b8ff" d="M260.08,-167.59C259.35,-161.01 258.34,-151.96 257.43,-143.73"/>
<polygon fill="#63b8ff" stroke="#63b8ff" points="260.91,-143.35 256.33,-133.8 253.95,-144.13 260.91,-143.35"/>
</a>
</g>
</g>
<!-- Node16&#45;&gt;Node3 -->
<g id="edge32_Node000016_Node000003" class="edge">
<title>Node16&#45;&gt;Node3</title>
<g id="a_edge32_Node000016_Node000003"><a xlink:title=" ">
<path fill="none" stroke="#63b8ff" d="M773.64,-55.53C728.02,-45.6 656.78,-30.09 611.56,-20.24"/>
<polygon fill="#63b8ff" stroke="#63b8ff" points="612.37,-16.83 601.85,-18.13 610.88,-23.67 612.37,-16.83"/>
</a>
</g>
</g>
<!-- Node17&#45;&gt;Node3 -->
<g id="edge36_Node000017_Node000003" class="edge">
<title>Node17&#45;&gt;Node3</title>
<g id="a_edge36_Node000017_Node000003"><a xlink:title=" ">
<path fill="none" stroke="#63b8ff" d="M1098.82,-167.64C1082.36,-144.08 1035.45,-82.33 979.12,-56 914.65,-25.86 703.09,-15.4 611.75,-12.22"/>
<polygon fill="#63b8ff" stroke="#63b8ff" points="612.07,-8.73 601.96,-11.9 611.84,-15.73 612.07,-8.73"/>
</a>
</g>
</g>
<!-- Node17&#45;&gt;Node9 -->
<g id="edge34_Node000017_Node000009" class="edge">
<title>Node17&#45;&gt;Node9</title>
<g id="a_edge34_Node000017_Node000009"><a xlink:title=" ">
<path fill="none" stroke="#63b8ff" d="M1034.03,-168.96C1031.02,-168.64 1028.04,-168.31 1025.12,-168 872,-151.58 830.68,-150.4 675.55,-132.38"/>
<polygon fill="#63b8ff" stroke="#63b8ff" points="676.02,-128.91 665.69,-131.22 675.21,-135.86 676.02,-128.91"/>
</a>
</g>
</g>
<!-- Node17&#45;&gt;Node10 -->
<g id="edge37_Node000017_Node000010" class="edge">
<title>Node17&#45;&gt;Node10</title>
<g id="a_edge37_Node000017_Node000010"><a xlink:title=" ">
<path fill="none" stroke="#63b8ff" d="M1089.95,-167.62C1059.21,-148.63 989.34,-105.45 951.9,-82.31"/>
<polygon fill="#63b8ff" stroke="#63b8ff" points="953.9,-79.43 943.55,-77.15 950.22,-85.38 953.9,-79.43"/>
</a>
</g>
</g>
<!-- Node18 -->
<g id="Node000018" class="node">
<title>Node18</title>
<g id="a_Node000018"><a xlink:title=" ">
<polygon fill="#e0e0e0" stroke="#999999" points="1127.75,-132 1082.5,-132 1082.5,-112 1127.75,-112 1127.75,-132"/>
<text xml:space="preserve" text-anchor="middle" x="1105.12" y="-118.5" font-family="Helvetica,sans-Serif" font-size="10.00">cstdint</text>
</a>
</g>
</g>
<!-- Node17&#45;&gt;Node18 -->
<g id="edge35_Node000017_Node000018" class="edge">
<title>Node17&#45;&gt;Node18</title>
<g id="a_edge35_Node000017_Node000018"><a xlink:title=" ">
<path fill="none" stroke="#63b8ff" d="M1105.12,-167.59C1105.12,-161.01 1105.12,-151.96 1105.12,-143.73"/>
<polygon fill="#63b8ff" stroke="#63b8ff" points="1108.63,-143.81 1105.13,-133.81 1101.63,-143.81 1108.63,-143.81"/>
</a>
</g>
</g>
<!-- Node19 -->
<g id="Node000019" class="node">
<title>Node19</title>
<g id="a_Node000019"><a xlink:title=" ">
<polygon fill="#e0e0e0" stroke="#999999" points="1188.62,-132 1145.62,-132 1145.62,-112 1188.62,-112 1188.62,-132"/>
<text xml:space="preserve" text-anchor="middle" x="1167.12" y="-118.5" font-family="Helvetica,sans-Serif" font-size="10.00">vector</text>
</a>
</g>
</g>
<!-- Node17&#45;&gt;Node19 -->
<g id="edge38_Node000017_Node000019" class="edge">
<title>Node17&#45;&gt;Node19</title>
<g id="a_edge38_Node000017_Node000019"><a xlink:title=" ">
<path fill="none" stroke="#63b8ff" d="M1115.92,-167.59C1124.73,-159.93 1137.38,-148.91 1147.9,-139.75"/>
<polygon fill="#63b8ff" stroke="#63b8ff" points="1150.07,-142.5 1155.31,-133.29 1145.47,-137.22 1150.07,-142.5"/>
</a>
</g>
</g>
<!-- Node20&#45;&gt;Node3 -->
<g id="edge40_Node000020_Node000003" class="edge">
<title>Node20&#45;&gt;Node3</title>
<g id="a_edge40_Node000020_Node000003"><a xlink:title=" ">
<path fill="none" stroke="#63b8ff" d="M962.77,-167.68C970.87,-145.27 987.5,-87.84 959.12,-56 936.3,-30.39 708.11,-17.23 611.73,-12.77"/>
<polygon fill="#63b8ff" stroke="#63b8ff" points="612.04,-9.29 601.9,-12.33 611.73,-16.28 612.04,-9.29"/>
</a>
</g>
</g>
</g>
</svg>
