<?xml version="1.0" encoding="UTF-8" standalone="no"?>
<!DOCTYPE svg PUBLIC "-//W3C//DTD SVG 1.1//EN"
 "http://www.w3.org/Graphics/SVG/1.1/DTD/svg11.dtd">
<!-- Generated by graphviz version 14.0.2 (20251019.1705)
 -->
<!-- Title: src/AI/IBehaviorStrategy.h Pages: 1 -->
<svg width="496pt" height="196pt"
 viewBox="0.00 0.00 496.00 196.00" xmlns="http://www.w3.org/2000/svg" xmlns:xlink="http://www.w3.org/1999/xlink">
<g id="graph0" class="graph" transform="scale(1 1) rotate(0) translate(4 192)">
<title>src/AI/IBehaviorStrategy.h</title>
<!-- Node1 -->
<g id="Node000001" class="node">
<title>Node1</title>
<g id="a_Node000001"><a xlink:title="敵の行動戦略インターフェースの定義">
<polygon fill="#999999" stroke="#666666" points="201.38,-188 70.62,-188 70.62,-168 201.38,-168 201.38,-188"/>
<text xml:space="preserve" text-anchor="middle" x="136" y="-174.5" font-family="Helvetica,sans-Serif" font-size="10.00">src/AI/IBehaviorStrategy.h</text>
</a>
</g>
</g>
<!-- Node2 -->
<g id="Node000002" class="node">
<title>Node2</title>
<g id="a_Node000002"><a xlink:href="_behavior_strategies_8h.html" target="_top" xlink:title="敵の行動戦略具象クラスの定義">
<polygon fill="white" stroke="#666666" points="136,-132 0,-132 0,-112 136,-112 136,-132"/>
<text xml:space="preserve" text-anchor="middle" x="68" y="-118.5" font-family="Helvetica,sans-Serif" font-size="10.00">src/AI/BehaviorStrategies.h</text>
</a>
</g>
</g>
<!-- Node1&#45;&gt;Node2 -->
<g id="edge1_Node000001_Node000002" class="edge">
<title>Node1&#45;&gt;Node2</title>
<g id="a_edge1_Node000001_Node000002"><a xlink:title=" ">
<path fill="none" stroke="#63b8ff" d="M115.45,-160.68C103.75,-151.39 89.52,-140.09 79.71,-132.3"/>
<polygon fill="#63b8ff" stroke="#63b8ff" points="112.96,-163.17 122.97,-166.65 117.32,-157.69 112.96,-163.17"/>
</a>
</g>
</g>
<!-- Node5 -->
<g id="Node000005" class="node">
<title>Node5</title>
<g id="a_Node000005"><a xlink:href="_enemy_8h.html" target="_top" xlink:title="敵クラスの定義">
<polygon fill="white" stroke="#666666" points="255.75,-132 154.25,-132 154.25,-112 255.75,-112 255.75,-132"/>
<text xml:space="preserve" text-anchor="middle" x="205" y="-118.5" font-family="Helvetica,sans-Serif" font-size="10.00">src/Entitie/Enemy.h</text>
</a>
</g>
</g>
<!-- Node1&#45;&gt;Node5 -->
<g id="edge4_Node000001_Node000005" class="edge">
<title>Node1&#45;&gt;Node5</title>
<g id="a_edge4_Node000001_Node000005"><a xlink:title=" ">
<path fill="none" stroke="#63b8ff" d="M156.85,-160.68C168.73,-151.39 183.17,-140.09 193.12,-132.3"/>
<polygon fill="#63b8ff" stroke="#63b8ff" points="154.93,-157.74 149.21,-166.66 159.24,-163.25 154.93,-157.74"/>
</a>
</g>
</g>
<!-- Node3 -->
<g id="Node000003" class="node">
<title>Node3</title>
<g id="a_Node000003"><a xlink:href="_behavior_strategies_8cpp.html" target="_top" xlink:title=" ">
<polygon fill="white" stroke="#666666" points="278.25,-76 131.75,-76 131.75,-56 278.25,-56 278.25,-76"/>
<text xml:space="preserve" text-anchor="middle" x="205" y="-62.5" font-family="Helvetica,sans-Serif" font-size="10.00">src/AI/BehaviorStrategies.cpp</text>
</a>
</g>
</g>
<!-- Node2&#45;&gt;Node3 -->
<g id="edge2_Node000002_Node000003" class="edge">
<title>Node2&#45;&gt;Node3</title>
<g id="a_edge2_Node000002_Node000003"><a xlink:title=" ">
<path fill="none" stroke="#63b8ff" d="M102.5,-107.4C126.98,-97.75 159.22,-85.05 180.95,-76.48"/>
<polygon fill="#63b8ff" stroke="#63b8ff" points="101.29,-104.12 93.27,-111.04 103.86,-110.63 101.29,-104.12"/>
</a>
</g>
</g>
<!-- Node4 -->
<g id="Node000004" class="node">
<title>Node4</title>
<g id="a_Node000004"><a xlink:href="_enemy_8cpp.html" target="_top" xlink:title=" ">
<polygon fill="white" stroke="#666666" points="114,-76 2,-76 2,-56 114,-56 114,-76"/>
<text xml:space="preserve" text-anchor="middle" x="58" y="-62.5" font-family="Helvetica,sans-Serif" font-size="10.00">src/Entitie/Enemy.cpp</text>
</a>
</g>
</g>
<!-- Node2&#45;&gt;Node4 -->
<g id="edge3_Node000002_Node000004" class="edge">
<title>Node2&#45;&gt;Node4</title>
<g id="a_edge3_Node000002_Node000004"><a xlink:title=" ">
<path fill="none" stroke="#63b8ff" d="M64.19,-100.43C62.65,-92.11 60.95,-82.93 59.72,-76.3"/>
<polygon fill="#63b8ff" stroke="#63b8ff" points="60.72,-100.91 65.98,-110.11 67.6,-99.64 60.72,-100.91"/>
</a>
</g>
</g>
<!-- Node5&#45;&gt;Node3 -->
<g id="edge5_Node000005_Node000003" class="edge">
<title>Node5&#45;&gt;Node3</title>
<g id="a_edge5_Node000005_Node000003"><a xlink:title=" ">
<path fill="none" stroke="#63b8ff" d="M205,-100.13C205,-91.9 205,-82.85 205,-76.3"/>
<polygon fill="#63b8ff" stroke="#63b8ff" points="201.5,-100.08 205,-110.08 208.5,-100.08 201.5,-100.08"/>
</a>
</g>
</g>
<!-- Node5&#45;&gt;Node4 -->
<g id="edge6_Node000005_Node000004" class="edge">
<title>Node5&#45;&gt;Node4</title>
<g id="a_edge6_Node000005_Node000004"><a xlink:title=" ">
<path fill="none" stroke="#63b8ff" d="M168.69,-107.66C142.34,-97.98 107.33,-85.12 83.81,-76.48"/>
<polygon fill="#63b8ff" stroke="#63b8ff" points="167.38,-110.91 177.97,-111.07 169.79,-104.34 167.38,-110.91"/>
</a>
</g>
</g>
<!-- Node6 -->
<g id="Node000006" class="node">
<title>Node6</title>
<g id="a_Node000006"><a xlink:href="_game_scene_8h.html" target="_top" xlink:title="ゲームシーンの定義">
<polygon fill="white" stroke="#666666" points="421.75,-76 296.25,-76 296.25,-56 421.75,-56 421.75,-76"/>
<text xml:space="preserve" text-anchor="middle" x="359" y="-62.5" font-family="Helvetica,sans-Serif" font-size="10.00">src/Scene/GameScene.h</text>
</a>
</g>
</g>
<!-- Node5&#45;&gt;Node6 -->
<g id="edge7_Node000005_Node000006" class="edge">
<title>Node5&#45;&gt;Node6</title>
<g id="a_edge7_Node000005_Node000006"><a xlink:title=" ">
<path fill="none" stroke="#63b8ff" d="M242.67,-107.79C270.31,-98.1 307.21,-85.16 331.97,-76.48"/>
<polygon fill="#63b8ff" stroke="#63b8ff" points="241.53,-104.48 233.25,-111.09 243.85,-111.09 241.53,-104.48"/>
</a>
</g>
</g>
<!-- Node7 -->
<g id="Node000007" class="node">
<title>Node7</title>
<g id="a_Node000007"><a xlink:href="_main_8cpp.html" target="_top" xlink:title=" ">
<polygon fill="white" stroke="#666666" points="334.12,-20 261.88,-20 261.88,0 334.12,0 334.12,-20"/>
<text xml:space="preserve" text-anchor="middle" x="298" y="-6.5" font-family="Helvetica,sans-Serif" font-size="10.00">src/Main.cpp</text>
</a>
</g>
</g>
<!-- Node6&#45;&gt;Node7 -->
<g id="edge8_Node000006_Node000007" class="edge">
<title>Node6&#45;&gt;Node7</title>
<g id="a_edge8_Node000006_Node000007"><a xlink:title=" ">
<path fill="none" stroke="#63b8ff" d="M339.94,-48.13C329.56,-38.94 317.13,-27.93 308.5,-20.3"/>
<polygon fill="#63b8ff" stroke="#63b8ff" points="337.43,-50.58 347.24,-54.59 342.07,-45.34 337.43,-50.58"/>
</a>
</g>
</g>
<!-- Node8 -->
<g id="Node000008" class="node">
<title>Node8</title>
<g id="a_Node000008"><a xlink:href="_game_scene_8cpp.html" target="_top" xlink:title=" ">
<polygon fill="white" stroke="#666666" points="488,-20 352,-20 352,0 488,0 488,-20"/>
<text xml:space="preserve" text-anchor="middle" x="420" y="-6.5" font-family="Helvetica,sans-Serif" font-size="10.00">src/Scene/GameScene.cpp</text>
</a>
</g>
</g>
<!-- Node6&#45;&gt;Node8 -->
<g id="edge9_Node000006_Node000008" class="edge">
<title>Node6&#45;&gt;Node8</title>
<g id="a_edge9_Node000006_Node000008"><a xlink:title=" ">
<path fill="none" stroke="#63b8ff" d="M378.06,-48.13C388.44,-38.94 400.87,-27.93 409.5,-20.3"/>
<polygon fill="#63b8ff" stroke="#63b8ff" points="375.93,-45.34 370.76,-54.59 380.57,-50.58 375.93,-45.34"/>
</a>
</g>
</g>
</g>
</svg>
