<?xml version="1.0" encoding="UTF-8" standalone="no"?>
<!DOCTYPE svg PUBLIC "-//W3C//DTD SVG 1.1//EN"
 "http://www.w3.org/Graphics/SVG/1.1/DTD/svg11.dtd">
<!-- Generated by graphviz version 14.0.2 (20251019.1705)
 -->
<!-- Title: src/Main.cpp Pages: 1 -->
<svg width="1247pt" height="308pt"
 viewBox="0.00 0.00 1247.00 308.00" xmlns="http://www.w3.org/2000/svg" xmlns:xlink="http://www.w3.org/1999/xlink">
<g id="graph0" class="graph" transform="scale(1 1) rotate(0) translate(4 304)">
<title>src/Main.cpp</title>
<!-- Node1 -->
<g id="Node000001" class="node">
<title>Node1</title>
<g id="a_Node000001"><a xlink:title=" ">
<polygon fill="#999999" stroke="#666666" points="759.92,-300 687.67,-300 687.67,-280 759.92,-280 759.92,-300"/>
<text xml:space="preserve" text-anchor="middle" x="723.8" y="-286.5" font-family="Helvetica,sans-Serif" font-size="10.00">src/Main.cpp</text>
</a>
</g>
</g>
<!-- Node2 -->
<g id="Node000002" class="node">
<title>Node2</title>
<g id="a_Node000002"><a xlink:href="_config_8h.html" target="_top" xlink:title="ゲーム設定の定義">
<polygon fill="white" stroke="#666666" points="309.17,-188 232.42,-188 232.42,-168 309.17,-168 309.17,-188"/>
<text xml:space="preserve" text-anchor="middle" x="270.8" y="-174.5" font-family="Helvetica,sans-Serif" font-size="10.00">Core/Config.h</text>
</a>
</g>
</g>
<!-- Node1&#45;&gt;Node2 -->
<g id="edge1_Node000001_Node000002" class="edge">
<title>Node1&#45;&gt;Node2</title>
<g id="a_edge1_Node000001_Node000002"><a xlink:title=" ">
<path fill="none" stroke="#63b8ff" d="M687.49,-280.18C606.77,-260.58 412.32,-213.37 320.45,-191.06"/>
<polygon fill="#63b8ff" stroke="#63b8ff" points="321.53,-187.72 310.98,-188.76 319.87,-194.52 321.53,-187.72"/>
</a>
</g>
</g>
<!-- Node3 -->
<g id="Node000003" class="node">
<title>Node3</title>
<g id="a_Node000003"><a xlink:title=" ">
<polygon fill="#e0e0e0" stroke="#999999" points="654.67,-20 592.92,-20 592.92,0 654.67,0 654.67,-20"/>
<text xml:space="preserve" text-anchor="middle" x="623.8" y="-6.5" font-family="Helvetica,sans-Serif" font-size="10.00">Siv3D.hpp</text>
</a>
</g>
</g>
<!-- Node1&#45;&gt;Node3 -->
<g id="edge45_Node000001_Node000003" class="edge">
<title>Node1&#45;&gt;Node3</title>
<g id="a_edge45_Node000001_Node000003"><a xlink:title=" ">
<path fill="none" stroke="#63b8ff" d="M760.42,-288.99C878.08,-287.99 1238.8,-276.94 1238.8,-179 1238.8,-179 1238.8,-179 1238.8,-121 1238.8,-84.28 1220.15,-73.36 1187.8,-56 1142.2,-31.53 789.59,-16.86 666.24,-12.43"/>
<polygon fill="#63b8ff" stroke="#63b8ff" points="666.66,-8.94 656.55,-12.09 666.42,-15.94 666.66,-8.94"/>
</a>
</g>
</g>
<!-- Node4 -->
<g id="Node000004" class="node">
<title>Node4</title>
<g id="a_Node000004"><a xlink:href="_game_scene_8h.html" target="_top" xlink:title="ゲームシーンの定義">
<polygon fill="white" stroke="#666666" points="778.3,-244 669.3,-244 669.3,-224 778.3,-224 778.3,-244"/>
<text xml:space="preserve" text-anchor="middle" x="723.8" y="-230.5" font-family="Helvetica,sans-Serif" font-size="10.00">Scene/GameScene.h</text>
</a>
</g>
</g>
<!-- Node1&#45;&gt;Node4 -->
<g id="edge3_Node000001_Node000004" class="edge">
<title>Node1&#45;&gt;Node4</title>
<g id="a_edge3_Node000001_Node000004"><a xlink:title=" ">
<path fill="none" stroke="#63b8ff" d="M723.8,-279.59C723.8,-273.01 723.8,-263.96 723.8,-255.73"/>
<polygon fill="#63b8ff" stroke="#63b8ff" points="727.3,-255.81 723.8,-245.81 720.3,-255.81 727.3,-255.81"/>
</a>
</g>
</g>
<!-- Node2&#45;&gt;Node3 -->
<g id="edge2_Node000002_Node000003" class="edge">
<title>Node2&#45;&gt;Node3</title>
<g id="a_edge2_Node000002_Node000003"><a xlink:title=" ">
<path fill="none" stroke="#63b8ff" d="M231.93,-176.35C165.04,-174.33 32.55,-166.01 3.8,-132 -1.94,-125.21 0.09,-120.08 3.8,-112 19.69,-77.34 33.62,-70.71 68.8,-56 161.29,-17.33 468.22,-11.78 581.4,-11.07"/>
<polygon fill="#63b8ff" stroke="#63b8ff" points="581.17,-14.57 591.16,-11.02 581.14,-7.57 581.17,-14.57"/>
</a>
</g>
</g>
<!-- Node4&#45;&gt;Node2 -->
<g id="edge6_Node000004_Node000002" class="edge">
<title>Node4&#45;&gt;Node2</title>
<g id="a_edge6_Node000004_Node000002"><a xlink:title=" ">
<path fill="none" stroke="#63b8ff" d="M669.11,-228.32C593.18,-221.51 451.29,-207.7 320.86,-188.36"/>
<polygon fill="#63b8ff" stroke="#63b8ff" points="321.39,-184.9 310.98,-186.88 320.35,-191.83 321.39,-184.9"/>
</a>
</g>
</g>
<!-- Node4&#45;&gt;Node3 -->
<g id="edge44_Node000004_Node000003" class="edge">
<title>Node4&#45;&gt;Node3</title>
<g id="a_edge44_Node000004_Node000003"><a xlink:title=" ">
<path fill="none" stroke="#63b8ff" d="M778.74,-233.2C876.33,-232.54 1074.9,-226.37 1130.8,-188 1180.93,-153.59 1207.98,-100.74 1166.8,-56 1133.12,-19.42 788.5,-12.57 666.4,-11.29"/>
<polygon fill="#63b8ff" stroke="#63b8ff" points="666.51,-7.79 656.47,-11.2 666.44,-14.79 666.51,-7.79"/>
</a>
</g>
</g>
<!-- Node5 -->
<g id="Node000005" class="node">
<title>Node5</title>
<g id="a_Node000005"><a xlink:href="_sound_controller_8h.html" target="_top" xlink:title="サウンド再生管理クラス">
<polygon fill="white" stroke="#666666" points="895.92,-132 739.67,-132 739.67,-112 895.92,-112 895.92,-132"/>
<text xml:space="preserve" text-anchor="middle" x="817.8" y="-118.5" font-family="Helvetica,sans-Serif" font-size="10.00">../Component/SoundController.h</text>
</a>
</g>
</g>
<!-- Node4&#45;&gt;Node5 -->
<g id="edge4_Node000004_Node000005" class="edge">
<title>Node4&#45;&gt;Node5</title>
<g id="a_edge4_Node000004_Node000005"><a xlink:title=" ">
<path fill="none" stroke="#63b8ff" d="M731.81,-223.62C747.42,-205.36 782.13,-164.73 802.36,-141.07"/>
<polygon fill="#63b8ff" stroke="#63b8ff" points="804.98,-143.38 808.82,-133.51 799.66,-138.83 804.98,-143.38"/>
</a>
</g>
</g>
<!-- Node6 -->
<g id="Node000006" class="node">
<title>Node6</title>
<g id="a_Node000006"><a xlink:href="_enemy_8h.html" target="_top" xlink:title="敵クラスの定義">
<polygon fill="white" stroke="#666666" points="420.8,-188 326.8,-188 326.8,-168 420.8,-168 420.8,-188"/>
<text xml:space="preserve" text-anchor="middle" x="373.8" y="-174.5" font-family="Helvetica,sans-Serif" font-size="10.00">../Entitie/Enemy.h</text>
</a>
</g>
</g>
<!-- Node4&#45;&gt;Node6 -->
<g id="edge7_Node000004_Node000006" class="edge">
<title>Node4&#45;&gt;Node6</title>
<g id="a_edge7_Node000004_Node000006"><a xlink:title=" ">
<path fill="none" stroke="#63b8ff" d="M669.11,-224.56C604.68,-214.62 498.08,-198.18 432.11,-188"/>
<polygon fill="#63b8ff" stroke="#63b8ff" points="433,-184.59 422.59,-186.53 431.93,-191.51 433,-184.59"/>
</a>
</g>
</g>
<!-- Node12 -->
<g id="Node000012" class="node">
<title>Node12</title>
<g id="a_Node000012"><a xlink:href="_stage_8h.html" target="_top" xlink:title="ステージ管理の定義">
<polygon fill="white" stroke="#666666" points="546.05,-132 459.55,-132 459.55,-112 546.05,-112 546.05,-132"/>
<text xml:space="preserve" text-anchor="middle" x="502.8" y="-118.5" font-family="Helvetica,sans-Serif" font-size="10.00">../World/Stage.h</text>
</a>
</g>
</g>
<!-- Node4&#45;&gt;Node12 -->
<g id="edge43_Node000004_Node000012" class="edge">
<title>Node4&#45;&gt;Node12</title>
<g id="a_edge43_Node000004_Node000012"><a xlink:title=" ">
<path fill="none" stroke="#63b8ff" d="M688.79,-223.51C662.45,-215.7 625.87,-203.43 595.8,-188 568.78,-174.14 540.58,-153.41 522.42,-139.1"/>
<polygon fill="#63b8ff" stroke="#63b8ff" points="525.07,-136.74 515.08,-133.22 520.7,-142.21 525.07,-136.74"/>
</a>
</g>
</g>
<!-- Node15 -->
<g id="Node000015" class="node">
<title>Node15</title>
<g id="a_Node000015"><a xlink:href="_oxygen_spot_8h.html" target="_top" xlink:title="酸素スポットクラスの定義">
<polygon fill="white" stroke="#666666" points="722.8,-188 604.8,-188 604.8,-168 722.8,-168 722.8,-188"/>
<text xml:space="preserve" text-anchor="middle" x="663.8" y="-174.5" font-family="Helvetica,sans-Serif" font-size="10.00">../Entitie/OxygenSpot.h</text>
</a>
</g>
</g>
<!-- Node4&#45;&gt;Node15 -->
<g id="edge22_Node000004_Node000015" class="edge">
<title>Node4&#45;&gt;Node15</title>
<g id="a_edge22_Node000004_Node000015"><a xlink:title=" ">
<path fill="none" stroke="#63b8ff" d="M713.34,-223.59C704.83,-215.93 692.59,-204.91 682.4,-195.75"/>
<polygon fill="#63b8ff" stroke="#63b8ff" points="685.03,-193.4 675.25,-189.31 680.34,-198.6 685.03,-193.4"/>
</a>
</g>
</g>
<!-- Node16 -->
<g id="Node000016" class="node">
<title>Node16</title>
<g id="a_Node000016"><a xlink:href="_player_8h.html" target="_top" xlink:title="プレイヤークラスの定義">
<polygon fill="white" stroke="#666666" points="548.67,-188 456.92,-188 456.92,-168 548.67,-168 548.67,-188"/>
<text xml:space="preserve" text-anchor="middle" x="502.8" y="-174.5" font-family="Helvetica,sans-Serif" font-size="10.00">../Entitie/Player.h</text>
</a>
</g>
</g>
<!-- Node4&#45;&gt;Node16 -->
<g id="edge27_Node000004_Node000016" class="edge">
<title>Node4&#45;&gt;Node16</title>
<g id="a_edge27_Node000004_Node000016"><a xlink:title=" ">
<path fill="none" stroke="#63b8ff" d="M685.05,-223.53C648.24,-214.54 592.71,-200.97 552.63,-191.18"/>
<polygon fill="#63b8ff" stroke="#63b8ff" points="553.51,-187.79 542.97,-188.82 551.85,-194.59 553.51,-187.79"/>
</a>
</g>
</g>
<!-- Node17 -->
<g id="Node000017" class="node">
<title>Node17</title>
<g id="a_Node000017"><a xlink:href="_camera_system_8h.html" target="_top" xlink:title="カメラ管理システムの定義">
<polygon fill="white" stroke="#666666" points="971.92,-76 833.67,-76 833.67,-56 971.92,-56 971.92,-76"/>
<text xml:space="preserve" text-anchor="middle" x="902.8" y="-62.5" font-family="Helvetica,sans-Serif" font-size="10.00">../System/CameraSystem.h</text>
</a>
</g>
</g>
<!-- Node4&#45;&gt;Node17 -->
<g id="edge33_Node000004_Node000017" class="edge">
<title>Node4&#45;&gt;Node17</title>
<g id="a_edge33_Node000004_Node000017"><a xlink:title=" ">
<path fill="none" stroke="#63b8ff" d="M763.57,-223.54C807.02,-210.85 874.46,-183.67 904.8,-132 912.67,-118.58 911.49,-100.77 908.72,-87.19"/>
<polygon fill="#63b8ff" stroke="#63b8ff" points="912.14,-86.46 906.31,-77.62 905.36,-88.17 912.14,-86.46"/>
</a>
</g>
</g>
<!-- Node18 -->
<g id="Node000018" class="node">
<title>Node18</title>
<g id="a_Node000018"><a xlink:href="_collision_system_8h.html" target="_top" xlink:title="衝突判定システムの定義">
<polygon fill="white" stroke="#666666" points="1093.42,-188 952.17,-188 952.17,-168 1093.42,-168 1093.42,-188"/>
<text xml:space="preserve" text-anchor="middle" x="1022.8" y="-174.5" font-family="Helvetica,sans-Serif" font-size="10.00">../System/CollisionSystem.h</text>
</a>
</g>
</g>
<!-- Node4&#45;&gt;Node18 -->
<g id="edge35_Node000004_Node000018" class="edge">
<title>Node4&#45;&gt;Node18</title>
<g id="a_edge35_Node000004_Node000018"><a xlink:title=" ">
<path fill="none" stroke="#63b8ff" d="M776.22,-223.53C827.19,-214.33 904.69,-200.33 959.17,-190.49"/>
<polygon fill="#63b8ff" stroke="#63b8ff" points="959.72,-193.95 968.94,-188.73 958.48,-187.06 959.72,-193.95"/>
</a>
</g>
</g>
<!-- Node21 -->
<g id="Node000021" class="node">
<title>Node21</title>
<g id="a_Node000021"><a xlink:href="_u_i_system_8h.html" target="_top" xlink:title="UI表示管理システムの定義">
<polygon fill="white" stroke="#666666" points="1157.92,-76 1043.67,-76 1043.67,-56 1157.92,-56 1157.92,-76"/>
<text xml:space="preserve" text-anchor="middle" x="1100.8" y="-62.5" font-family="Helvetica,sans-Serif" font-size="10.00">../System/UISystem.h</text>
</a>
</g>
</g>
<!-- Node4&#45;&gt;Node21 -->
<g id="edge41_Node000004_Node000021" class="edge">
<title>Node4&#45;&gt;Node21</title>
<g id="a_edge41_Node000004_Node000021"><a xlink:title=" ">
<path fill="none" stroke="#63b8ff" d="M778.79,-231.8C870.3,-228.93 1049.08,-219.36 1102.8,-188 1135.94,-168.65 1158.08,-147.62 1143.8,-112 1139.42,-101.1 1131.01,-91.34 1122.78,-83.72"/>
<polygon fill="#63b8ff" stroke="#63b8ff" points="1125.15,-81.15 1115.27,-77.33 1120.61,-86.47 1125.15,-81.15"/>
</a>
</g>
</g>
<!-- Node5&#45;&gt;Node3 -->
<g id="edge5_Node000005_Node000003" class="edge">
<title>Node5&#45;&gt;Node3</title>
<g id="a_edge5_Node000005_Node000003"><a xlink:title=" ">
<path fill="none" stroke="#63b8ff" d="M804.55,-111.6C785.73,-98.42 749.94,-74.04 717.8,-56 697.71,-44.73 674.36,-33.54 655.95,-25.14"/>
<polygon fill="#63b8ff" stroke="#63b8ff" points="657.41,-21.96 646.86,-21.03 654.53,-28.34 657.41,-21.96"/>
</a>
</g>
</g>
<!-- Node6&#45;&gt;Node3 -->
<g id="edge21_Node000006_Node000003" class="edge">
<title>Node6&#45;&gt;Node3</title>
<g id="a_edge21_Node000006_Node000003"><a xlink:title=" ">
<path fill="none" stroke="#63b8ff" d="M326.46,-169.25C323.53,-168.81 320.62,-168.39 317.8,-168 249.98,-158.57 57.29,-183.17 11.8,-132 5.89,-125.36 6.15,-118.87 11.8,-112 84.06,-24.04 454.41,-12.48 581.17,-11.12"/>
<polygon fill="#63b8ff" stroke="#63b8ff" points="581.18,-14.62 591.15,-11.03 581.12,-7.62 581.18,-14.62"/>
</a>
</g>
</g>
<!-- Node7 -->
<g id="Node000007" class="node">
<title>Node7</title>
<g id="a_Node000007"><a xlink:href="_i_behavior_strategy_8h.html" target="_top" xlink:title="敵の行動戦略インターフェースの定義">
<polygon fill="white" stroke="#666666" points="144.42,-132 21.17,-132 21.17,-112 144.42,-112 144.42,-132"/>
<text xml:space="preserve" text-anchor="middle" x="82.8" y="-118.5" font-family="Helvetica,sans-Serif" font-size="10.00">../AI/IBehaviorStrategy.h</text>
</a>
</g>
</g>
<!-- Node6&#45;&gt;Node7 -->
<g id="edge8_Node000006_Node000007" class="edge">
<title>Node6&#45;&gt;Node7</title>
<g id="a_edge8_Node000006_Node000007"><a xlink:title=" ">
<path fill="none" stroke="#63b8ff" d="M326.39,-168.2C276.93,-159.02 199.14,-144.59 144.82,-134.51"/>
<polygon fill="#63b8ff" stroke="#63b8ff" points="145.56,-131.09 135.09,-132.7 144.28,-137.97 145.56,-131.09"/>
</a>
</g>
</g>
<!-- Node8 -->
<g id="Node000008" class="node">
<title>Node8</title>
<g id="a_Node000008"><a xlink:href="_animation_controller_8h.html" target="_top" xlink:title="アニメーション再生管理クラス">
<polygon fill="white" stroke="#666666" points="441.8,-132 269.8,-132 269.8,-112 441.8,-112 441.8,-132"/>
<text xml:space="preserve" text-anchor="middle" x="355.8" y="-118.5" font-family="Helvetica,sans-Serif" font-size="10.00">../Component/AnimationController.h</text>
</a>
</g>
</g>
<!-- Node6&#45;&gt;Node8 -->
<g id="edge9_Node000006_Node000008" class="edge">
<title>Node6&#45;&gt;Node8</title>
<g id="a_edge9_Node000006_Node000008"><a xlink:title=" ">
<path fill="none" stroke="#63b8ff" d="M370.66,-167.59C368.41,-160.86 365.31,-151.53 362.51,-143.15"/>
<polygon fill="#63b8ff" stroke="#63b8ff" points="365.86,-142.11 359.37,-133.73 359.22,-144.33 365.86,-142.11"/>
</a>
</g>
</g>
<!-- Node10 -->
<g id="Node000010" class="node">
<title>Node10</title>
<g id="a_Node000010"><a xlink:href="_collider_8h.html" target="_top" xlink:title="衝突判定用のコンポーネント定義">
<polygon fill="white" stroke="#666666" points="683.55,-132 564.05,-132 564.05,-112 683.55,-112 683.55,-132"/>
<text xml:space="preserve" text-anchor="middle" x="623.8" y="-118.5" font-family="Helvetica,sans-Serif" font-size="10.00">../Component/Collider.h</text>
</a>
</g>
</g>
<!-- Node6&#45;&gt;Node10 -->
<g id="edge13_Node000006_Node000010" class="edge">
<title>Node6&#45;&gt;Node10</title>
<g id="a_edge13_Node000006_Node000010"><a xlink:title=" ">
<path fill="none" stroke="#63b8ff" d="M417.63,-167.53C459.71,-158.44 523.43,-144.68 568.88,-134.86"/>
<polygon fill="#63b8ff" stroke="#63b8ff" points="569.5,-138.31 578.53,-132.78 568.02,-131.47 569.5,-138.31"/>
</a>
</g>
</g>
<!-- Node6&#45;&gt;Node12 -->
<g id="edge16_Node000006_Node000012" class="edge">
<title>Node6&#45;&gt;Node12</title>
<g id="a_edge16_Node000006_Node000012"><a xlink:title=" ">
<path fill="none" stroke="#63b8ff" d="M396.27,-167.59C416.58,-159.09 446.75,-146.46 469.8,-136.81"/>
<polygon fill="#63b8ff" stroke="#63b8ff" points="470.88,-140.15 478.75,-133.06 468.18,-133.7 470.88,-140.15"/>
</a>
</g>
</g>
<!-- Node14 -->
<g id="Node000014" class="node">
<title>Node14</title>
<g id="a_Node000014"><a xlink:title=" ">
<polygon fill="#e0e0e0" stroke="#999999" points="213.42,-132 162.17,-132 162.17,-112 213.42,-112 213.42,-132"/>
<text xml:space="preserve" text-anchor="middle" x="187.8" y="-118.5" font-family="Helvetica,sans-Serif" font-size="10.00">memory</text>
</a>
</g>
</g>
<!-- Node6&#45;&gt;Node14 -->
<g id="edge20_Node000006_Node000014" class="edge">
<title>Node6&#45;&gt;Node14</title>
<g id="a_edge20_Node000006_Node000014"><a xlink:title=" ">
<path fill="none" stroke="#63b8ff" d="M341.4,-167.59C308.85,-158.15 258.78,-143.61 224.72,-133.72"/>
<polygon fill="#63b8ff" stroke="#63b8ff" points="225.86,-130.41 215.28,-130.98 223.91,-137.13 225.86,-130.41"/>
</a>
</g>
</g>
<!-- Node8&#45;&gt;Node3 -->
<g id="edge12_Node000008_Node000003" class="edge">
<title>Node8&#45;&gt;Node3</title>
<g id="a_edge12_Node000008_Node000003"><a xlink:title=" ">
<path fill="none" stroke="#63b8ff" d="M357.15,-111.81C359.78,-97.51 366.95,-70.09 384.8,-56 414.69,-32.38 521.21,-19.7 581.46,-14.27"/>
<polygon fill="#63b8ff" stroke="#63b8ff" points="581.69,-17.77 591.35,-13.41 581.09,-10.79 581.69,-17.77"/>
</a>
</g>
</g>
<!-- Node9 -->
<g id="Node000009" class="node">
<title>Node9</title>
<g id="a_Node000009"><a xlink:href="_animation_8h.html" target="_top" xlink:title="アニメーションパターンの定義">
<polygon fill="white" stroke="#666666" points="461.67,-76 393.92,-76 393.92,-56 461.67,-56 461.67,-76"/>
<text xml:space="preserve" text-anchor="middle" x="427.8" y="-62.5" font-family="Helvetica,sans-Serif" font-size="10.00">Animation.h</text>
</a>
</g>
</g>
<!-- Node8&#45;&gt;Node9 -->
<g id="edge10_Node000008_Node000009" class="edge">
<title>Node8&#45;&gt;Node9</title>
<g id="a_edge10_Node000008_Node000009"><a xlink:title=" ">
<path fill="none" stroke="#63b8ff" d="M368.34,-111.59C378.76,-103.77 393.84,-92.46 406.21,-83.19"/>
<polygon fill="#63b8ff" stroke="#63b8ff" points="408.29,-86.01 414.19,-77.21 404.09,-80.41 408.29,-86.01"/>
</a>
</g>
</g>
<!-- Node9&#45;&gt;Node3 -->
<g id="edge11_Node000009_Node000003" class="edge">
<title>Node9&#45;&gt;Node3</title>
<g id="a_edge11_Node000009_Node000003"><a xlink:title=" ">
<path fill="none" stroke="#63b8ff" d="M461.94,-55.59C495.19,-46.43 545.82,-32.48 581.58,-22.63"/>
<polygon fill="#63b8ff" stroke="#63b8ff" points="582.46,-26.02 591.17,-19.99 580.6,-19.27 582.46,-26.02"/>
</a>
</g>
</g>
<!-- Node10&#45;&gt;Node3 -->
<g id="edge14_Node000010_Node000003" class="edge">
<title>Node10&#45;&gt;Node3</title>
<g id="a_edge14_Node000010_Node000003"><a xlink:title=" ">
<path fill="none" stroke="#63b8ff" d="M623.8,-111.62C623.8,-94.01 623.8,-55.59 623.8,-31.65"/>
<polygon fill="#63b8ff" stroke="#63b8ff" points="627.3,-31.87 623.8,-21.87 620.3,-31.87 627.3,-31.87"/>
</a>
</g>
</g>
<!-- Node11 -->
<g id="Node000011" class="node">
<title>Node11</title>
<g id="a_Node000011"><a xlink:title=" ">
<polygon fill="#e0e0e0" stroke="#999999" points="815.42,-76 770.17,-76 770.17,-56 815.42,-56 815.42,-76"/>
<text xml:space="preserve" text-anchor="middle" x="792.8" y="-62.5" font-family="Helvetica,sans-Serif" font-size="10.00">variant</text>
</a>
</g>
</g>
<!-- Node10&#45;&gt;Node11 -->
<g id="edge15_Node000010_Node000011" class="edge">
<title>Node10&#45;&gt;Node11</title>
<g id="a_edge15_Node000010_Node000011"><a xlink:title=" ">
<path fill="none" stroke="#63b8ff" d="M653.23,-111.59C682.8,-102.15 728.29,-87.61 759.23,-77.72"/>
<polygon fill="#63b8ff" stroke="#63b8ff" points="760.02,-81.15 768.48,-74.77 757.89,-74.48 760.02,-81.15"/>
</a>
</g>
</g>
<!-- Node12&#45;&gt;Node3 -->
<g id="edge19_Node000012_Node000003" class="edge">
<title>Node12&#45;&gt;Node3</title>
<g id="a_edge19_Node000012_Node000003"><a xlink:title=" ">
<path fill="none" stroke="#63b8ff" d="M516.67,-111.63C529.18,-102.94 547.86,-89.38 562.8,-76 579.47,-61.07 596.77,-42.26 608.67,-28.73"/>
<polygon fill="#63b8ff" stroke="#63b8ff" points="611.07,-31.3 614.98,-21.45 605.79,-26.71 611.07,-31.3"/>
</a>
</g>
</g>
<!-- Node13 -->
<g id="Node000013" class="node">
<title>Node13</title>
<g id="a_Node000013"><a xlink:href="_spawn_info_8h.html" target="_top" xlink:title="スポーン情報の定義">
<polygon fill="white" stroke="#666666" points="554.17,-76 483.42,-76 483.42,-56 554.17,-56 554.17,-76"/>
<text xml:space="preserve" text-anchor="middle" x="518.8" y="-62.5" font-family="Helvetica,sans-Serif" font-size="10.00">SpawnInfo.h</text>
</a>
</g>
</g>
<!-- Node12&#45;&gt;Node13 -->
<g id="edge17_Node000012_Node000013" class="edge">
<title>Node12&#45;&gt;Node13</title>
<g id="a_edge17_Node000012_Node000013"><a xlink:title=" ">
<path fill="none" stroke="#63b8ff" d="M505.58,-111.59C507.58,-104.86 510.34,-95.53 512.83,-87.15"/>
<polygon fill="#63b8ff" stroke="#63b8ff" points="516.13,-88.33 515.61,-77.75 509.41,-86.34 516.13,-88.33"/>
</a>
</g>
</g>
<!-- Node13&#45;&gt;Node3 -->
<g id="edge18_Node000013_Node000003" class="edge">
<title>Node13&#45;&gt;Node3</title>
<g id="a_edge18_Node000013_Node000003"><a xlink:title=" ">
<path fill="none" stroke="#63b8ff" d="M537.09,-55.59C553.1,-47.36 576.63,-35.26 595.14,-25.74"/>
<polygon fill="#63b8ff" stroke="#63b8ff" points="596.73,-28.86 604.02,-21.17 593.52,-22.63 596.73,-28.86"/>
</a>
</g>
</g>
<!-- Node15&#45;&gt;Node3 -->
<g id="edge26_Node000015_Node000003" class="edge">
<title>Node15&#45;&gt;Node3</title>
<g id="a_edge26_Node000015_Node000003"><a xlink:title=" ">
<path fill="none" stroke="#63b8ff" d="M672.77,-167.59C683.46,-155.19 699.14,-132.54 692.8,-112 682.66,-79.2 657.8,-47.54 640.86,-28.67"/>
<polygon fill="#63b8ff" stroke="#63b8ff" points="643.46,-26.32 634.09,-21.36 638.33,-31.08 643.46,-26.32"/>
</a>
</g>
</g>
<!-- Node15&#45;&gt;Node8 -->
<g id="edge23_Node000015_Node000008" class="edge">
<title>Node15&#45;&gt;Node8</title>
<g id="a_edge23_Node000015_Node000008"><a xlink:title=" ">
<path fill="none" stroke="#63b8ff" d="M609.79,-167.53C557.18,-158.31 477.12,-144.27 420.98,-134.43"/>
<polygon fill="#63b8ff" stroke="#63b8ff" points="421.68,-131 411.23,-132.72 420.47,-137.89 421.68,-131"/>
</a>
</g>
</g>
<!-- Node15&#45;&gt;Node10 -->
<g id="edge24_Node000015_Node000010" class="edge">
<title>Node15&#45;&gt;Node10</title>
<g id="a_edge24_Node000015_Node000010"><a xlink:title=" ">
<path fill="none" stroke="#63b8ff" d="M656.83,-167.59C651.49,-160.39 643.97,-150.23 637.45,-141.43"/>
<polygon fill="#63b8ff" stroke="#63b8ff" points="640.35,-139.47 631.58,-133.51 634.72,-143.63 640.35,-139.47"/>
</a>
</g>
</g>
<!-- Node15&#45;&gt;Node12 -->
<g id="edge25_Node000015_Node000012" class="edge">
<title>Node15&#45;&gt;Node12</title>
<g id="a_edge25_Node000015_Node000012"><a xlink:title=" ">
<path fill="none" stroke="#63b8ff" d="M635.75,-167.59C609.71,-158.86 570.69,-145.77 541.65,-136.03"/>
<polygon fill="#63b8ff" stroke="#63b8ff" points="543.09,-132.82 532.49,-132.96 540.86,-139.46 543.09,-132.82"/>
</a>
</g>
</g>
<!-- Node16&#45;&gt;Node3 -->
<g id="edge32_Node000016_Node000003" class="edge">
<title>Node16&#45;&gt;Node3</title>
<g id="a_edge32_Node000016_Node000003"><a xlink:title=" ">
<path fill="none" stroke="#63b8ff" d="M456.51,-169.94C388.02,-159.28 267.04,-139.52 260.8,-132 255.11,-125.16 256.22,-119.62 260.8,-112 288.01,-66.65 315.78,-73.2 365.8,-56 438.99,-30.82 528.93,-19.23 580.97,-14.29"/>
<polygon fill="#63b8ff" stroke="#63b8ff" points="581.27,-17.78 590.91,-13.39 580.64,-10.81 581.27,-17.78"/>
</a>
</g>
</g>
<!-- Node16&#45;&gt;Node5 -->
<g id="edge30_Node000016_Node000005" class="edge">
<title>Node16&#45;&gt;Node5</title>
<g id="a_edge30_Node000016_Node000005"><a xlink:title=" ">
<path fill="none" stroke="#63b8ff" d="M548.94,-169.09C602.35,-159.93 690.74,-144.78 751.5,-134.37"/>
<polygon fill="#63b8ff" stroke="#63b8ff" points="751.75,-137.87 761.02,-132.73 750.57,-130.97 751.75,-137.87"/>
</a>
</g>
</g>
<!-- Node16&#45;&gt;Node8 -->
<g id="edge28_Node000016_Node000008" class="edge">
<title>Node16&#45;&gt;Node8</title>
<g id="a_edge28_Node000016_Node000008"><a xlink:title=" ">
<path fill="none" stroke="#63b8ff" d="M477.19,-167.59C453.73,-158.97 418.73,-146.12 392.33,-136.42"/>
<polygon fill="#63b8ff" stroke="#63b8ff" points="393.62,-133.16 383.02,-133 391.2,-139.73 393.62,-133.16"/>
</a>
</g>
</g>
<!-- Node16&#45;&gt;Node10 -->
<g id="edge29_Node000016_Node000010" class="edge">
<title>Node16&#45;&gt;Node10</title>
<g id="a_edge29_Node000016_Node000010"><a xlink:title=" ">
<path fill="none" stroke="#63b8ff" d="M523.87,-167.59C542.76,-159.17 570.71,-146.69 592.26,-137.07"/>
<polygon fill="#63b8ff" stroke="#63b8ff" points="593.47,-140.37 601.17,-133.1 590.61,-133.98 593.47,-140.37"/>
</a>
</g>
</g>
<!-- Node16&#45;&gt;Node12 -->
<g id="edge31_Node000016_Node000012" class="edge">
<title>Node16&#45;&gt;Node12</title>
<g id="a_edge31_Node000016_Node000012"><a xlink:title=" ">
<path fill="none" stroke="#63b8ff" d="M502.8,-167.59C502.8,-161.01 502.8,-151.96 502.8,-143.73"/>
<polygon fill="#63b8ff" stroke="#63b8ff" points="506.3,-143.81 502.8,-133.81 499.3,-143.81 506.3,-143.81"/>
</a>
</g>
</g>
<!-- Node17&#45;&gt;Node3 -->
<g id="edge34_Node000017_Node000003" class="edge">
<title>Node17&#45;&gt;Node3</title>
<g id="a_edge34_Node000017_Node000003"><a xlink:title=" ">
<path fill="none" stroke="#63b8ff" d="M853.88,-55.53C800.67,-45.23 716.48,-28.94 666.04,-19.18"/>
<polygon fill="#63b8ff" stroke="#63b8ff" points="666.87,-15.77 656.39,-17.31 665.54,-22.65 666.87,-15.77"/>
</a>
</g>
</g>
<!-- Node18&#45;&gt;Node3 -->
<g id="edge38_Node000018_Node000003" class="edge">
<title>Node18&#45;&gt;Node3</title>
<g id="a_edge38_Node000018_Node000003"><a xlink:title=" ">
<path fill="none" stroke="#63b8ff" d="M1022.66,-167.59C1021.78,-144.44 1016.04,-84.56 980.8,-56 933.39,-17.58 750.45,-11.59 666.43,-10.91"/>
<polygon fill="#63b8ff" stroke="#63b8ff" points="666.55,-7.41 656.53,-10.86 666.51,-14.41 666.55,-7.41"/>
</a>
</g>
</g>
<!-- Node18&#45;&gt;Node10 -->
<g id="edge36_Node000018_Node000010" class="edge">
<title>Node18&#45;&gt;Node10</title>
<g id="a_edge36_Node000018_Node000010"><a xlink:title=" ">
<path fill="none" stroke="#63b8ff" d="M952.84,-167.53C880.5,-157.74 768.11,-142.53 695.23,-132.67"/>
<polygon fill="#63b8ff" stroke="#63b8ff" points="695.76,-129.21 685.39,-131.34 694.83,-136.15 695.76,-129.21"/>
</a>
</g>
</g>
<!-- Node18&#45;&gt;Node11 -->
<g id="edge39_Node000018_Node000011" class="edge">
<title>Node18&#45;&gt;Node11</title>
<g id="a_edge39_Node000018_Node000011"><a xlink:title=" ">
<path fill="none" stroke="#63b8ff" d="M1007.08,-167.54C984.77,-154.29 942.41,-129.84 904.8,-112 879.04,-99.79 849.04,-87.85 826.57,-79.34"/>
<polygon fill="#63b8ff" stroke="#63b8ff" points="827.89,-76.1 817.3,-75.87 825.44,-82.65 827.89,-76.1"/>
</a>
</g>
</g>
<!-- Node19 -->
<g id="Node000019" class="node">
<title>Node19</title>
<g id="a_Node000019"><a xlink:title=" ">
<polygon fill="#e0e0e0" stroke="#999999" points="1073.42,-132 1028.17,-132 1028.17,-112 1073.42,-112 1073.42,-132"/>
<text xml:space="preserve" text-anchor="middle" x="1050.8" y="-118.5" font-family="Helvetica,sans-Serif" font-size="10.00">cstdint</text>
</a>
</g>
</g>
<!-- Node18&#45;&gt;Node19 -->
<g id="edge37_Node000018_Node000019" class="edge">
<title>Node18&#45;&gt;Node19</title>
<g id="a_edge37_Node000018_Node000019"><a xlink:title=" ">
<path fill="none" stroke="#63b8ff" d="M1027.67,-167.59C1031.29,-160.63 1036.34,-150.89 1040.8,-142.29"/>
<polygon fill="#63b8ff" stroke="#63b8ff" points="1043.78,-144.13 1045.28,-133.64 1037.57,-140.91 1043.78,-144.13"/>
</a>
</g>
</g>
<!-- Node20 -->
<g id="Node000020" class="node">
<title>Node20</title>
<g id="a_Node000020"><a xlink:title=" ">
<polygon fill="#e0e0e0" stroke="#999999" points="1134.3,-132 1091.3,-132 1091.3,-112 1134.3,-112 1134.3,-132"/>
<text xml:space="preserve" text-anchor="middle" x="1112.8" y="-118.5" font-family="Helvetica,sans-Serif" font-size="10.00">vector</text>
</a>
</g>
</g>
<!-- Node18&#45;&gt;Node20 -->
<g id="edge40_Node000018_Node000020" class="edge">
<title>Node18&#45;&gt;Node20</title>
<g id="a_edge40_Node000018_Node000020"><a xlink:title=" ">
<path fill="none" stroke="#63b8ff" d="M1038.47,-167.59C1051.94,-159.51 1071.62,-147.71 1087.34,-138.27"/>
<polygon fill="#63b8ff" stroke="#63b8ff" points="1088.92,-141.4 1095.7,-133.26 1085.32,-135.4 1088.92,-141.4"/>
</a>
</g>
</g>
<!-- Node21&#45;&gt;Node3 -->
<g id="edge42_Node000021_Node000003" class="edge">
<title>Node21&#45;&gt;Node3</title>
<g id="a_edge42_Node000021_Node000003"><a xlink:title=" ">
<path fill="none" stroke="#63b8ff" d="M1043.26,-58.49C946.23,-47.5 752.26,-25.54 666.39,-15.82"/>
<polygon fill="#63b8ff" stroke="#63b8ff" points="666.84,-12.35 656.51,-14.7 666.06,-19.31 666.84,-12.35"/>
</a>
</g>
</g>
</g>
</svg>
