<?xml version="1.0" encoding="UTF-8" standalone="no"?>
<!DOCTYPE svg PUBLIC "-//W3C//DTD SVG 1.1//EN"
 "http://www.w3.org/Graphics/SVG/1.1/DTD/svg11.dtd">
<!-- Generated by graphviz version 14.0.2 (20251019.1705)
 -->
<!-- Title: src/Entitie/OxygenSpot.cpp Pages: 1 -->
<svg width="519pt" height="252pt"
 viewBox="0.00 0.00 519.00 252.00" xmlns="http://www.w3.org/2000/svg" xmlns:xlink="http://www.w3.org/1999/xlink">
<g id="graph0" class="graph" transform="scale(1 1) rotate(0) translate(4 248)">
<title>src/Entitie/OxygenSpot.cpp</title>
<!-- Node1 -->
<g id="Node000001" class="node">
<title>Node1</title>
<g id="a_Node000001"><a xlink:title=" ">
<polygon fill="#999999" stroke="#666666" points="456.75,-244 320.75,-244 320.75,-224 456.75,-224 456.75,-244"/>
<text xml:space="preserve" text-anchor="middle" x="388.75" y="-230.5" font-family="Helvetica,sans-Serif" font-size="10.00">src/Entitie/OxygenSpot.cpp</text>
</a>
</g>
</g>
<!-- Node2 -->
<g id="Node000002" class="node">
<title>Node2</title>
<g id="a_Node000002"><a xlink:href="_animation_8h.html" target="_top" xlink:title="アニメーションパターンの定義">
<polygon fill="white" stroke="#666666" points="147.75,-76 17.75,-76 17.75,-56 147.75,-56 147.75,-76"/>
<text xml:space="preserve" text-anchor="middle" x="82.75" y="-62.5" font-family="Helvetica,sans-Serif" font-size="10.00">../Component/Animation.h</text>
</a>
</g>
</g>
<!-- Node1&#45;&gt;Node2 -->
<g id="edge1_Node000001_Node000002" class="edge">
<title>Node1&#45;&gt;Node2</title>
<g id="a_edge1_Node000001_Node000002"><a xlink:title=" ">
<path fill="none" stroke="#63b8ff" d="M320.65,-225.01C220.98,-211.77 43.06,-181.68 4.75,-132 -11.21,-111.3 17.51,-92.76 44.49,-80.84"/>
<polygon fill="#63b8ff" stroke="#63b8ff" points="45.75,-84.1 53.63,-77.03 43.06,-77.64 45.75,-84.1"/>
</a>
</g>
</g>
<!-- Node3 -->
<g id="Node000003" class="node">
<title>Node3</title>
<g id="a_Node000003"><a xlink:title=" ">
<polygon fill="#e0e0e0" stroke="#999999" points="307.63,-20 245.88,-20 245.88,0 307.63,0 307.63,-20"/>
<text xml:space="preserve" text-anchor="middle" x="276.75" y="-6.5" font-family="Helvetica,sans-Serif" font-size="10.00">Siv3D.hpp</text>
</a>
</g>
</g>
<!-- Node1&#45;&gt;Node3 -->
<g id="edge15_Node000001_Node000003" class="edge">
<title>Node1&#45;&gt;Node3</title>
<g id="a_edge15_Node000001_Node000003"><a xlink:title=" ">
<path fill="none" stroke="#63b8ff" d="M409.42,-223.54C424.77,-215.71 445.45,-203.39 459.75,-188 501,-143.63 532,-102.99 493.75,-56 472.17,-29.48 375.94,-18.09 319.13,-13.61"/>
<polygon fill="#63b8ff" stroke="#63b8ff" points="319.73,-10.14 309.5,-12.89 319.21,-17.12 319.73,-10.14"/>
</a>
</g>
</g>
<!-- Node4 -->
<g id="Node000004" class="node">
<title>Node4</title>
<g id="a_Node000004"><a xlink:href="_oxygen_spot_8h.html" target="_top" xlink:title="酸素スポットクラスの定義">
<polygon fill="white" stroke="#666666" points="323.88,-188 245.63,-188 245.63,-168 323.88,-168 323.88,-188"/>
<text xml:space="preserve" text-anchor="middle" x="284.75" y="-174.5" font-family="Helvetica,sans-Serif" font-size="10.00">OxygenSpot.h</text>
</a>
</g>
</g>
<!-- Node1&#45;&gt;Node4 -->
<g id="edge3_Node000001_Node000004" class="edge">
<title>Node1&#45;&gt;Node4</title>
<g id="a_edge3_Node000001_Node000004"><a xlink:title=" ">
<path fill="none" stroke="#63b8ff" d="M370.64,-223.59C354.78,-215.36 331.47,-203.26 313.14,-193.74"/>
<polygon fill="#63b8ff" stroke="#63b8ff" points="314.84,-190.68 304.35,-189.18 311.62,-196.89 314.84,-190.68"/>
</a>
</g>
</g>
<!-- Node7 -->
<g id="Node000007" class="node">
<title>Node7</title>
<g id="a_Node000007"><a xlink:title=" ">
<polygon fill="#e0e0e0" stroke="#999999" points="484.38,-76 439.13,-76 439.13,-56 484.38,-56 484.38,-76"/>
<text xml:space="preserve" text-anchor="middle" x="461.75" y="-62.5" font-family="Helvetica,sans-Serif" font-size="10.00">variant</text>
</a>
</g>
</g>
<!-- Node1&#45;&gt;Node7 -->
<g id="edge16_Node000001_Node000007" class="edge">
<title>Node1&#45;&gt;Node7</title>
<g id="a_edge16_Node000001_Node000007"><a xlink:title=" ">
<path fill="none" stroke="#63b8ff" d="M400.89,-223.75C420.85,-207.68 459.88,-172.42 474.75,-132 480.23,-117.13 476.05,-99.46 471.03,-86.29"/>
<polygon fill="#63b8ff" stroke="#63b8ff" points="474.39,-85.25 467.21,-77.46 467.96,-88.03 474.39,-85.25"/>
</a>
</g>
</g>
<!-- Node2&#45;&gt;Node3 -->
<g id="edge2_Node000002_Node000003" class="edge">
<title>Node2&#45;&gt;Node3</title>
<g id="a_edge2_Node000002_Node000003"><a xlink:title=" ">
<path fill="none" stroke="#63b8ff" d="M116.55,-55.59C149.36,-46.46 199.27,-32.57 234.66,-22.72"/>
<polygon fill="#63b8ff" stroke="#63b8ff" points="235.44,-26.13 244.13,-20.08 233.56,-19.39 235.44,-26.13"/>
</a>
</g>
</g>
<!-- Node4&#45;&gt;Node3 -->
<g id="edge14_Node000004_Node000003" class="edge">
<title>Node4&#45;&gt;Node3</title>
<g id="a_edge14_Node000004_Node000003"><a xlink:title=" ">
<path fill="none" stroke="#63b8ff" d="M267.45,-167.51C255.25,-159.75 239.85,-147.53 232.75,-132 218.71,-101.28 220,-87.28 232.75,-56 237.29,-44.89 246.03,-35.02 254.54,-27.39"/>
<polygon fill="#63b8ff" stroke="#63b8ff" points="256.49,-30.31 261.96,-21.24 252.03,-24.92 256.49,-30.31"/>
</a>
</g>
</g>
<!-- Node5 -->
<g id="Node000005" class="node">
<title>Node5</title>
<g id="a_Node000005"><a xlink:href="_animation_controller_8h.html" target="_top" xlink:title="アニメーション再生管理クラス">
<polygon fill="white" stroke="#666666" points="185.75,-132 13.75,-132 13.75,-112 185.75,-112 185.75,-132"/>
<text xml:space="preserve" text-anchor="middle" x="99.75" y="-118.5" font-family="Helvetica,sans-Serif" font-size="10.00">../Component/AnimationController.h</text>
</a>
</g>
</g>
<!-- Node4&#45;&gt;Node5 -->
<g id="edge4_Node000004_Node000005" class="edge">
<title>Node4&#45;&gt;Node5</title>
<g id="a_edge4_Node000004_Node000005"><a xlink:title=" ">
<path fill="none" stroke="#63b8ff" d="M252.53,-167.59C222.21,-158.74 176.58,-145.43 143.09,-135.65"/>
<polygon fill="#63b8ff" stroke="#63b8ff" points="144.26,-132.35 133.68,-132.9 142.3,-139.07 144.26,-132.35"/>
</a>
</g>
</g>
<!-- Node6 -->
<g id="Node000006" class="node">
<title>Node6</title>
<g id="a_Node000006"><a xlink:href="_collider_8h.html" target="_top" xlink:title="衝突判定用のコンポーネント定義">
<polygon fill="white" stroke="#666666" points="465.5,-132 346,-132 346,-112 465.5,-112 465.5,-132"/>
<text xml:space="preserve" text-anchor="middle" x="405.75" y="-118.5" font-family="Helvetica,sans-Serif" font-size="10.00">../Component/Collider.h</text>
</a>
</g>
</g>
<!-- Node4&#45;&gt;Node6 -->
<g id="edge7_Node000004_Node000006" class="edge">
<title>Node4&#45;&gt;Node6</title>
<g id="a_edge7_Node000004_Node000006"><a xlink:title=" ">
<path fill="none" stroke="#63b8ff" d="M305.83,-167.59C324.71,-159.17 352.67,-146.69 374.22,-137.07"/>
<polygon fill="#63b8ff" stroke="#63b8ff" points="375.43,-140.37 383.13,-133.1 372.57,-133.98 375.43,-140.37"/>
</a>
</g>
</g>
<!-- Node8 -->
<g id="Node000008" class="node">
<title>Node8</title>
<g id="a_Node000008"><a xlink:href="_stage_8h.html" target="_top" xlink:title="ステージ管理の定義">
<polygon fill="white" stroke="#666666" points="328,-132 241.5,-132 241.5,-112 328,-112 328,-132"/>
<text xml:space="preserve" text-anchor="middle" x="284.75" y="-118.5" font-family="Helvetica,sans-Serif" font-size="10.00">../World/Stage.h</text>
</a>
</g>
</g>
<!-- Node4&#45;&gt;Node8 -->
<g id="edge10_Node000004_Node000008" class="edge">
<title>Node4&#45;&gt;Node8</title>
<g id="a_edge10_Node000004_Node000008"><a xlink:title=" ">
<path fill="none" stroke="#63b8ff" d="M284.75,-167.59C284.75,-161.01 284.75,-151.96 284.75,-143.73"/>
<polygon fill="#63b8ff" stroke="#63b8ff" points="288.25,-143.81 284.75,-133.81 281.25,-143.81 288.25,-143.81"/>
</a>
</g>
</g>
<!-- Node5&#45;&gt;Node2 -->
<g id="edge5_Node000005_Node000002" class="edge">
<title>Node5&#45;&gt;Node2</title>
<g id="a_edge5_Node000005_Node000002"><a xlink:title=" ">
<path fill="none" stroke="#63b8ff" d="M96.79,-111.59C94.67,-104.86 91.74,-95.53 89.1,-87.15"/>
<polygon fill="#63b8ff" stroke="#63b8ff" points="92.48,-86.23 86.14,-77.74 85.8,-88.33 92.48,-86.23"/>
</a>
</g>
</g>
<!-- Node5&#45;&gt;Node3 -->
<g id="edge6_Node000005_Node000003" class="edge">
<title>Node5&#45;&gt;Node3</title>
<g id="a_edge6_Node000005_Node000003"><a xlink:title=" ">
<path fill="none" stroke="#63b8ff" d="M113.86,-111.53C133.1,-98.68 168.74,-75.13 199.75,-56 216.46,-45.7 235.5,-34.57 250.46,-25.95"/>
<polygon fill="#63b8ff" stroke="#63b8ff" points="251.85,-29.19 258.78,-21.18 248.37,-23.12 251.85,-29.19"/>
</a>
</g>
</g>
<!-- Node6&#45;&gt;Node3 -->
<g id="edge8_Node000006_Node000003" class="edge">
<title>Node6&#45;&gt;Node3</title>
<g id="a_edge8_Node000006_Node000003"><a xlink:title=" ">
<path fill="none" stroke="#63b8ff" d="M396.51,-111.87C383.36,-99.01 358.33,-75.02 335.75,-56 323.87,-45.99 310.08,-35.42 298.82,-27.04"/>
<polygon fill="#63b8ff" stroke="#63b8ff" points="301.04,-24.32 290.91,-21.21 296.88,-29.96 301.04,-24.32"/>
</a>
</g>
</g>
<!-- Node6&#45;&gt;Node7 -->
<g id="edge9_Node000006_Node000007" class="edge">
<title>Node6&#45;&gt;Node7</title>
<g id="a_edge9_Node000006_Node000007"><a xlink:title=" ">
<path fill="none" stroke="#63b8ff" d="M415.51,-111.59C423.38,-104.01 434.65,-93.13 444.1,-84.02"/>
<polygon fill="#63b8ff" stroke="#63b8ff" points="446.25,-86.81 451.02,-77.35 441.39,-81.77 446.25,-86.81"/>
</a>
</g>
</g>
<!-- Node8&#45;&gt;Node3 -->
<g id="edge13_Node000008_Node000003" class="edge">
<title>Node8&#45;&gt;Node3</title>
<g id="a_edge13_Node000008_Node000003"><a xlink:title=" ">
<path fill="none" stroke="#63b8ff" d="M296.08,-111.66C309.55,-99.34 329.23,-76.79 320.75,-56 316.22,-44.89 307.48,-35.02 298.97,-27.39"/>
<polygon fill="#63b8ff" stroke="#63b8ff" points="301.48,-24.92 291.55,-21.24 297.02,-30.31 301.48,-24.92"/>
</a>
</g>
</g>
<!-- Node9 -->
<g id="Node000009" class="node">
<title>Node9</title>
<g id="a_Node000009"><a xlink:href="_spawn_info_8h.html" target="_top" xlink:title="スポーン情報の定義">
<polygon fill="white" stroke="#666666" points="312.13,-76 241.38,-76 241.38,-56 312.13,-56 312.13,-76"/>
<text xml:space="preserve" text-anchor="middle" x="276.75" y="-62.5" font-family="Helvetica,sans-Serif" font-size="10.00">SpawnInfo.h</text>
</a>
</g>
</g>
<!-- Node8&#45;&gt;Node9 -->
<g id="edge11_Node000008_Node000009" class="edge">
<title>Node8&#45;&gt;Node9</title>
<g id="a_edge11_Node000008_Node000009"><a xlink:title=" ">
<path fill="none" stroke="#63b8ff" d="M283.36,-111.59C282.37,-104.93 281.01,-95.75 279.78,-87.44"/>
<polygon fill="#63b8ff" stroke="#63b8ff" points="283.28,-87.17 278.35,-77.8 276.36,-88.2 283.28,-87.17"/>
</a>
</g>
</g>
<!-- Node9&#45;&gt;Node3 -->
<g id="edge12_Node000009_Node000003" class="edge">
<title>Node9&#45;&gt;Node3</title>
<g id="a_edge12_Node000009_Node000003"><a xlink:title=" ">
<path fill="none" stroke="#63b8ff" d="M276.75,-55.59C276.75,-49.01 276.75,-39.96 276.75,-31.73"/>
<polygon fill="#63b8ff" stroke="#63b8ff" points="280.25,-31.81 276.75,-21.81 273.25,-31.81 280.25,-31.81"/>
</a>
</g>
</g>
</g>
</svg>
