<?xml version="1.0" encoding="UTF-8" standalone="no"?>
<!DOCTYPE svg PUBLIC "-//W3C//DTD SVG 1.1//EN"
 "http://www.w3.org/Graphics/SVG/1.1/DTD/svg11.dtd">
<!-- Generated by graphviz version 14.0.2 (20251019.1705)
 -->
<!-- Title: src/Entitie/OxygenSpot.h Pages: 1 -->
<svg width="460pt" height="196pt"
 viewBox="0.00 0.00 460.00 196.00" xmlns="http://www.w3.org/2000/svg" xmlns:xlink="http://www.w3.org/1999/xlink">
<g id="graph0" class="graph" transform="scale(1 1) rotate(0) translate(4 192)">
<title>src/Entitie/OxygenSpot.h</title>
<!-- Node1 -->
<g id="Node000001" class="node">
<title>Node1</title>
<g id="a_Node000001"><a xlink:title="酸素スポットクラスの定義">
<polygon fill="#999999" stroke="#666666" points="306.75,-188 181.25,-188 181.25,-168 306.75,-168 306.75,-188"/>
<text xml:space="preserve" text-anchor="middle" x="244" y="-174.5" font-family="Helvetica,sans-Serif" font-size="10.00">src/Entitie/OxygenSpot.h</text>
</a>
</g>
</g>
<!-- Node2 -->
<g id="Node000002" class="node">
<title>Node2</title>
<g id="a_Node000002"><a xlink:href="_animation_controller_8h.html" target="_top" xlink:title="アニメーション再生管理クラス">
<polygon fill="white" stroke="#666666" points="172,-132 0,-132 0,-112 172,-112 172,-132"/>
<text xml:space="preserve" text-anchor="middle" x="86" y="-118.5" font-family="Helvetica,sans-Serif" font-size="10.00">../Component/AnimationController.h</text>
</a>
</g>
</g>
<!-- Node1&#45;&gt;Node2 -->
<g id="edge1_Node000001_Node000002" class="edge">
<title>Node1&#45;&gt;Node2</title>
<g id="a_edge1_Node000001_Node000002"><a xlink:title=" ">
<path fill="none" stroke="#63b8ff" d="M216.48,-167.59C191.03,-158.9 152.97,-145.89 124.51,-136.16"/>
<polygon fill="#63b8ff" stroke="#63b8ff" points="125.76,-132.89 115.17,-132.97 123.5,-139.52 125.76,-132.89"/>
</a>
</g>
</g>
<!-- Node4 -->
<g id="Node000004" class="node">
<title>Node4</title>
<g id="a_Node000004"><a xlink:title=" ">
<polygon fill="#e0e0e0" stroke="#999999" points="249.88,-20 188.12,-20 188.12,0 249.88,0 249.88,-20"/>
<text xml:space="preserve" text-anchor="middle" x="219" y="-6.5" font-family="Helvetica,sans-Serif" font-size="10.00">Siv3D.hpp</text>
</a>
</g>
</g>
<!-- Node1&#45;&gt;Node4 -->
<g id="edge12_Node000001_Node000004" class="edge">
<title>Node1&#45;&gt;Node4</title>
<g id="a_edge12_Node000001_Node000004"><a xlink:title=" ">
<path fill="none" stroke="#63b8ff" d="M236.9,-167.61C230.8,-158.9 222.45,-145.32 219,-132 210.11,-97.7 212.94,-56.07 215.9,-31.66"/>
<polygon fill="#63b8ff" stroke="#63b8ff" points="219.36,-32.19 217.24,-21.81 212.42,-31.24 219.36,-32.19"/>
</a>
</g>
</g>
<!-- Node5 -->
<g id="Node000005" class="node">
<title>Node5</title>
<g id="a_Node000005"><a xlink:href="_collider_8h.html" target="_top" xlink:title="衝突判定用のコンポーネント定義">
<polygon fill="white" stroke="#666666" points="347.75,-132 228.25,-132 228.25,-112 347.75,-112 347.75,-132"/>
<text xml:space="preserve" text-anchor="middle" x="288" y="-118.5" font-family="Helvetica,sans-Serif" font-size="10.00">../Component/Collider.h</text>
</a>
</g>
</g>
<!-- Node1&#45;&gt;Node5 -->
<g id="edge5_Node000001_Node000005" class="edge">
<title>Node1&#45;&gt;Node5</title>
<g id="a_edge5_Node000001_Node000005"><a xlink:title=" ">
<path fill="none" stroke="#63b8ff" d="M251.66,-167.59C257.59,-160.32 265.99,-150.02 273.21,-141.15"/>
<polygon fill="#63b8ff" stroke="#63b8ff" points="275.86,-143.43 279.47,-133.47 270.44,-139.01 275.86,-143.43"/>
</a>
</g>
</g>
<!-- Node7 -->
<g id="Node000007" class="node">
<title>Node7</title>
<g id="a_Node000007"><a xlink:href="_stage_8h.html" target="_top" xlink:title="ステージ管理の定義">
<polygon fill="white" stroke="#666666" points="452.25,-132 365.75,-132 365.75,-112 452.25,-112 452.25,-132"/>
<text xml:space="preserve" text-anchor="middle" x="409" y="-118.5" font-family="Helvetica,sans-Serif" font-size="10.00">../World/Stage.h</text>
</a>
</g>
</g>
<!-- Node1&#45;&gt;Node7 -->
<g id="edge8_Node000001_Node000007" class="edge">
<title>Node1&#45;&gt;Node7</title>
<g id="a_edge8_Node000001_Node000007"><a xlink:title=" ">
<path fill="none" stroke="#63b8ff" d="M272.74,-167.59C299.43,-158.86 339.42,-145.77 369.18,-136.03"/>
<polygon fill="#63b8ff" stroke="#63b8ff" points="370.18,-139.39 378.6,-132.95 368,-132.73 370.18,-139.39"/>
</a>
</g>
</g>
<!-- Node3 -->
<g id="Node000003" class="node">
<title>Node3</title>
<g id="a_Node000003"><a xlink:href="_animation_8h.html" target="_top" xlink:title="アニメーションパターンの定義">
<polygon fill="white" stroke="#666666" points="123.88,-76 56.12,-76 56.12,-56 123.88,-56 123.88,-76"/>
<text xml:space="preserve" text-anchor="middle" x="90" y="-62.5" font-family="Helvetica,sans-Serif" font-size="10.00">Animation.h</text>
</a>
</g>
</g>
<!-- Node2&#45;&gt;Node3 -->
<g id="edge2_Node000002_Node000003" class="edge">
<title>Node2&#45;&gt;Node3</title>
<g id="a_edge2_Node000002_Node000003"><a xlink:title=" ">
<path fill="none" stroke="#63b8ff" d="M86.7,-111.59C87.18,-105.01 87.85,-95.96 88.46,-87.73"/>
<polygon fill="#63b8ff" stroke="#63b8ff" points="91.95,-88.04 89.2,-77.81 84.97,-87.52 91.95,-88.04"/>
</a>
</g>
</g>
<!-- Node2&#45;&gt;Node4 -->
<g id="edge4_Node000002_Node000004" class="edge">
<title>Node2&#45;&gt;Node4</title>
<g id="a_edge4_Node000002_Node000004"><a xlink:title=" ">
<path fill="none" stroke="#63b8ff" d="M97.34,-111.62C119.91,-92.95 170.74,-50.92 199.03,-27.52"/>
<polygon fill="#63b8ff" stroke="#63b8ff" points="201.05,-30.39 206.52,-21.32 196.59,-25 201.05,-30.39"/>
</a>
</g>
</g>
<!-- Node3&#45;&gt;Node4 -->
<g id="edge3_Node000003_Node000004" class="edge">
<title>Node3&#45;&gt;Node4</title>
<g id="a_edge3_Node000003_Node000004"><a xlink:title=" ">
<path fill="none" stroke="#63b8ff" d="M112.47,-55.59C132.79,-47.09 162.95,-34.46 186.01,-24.81"/>
<polygon fill="#63b8ff" stroke="#63b8ff" points="187.09,-28.15 194.96,-21.06 184.38,-21.7 187.09,-28.15"/>
</a>
</g>
</g>
<!-- Node5&#45;&gt;Node4 -->
<g id="edge6_Node000005_Node000004" class="edge">
<title>Node5&#45;&gt;Node4</title>
<g id="a_edge6_Node000005_Node000004"><a xlink:title=" ">
<path fill="none" stroke="#63b8ff" d="M281.38,-111.83C274.96,-102.83 265.04,-88.65 257,-76 247.36,-60.83 237.11,-43.2 229.69,-30.14"/>
<polygon fill="#63b8ff" stroke="#63b8ff" points="232.9,-28.7 224.94,-21.71 226.8,-32.14 232.9,-28.7"/>
</a>
</g>
</g>
<!-- Node6 -->
<g id="Node000006" class="node">
<title>Node6</title>
<g id="a_Node000006"><a xlink:title=" ">
<polygon fill="#e0e0e0" stroke="#999999" points="311.62,-76 266.38,-76 266.38,-56 311.62,-56 311.62,-76"/>
<text xml:space="preserve" text-anchor="middle" x="289" y="-62.5" font-family="Helvetica,sans-Serif" font-size="10.00">variant</text>
</a>
</g>
</g>
<!-- Node5&#45;&gt;Node6 -->
<g id="edge7_Node000005_Node000006" class="edge">
<title>Node5&#45;&gt;Node6</title>
<g id="a_edge7_Node000005_Node000006"><a xlink:title=" ">
<path fill="none" stroke="#63b8ff" d="M288.17,-111.59C288.3,-105.01 288.46,-95.96 288.62,-87.73"/>
<polygon fill="#63b8ff" stroke="#63b8ff" points="292.11,-87.87 288.8,-77.81 285.12,-87.75 292.11,-87.87"/>
</a>
</g>
</g>
<!-- Node7&#45;&gt;Node4 -->
<g id="edge11_Node000007_Node000004" class="edge">
<title>Node7&#45;&gt;Node4</title>
<g id="a_edge11_Node000007_Node000004"><a xlink:title=" ">
<path fill="none" stroke="#63b8ff" d="M397.89,-111.53C381.71,-98.04 350.41,-73.07 321,-56 299.95,-43.79 274.98,-32.72 255.01,-24.61"/>
<polygon fill="#63b8ff" stroke="#63b8ff" points="256.48,-21.43 245.9,-20.99 253.89,-27.93 256.48,-21.43"/>
</a>
</g>
</g>
<!-- Node8 -->
<g id="Node000008" class="node">
<title>Node8</title>
<g id="a_Node000008"><a xlink:href="_spawn_info_8h.html" target="_top" xlink:title="スポーン情報の定義">
<polygon fill="white" stroke="#666666" points="442.38,-76 371.62,-76 371.62,-56 442.38,-56 442.38,-76"/>
<text xml:space="preserve" text-anchor="middle" x="407" y="-62.5" font-family="Helvetica,sans-Serif" font-size="10.00">SpawnInfo.h</text>
</a>
</g>
</g>
<!-- Node7&#45;&gt;Node8 -->
<g id="edge9_Node000007_Node000008" class="edge">
<title>Node7&#45;&gt;Node8</title>
<g id="a_edge9_Node000007_Node000008"><a xlink:title=" ">
<path fill="none" stroke="#63b8ff" d="M408.65,-111.59C408.41,-105.01 408.07,-95.96 407.77,-87.73"/>
<polygon fill="#63b8ff" stroke="#63b8ff" points="411.27,-87.67 407.4,-77.81 404.27,-87.93 411.27,-87.67"/>
</a>
</g>
</g>
<!-- Node8&#45;&gt;Node4 -->
<g id="edge10_Node000008_Node000004" class="edge">
<title>Node8&#45;&gt;Node4</title>
<g id="a_edge10_Node000008_Node000004"><a xlink:title=" ">
<path fill="none" stroke="#63b8ff" d="M374.25,-55.59C342.87,-46.58 295.36,-32.93 261.17,-23.11"/>
<polygon fill="#63b8ff" stroke="#63b8ff" points="262.16,-19.75 251.58,-20.36 260.22,-26.48 262.16,-19.75"/>
</a>
</g>
</g>
</g>
</svg>
