<?xml version="1.0" encoding="UTF-8" standalone="no"?>
<!DOCTYPE svg PUBLIC "-//W3C//DTD SVG 1.1//EN"
 "http://www.w3.org/Graphics/SVG/1.1/DTD/svg11.dtd">
<!-- Generated by graphviz version 14.0.2 (20251019.1705)
 -->
<!-- Title: src/Entitie/Player.h Pages: 1 -->
<svg width="619pt" height="196pt"
 viewBox="0.00 0.00 619.00 196.00" xmlns="http://www.w3.org/2000/svg" xmlns:xlink="http://www.w3.org/1999/xlink">
<g id="graph0" class="graph" transform="scale(1 1) rotate(0) translate(4 192)">
<title>src/Entitie/Player.h</title>
<!-- Node1 -->
<g id="Node000001" class="node">
<title>Node1</title>
<g id="a_Node000001"><a xlink:title="プレイヤークラスの定義">
<polygon fill="#999999" stroke="#666666" points="337.62,-188 238.38,-188 238.38,-168 337.62,-168 337.62,-188"/>
<text xml:space="preserve" text-anchor="middle" x="288" y="-174.5" font-family="Helvetica,sans-Serif" font-size="10.00">src/Entitie/Player.h</text>
</a>
</g>
</g>
<!-- Node2 -->
<g id="Node000002" class="node">
<title>Node2</title>
<g id="a_Node000002"><a xlink:href="_animation_controller_8h.html" target="_top" xlink:title="アニメーション再生管理クラス">
<polygon fill="white" stroke="#666666" points="172,-132 0,-132 0,-112 172,-112 172,-132"/>
<text xml:space="preserve" text-anchor="middle" x="86" y="-118.5" font-family="Helvetica,sans-Serif" font-size="10.00">../Component/AnimationController.h</text>
</a>
</g>
</g>
<!-- Node1&#45;&gt;Node2 -->
<g id="edge1_Node000001_Node000002" class="edge">
<title>Node1&#45;&gt;Node2</title>
<g id="a_edge1_Node000001_Node000002"><a xlink:title=" ">
<path fill="none" stroke="#63b8ff" d="M252.81,-167.59C219.42,-158.67 169.02,-145.19 132.36,-135.39"/>
<polygon fill="#63b8ff" stroke="#63b8ff" points="133.49,-132.07 122.92,-132.87 131.68,-138.83 133.49,-132.07"/>
</a>
</g>
</g>
<!-- Node4 -->
<g id="Node000004" class="node">
<title>Node4</title>
<g id="a_Node000004"><a xlink:title=" ">
<polygon fill="#e0e0e0" stroke="#999999" points="267.88,-20 206.12,-20 206.12,0 267.88,0 267.88,-20"/>
<text xml:space="preserve" text-anchor="middle" x="237" y="-6.5" font-family="Helvetica,sans-Serif" font-size="10.00">Siv3D.hpp</text>
</a>
</g>
</g>
<!-- Node1&#45;&gt;Node4 -->
<g id="edge14_Node000001_Node000004" class="edge">
<title>Node1&#45;&gt;Node4</title>
<g id="a_edge14_Node000001_Node000004"><a xlink:title=" ">
<path fill="none" stroke="#63b8ff" d="M262.14,-167.56C246.61,-160.39 228.13,-148.85 219,-132 201.53,-99.76 215.82,-55.97 226.97,-30.87"/>
<polygon fill="#63b8ff" stroke="#63b8ff" points="230.12,-32.38 231.24,-21.84 223.8,-29.38 230.12,-32.38"/>
</a>
</g>
</g>
<!-- Node5 -->
<g id="Node000005" class="node">
<title>Node5</title>
<g id="a_Node000005"><a xlink:href="_collider_8h.html" target="_top" xlink:title="衝突判定用のコンポーネント定義">
<polygon fill="white" stroke="#666666" points="347.75,-132 228.25,-132 228.25,-112 347.75,-112 347.75,-132"/>
<text xml:space="preserve" text-anchor="middle" x="288" y="-118.5" font-family="Helvetica,sans-Serif" font-size="10.00">../Component/Collider.h</text>
</a>
</g>
</g>
<!-- Node1&#45;&gt;Node5 -->
<g id="edge5_Node000001_Node000005" class="edge">
<title>Node1&#45;&gt;Node5</title>
<g id="a_edge5_Node000001_Node000005"><a xlink:title=" ">
<path fill="none" stroke="#63b8ff" d="M288,-167.59C288,-161.01 288,-151.96 288,-143.73"/>
<polygon fill="#63b8ff" stroke="#63b8ff" points="291.5,-143.81 288,-133.81 284.5,-143.81 291.5,-143.81"/>
</a>
</g>
</g>
<!-- Node7 -->
<g id="Node000007" class="node">
<title>Node7</title>
<g id="a_Node000007"><a xlink:href="_sound_controller_8h.html" target="_top" xlink:title="サウンド再生管理クラス">
<polygon fill="white" stroke="#666666" points="485.12,-76 328.88,-76 328.88,-56 485.12,-56 485.12,-76"/>
<text xml:space="preserve" text-anchor="middle" x="407" y="-62.5" font-family="Helvetica,sans-Serif" font-size="10.00">../Component/SoundController.h</text>
</a>
</g>
</g>
<!-- Node1&#45;&gt;Node7 -->
<g id="edge8_Node000001_Node000007" class="edge">
<title>Node1&#45;&gt;Node7</title>
<g id="a_edge8_Node000001_Node000007"><a xlink:title=" ">
<path fill="none" stroke="#63b8ff" d="M305.89,-167.57C320.55,-159.34 341.36,-146.47 357,-132 371.99,-118.13 385.88,-99.4 395.2,-85.61"/>
<polygon fill="#63b8ff" stroke="#63b8ff" points="397.99,-87.73 400.54,-77.45 392.13,-83.89 397.99,-87.73"/>
</a>
</g>
</g>
<!-- Node8 -->
<g id="Node000008" class="node">
<title>Node8</title>
<g id="a_Node000008"><a xlink:href="_stage_8h.html" target="_top" xlink:title="ステージ管理の定義">
<polygon fill="white" stroke="#666666" points="556.25,-132 469.75,-132 469.75,-112 556.25,-112 556.25,-132"/>
<text xml:space="preserve" text-anchor="middle" x="513" y="-118.5" font-family="Helvetica,sans-Serif" font-size="10.00">../World/Stage.h</text>
</a>
</g>
</g>
<!-- Node1&#45;&gt;Node8 -->
<g id="edge10_Node000001_Node000008" class="edge">
<title>Node1&#45;&gt;Node8</title>
<g id="a_edge10_Node000001_Node000008"><a xlink:title=" ">
<path fill="none" stroke="#63b8ff" d="M327.45,-167.53C365.01,-158.52 421.7,-144.91 462.53,-135.11"/>
<polygon fill="#63b8ff" stroke="#63b8ff" points="463.22,-138.55 472.12,-132.81 461.58,-131.74 463.22,-138.55"/>
</a>
</g>
</g>
<!-- Node3 -->
<g id="Node000003" class="node">
<title>Node3</title>
<g id="a_Node000003"><a xlink:href="_animation_8h.html" target="_top" xlink:title="アニメーションパターンの定義">
<polygon fill="white" stroke="#666666" points="123.88,-76 56.12,-76 56.12,-56 123.88,-56 123.88,-76"/>
<text xml:space="preserve" text-anchor="middle" x="90" y="-62.5" font-family="Helvetica,sans-Serif" font-size="10.00">Animation.h</text>
</a>
</g>
</g>
<!-- Node2&#45;&gt;Node3 -->
<g id="edge2_Node000002_Node000003" class="edge">
<title>Node2&#45;&gt;Node3</title>
<g id="a_edge2_Node000002_Node000003"><a xlink:title=" ">
<path fill="none" stroke="#63b8ff" d="M86.7,-111.59C87.18,-105.01 87.85,-95.96 88.46,-87.73"/>
<polygon fill="#63b8ff" stroke="#63b8ff" points="91.95,-88.04 89.2,-77.81 84.97,-87.52 91.95,-88.04"/>
</a>
</g>
</g>
<!-- Node2&#45;&gt;Node4 -->
<g id="edge4_Node000002_Node000004" class="edge">
<title>Node2&#45;&gt;Node4</title>
<g id="a_edge4_Node000002_Node000004"><a xlink:title=" ">
<path fill="none" stroke="#63b8ff" d="M98.87,-111.62C124.73,-92.79 183.21,-50.18 215.16,-26.91"/>
<polygon fill="#63b8ff" stroke="#63b8ff" points="216.91,-29.96 222.94,-21.25 212.79,-24.31 216.91,-29.96"/>
</a>
</g>
</g>
<!-- Node3&#45;&gt;Node4 -->
<g id="edge3_Node000003_Node000004" class="edge">
<title>Node3&#45;&gt;Node4</title>
<g id="a_edge3_Node000003_Node000004"><a xlink:title=" ">
<path fill="none" stroke="#63b8ff" d="M115.61,-55.59C139.07,-46.97 174.07,-34.12 200.47,-24.42"/>
<polygon fill="#63b8ff" stroke="#63b8ff" points="201.59,-27.73 209.77,-21 199.18,-21.16 201.59,-27.73"/>
</a>
</g>
</g>
<!-- Node5&#45;&gt;Node4 -->
<g id="edge6_Node000005_Node000004" class="edge">
<title>Node5&#45;&gt;Node4</title>
<g id="a_edge6_Node000005_Node000004"><a xlink:title=" ">
<path fill="none" stroke="#63b8ff" d="M279.87,-111.59C272.71,-102.87 262.44,-89.29 256,-76 249.08,-61.73 244.18,-44.45 241.09,-31.3"/>
<polygon fill="#63b8ff" stroke="#63b8ff" points="244.54,-30.69 239,-21.66 237.7,-32.17 244.54,-30.69"/>
</a>
</g>
</g>
<!-- Node6 -->
<g id="Node000006" class="node">
<title>Node6</title>
<g id="a_Node000006"><a xlink:title=" ">
<polygon fill="#e0e0e0" stroke="#999999" points="310.62,-76 265.38,-76 265.38,-56 310.62,-56 310.62,-76"/>
<text xml:space="preserve" text-anchor="middle" x="288" y="-62.5" font-family="Helvetica,sans-Serif" font-size="10.00">variant</text>
</a>
</g>
</g>
<!-- Node5&#45;&gt;Node6 -->
<g id="edge7_Node000005_Node000006" class="edge">
<title>Node5&#45;&gt;Node6</title>
<g id="a_edge7_Node000005_Node000006"><a xlink:title=" ">
<path fill="none" stroke="#63b8ff" d="M288,-111.59C288,-105.01 288,-95.96 288,-87.73"/>
<polygon fill="#63b8ff" stroke="#63b8ff" points="291.5,-87.81 288,-77.81 284.5,-87.81 291.5,-87.81"/>
</a>
</g>
</g>
<!-- Node7&#45;&gt;Node4 -->
<g id="edge9_Node000007_Node000004" class="edge">
<title>Node7&#45;&gt;Node4</title>
<g id="a_edge9_Node000007_Node000004"><a xlink:title=" ">
<path fill="none" stroke="#63b8ff" d="M377.39,-55.59C349.77,-46.82 308.33,-33.66 277.62,-23.9"/>
<polygon fill="#63b8ff" stroke="#63b8ff" points="278.88,-20.63 268.29,-20.94 276.76,-27.3 278.88,-20.63"/>
</a>
</g>
</g>
<!-- Node8&#45;&gt;Node4 -->
<g id="edge13_Node000008_Node000004" class="edge">
<title>Node8&#45;&gt;Node4</title>
<g id="a_edge13_Node000008_Node000004"><a xlink:title=" ">
<path fill="none" stroke="#63b8ff" d="M513.16,-111.89C512.88,-97.69 510.12,-70.42 494,-56 463.01,-28.28 344.31,-17.17 279.63,-13.11"/>
<polygon fill="#63b8ff" stroke="#63b8ff" points="279.92,-9.62 269.73,-12.52 279.5,-16.61 279.92,-9.62"/>
</a>
</g>
</g>
<!-- Node9 -->
<g id="Node000009" class="node">
<title>Node9</title>
<g id="a_Node000009"><a xlink:href="_spawn_info_8h.html" target="_top" xlink:title="スポーン情報の定義">
<polygon fill="white" stroke="#666666" points="611.38,-76 540.62,-76 540.62,-56 611.38,-56 611.38,-76"/>
<text xml:space="preserve" text-anchor="middle" x="576" y="-62.5" font-family="Helvetica,sans-Serif" font-size="10.00">SpawnInfo.h</text>
</a>
</g>
</g>
<!-- Node8&#45;&gt;Node9 -->
<g id="edge11_Node000008_Node000009" class="edge">
<title>Node8&#45;&gt;Node9</title>
<g id="a_edge11_Node000008_Node000009"><a xlink:title=" ">
<path fill="none" stroke="#63b8ff" d="M523.97,-111.59C532.92,-103.93 545.77,-92.91 556.46,-83.75"/>
<polygon fill="#63b8ff" stroke="#63b8ff" points="558.69,-86.45 564,-77.28 554.13,-81.13 558.69,-86.45"/>
</a>
</g>
</g>
<!-- Node9&#45;&gt;Node4 -->
<g id="edge12_Node000009_Node000004" class="edge">
<title>Node9&#45;&gt;Node4</title>
<g id="a_edge12_Node000009_Node000004"><a xlink:title=" ">
<path fill="none" stroke="#63b8ff" d="M540.16,-58.3C535.73,-57.51 531.26,-56.72 527,-56 439.3,-41.14 336.35,-25.62 279.73,-17.25"/>
<polygon fill="#63b8ff" stroke="#63b8ff" points="280.27,-13.79 269.87,-15.8 279.25,-20.72 280.27,-13.79"/>
</a>
</g>
</g>
</g>
</svg>
