<?xml version="1.0" encoding="UTF-8" standalone="no"?>
<!DOCTYPE svg PUBLIC "-//W3C//DTD SVG 1.1//EN"
 "http://www.w3.org/Graphics/SVG/1.1/DTD/svg11.dtd">
<!-- Generated by graphviz version 14.0.2 (20251019.1705)
 -->
<!-- Title: src/Entitie/Player.cpp Pages: 1 -->
<svg width="804pt" height="252pt"
 viewBox="0.00 0.00 804.00 252.00" xmlns="http://www.w3.org/2000/svg" xmlns:xlink="http://www.w3.org/1999/xlink">
<g id="graph0" class="graph" transform="scale(1 1) rotate(0) translate(4 248)">
<title>src/Entitie/Player.cpp</title>
<!-- Node1 -->
<g id="Node000001" class="node">
<title>Node1</title>
<g id="a_Node000001"><a xlink:title=" ">
<polygon fill="#999999" stroke="#666666" points="564.75,-244 455,-244 455,-224 564.75,-224 564.75,-244"/>
<text xml:space="preserve" text-anchor="middle" x="509.88" y="-230.5" font-family="Helvetica,sans-Serif" font-size="10.00">src/Entitie/Player.cpp</text>
</a>
</g>
</g>
<!-- Node2 -->
<g id="Node000002" class="node">
<title>Node2</title>
<g id="a_Node000002"><a xlink:href="_animation_8h.html" target="_top" xlink:title="アニメーションパターンの定義">
<polygon fill="white" stroke="#666666" points="200.88,-76 70.88,-76 70.88,-56 200.88,-56 200.88,-76"/>
<text xml:space="preserve" text-anchor="middle" x="135.88" y="-62.5" font-family="Helvetica,sans-Serif" font-size="10.00">../Component/Animation.h</text>
</a>
</g>
</g>
<!-- Node1&#45;&gt;Node2 -->
<g id="edge1_Node000001_Node000002" class="edge">
<title>Node1&#45;&gt;Node2</title>
<g id="a_edge1_Node000001_Node000002"><a xlink:title=" ">
<path fill="none" stroke="#63b8ff" d="M454.69,-226.41C359.76,-213.8 171.96,-182.93 132.88,-132 123.19,-119.38 125.07,-100.99 128.71,-86.99"/>
<polygon fill="#63b8ff" stroke="#63b8ff" points="132.03,-88.1 131.68,-77.51 125.35,-86.01 132.03,-88.1"/>
</a>
</g>
</g>
<!-- Node3 -->
<g id="Node000003" class="node">
<title>Node3</title>
<g id="a_Node000003"><a xlink:title=" ">
<polygon fill="#e0e0e0" stroke="#999999" points="456.75,-20 395,-20 395,0 456.75,0 456.75,-20"/>
<text xml:space="preserve" text-anchor="middle" x="425.88" y="-6.5" font-family="Helvetica,sans-Serif" font-size="10.00">Siv3D.hpp</text>
</a>
</g>
</g>
<!-- Node1&#45;&gt;Node3 -->
<g id="edge23_Node000001_Node000003" class="edge">
<title>Node1&#45;&gt;Node3</title>
<g id="a_edge23_Node000001_Node000003"><a xlink:title=" ">
<path fill="none" stroke="#63b8ff" d="M564.94,-230.73C658.42,-224.46 833.8,-200.84 787.88,-112 768.11,-73.77 748.73,-72.25 708.88,-56 628.02,-23.03 525.01,-14.12 468.23,-11.77"/>
<polygon fill="#63b8ff" stroke="#63b8ff" points="468.47,-8.28 458.35,-11.42 468.22,-15.27 468.47,-8.28"/>
</a>
</g>
</g>
<!-- Node4 -->
<g id="Node000004" class="node">
<title>Node4</title>
<g id="a_Node000004"><a xlink:href="_config_8h.html" target="_top" xlink:title="ゲーム設定の定義">
<polygon fill="white" stroke="#666666" points="85.75,-188 0,-188 0,-168 85.75,-168 85.75,-188"/>
<text xml:space="preserve" text-anchor="middle" x="42.88" y="-174.5" font-family="Helvetica,sans-Serif" font-size="10.00">../Core/Config.h</text>
</a>
</g>
</g>
<!-- Node1&#45;&gt;Node4 -->
<g id="edge3_Node000001_Node000004" class="edge">
<title>Node1&#45;&gt;Node4</title>
<g id="a_edge3_Node000001_Node000004"><a xlink:title=" ">
<path fill="none" stroke="#63b8ff" d="M454.73,-227.78C375.92,-220.14 226.57,-204.94 99.88,-188 99.04,-187.89 98.19,-187.77 97.34,-187.66"/>
<polygon fill="#63b8ff" stroke="#63b8ff" points="98,-184.22 87.6,-186.26 97,-191.14 98,-184.22"/>
</a>
</g>
</g>
<!-- Node5 -->
<g id="Node000005" class="node">
<title>Node5</title>
<g id="a_Node000005"><a xlink:href="_utility_8h.html" target="_top" xlink:title="ユーティリティ関数の定義">
<polygon fill="white" stroke="#666666" points="747.88,-188 665.88,-188 665.88,-168 747.88,-168 747.88,-188"/>
<text xml:space="preserve" text-anchor="middle" x="706.88" y="-174.5" font-family="Helvetica,sans-Serif" font-size="10.00">../Core/Utility.h</text>
</a>
</g>
</g>
<!-- Node1&#45;&gt;Node5 -->
<g id="edge5_Node000001_Node000005" class="edge">
<title>Node1&#45;&gt;Node5</title>
<g id="a_edge5_Node000001_Node000005"><a xlink:title=" ">
<path fill="none" stroke="#63b8ff" d="M544.19,-223.59C576.62,-214.71 625.49,-201.31 661.2,-191.52"/>
<polygon fill="#63b8ff" stroke="#63b8ff" points="662.11,-194.9 670.83,-188.88 660.26,-188.15 662.11,-194.9"/>
</a>
</g>
</g>
<!-- Node7 -->
<g id="Node000007" class="node">
<title>Node7</title>
<g id="a_Node000007"><a xlink:href="_stage_8h.html" target="_top" xlink:title="ステージ管理の定義">
<polygon fill="white" stroke="#666666" points="632.12,-132 545.62,-132 545.62,-112 632.12,-112 632.12,-132"/>
<text xml:space="preserve" text-anchor="middle" x="588.88" y="-118.5" font-family="Helvetica,sans-Serif" font-size="10.00">../World/Stage.h</text>
</a>
</g>
</g>
<!-- Node1&#45;&gt;Node7 -->
<g id="edge8_Node000001_Node000007" class="edge">
<title>Node1&#45;&gt;Node7</title>
<g id="a_edge8_Node000001_Node000007"><a xlink:title=" ">
<path fill="none" stroke="#63b8ff" d="M516.61,-223.62C529.61,-205.52 558.39,-165.45 575.44,-141.7"/>
<polygon fill="#63b8ff" stroke="#63b8ff" points="578.28,-143.75 581.27,-133.58 572.6,-139.66 578.28,-143.75"/>
</a>
</g>
</g>
<!-- Node9 -->
<g id="Node000009" class="node">
<title>Node9</title>
<g id="a_Node000009"><a xlink:href="_player_8h.html" target="_top" xlink:title="プレイヤークラスの定義">
<polygon fill="white" stroke="#666666" points="431.88,-188 379.88,-188 379.88,-168 431.88,-168 431.88,-188"/>
<text xml:space="preserve" text-anchor="middle" x="405.88" y="-174.5" font-family="Helvetica,sans-Serif" font-size="10.00">Player.h</text>
</a>
</g>
</g>
<!-- Node1&#45;&gt;Node9 -->
<g id="edge12_Node000001_Node000009" class="edge">
<title>Node1&#45;&gt;Node9</title>
<g id="a_edge12_Node000001_Node000009"><a xlink:title=" ">
<path fill="none" stroke="#63b8ff" d="M491.76,-223.59C475.9,-215.36 452.59,-203.26 434.26,-193.74"/>
<polygon fill="#63b8ff" stroke="#63b8ff" points="435.96,-190.68 425.48,-189.18 432.74,-196.89 435.96,-190.68"/>
</a>
</g>
</g>
<!-- Node2&#45;&gt;Node3 -->
<g id="edge2_Node000002_Node000003" class="edge">
<title>Node2&#45;&gt;Node3</title>
<g id="a_edge2_Node000002_Node000003"><a xlink:title=" ">
<path fill="none" stroke="#63b8ff" d="M186.72,-55.53C242.6,-45.13 331.34,-28.6 383.57,-18.88"/>
<polygon fill="#63b8ff" stroke="#63b8ff" points="384.08,-22.34 393.27,-17.07 382.8,-15.46 384.08,-22.34"/>
</a>
</g>
</g>
<!-- Node4&#45;&gt;Node3 -->
<g id="edge4_Node000004_Node000003" class="edge">
<title>Node4&#45;&gt;Node3</title>
<g id="a_edge4_Node000004_Node000003"><a xlink:title=" ">
<path fill="none" stroke="#63b8ff" d="M41.05,-167.78C37.15,-145.09 30.7,-86.17 61.88,-56 106.83,-12.49 297.25,-9.26 383.32,-10.11"/>
<polygon fill="#63b8ff" stroke="#63b8ff" points="383.19,-13.61 393.23,-10.24 383.28,-6.61 383.19,-13.61"/>
</a>
</g>
</g>
<!-- Node5&#45;&gt;Node3 -->
<g id="edge7_Node000005_Node000003" class="edge">
<title>Node5&#45;&gt;Node3</title>
<g id="a_edge7_Node000005_Node000003"><a xlink:title=" ">
<path fill="none" stroke="#63b8ff" d="M708.67,-167.54C712.37,-144.81 718.18,-86.74 687.88,-56 657.92,-25.61 534.56,-15.65 468.35,-12.45"/>
<polygon fill="#63b8ff" stroke="#63b8ff" points="468.73,-8.97 458.58,-12.02 468.42,-15.96 468.73,-8.97"/>
</a>
</g>
</g>
<!-- Node6 -->
<g id="Node000006" class="node">
<title>Node6</title>
<g id="a_Node000006"><a xlink:title=" ">
<polygon fill="#e0e0e0" stroke="#999999" points="778.38,-132 735.38,-132 735.38,-112 778.38,-112 778.38,-132"/>
<text xml:space="preserve" text-anchor="middle" x="756.88" y="-118.5" font-family="Helvetica,sans-Serif" font-size="10.00">cmath</text>
</a>
</g>
</g>
<!-- Node5&#45;&gt;Node6 -->
<g id="edge6_Node000005_Node000006" class="edge">
<title>Node5&#45;&gt;Node6</title>
<g id="a_edge6_Node000005_Node000006"><a xlink:title=" ">
<path fill="none" stroke="#63b8ff" d="M715.58,-167.59C722.47,-160.16 732.27,-149.58 740.59,-140.58"/>
<polygon fill="#63b8ff" stroke="#63b8ff" points="743.01,-143.12 747.24,-133.41 737.87,-138.37 743.01,-143.12"/>
</a>
</g>
</g>
<!-- Node7&#45;&gt;Node3 -->
<g id="edge11_Node000007_Node000003" class="edge">
<title>Node7&#45;&gt;Node3</title>
<g id="a_edge11_Node000007_Node000003"><a xlink:title=" ">
<path fill="none" stroke="#63b8ff" d="M587.5,-111.64C584.94,-97.6 578.17,-71.13 561.88,-56 536.29,-32.25 497.88,-21.01 468.39,-15.71"/>
<polygon fill="#63b8ff" stroke="#63b8ff" points="469.1,-12.28 458.67,-14.14 467.98,-19.19 469.1,-12.28"/>
</a>
</g>
</g>
<!-- Node8 -->
<g id="Node000008" class="node">
<title>Node8</title>
<g id="a_Node000008"><a xlink:href="_spawn_info_8h.html" target="_top" xlink:title="スポーン情報の定義">
<polygon fill="white" stroke="#666666" points="679.25,-76 608.5,-76 608.5,-56 679.25,-56 679.25,-76"/>
<text xml:space="preserve" text-anchor="middle" x="643.88" y="-62.5" font-family="Helvetica,sans-Serif" font-size="10.00">SpawnInfo.h</text>
</a>
</g>
</g>
<!-- Node7&#45;&gt;Node8 -->
<g id="edge9_Node000007_Node000008" class="edge">
<title>Node7&#45;&gt;Node8</title>
<g id="a_edge9_Node000007_Node000008"><a xlink:title=" ">
<path fill="none" stroke="#63b8ff" d="M598.46,-111.59C606.11,-104.08 617.03,-93.35 626.25,-84.3"/>
<polygon fill="#63b8ff" stroke="#63b8ff" points="628.64,-86.86 633.32,-77.36 623.74,-81.87 628.64,-86.86"/>
</a>
</g>
</g>
<!-- Node8&#45;&gt;Node3 -->
<g id="edge10_Node000008_Node000003" class="edge">
<title>Node8&#45;&gt;Node3</title>
<g id="a_edge10_Node000008_Node000003"><a xlink:title=" ">
<path fill="none" stroke="#63b8ff" d="M608.36,-56.2C569.99,-46.7 508.86,-31.56 468.06,-21.45"/>
<polygon fill="#63b8ff" stroke="#63b8ff" points="469.14,-18.11 458.6,-19.11 467.46,-24.91 469.14,-18.11"/>
</a>
</g>
</g>
<!-- Node9&#45;&gt;Node3 -->
<g id="edge22_Node000009_Node000003" class="edge">
<title>Node9&#45;&gt;Node3</title>
<g id="a_edge22_Node000009_Node000003"><a xlink:title=" ">
<path fill="none" stroke="#63b8ff" d="M393.76,-167.75C364.46,-145.25 291.73,-88.59 285.88,-76 282.12,-67.94 280.64,-63.18 285.88,-56 307.98,-25.68 350.84,-15.34 383.34,-12.04"/>
<polygon fill="#63b8ff" stroke="#63b8ff" points="383.59,-15.53 393.28,-11.23 383.03,-8.55 383.59,-15.53"/>
</a>
</g>
</g>
<!-- Node9&#45;&gt;Node7 -->
<g id="edge21_Node000009_Node000007" class="edge">
<title>Node9&#45;&gt;Node7</title>
<g id="a_edge21_Node000009_Node000007"><a xlink:title=" ">
<path fill="none" stroke="#63b8ff" d="M432.09,-169.26C461.79,-160.5 510.63,-146.09 545.91,-135.68"/>
<polygon fill="#63b8ff" stroke="#63b8ff" points="546.8,-139.06 555.4,-132.88 544.82,-132.35 546.8,-139.06"/>
</a>
</g>
</g>
<!-- Node10 -->
<g id="Node000010" class="node">
<title>Node10</title>
<g id="a_Node000010"><a xlink:href="_animation_controller_8h.html" target="_top" xlink:title="アニメーション再生管理クラス">
<polygon fill="white" stroke="#666666" points="313.88,-132 141.88,-132 141.88,-112 313.88,-112 313.88,-132"/>
<text xml:space="preserve" text-anchor="middle" x="227.88" y="-118.5" font-family="Helvetica,sans-Serif" font-size="10.00">../Component/AnimationController.h</text>
</a>
</g>
</g>
<!-- Node9&#45;&gt;Node10 -->
<g id="edge13_Node000009_Node000010" class="edge">
<title>Node9&#45;&gt;Node10</title>
<g id="a_edge13_Node000009_Node000010"><a xlink:title=" ">
<path fill="none" stroke="#63b8ff" d="M379.61,-169.03C350.76,-160.28 304.03,-146.1 270.04,-135.79"/>
<polygon fill="#63b8ff" stroke="#63b8ff" points="271.08,-132.45 260.49,-132.9 269.05,-139.15 271.08,-132.45"/>
</a>
</g>
</g>
<!-- Node11 -->
<g id="Node000011" class="node">
<title>Node11</title>
<g id="a_Node000011"><a xlink:href="_collider_8h.html" target="_top" xlink:title="衝突判定用のコンポーネント定義">
<polygon fill="white" stroke="#666666" points="527.62,-132 408.12,-132 408.12,-112 527.62,-112 527.62,-132"/>
<text xml:space="preserve" text-anchor="middle" x="467.88" y="-118.5" font-family="Helvetica,sans-Serif" font-size="10.00">../Component/Collider.h</text>
</a>
</g>
</g>
<!-- Node9&#45;&gt;Node11 -->
<g id="edge16_Node000009_Node000011" class="edge">
<title>Node9&#45;&gt;Node11</title>
<g id="a_edge16_Node000009_Node000011"><a xlink:title=" ">
<path fill="none" stroke="#63b8ff" d="M416.67,-167.59C425.48,-159.93 438.13,-148.91 448.65,-139.75"/>
<polygon fill="#63b8ff" stroke="#63b8ff" points="450.82,-142.5 456.06,-133.29 446.22,-137.22 450.82,-142.5"/>
</a>
</g>
</g>
<!-- Node13 -->
<g id="Node000013" class="node">
<title>Node13</title>
<g id="a_Node000013"><a xlink:href="_sound_controller_8h.html" target="_top" xlink:title="サウンド再生管理クラス">
<polygon fill="white" stroke="#666666" points="451,-76 294.75,-76 294.75,-56 451,-56 451,-76"/>
<text xml:space="preserve" text-anchor="middle" x="372.88" y="-62.5" font-family="Helvetica,sans-Serif" font-size="10.00">../Component/SoundController.h</text>
</a>
</g>
</g>
<!-- Node9&#45;&gt;Node13 -->
<g id="edge19_Node000009_Node000013" class="edge">
<title>Node9&#45;&gt;Node13</title>
<g id="a_edge19_Node000009_Node000013"><a xlink:title=" ">
<path fill="none" stroke="#63b8ff" d="M403.06,-167.62C397.75,-149.92 386.15,-111.24 378.97,-87.32"/>
<polygon fill="#63b8ff" stroke="#63b8ff" points="382.34,-86.38 376.12,-77.8 375.64,-88.39 382.34,-86.38"/>
</a>
</g>
</g>
<!-- Node10&#45;&gt;Node2 -->
<g id="edge14_Node000010_Node000002" class="edge">
<title>Node10&#45;&gt;Node2</title>
<g id="a_edge14_Node000010_Node000002"><a xlink:title=" ">
<path fill="none" stroke="#63b8ff" d="M211.85,-111.59C198.08,-103.51 177.97,-91.71 161.9,-82.27"/>
<polygon fill="#63b8ff" stroke="#63b8ff" points="163.73,-79.29 153.33,-77.25 160.18,-85.33 163.73,-79.29"/>
</a>
</g>
</g>
<!-- Node10&#45;&gt;Node3 -->
<g id="edge15_Node000010_Node000003" class="edge">
<title>Node10&#45;&gt;Node3</title>
<g id="a_edge15_Node000010_Node000003"><a xlink:title=" ">
<path fill="none" stroke="#63b8ff" d="M228.82,-111.52C230.75,-97.33 236.46,-70.66 252.88,-56 288.85,-23.87 344.91,-14.17 383.4,-11.5"/>
<polygon fill="#63b8ff" stroke="#63b8ff" points="383.44,-15 393.24,-10.97 383.06,-8.01 383.44,-15"/>
</a>
</g>
</g>
<!-- Node11&#45;&gt;Node3 -->
<g id="edge17_Node000011_Node000003" class="edge">
<title>Node11&#45;&gt;Node3</title>
<g id="a_edge17_Node000011_Node000003"><a xlink:title=" ">
<path fill="none" stroke="#63b8ff" d="M468.22,-111.8C468.37,-98.86 467.47,-74.76 459.88,-56 455.9,-46.19 449.23,-36.65 442.84,-28.89"/>
<polygon fill="#63b8ff" stroke="#63b8ff" points="445.62,-26.75 436.38,-21.55 440.36,-31.37 445.62,-26.75"/>
</a>
</g>
</g>
<!-- Node12 -->
<g id="Node000012" class="node">
<title>Node12</title>
<g id="a_Node000012"><a xlink:title=" ">
<polygon fill="#e0e0e0" stroke="#999999" points="552.5,-76 507.25,-76 507.25,-56 552.5,-56 552.5,-76"/>
<text xml:space="preserve" text-anchor="middle" x="529.88" y="-62.5" font-family="Helvetica,sans-Serif" font-size="10.00">variant</text>
</a>
</g>
</g>
<!-- Node11&#45;&gt;Node12 -->
<g id="edge18_Node000011_Node000012" class="edge">
<title>Node11&#45;&gt;Node12</title>
<g id="a_edge18_Node000011_Node000012"><a xlink:title=" ">
<path fill="none" stroke="#63b8ff" d="M478.67,-111.59C487.48,-103.93 500.13,-92.91 510.65,-83.75"/>
<polygon fill="#63b8ff" stroke="#63b8ff" points="512.82,-86.5 518.06,-77.29 508.22,-81.22 512.82,-86.5"/>
</a>
</g>
</g>
<!-- Node13&#45;&gt;Node3 -->
<g id="edge20_Node000013_Node000003" class="edge">
<title>Node13&#45;&gt;Node3</title>
<g id="a_edge20_Node000013_Node000003"><a xlink:title=" ">
<path fill="none" stroke="#63b8ff" d="M382.11,-55.59C389.48,-48.08 400.01,-37.35 408.89,-28.3"/>
<polygon fill="#63b8ff" stroke="#63b8ff" points="411.18,-30.97 415.69,-21.38 406.19,-26.06 411.18,-30.97"/>
</a>
</g>
</g>
</g>
</svg>
