<?xml version="1.0" encoding="UTF-8" standalone="no"?>
<!DOCTYPE svg PUBLIC "-//W3C//DTD SVG 1.1//EN"
 "http://www.w3.org/Graphics/SVG/1.1/DTD/svg11.dtd">
<!-- Generated by graphviz version 14.0.2 (20251019.1705)
 -->
<!-- Title: src/Entitie/Player.h Pages: 1 -->
<svg width="458pt" height="140pt"
 viewBox="0.00 0.00 458.00 140.00" xmlns="http://www.w3.org/2000/svg" xmlns:xlink="http://www.w3.org/1999/xlink">
<g id="graph0" class="graph" transform="scale(1 1) rotate(0) translate(4 136)">
<title>src/Entitie/Player.h</title>
<!-- Node1 -->
<g id="Node000001" class="node">
<title>Node1</title>
<g id="a_Node000001"><a xlink:title="プレイヤークラスの定義">
<polygon fill="#999999" stroke="#666666" points="234.62,-132 135.38,-132 135.38,-112 234.62,-112 234.62,-132"/>
<text xml:space="preserve" text-anchor="middle" x="185" y="-118.5" font-family="Helvetica,sans-Serif" font-size="10.00">src/Entitie/Player.h</text>
</a>
</g>
</g>
<!-- Node2 -->
<g id="Node000002" class="node">
<title>Node2</title>
<g id="a_Node000002"><a xlink:href="_enemy_8cpp.html" target="_top" xlink:title=" ">
<polygon fill="white" stroke="#666666" points="112,-76 0,-76 0,-56 112,-56 112,-76"/>
<text xml:space="preserve" text-anchor="middle" x="56" y="-62.5" font-family="Helvetica,sans-Serif" font-size="10.00">src/Entitie/Enemy.cpp</text>
</a>
</g>
</g>
<!-- Node1&#45;&gt;Node2 -->
<g id="edge1_Node000001_Node000002" class="edge">
<title>Node1&#45;&gt;Node2</title>
<g id="a_edge1_Node000001_Node000002"><a xlink:title=" ">
<path fill="none" stroke="#63b8ff" d="M152.2,-107.27C129.19,-97.64 99.02,-85.01 78.65,-76.48"/>
<polygon fill="#63b8ff" stroke="#63b8ff" points="150.56,-110.38 161.13,-111.01 153.26,-103.92 150.56,-110.38"/>
</a>
</g>
</g>
<!-- Node3 -->
<g id="Node000003" class="node">
<title>Node3</title>
<g id="a_Node000003"><a xlink:href="_player_8cpp.html" target="_top" xlink:title=" ">
<polygon fill="white" stroke="#666666" points="239.88,-76 130.12,-76 130.12,-56 239.88,-56 239.88,-76"/>
<text xml:space="preserve" text-anchor="middle" x="185" y="-62.5" font-family="Helvetica,sans-Serif" font-size="10.00">src/Entitie/Player.cpp</text>
</a>
</g>
</g>
<!-- Node1&#45;&gt;Node3 -->
<g id="edge2_Node000001_Node000003" class="edge">
<title>Node1&#45;&gt;Node3</title>
<g id="a_edge2_Node000001_Node000003"><a xlink:title=" ">
<path fill="none" stroke="#63b8ff" d="M185,-100.13C185,-91.9 185,-82.85 185,-76.3"/>
<polygon fill="#63b8ff" stroke="#63b8ff" points="181.5,-100.08 185,-110.08 188.5,-100.08 181.5,-100.08"/>
</a>
</g>
</g>
<!-- Node4 -->
<g id="Node000004" class="node">
<title>Node4</title>
<g id="a_Node000004"><a xlink:href="_game_scene_8h.html" target="_top" xlink:title="ゲームシーンの定義">
<polygon fill="white" stroke="#666666" points="383.75,-76 258.25,-76 258.25,-56 383.75,-56 383.75,-76"/>
<text xml:space="preserve" text-anchor="middle" x="321" y="-62.5" font-family="Helvetica,sans-Serif" font-size="10.00">src/Scene/GameScene.h</text>
</a>
</g>
</g>
<!-- Node1&#45;&gt;Node4 -->
<g id="edge3_Node000001_Node000004" class="edge">
<title>Node1&#45;&gt;Node4</title>
<g id="a_edge3_Node000001_Node000004"><a xlink:title=" ">
<path fill="none" stroke="#63b8ff" d="M219.25,-107.4C243.55,-97.75 275.55,-85.05 297.13,-76.48"/>
<polygon fill="#63b8ff" stroke="#63b8ff" points="218.1,-104.09 210.1,-111.04 220.68,-110.6 218.1,-104.09"/>
</a>
</g>
</g>
<!-- Node5 -->
<g id="Node000005" class="node">
<title>Node5</title>
<g id="a_Node000005"><a xlink:href="_main_8cpp.html" target="_top" xlink:title=" ">
<polygon fill="white" stroke="#666666" points="296.12,-20 223.88,-20 223.88,0 296.12,0 296.12,-20"/>
<text xml:space="preserve" text-anchor="middle" x="260" y="-6.5" font-family="Helvetica,sans-Serif" font-size="10.00">src/Main.cpp</text>
</a>
</g>
</g>
<!-- Node4&#45;&gt;Node5 -->
<g id="edge4_Node000004_Node000005" class="edge">
<title>Node4&#45;&gt;Node5</title>
<g id="a_edge4_Node000004_Node000005"><a xlink:title=" ">
<path fill="none" stroke="#63b8ff" d="M301.94,-48.13C291.56,-38.94 279.13,-27.93 270.5,-20.3"/>
<polygon fill="#63b8ff" stroke="#63b8ff" points="299.43,-50.58 309.24,-54.59 304.07,-45.34 299.43,-50.58"/>
</a>
</g>
</g>
<!-- Node6 -->
<g id="Node000006" class="node">
<title>Node6</title>
<g id="a_Node000006"><a xlink:href="_game_scene_8cpp.html" target="_top" xlink:title=" ">
<polygon fill="white" stroke="#666666" points="450,-20 314,-20 314,0 450,0 450,-20"/>
<text xml:space="preserve" text-anchor="middle" x="382" y="-6.5" font-family="Helvetica,sans-Serif" font-size="10.00">src/Scene/GameScene.cpp</text>
</a>
</g>
</g>
<!-- Node4&#45;&gt;Node6 -->
<g id="edge5_Node000004_Node000006" class="edge">
<title>Node4&#45;&gt;Node6</title>
<g id="a_edge5_Node000004_Node000006"><a xlink:title=" ">
<path fill="none" stroke="#63b8ff" d="M340.06,-48.13C350.44,-38.94 362.87,-27.93 371.5,-20.3"/>
<polygon fill="#63b8ff" stroke="#63b8ff" points="337.93,-45.34 332.76,-54.59 342.57,-50.58 337.93,-45.34"/>
</a>
</g>
</g>
</g>
</svg>
