<?xml version="1.0" encoding="UTF-8" standalone="no"?>
<!DOCTYPE svg PUBLIC "-//W3C//DTD SVG 1.1//EN"
 "http://www.w3.org/Graphics/SVG/1.1/DTD/svg11.dtd">
<!-- Generated by graphviz version 14.0.2 (20251019.1705)
 -->
<!-- Title: src/Component/SoundController.cpp Pages: 1 -->
<svg width="182pt" height="140pt"
 viewBox="0.00 0.00 182.00 140.00" xmlns="http://www.w3.org/2000/svg" xmlns:xlink="http://www.w3.org/1999/xlink">
<g id="graph0" class="graph" transform="scale(1 1) rotate(0) translate(4 136)">
<title>src/Component/SoundController.cpp</title>
<!-- Node1 -->
<g id="Node000001" class="node">
<title>Node1</title>
<g id="a_Node000001"><a xlink:title=" ">
<polygon fill="#999999" stroke="#666666" points="174.25,-132 0,-132 0,-112 174.25,-112 174.25,-132"/>
<text xml:space="preserve" text-anchor="middle" x="87.12" y="-118.5" font-family="Helvetica,sans-Serif" font-size="10.00">src/Component/SoundController.cpp</text>
</a>
</g>
</g>
<!-- Node2 -->
<g id="Node000002" class="node">
<title>Node2</title>
<g id="a_Node000002"><a xlink:href="_sound_controller_8h.html" target="_top" xlink:title="サウンド再生管理クラス">
<polygon fill="white" stroke="#666666" points="134.12,-76 40.12,-76 40.12,-56 134.12,-56 134.12,-76"/>
<text xml:space="preserve" text-anchor="middle" x="87.12" y="-62.5" font-family="Helvetica,sans-Serif" font-size="10.00">SoundController.h</text>
</a>
</g>
</g>
<!-- Node1&#45;&gt;Node2 -->
<g id="edge1_Node000001_Node000002" class="edge">
<title>Node1&#45;&gt;Node2</title>
<g id="a_edge1_Node000001_Node000002"><a xlink:title=" ">
<path fill="none" stroke="#63b8ff" d="M87.12,-111.59C87.12,-105.01 87.12,-95.96 87.12,-87.73"/>
<polygon fill="#63b8ff" stroke="#63b8ff" points="90.63,-87.81 87.13,-77.81 83.63,-87.81 90.63,-87.81"/>
</a>
</g>
</g>
<!-- Node3 -->
<g id="Node000003" class="node">
<title>Node3</title>
<g id="a_Node000003"><a xlink:title=" ">
<polygon fill="#e0e0e0" stroke="#999999" points="118,-20 56.25,-20 56.25,0 118,0 118,-20"/>
<text xml:space="preserve" text-anchor="middle" x="87.12" y="-6.5" font-family="Helvetica,sans-Serif" font-size="10.00">Siv3D.hpp</text>
</a>
</g>
</g>
<!-- Node2&#45;&gt;Node3 -->
<g id="edge2_Node000002_Node000003" class="edge">
<title>Node2&#45;&gt;Node3</title>
<g id="a_edge2_Node000002_Node000003"><a xlink:title=" ">
<path fill="none" stroke="#63b8ff" d="M87.12,-55.59C87.12,-49.01 87.12,-39.96 87.12,-31.73"/>
<polygon fill="#63b8ff" stroke="#63b8ff" points="90.63,-31.81 87.13,-21.81 83.63,-31.81 90.63,-31.81"/>
</a>
</g>
</g>
</g>
</svg>
