<?xml version="1.0" encoding="UTF-8" standalone="no"?>
<!DOCTYPE svg PUBLIC "-//W3C//DTD SVG 1.1//EN"
 "http://www.w3.org/Graphics/SVG/1.1/DTD/svg11.dtd">
<!-- Generated by graphviz version 14.0.2 (20251019.1705)
 -->
<!-- Title: src/Component/SoundController.h Pages: 1 -->
<svg width="501pt" height="196pt"
 viewBox="0.00 0.00 501.00 196.00" xmlns="http://www.w3.org/2000/svg" xmlns:xlink="http://www.w3.org/1999/xlink">
<g id="graph0" class="graph" transform="scale(1 1) rotate(0) translate(4 192)">
<title>src/Component/SoundController.h</title>
<!-- Node1 -->
<g id="Node000001" class="node">
<title>Node1</title>
<g id="a_Node000001"><a xlink:title="サウンド再生管理クラス">
<polygon fill="#999999" stroke="#666666" points="324,-188 160.25,-188 160.25,-168 324,-168 324,-188"/>
<text xml:space="preserve" text-anchor="middle" x="242.12" y="-174.5" font-family="Helvetica,sans-Serif" font-size="10.00">src/Component/SoundController.h</text>
</a>
</g>
</g>
<!-- Node2 -->
<g id="Node000002" class="node">
<title>Node2</title>
<g id="a_Node000002"><a xlink:href="_sound_controller_8cpp.html" target="_top" xlink:title=" ">
<polygon fill="white" stroke="#666666" points="174.25,-132 0,-132 0,-112 174.25,-112 174.25,-132"/>
<text xml:space="preserve" text-anchor="middle" x="87.12" y="-118.5" font-family="Helvetica,sans-Serif" font-size="10.00">src/Component/SoundController.cpp</text>
</a>
</g>
</g>
<!-- Node1&#45;&gt;Node2 -->
<g id="edge1_Node000001_Node000002" class="edge">
<title>Node1&#45;&gt;Node2</title>
<g id="a_edge1_Node000001_Node000002"><a xlink:title=" ">
<path fill="none" stroke="#63b8ff" d="M204.58,-163.92C176.72,-154.21 139.37,-141.2 114.33,-132.48"/>
<polygon fill="#63b8ff" stroke="#63b8ff" points="203.1,-167.11 213.7,-167.1 205.4,-160.5 203.1,-167.11"/>
</a>
</g>
</g>
<!-- Node3 -->
<g id="Node000003" class="node">
<title>Node3</title>
<g id="a_Node000003"><a xlink:href="_player_8h.html" target="_top" xlink:title="プレイヤークラスの定義">
<polygon fill="white" stroke="#666666" points="291.75,-132 192.5,-132 192.5,-112 291.75,-112 291.75,-132"/>
<text xml:space="preserve" text-anchor="middle" x="242.12" y="-118.5" font-family="Helvetica,sans-Serif" font-size="10.00">src/Entitie/Player.h</text>
</a>
</g>
</g>
<!-- Node1&#45;&gt;Node3 -->
<g id="edge2_Node000001_Node000003" class="edge">
<title>Node1&#45;&gt;Node3</title>
<g id="a_edge2_Node000001_Node000003"><a xlink:title=" ">
<path fill="none" stroke="#63b8ff" d="M242.12,-156.13C242.12,-147.9 242.12,-138.85 242.12,-132.3"/>
<polygon fill="#63b8ff" stroke="#63b8ff" points="238.63,-156.08 242.13,-166.08 245.63,-156.08 238.63,-156.08"/>
</a>
</g>
</g>
<!-- Node6 -->
<g id="Node000006" class="node">
<title>Node6</title>
<g id="a_Node000006"><a xlink:href="_game_scene_8h.html" target="_top" xlink:title="ゲームシーンの定義">
<polygon fill="white" stroke="#666666" points="426.88,-76 301.38,-76 301.38,-56 426.88,-56 426.88,-76"/>
<text xml:space="preserve" text-anchor="middle" x="364.12" y="-62.5" font-family="Helvetica,sans-Serif" font-size="10.00">src/Scene/GameScene.h</text>
</a>
</g>
</g>
<!-- Node1&#45;&gt;Node6 -->
<g id="edge8_Node000001_Node000006" class="edge">
<title>Node1&#45;&gt;Node6</title>
<g id="a_edge8_Node000001_Node000006"><a xlink:title=" ">
<path fill="none" stroke="#63b8ff" d="M264.85,-160.9C276.08,-152.64 289.65,-142.19 301.12,-132 322.04,-113.42 344.33,-89.25 355.97,-76.25"/>
<polygon fill="#63b8ff" stroke="#63b8ff" points="262.97,-157.95 256.92,-166.65 267.07,-163.61 262.97,-157.95"/>
</a>
</g>
</g>
<!-- Node4 -->
<g id="Node000004" class="node">
<title>Node4</title>
<g id="a_Node000004"><a xlink:href="_enemy_8cpp.html" target="_top" xlink:title=" ">
<polygon fill="white" stroke="#666666" points="155.12,-76 43.13,-76 43.13,-56 155.12,-56 155.12,-76"/>
<text xml:space="preserve" text-anchor="middle" x="99.12" y="-62.5" font-family="Helvetica,sans-Serif" font-size="10.00">src/Entitie/Enemy.cpp</text>
</a>
</g>
</g>
<!-- Node3&#45;&gt;Node4 -->
<g id="edge3_Node000003_Node000004" class="edge">
<title>Node3&#45;&gt;Node4</title>
<g id="a_edge3_Node000003_Node000004"><a xlink:title=" ">
<path fill="none" stroke="#63b8ff" d="M206.46,-107.53C180.87,-97.87 147.02,-85.08 124.23,-76.48"/>
<polygon fill="#63b8ff" stroke="#63b8ff" points="205.21,-110.8 215.8,-111.06 207.68,-104.25 205.21,-110.8"/>
</a>
</g>
</g>
<!-- Node5 -->
<g id="Node000005" class="node">
<title>Node5</title>
<g id="a_Node000005"><a xlink:href="_player_8cpp.html" target="_top" xlink:title=" ">
<polygon fill="white" stroke="#666666" points="283,-76 173.25,-76 173.25,-56 283,-56 283,-76"/>
<text xml:space="preserve" text-anchor="middle" x="228.12" y="-62.5" font-family="Helvetica,sans-Serif" font-size="10.00">src/Entitie/Player.cpp</text>
</a>
</g>
</g>
<!-- Node3&#45;&gt;Node5 -->
<g id="edge4_Node000003_Node000005" class="edge">
<title>Node3&#45;&gt;Node5</title>
<g id="a_edge4_Node000003_Node000005"><a xlink:title=" ">
<path fill="none" stroke="#63b8ff" d="M236.87,-100.71C234.69,-92.32 232.27,-83.01 230.54,-76.3"/>
<polygon fill="#63b8ff" stroke="#63b8ff" points="233.41,-101.33 239.31,-110.13 240.18,-99.57 233.41,-101.33"/>
</a>
</g>
</g>
<!-- Node3&#45;&gt;Node6 -->
<g id="edge5_Node000003_Node000006" class="edge">
<title>Node3&#45;&gt;Node6</title>
<g id="a_edge5_Node000003_Node000006"><a xlink:title=" ">
<path fill="none" stroke="#63b8ff" d="M273.73,-107.01C295.42,-97.41 323.62,-84.93 342.71,-76.48"/>
<polygon fill="#63b8ff" stroke="#63b8ff" points="272.49,-103.73 264.76,-110.98 275.32,-110.13 272.49,-103.73"/>
</a>
</g>
</g>
<!-- Node7 -->
<g id="Node000007" class="node">
<title>Node7</title>
<g id="a_Node000007"><a xlink:href="_main_8cpp.html" target="_top" xlink:title=" ">
<polygon fill="white" stroke="#666666" points="339.25,-20 267,-20 267,0 339.25,0 339.25,-20"/>
<text xml:space="preserve" text-anchor="middle" x="303.12" y="-6.5" font-family="Helvetica,sans-Serif" font-size="10.00">src/Main.cpp</text>
</a>
</g>
</g>
<!-- Node6&#45;&gt;Node7 -->
<g id="edge6_Node000006_Node000007" class="edge">
<title>Node6&#45;&gt;Node7</title>
<g id="a_edge6_Node000006_Node000007"><a xlink:title=" ">
<path fill="none" stroke="#63b8ff" d="M345.06,-48.13C334.69,-38.94 322.25,-27.93 313.63,-20.3"/>
<polygon fill="#63b8ff" stroke="#63b8ff" points="342.56,-50.58 352.37,-54.59 347.2,-45.34 342.56,-50.58"/>
</a>
</g>
</g>
<!-- Node8 -->
<g id="Node000008" class="node">
<title>Node8</title>
<g id="a_Node000008"><a xlink:href="_game_scene_8cpp.html" target="_top" xlink:title=" ">
<polygon fill="white" stroke="#666666" points="493.12,-20 357.12,-20 357.12,0 493.12,0 493.12,-20"/>
<text xml:space="preserve" text-anchor="middle" x="425.12" y="-6.5" font-family="Helvetica,sans-Serif" font-size="10.00">src/Scene/GameScene.cpp</text>
</a>
</g>
</g>
<!-- Node6&#45;&gt;Node8 -->
<g id="edge7_Node000006_Node000008" class="edge">
<title>Node6&#45;&gt;Node8</title>
<g id="a_edge7_Node000006_Node000008"><a xlink:title=" ">
<path fill="none" stroke="#63b8ff" d="M383.19,-48.13C393.56,-38.94 406,-27.93 414.62,-20.3"/>
<polygon fill="#63b8ff" stroke="#63b8ff" points="381.05,-45.34 375.88,-54.59 385.69,-50.58 381.05,-45.34"/>
</a>
</g>
</g>
</g>
</svg>
