<?xml version="1.0" encoding="UTF-8" standalone="no"?>
<!DOCTYPE svg PUBLIC "-//W3C//DTD SVG 1.1//EN"
 "http://www.w3.org/Graphics/SVG/1.1/DTD/svg11.dtd">
<!-- Generated by graphviz version 14.0.2 (20251019.1705)
 -->
<!-- Title: src/World/SpawnInfo.h Pages: 1 -->
<svg width="780pt" height="252pt"
 viewBox="0.00 0.00 780.00 252.00" xmlns="http://www.w3.org/2000/svg" xmlns:xlink="http://www.w3.org/1999/xlink">
<g id="graph0" class="graph" transform="scale(1 1) rotate(0) translate(4 248)">
<title>src/World/SpawnInfo.h</title>
<!-- Node1 -->
<g id="Node000001" class="node">
<title>Node1</title>
<g id="a_Node000001"><a xlink:title="スポーン情報の定義">
<polygon fill="#999999" stroke="#666666" points="501.5,-244 386.5,-244 386.5,-224 501.5,-224 501.5,-244"/>
<text xml:space="preserve" text-anchor="middle" x="444" y="-230.5" font-family="Helvetica,sans-Serif" font-size="10.00">src/World/SpawnInfo.h</text>
</a>
</g>
</g>
<!-- Node2 -->
<g id="Node000002" class="node">
<title>Node2</title>
<g id="a_Node000002"><a xlink:href="_game_scene_8cpp.html" target="_top" xlink:title=" ">
<polygon fill="white" stroke="#666666" points="136,-20 0,-20 0,0 136,0 136,-20"/>
<text xml:space="preserve" text-anchor="middle" x="68" y="-6.5" font-family="Helvetica,sans-Serif" font-size="10.00">src/Scene/GameScene.cpp</text>
</a>
</g>
</g>
<!-- Node1&#45;&gt;Node2 -->
<g id="edge1_Node000001_Node000002" class="edge">
<title>Node1&#45;&gt;Node2</title>
<g id="a_edge1_Node000001_Node000002"><a xlink:title=" ">
<path fill="none" stroke="#63b8ff" d="M374.83,-231.66C275.32,-225.43 95.94,-197.04 25,-76 13.1,-55.69 37.24,-32.96 53.93,-20.48"/>
<polygon fill="#63b8ff" stroke="#63b8ff" points="374.57,-235.15 384.75,-232.22 374.96,-228.16 374.57,-235.15"/>
</a>
</g>
</g>
<!-- Node3 -->
<g id="Node000003" class="node">
<title>Node3</title>
<g id="a_Node000003"><a xlink:href="_stage_8cpp.html" target="_top" xlink:title=" ">
<polygon fill="white" stroke="#666666" points="772.25,-132 667.75,-132 667.75,-112 772.25,-112 772.25,-132"/>
<text xml:space="preserve" text-anchor="middle" x="720" y="-118.5" font-family="Helvetica,sans-Serif" font-size="10.00">src/World/Stage.cpp</text>
</a>
</g>
</g>
<!-- Node1&#45;&gt;Node3 -->
<g id="edge2_Node000001_Node000003" class="edge">
<title>Node1&#45;&gt;Node3</title>
<g id="a_edge2_Node000001_Node000003"><a xlink:title=" ">
<path fill="none" stroke="#63b8ff" d="M478.12,-219.4C534.99,-196.74 647.69,-151.82 696.53,-132.35"/>
<polygon fill="#63b8ff" stroke="#63b8ff" points="476.93,-216.11 468.94,-223.06 479.52,-222.61 476.93,-216.11"/>
</a>
</g>
</g>
<!-- Node4 -->
<g id="Node000004" class="node">
<title>Node4</title>
<g id="a_Node000004"><a xlink:href="_stage_8h.html" target="_top" xlink:title="ステージ管理の定義">
<polygon fill="white" stroke="#666666" points="491,-188 397,-188 397,-168 491,-168 491,-188"/>
<text xml:space="preserve" text-anchor="middle" x="444" y="-174.5" font-family="Helvetica,sans-Serif" font-size="10.00">src/World/Stage.h</text>
</a>
</g>
</g>
<!-- Node1&#45;&gt;Node4 -->
<g id="edge3_Node000001_Node000004" class="edge">
<title>Node1&#45;&gt;Node4</title>
<g id="a_edge3_Node000001_Node000004"><a xlink:title=" ">
<path fill="none" stroke="#63b8ff" d="M444,-212.13C444,-203.9 444,-194.85 444,-188.3"/>
<polygon fill="#63b8ff" stroke="#63b8ff" points="440.5,-212.08 444,-222.08 447.5,-212.08 440.5,-212.08"/>
</a>
</g>
</g>
<!-- Node4&#45;&gt;Node3 -->
<g id="edge21_Node000004_Node000003" class="edge">
<title>Node4&#45;&gt;Node3</title>
<g id="a_edge21_Node000004_Node000003"><a xlink:title=" ">
<path fill="none" stroke="#63b8ff" d="M502.49,-165.56C552.85,-155.7 624.66,-141.65 671.79,-132.43"/>
<polygon fill="#63b8ff" stroke="#63b8ff" points="502.07,-162.07 492.93,-167.43 503.42,-168.94 502.07,-162.07"/>
</a>
</g>
</g>
<!-- Node5 -->
<g id="Node000005" class="node">
<title>Node5</title>
<g id="a_Node000005"><a xlink:href="_behavior_strategies_8cpp.html" target="_top" xlink:title=" ">
<polygon fill="white" stroke="#666666" points="478.25,-76 331.75,-76 331.75,-56 478.25,-56 478.25,-76"/>
<text xml:space="preserve" text-anchor="middle" x="405" y="-62.5" font-family="Helvetica,sans-Serif" font-size="10.00">src/AI/BehaviorStrategies.cpp</text>
</a>
</g>
</g>
<!-- Node4&#45;&gt;Node5 -->
<g id="edge4_Node000004_Node000005" class="edge">
<title>Node4&#45;&gt;Node5</title>
<g id="a_edge4_Node000004_Node000005"><a xlink:title=" ">
<path fill="none" stroke="#63b8ff" d="M386.53,-163.57C370.34,-156.85 354.56,-146.84 345,-132 330.78,-109.92 362.33,-88.34 384.85,-76.44"/>
<polygon fill="#63b8ff" stroke="#63b8ff" points="385.16,-166.79 395.75,-167 387.6,-160.23 385.16,-166.79"/>
</a>
</g>
</g>
<!-- Node6 -->
<g id="Node000006" class="node">
<title>Node6</title>
<g id="a_Node000006"><a xlink:href="_enemy_8cpp.html" target="_top" xlink:title=" ">
<polygon fill="white" stroke="#666666" points="608,-76 496,-76 496,-56 608,-56 608,-76"/>
<text xml:space="preserve" text-anchor="middle" x="552" y="-62.5" font-family="Helvetica,sans-Serif" font-size="10.00">src/Entitie/Enemy.cpp</text>
</a>
</g>
</g>
<!-- Node4&#45;&gt;Node6 -->
<g id="edge5_Node000004_Node000006" class="edge">
<title>Node4&#45;&gt;Node6</title>
<g id="a_edge5_Node000004_Node000006"><a xlink:title=" ">
<path fill="none" stroke="#63b8ff" d="M459.3,-159.29C470.97,-145.99 487.61,-127.48 503,-112 515.7,-99.22 531.12,-85.31 541.23,-76.39"/>
<polygon fill="#63b8ff" stroke="#63b8ff" points="456.69,-156.95 452.76,-166.79 461.97,-161.55 456.69,-156.95"/>
</a>
</g>
</g>
<!-- Node7 -->
<g id="Node000007" class="node">
<title>Node7</title>
<g id="a_Node000007"><a xlink:href="_enemy_8h.html" target="_top" xlink:title="敵クラスの定義">
<polygon fill="white" stroke="#666666" points="455.75,-132 354.25,-132 354.25,-112 455.75,-112 455.75,-132"/>
<text xml:space="preserve" text-anchor="middle" x="405" y="-118.5" font-family="Helvetica,sans-Serif" font-size="10.00">src/Entitie/Enemy.h</text>
</a>
</g>
</g>
<!-- Node4&#45;&gt;Node7 -->
<g id="edge6_Node000004_Node000007" class="edge">
<title>Node4&#45;&gt;Node7</title>
<g id="a_edge6_Node000004_Node000007"><a xlink:title=" ">
<path fill="none" stroke="#63b8ff" d="M430.59,-158.44C424.23,-149.62 416.89,-139.47 411.72,-132.3"/>
<polygon fill="#63b8ff" stroke="#63b8ff" points="427.63,-160.31 436.32,-166.37 433.3,-156.21 427.63,-160.31"/>
</a>
</g>
</g>
<!-- Node8 -->
<g id="Node000008" class="node">
<title>Node8</title>
<g id="a_Node000008"><a xlink:href="_game_scene_8h.html" target="_top" xlink:title="ゲームシーンの定義">
<polygon fill="white" stroke="#666666" points="313.75,-76 188.25,-76 188.25,-56 313.75,-56 313.75,-76"/>
<text xml:space="preserve" text-anchor="middle" x="251" y="-62.5" font-family="Helvetica,sans-Serif" font-size="10.00">src/Scene/GameScene.h</text>
</a>
</g>
</g>
<!-- Node4&#45;&gt;Node8 -->
<g id="edge20_Node000004_Node000008" class="edge">
<title>Node4&#45;&gt;Node8</title>
<g id="a_edge20_Node000004_Node000008"><a xlink:title=" ">
<path fill="none" stroke="#63b8ff" d="M405.57,-163.51C384.69,-155.53 358.76,-144.54 337,-132 307.81,-115.18 277.15,-89.88 261.52,-76.34"/>
<polygon fill="#63b8ff" stroke="#63b8ff" points="404.27,-166.76 414.87,-166.99 406.72,-160.21 404.27,-166.76"/>
</a>
</g>
</g>
<!-- Node10 -->
<g id="Node000010" class="node">
<title>Node10</title>
<g id="a_Node000010"><a xlink:href="_oxygen_spot_8h.html" target="_top" xlink:title="酸素スポットクラスの定義">
<polygon fill="white" stroke="#666666" points="259.75,-132 134.25,-132 134.25,-112 259.75,-112 259.75,-132"/>
<text xml:space="preserve" text-anchor="middle" x="197" y="-118.5" font-family="Helvetica,sans-Serif" font-size="10.00">src/Entitie/OxygenSpot.h</text>
</a>
</g>
</g>
<!-- Node4&#45;&gt;Node10 -->
<g id="edge12_Node000004_Node000010" class="edge">
<title>Node4&#45;&gt;Node10</title>
<g id="a_edge12_Node000004_Node000010"><a xlink:title=" ">
<path fill="none" stroke="#63b8ff" d="M389.69,-165.13C344.77,-155.31 281.82,-141.54 240.26,-132.46"/>
<polygon fill="#63b8ff" stroke="#63b8ff" points="388.7,-168.49 399.21,-167.21 390.19,-161.65 388.7,-168.49"/>
</a>
</g>
</g>
<!-- Node12 -->
<g id="Node000012" class="node">
<title>Node12</title>
<g id="a_Node000012"><a xlink:href="_player_8cpp.html" target="_top" xlink:title=" ">
<polygon fill="white" stroke="#666666" points="735.88,-76 626.12,-76 626.12,-56 735.88,-56 735.88,-76"/>
<text xml:space="preserve" text-anchor="middle" x="681" y="-62.5" font-family="Helvetica,sans-Serif" font-size="10.00">src/Entitie/Player.cpp</text>
</a>
</g>
</g>
<!-- Node4&#45;&gt;Node12 -->
<g id="edge15_Node000004_Node000012" class="edge">
<title>Node4&#45;&gt;Node12</title>
<g id="a_edge15_Node000004_Node000012"><a xlink:title=" ">
<path fill="none" stroke="#63b8ff" d="M502.52,-170.71C538.66,-164.82 584.87,-153.52 621,-132 645.28,-117.54 665.65,-90.29 675.19,-76.1"/>
<polygon fill="#63b8ff" stroke="#63b8ff" points="502.02,-167.25 492.66,-172.22 503.07,-174.17 502.02,-167.25"/>
</a>
</g>
</g>
<!-- Node13 -->
<g id="Node000013" class="node">
<title>Node13</title>
<g id="a_Node000013"><a xlink:href="_player_8h.html" target="_top" xlink:title="プレイヤークラスの定義">
<polygon fill="white" stroke="#666666" points="611.62,-132 512.38,-132 512.38,-112 611.62,-112 611.62,-132"/>
<text xml:space="preserve" text-anchor="middle" x="562" y="-118.5" font-family="Helvetica,sans-Serif" font-size="10.00">src/Entitie/Player.h</text>
</a>
</g>
</g>
<!-- Node4&#45;&gt;Node13 -->
<g id="edge16_Node000004_Node000013" class="edge">
<title>Node4&#45;&gt;Node13</title>
<g id="a_edge16_Node000004_Node000013"><a xlink:title=" ">
<path fill="none" stroke="#63b8ff" d="M474.86,-162.88C495.8,-153.3 522.9,-140.89 541.29,-132.48"/>
<polygon fill="#63b8ff" stroke="#63b8ff" points="473.57,-159.62 465.93,-166.96 476.48,-165.99 473.57,-159.62"/>
</a>
</g>
</g>
<!-- Node7&#45;&gt;Node5 -->
<g id="edge7_Node000007_Node000005" class="edge">
<title>Node7&#45;&gt;Node5</title>
<g id="a_edge7_Node000007_Node000005"><a xlink:title=" ">
<path fill="none" stroke="#63b8ff" d="M405,-100.13C405,-91.9 405,-82.85 405,-76.3"/>
<polygon fill="#63b8ff" stroke="#63b8ff" points="401.5,-100.08 405,-110.08 408.5,-100.08 401.5,-100.08"/>
</a>
</g>
</g>
<!-- Node7&#45;&gt;Node6 -->
<g id="edge8_Node000007_Node000006" class="edge">
<title>Node7&#45;&gt;Node6</title>
<g id="a_edge8_Node000007_Node000006"><a xlink:title=" ">
<path fill="none" stroke="#63b8ff" d="M441.31,-107.66C467.66,-97.98 502.67,-85.12 526.19,-76.48"/>
<polygon fill="#63b8ff" stroke="#63b8ff" points="440.21,-104.34 432.03,-111.07 442.62,-110.91 440.21,-104.34"/>
</a>
</g>
</g>
<!-- Node7&#45;&gt;Node8 -->
<g id="edge9_Node000007_Node000008" class="edge">
<title>Node7&#45;&gt;Node8</title>
<g id="a_edge9_Node000007_Node000008"><a xlink:title=" ">
<path fill="none" stroke="#63b8ff" d="M367.33,-107.79C339.69,-98.1 302.79,-85.16 278.03,-76.48"/>
<polygon fill="#63b8ff" stroke="#63b8ff" points="366.15,-111.09 376.75,-111.09 368.47,-104.48 366.15,-111.09"/>
</a>
</g>
</g>
<!-- Node8&#45;&gt;Node2 -->
<g id="edge11_Node000008_Node000002" class="edge">
<title>Node8&#45;&gt;Node2</title>
<g id="a_edge11_Node000008_Node000002"><a xlink:title=" ">
<path fill="none" stroke="#63b8ff" d="M208.41,-52.43C175.34,-42.67 130.2,-29.35 100.12,-20.48"/>
<polygon fill="#63b8ff" stroke="#63b8ff" points="207.09,-55.69 217.67,-55.17 209.07,-48.98 207.09,-55.69"/>
</a>
</g>
</g>
<!-- Node9 -->
<g id="Node000009" class="node">
<title>Node9</title>
<g id="a_Node000009"><a xlink:href="_main_8cpp.html" target="_top" xlink:title=" ">
<polygon fill="white" stroke="#666666" points="287.12,-20 214.88,-20 214.88,0 287.12,0 287.12,-20"/>
<text xml:space="preserve" text-anchor="middle" x="251" y="-6.5" font-family="Helvetica,sans-Serif" font-size="10.00">src/Main.cpp</text>
</a>
</g>
</g>
<!-- Node8&#45;&gt;Node9 -->
<g id="edge10_Node000008_Node000009" class="edge">
<title>Node8&#45;&gt;Node9</title>
<g id="a_edge10_Node000008_Node000009"><a xlink:title=" ">
<path fill="none" stroke="#63b8ff" d="M251,-44.13C251,-35.9 251,-26.85 251,-20.3"/>
<polygon fill="#63b8ff" stroke="#63b8ff" points="247.5,-44.08 251,-54.08 254.5,-44.08 247.5,-44.08"/>
</a>
</g>
</g>
<!-- Node10&#45;&gt;Node8 -->
<g id="edge14_Node000010_Node000008" class="edge">
<title>Node10&#45;&gt;Node8</title>
<g id="a_edge14_Node000010_Node000008"><a xlink:title=" ">
<path fill="none" stroke="#63b8ff" d="M214.43,-103.57C223.5,-94.5 234.22,-83.78 241.7,-76.3"/>
<polygon fill="#63b8ff" stroke="#63b8ff" points="212.07,-100.98 207.48,-110.52 217.02,-105.93 212.07,-100.98"/>
</a>
</g>
</g>
<!-- Node11 -->
<g id="Node000011" class="node">
<title>Node11</title>
<g id="a_Node000011"><a xlink:href="_oxygen_spot_8cpp.html" target="_top" xlink:title=" ">
<polygon fill="white" stroke="#666666" points="170,-76 34,-76 34,-56 170,-56 170,-76"/>
<text xml:space="preserve" text-anchor="middle" x="102" y="-62.5" font-family="Helvetica,sans-Serif" font-size="10.00">src/Entitie/OxygenSpot.cpp</text>
</a>
</g>
</g>
<!-- Node10&#45;&gt;Node11 -->
<g id="edge13_Node000010_Node000011" class="edge">
<title>Node10&#45;&gt;Node11</title>
<g id="a_edge13_Node000010_Node000011"><a xlink:title=" ">
<path fill="none" stroke="#63b8ff" d="M170.75,-106.08C154.1,-96.62 133.07,-84.66 118.68,-76.48"/>
<polygon fill="#63b8ff" stroke="#63b8ff" points="168.71,-108.95 179.14,-110.85 172.17,-102.86 168.71,-108.95"/>
</a>
</g>
</g>
<!-- Node13&#45;&gt;Node6 -->
<g id="edge17_Node000013_Node000006" class="edge">
<title>Node13&#45;&gt;Node6</title>
<g id="a_edge17_Node000013_Node000006"><a xlink:title=" ">
<path fill="none" stroke="#63b8ff" d="M558.19,-100.43C556.65,-92.11 554.95,-82.93 553.72,-76.3"/>
<polygon fill="#63b8ff" stroke="#63b8ff" points="554.72,-100.91 559.98,-110.11 561.6,-99.64 554.72,-100.91"/>
</a>
</g>
</g>
<!-- Node13&#45;&gt;Node8 -->
<g id="edge19_Node000013_Node000008" class="edge">
<title>Node13&#45;&gt;Node8</title>
<g id="a_edge19_Node000013_Node000008"><a xlink:title=" ">
<path fill="none" stroke="#63b8ff" d="M500.69,-110.35C443.86,-100.49 360.11,-85.95 305.55,-76.47"/>
<polygon fill="#63b8ff" stroke="#63b8ff" points="500.09,-113.8 510.54,-112.07 501.29,-106.91 500.09,-113.8"/>
</a>
</g>
</g>
<!-- Node13&#45;&gt;Node12 -->
<g id="edge18_Node000013_Node000012" class="edge">
<title>Node13&#45;&gt;Node12</title>
<g id="a_edge18_Node000013_Node000012"><a xlink:title=" ">
<path fill="none" stroke="#63b8ff" d="M593.12,-106.88C614.23,-97.3 641.57,-84.89 660.11,-76.48"/>
<polygon fill="#63b8ff" stroke="#63b8ff" points="591.77,-103.65 584.11,-110.97 594.66,-110.02 591.77,-103.65"/>
</a>
</g>
</g>
</g>
</svg>
