<?xml version="1.0" encoding="UTF-8" standalone="no"?>
<!DOCTYPE svg PUBLIC "-//W3C//DTD SVG 1.1//EN"
 "http://www.w3.org/Graphics/SVG/1.1/DTD/svg11.dtd">
<!-- Generated by graphviz version 14.0.2 (20251019.1705)
 -->
<!-- Title: src/World/Stage.h Pages: 1 -->
<svg width="121pt" height="140pt"
 viewBox="0.00 0.00 121.00 140.00" xmlns="http://www.w3.org/2000/svg" xmlns:xlink="http://www.w3.org/1999/xlink">
<g id="graph0" class="graph" transform="scale(1 1) rotate(0) translate(4 136)">
<title>src/World/Stage.h</title>
<!-- Node1 -->
<g id="Node000001" class="node">
<title>Node1</title>
<g id="a_Node000001"><a xlink:title="ステージ管理の定義">
<polygon fill="#999999" stroke="#666666" points="113.38,-132 19.37,-132 19.37,-112 113.38,-112 113.38,-132"/>
<text xml:space="preserve" text-anchor="middle" x="66.38" y="-118.5" font-family="Helvetica,sans-Serif" font-size="10.00">src/World/Stage.h</text>
</a>
</g>
</g>
<!-- Node2 -->
<g id="Node000002" class="node">
<title>Node2</title>
<g id="a_Node000002"><a xlink:href="_spawn_info_8h.html" target="_top" xlink:title="スポーン情報の定義">
<polygon fill="white" stroke="#666666" points="70.75,-76 0,-76 0,-56 70.75,-56 70.75,-76"/>
<text xml:space="preserve" text-anchor="middle" x="35.38" y="-62.5" font-family="Helvetica,sans-Serif" font-size="10.00">SpawnInfo.h</text>
</a>
</g>
</g>
<!-- Node1&#45;&gt;Node2 -->
<g id="edge1_Node000001_Node000002" class="edge">
<title>Node1&#45;&gt;Node2</title>
<g id="a_edge1_Node000001_Node000002"><a xlink:title=" ">
<path fill="none" stroke="#63b8ff" d="M60.98,-111.59C56.93,-104.55 51.26,-94.67 46.28,-86"/>
<polygon fill="#63b8ff" stroke="#63b8ff" points="49.48,-84.54 41.47,-77.61 43.41,-88.03 49.48,-84.54"/>
</a>
</g>
</g>
<!-- Node3 -->
<g id="Node000003" class="node">
<title>Node3</title>
<g id="a_Node000003"><a xlink:title=" ">
<polygon fill="#e0e0e0" stroke="#999999" points="97.25,-20 35.5,-20 35.5,0 97.25,0 97.25,-20"/>
<text xml:space="preserve" text-anchor="middle" x="66.38" y="-6.5" font-family="Helvetica,sans-Serif" font-size="10.00">Siv3D.hpp</text>
</a>
</g>
</g>
<!-- Node1&#45;&gt;Node3 -->
<g id="edge3_Node000001_Node000003" class="edge">
<title>Node1&#45;&gt;Node3</title>
<g id="a_edge3_Node000001_Node000003"><a xlink:title=" ">
<path fill="none" stroke="#63b8ff" d="M69.96,-111.51C73.16,-102.52 77.6,-88.56 79.38,-76 81.53,-60.8 77.91,-43.8 73.95,-30.99"/>
<polygon fill="#63b8ff" stroke="#63b8ff" points="77.29,-29.94 70.72,-21.63 70.67,-32.23 77.29,-29.94"/>
</a>
</g>
</g>
<!-- Node2&#45;&gt;Node3 -->
<g id="edge2_Node000002_Node000003" class="edge">
<title>Node2&#45;&gt;Node3</title>
<g id="a_edge2_Node000002_Node000003"><a xlink:title=" ">
<path fill="none" stroke="#63b8ff" d="M40.77,-55.59C44.82,-48.55 50.49,-38.67 55.47,-30"/>
<polygon fill="#63b8ff" stroke="#63b8ff" points="58.34,-32.03 60.28,-21.61 52.27,-28.54 58.34,-32.03"/>
</a>
</g>
</g>
</g>
</svg>
