<?xml version="1.0" encoding="UTF-8" standalone="no"?>
<!DOCTYPE svg PUBLIC "-//W3C//DTD SVG 1.1//EN"
 "http://www.w3.org/Graphics/SVG/1.1/DTD/svg11.dtd">
<!-- Generated by graphviz version 14.0.2 (20251019.1705)
 -->
<!-- Title: src/World/Stage.cpp Pages: 1 -->
<svg width="270pt" height="196pt"
 viewBox="0.00 0.00 270.00 196.00" xmlns="http://www.w3.org/2000/svg" xmlns:xlink="http://www.w3.org/1999/xlink">
<g id="graph0" class="graph" transform="scale(1 1) rotate(0) translate(4 192)">
<title>src/World/Stage.cpp</title>
<!-- Node1 -->
<g id="Node000001" class="node">
<title>Node1</title>
<g id="a_Node000001"><a xlink:title=" ">
<polygon fill="#999999" stroke="#666666" points="198.75,-188 94.25,-188 94.25,-168 198.75,-168 198.75,-188"/>
<text xml:space="preserve" text-anchor="middle" x="146.5" y="-174.5" font-family="Helvetica,sans-Serif" font-size="10.00">src/World/Stage.cpp</text>
</a>
</g>
</g>
<!-- Node2 -->
<g id="Node000002" class="node">
<title>Node2</title>
<g id="a_Node000002"><a xlink:href="_utility_8h.html" target="_top" xlink:title="ユーティリティ関数の定義">
<polygon fill="white" stroke="#666666" points="118.5,-132 36.5,-132 36.5,-112 118.5,-112 118.5,-132"/>
<text xml:space="preserve" text-anchor="middle" x="77.5" y="-118.5" font-family="Helvetica,sans-Serif" font-size="10.00">../Core/Utility.h</text>
</a>
</g>
</g>
<!-- Node1&#45;&gt;Node2 -->
<g id="edge1_Node000001_Node000002" class="edge">
<title>Node1&#45;&gt;Node2</title>
<g id="a_edge1_Node000001_Node000002"><a xlink:title=" ">
<path fill="none" stroke="#63b8ff" d="M134.48,-167.59C124.49,-159.77 110.04,-148.46 98.19,-139.19"/>
<polygon fill="#63b8ff" stroke="#63b8ff" points="100.61,-136.64 90.57,-133.23 96.29,-142.15 100.61,-136.64"/>
</a>
</g>
</g>
<!-- Node3 -->
<g id="Node000003" class="node">
<title>Node3</title>
<g id="a_Node000003"><a xlink:title=" ">
<polygon fill="#e0e0e0" stroke="#999999" points="43,-76 0,-76 0,-56 43,-56 43,-76"/>
<text xml:space="preserve" text-anchor="middle" x="21.5" y="-62.5" font-family="Helvetica,sans-Serif" font-size="10.00">cmath</text>
</a>
</g>
</g>
<!-- Node1&#45;&gt;Node3 -->
<g id="edge9_Node000001_Node000003" class="edge">
<title>Node1&#45;&gt;Node3</title>
<g id="a_edge9_Node000001_Node000003"><a xlink:title=" ">
<path fill="none" stroke="#63b8ff" d="M93.8,-169.95C69.8,-163.92 43.29,-152.74 27.5,-132 18.04,-119.57 17.03,-101.69 18.11,-87.82"/>
<polygon fill="#63b8ff" stroke="#63b8ff" points="21.57,-88.35 19.32,-78 14.62,-87.49 21.57,-88.35"/>
</a>
</g>
</g>
<!-- Node4 -->
<g id="Node000004" class="node">
<title>Node4</title>
<g id="a_Node000004"><a xlink:title=" ">
<polygon fill="#e0e0e0" stroke="#999999" points="208.38,-20 146.62,-20 146.62,0 208.38,0 208.38,-20"/>
<text xml:space="preserve" text-anchor="middle" x="177.5" y="-6.5" font-family="Helvetica,sans-Serif" font-size="10.00">Siv3D.hpp</text>
</a>
</g>
</g>
<!-- Node1&#45;&gt;Node4 -->
<g id="edge10_Node000001_Node000004" class="edge">
<title>Node1&#45;&gt;Node4</title>
<g id="a_edge10_Node000001_Node000004"><a xlink:title=" ">
<path fill="none" stroke="#63b8ff" d="M147.64,-167.52C150.19,-147.05 156.8,-97.19 165.5,-56 167.23,-47.8 169.53,-38.86 171.65,-31.12"/>
<polygon fill="#63b8ff" stroke="#63b8ff" points="174.96,-32.27 174.32,-21.7 168.23,-30.36 174.96,-32.27"/>
</a>
</g>
</g>
<!-- Node5 -->
<g id="Node000005" class="node">
<title>Node5</title>
<g id="a_Node000005"><a xlink:href="_spawn_info_8h.html" target="_top" xlink:title="スポーン情報の定義">
<polygon fill="white" stroke="#666666" points="244.88,-76 174.12,-76 174.12,-56 244.88,-56 244.88,-76"/>
<text xml:space="preserve" text-anchor="middle" x="209.5" y="-62.5" font-family="Helvetica,sans-Serif" font-size="10.00">SpawnInfo.h</text>
</a>
</g>
</g>
<!-- Node1&#45;&gt;Node5 -->
<g id="edge4_Node000001_Node000005" class="edge">
<title>Node1&#45;&gt;Node5</title>
<g id="a_edge4_Node000001_Node000005"><a xlink:title=" ">
<path fill="none" stroke="#63b8ff" d="M151.87,-167.62C162.19,-149.6 184.98,-109.81 198.6,-86.02"/>
<polygon fill="#63b8ff" stroke="#63b8ff" points="201.46,-88.09 203.39,-77.67 195.38,-84.61 201.46,-88.09"/>
</a>
</g>
</g>
<!-- Node6 -->
<g id="Node000006" class="node">
<title>Node6</title>
<g id="a_Node000006"><a xlink:href="_stage_8h.html" target="_top" xlink:title="ステージ管理の定義">
<polygon fill="white" stroke="#666666" points="262.38,-132 212.62,-132 212.62,-112 262.38,-112 262.38,-132"/>
<text xml:space="preserve" text-anchor="middle" x="237.5" y="-118.5" font-family="Helvetica,sans-Serif" font-size="10.00">Stage.h</text>
</a>
</g>
</g>
<!-- Node1&#45;&gt;Node6 -->
<g id="edge6_Node000001_Node000006" class="edge">
<title>Node1&#45;&gt;Node6</title>
<g id="a_edge6_Node000001_Node000006"><a xlink:title=" ">
<path fill="none" stroke="#63b8ff" d="M162.35,-167.59C175.97,-159.51 195.86,-147.71 211.76,-138.27"/>
<polygon fill="#63b8ff" stroke="#63b8ff" points="213.41,-141.37 220.22,-133.25 209.84,-135.35 213.41,-141.37"/>
</a>
</g>
</g>
<!-- Node2&#45;&gt;Node3 -->
<g id="edge2_Node000002_Node000003" class="edge">
<title>Node2&#45;&gt;Node3</title>
<g id="a_edge2_Node000002_Node000003"><a xlink:title=" ">
<path fill="none" stroke="#63b8ff" d="M67.75,-111.59C59.88,-104.01 48.6,-93.13 39.15,-84.02"/>
<polygon fill="#63b8ff" stroke="#63b8ff" points="41.86,-81.77 32.23,-77.35 37,-86.81 41.86,-81.77"/>
</a>
</g>
</g>
<!-- Node2&#45;&gt;Node4 -->
<g id="edge3_Node000002_Node000004" class="edge">
<title>Node2&#45;&gt;Node4</title>
<g id="a_edge3_Node000002_Node000004"><a xlink:title=" ">
<path fill="none" stroke="#63b8ff" d="M85.1,-111.53C95.49,-98.69 114.88,-75.15 132.5,-56 141.16,-46.59 151.19,-36.48 159.58,-28.24"/>
<polygon fill="#63b8ff" stroke="#63b8ff" points="161.8,-30.97 166.52,-21.48 156.92,-25.95 161.8,-30.97"/>
</a>
</g>
</g>
<!-- Node5&#45;&gt;Node4 -->
<g id="edge5_Node000005_Node000004" class="edge">
<title>Node5&#45;&gt;Node4</title>
<g id="a_edge5_Node000005_Node000004"><a xlink:title=" ">
<path fill="none" stroke="#63b8ff" d="M203.93,-55.59C199.75,-48.55 193.9,-38.67 188.76,-30"/>
<polygon fill="#63b8ff" stroke="#63b8ff" points="191.89,-28.42 183.78,-21.6 185.87,-31.99 191.89,-28.42"/>
</a>
</g>
</g>
<!-- Node6&#45;&gt;Node4 -->
<g id="edge8_Node000006_Node000004" class="edge">
<title>Node6&#45;&gt;Node4</title>
<g id="a_edge8_Node000006_Node000004"><a xlink:title=" ">
<path fill="none" stroke="#63b8ff" d="M243.9,-111.58C252.01,-98.38 263.74,-73.97 253.5,-56 245.63,-42.2 231.69,-32.2 217.87,-25.18"/>
<polygon fill="#63b8ff" stroke="#63b8ff" points="219.36,-22.01 208.81,-21.02 216.44,-28.38 219.36,-22.01"/>
</a>
</g>
</g>
<!-- Node6&#45;&gt;Node5 -->
<g id="edge7_Node000006_Node000005" class="edge">
<title>Node6&#45;&gt;Node5</title>
<g id="a_edge7_Node000006_Node000005"><a xlink:title=" ">
<path fill="none" stroke="#63b8ff" d="M232.62,-111.59C229.01,-104.63 223.96,-94.89 219.5,-86.29"/>
<polygon fill="#63b8ff" stroke="#63b8ff" points="222.73,-84.91 215.02,-77.64 216.51,-88.13 222.73,-84.91"/>
</a>
</g>
</g>
</g>
</svg>
