<?xml version="1.0" encoding="UTF-8" standalone="no"?>
<!DOCTYPE svg PUBLIC "-//W3C//DTD SVG 1.1//EN"
 "http://www.w3.org/Graphics/SVG/1.1/DTD/svg11.dtd">
<!-- Generated by graphviz version 14.0.2 (20251019.1705)
 -->
<!-- Title: src/World/Stage.h Pages: 1 -->
<svg width="731pt" height="196pt"
 viewBox="0.00 0.00 731.00 196.00" xmlns="http://www.w3.org/2000/svg" xmlns:xlink="http://www.w3.org/1999/xlink">
<g id="graph0" class="graph" transform="scale(1 1) rotate(0) translate(4 192)">
<title>src/World/Stage.h</title>
<!-- Node1 -->
<g id="Node000001" class="node">
<title>Node1</title>
<g id="a_Node000001"><a xlink:title="ステージ管理の定義">
<polygon fill="#999999" stroke="#666666" points="416.25,-188 322.25,-188 322.25,-168 416.25,-168 416.25,-188"/>
<text xml:space="preserve" text-anchor="middle" x="369.25" y="-174.5" font-family="Helvetica,sans-Serif" font-size="10.00">src/World/Stage.h</text>
</a>
</g>
</g>
<!-- Node2 -->
<g id="Node000002" class="node">
<title>Node2</title>
<g id="a_Node000002"><a xlink:href="_behavior_strategies_8cpp.html" target="_top" xlink:title=" ">
<polygon fill="white" stroke="#666666" points="146.5,-76 0,-76 0,-56 146.5,-56 146.5,-76"/>
<text xml:space="preserve" text-anchor="middle" x="73.25" y="-62.5" font-family="Helvetica,sans-Serif" font-size="10.00">src/AI/BehaviorStrategies.cpp</text>
</a>
</g>
</g>
<!-- Node1&#45;&gt;Node2 -->
<g id="edge1_Node000001_Node000002" class="edge">
<title>Node1&#45;&gt;Node2</title>
<g id="a_edge1_Node000001_Node000002"><a xlink:title=" ">
<path fill="none" stroke="#63b8ff" d="M310.59,-172.27C245.24,-166.04 144.64,-153.32 113.25,-132 93.08,-118.3 81.24,-90.72 76.18,-76.28"/>
<polygon fill="#63b8ff" stroke="#63b8ff" points="310.17,-175.75 320.45,-173.18 310.82,-168.78 310.17,-175.75"/>
</a>
</g>
</g>
<!-- Node3 -->
<g id="Node000003" class="node">
<title>Node3</title>
<g id="a_Node000003"><a xlink:href="_enemy_8cpp.html" target="_top" xlink:title=" ">
<polygon fill="white" stroke="#666666" points="276.25,-76 164.25,-76 164.25,-56 276.25,-56 276.25,-76"/>
<text xml:space="preserve" text-anchor="middle" x="220.25" y="-62.5" font-family="Helvetica,sans-Serif" font-size="10.00">src/Entitie/Enemy.cpp</text>
</a>
</g>
</g>
<!-- Node1&#45;&gt;Node3 -->
<g id="edge2_Node000001_Node000003" class="edge">
<title>Node1&#45;&gt;Node3</title>
<g id="a_edge2_Node000001_Node000003"><a xlink:title=" ">
<path fill="none" stroke="#63b8ff" d="M329.17,-163.61C310.41,-156.14 288.45,-145.57 271.25,-132 250.76,-115.83 233.62,-89.8 225.43,-76.1"/>
<polygon fill="#63b8ff" stroke="#63b8ff" points="327.79,-166.83 338.38,-167.12 330.28,-160.29 327.79,-166.83"/>
</a>
</g>
</g>
<!-- Node4 -->
<g id="Node000004" class="node">
<title>Node4</title>
<g id="a_Node000004"><a xlink:href="_enemy_8h.html" target="_top" xlink:title="敵クラスの定義">
<polygon fill="white" stroke="#666666" points="224,-132 122.5,-132 122.5,-112 224,-112 224,-132"/>
<text xml:space="preserve" text-anchor="middle" x="173.25" y="-118.5" font-family="Helvetica,sans-Serif" font-size="10.00">src/Entitie/Enemy.h</text>
</a>
</g>
</g>
<!-- Node1&#45;&gt;Node4 -->
<g id="edge3_Node000001_Node000004" class="edge">
<title>Node1&#45;&gt;Node4</title>
<g id="a_edge3_Node000001_Node000004"><a xlink:title=" ">
<path fill="none" stroke="#63b8ff" d="M324.1,-164.56C288.64,-154.79 240.01,-141.39 207.66,-132.48"/>
<polygon fill="#63b8ff" stroke="#63b8ff" points="323.08,-167.91 333.65,-167.19 324.94,-161.16 323.08,-167.91"/>
</a>
</g>
</g>
<!-- Node5 -->
<g id="Node000005" class="node">
<title>Node5</title>
<g id="a_Node000005"><a xlink:href="_game_scene_8h.html" target="_top" xlink:title="ゲームシーンの定義">
<polygon fill="white" stroke="#666666" points="420,-76 294.5,-76 294.5,-56 420,-56 420,-76"/>
<text xml:space="preserve" text-anchor="middle" x="357.25" y="-62.5" font-family="Helvetica,sans-Serif" font-size="10.00">src/Scene/GameScene.h</text>
</a>
</g>
</g>
<!-- Node1&#45;&gt;Node5 -->
<g id="edge17_Node000001_Node000005" class="edge">
<title>Node1&#45;&gt;Node5</title>
<g id="a_edge17_Node000001_Node000005"><a xlink:title=" ">
<path fill="none" stroke="#63b8ff" d="M381.31,-158.05C388.05,-145.07 394.19,-127.47 389.25,-112 384.82,-98.12 374.37,-84.86 366.61,-76.37"/>
<polygon fill="#63b8ff" stroke="#63b8ff" points="378.46,-156 376.5,-166.41 384.52,-159.5 378.46,-156"/>
</a>
</g>
</g>
<!-- Node8 -->
<g id="Node000008" class="node">
<title>Node8</title>
<g id="a_Node000008"><a xlink:href="_oxygen_spot_8h.html" target="_top" xlink:title="酸素スポットクラスの定義">
<polygon fill="white" stroke="#666666" points="562,-132 436.5,-132 436.5,-112 562,-112 562,-132"/>
<text xml:space="preserve" text-anchor="middle" x="499.25" y="-118.5" font-family="Helvetica,sans-Serif" font-size="10.00">src/Entitie/OxygenSpot.h</text>
</a>
</g>
</g>
<!-- Node1&#45;&gt;Node8 -->
<g id="edge9_Node000001_Node000008" class="edge">
<title>Node1&#45;&gt;Node8</title>
<g id="a_edge9_Node000001_Node000008"><a xlink:title=" ">
<path fill="none" stroke="#63b8ff" d="M402.3,-163.27C425.49,-153.64 455.9,-141.01 476.43,-132.48"/>
<polygon fill="#63b8ff" stroke="#63b8ff" points="401.18,-159.94 393.29,-167.01 403.87,-166.41 401.18,-159.94"/>
</a>
</g>
</g>
<!-- Node10 -->
<g id="Node000010" class="node">
<title>Node10</title>
<g id="a_Node000010"><a xlink:href="_player_8cpp.html" target="_top" xlink:title=" ">
<polygon fill="white" stroke="#666666" points="702.12,-76 592.38,-76 592.38,-56 702.12,-56 702.12,-76"/>
<text xml:space="preserve" text-anchor="middle" x="647.25" y="-62.5" font-family="Helvetica,sans-Serif" font-size="10.00">src/Entitie/Player.cpp</text>
</a>
</g>
</g>
<!-- Node1&#45;&gt;Node10 -->
<g id="edge12_Node000001_Node000010" class="edge">
<title>Node1&#45;&gt;Node10</title>
<g id="a_edge12_Node000001_Node000010"><a xlink:title=" ">
<path fill="none" stroke="#63b8ff" d="M428.1,-171.54C469.81,-165.88 526.15,-154.53 571.25,-132 599.83,-117.72 626.59,-90.39 639.38,-76.14"/>
<polygon fill="#63b8ff" stroke="#63b8ff" points="427.72,-168.06 418.24,-172.8 428.6,-175 427.72,-168.06"/>
</a>
</g>
</g>
<!-- Node11 -->
<g id="Node000011" class="node">
<title>Node11</title>
<g id="a_Node000011"><a xlink:href="_player_8h.html" target="_top" xlink:title="プレイヤークラスの定義">
<polygon fill="white" stroke="#666666" points="379.88,-132 280.62,-132 280.62,-112 379.88,-112 379.88,-132"/>
<text xml:space="preserve" text-anchor="middle" x="330.25" y="-118.5" font-family="Helvetica,sans-Serif" font-size="10.00">src/Entitie/Player.h</text>
</a>
</g>
</g>
<!-- Node1&#45;&gt;Node11 -->
<g id="edge13_Node000001_Node000011" class="edge">
<title>Node1&#45;&gt;Node11</title>
<g id="a_edge13_Node000001_Node000011"><a xlink:title=" ">
<path fill="none" stroke="#63b8ff" d="M355.84,-158.44C349.48,-149.62 342.14,-139.47 336.97,-132.3"/>
<polygon fill="#63b8ff" stroke="#63b8ff" points="352.88,-160.31 361.57,-166.37 358.55,-156.21 352.88,-160.31"/>
</a>
</g>
</g>
<!-- Node12 -->
<g id="Node000012" class="node">
<title>Node12</title>
<g id="a_Node000012"><a xlink:href="_stage_8cpp.html" target="_top" xlink:title=" ">
<polygon fill="white" stroke="#666666" points="722.5,-132 618,-132 618,-112 722.5,-112 722.5,-132"/>
<text xml:space="preserve" text-anchor="middle" x="670.25" y="-118.5" font-family="Helvetica,sans-Serif" font-size="10.00">src/World/Stage.cpp</text>
</a>
</g>
</g>
<!-- Node1&#45;&gt;Node12 -->
<g id="edge18_Node000001_Node000012" class="edge">
<title>Node1&#45;&gt;Node12</title>
<g id="a_edge18_Node000001_Node000012"><a xlink:title=" ">
<path fill="none" stroke="#63b8ff" d="M427.94,-166.47C483,-156.59 564.59,-141.96 617.6,-132.45"/>
<polygon fill="#63b8ff" stroke="#63b8ff" points="427.33,-163.02 418.1,-168.24 428.56,-169.91 427.33,-163.02"/>
</a>
</g>
</g>
<!-- Node4&#45;&gt;Node2 -->
<g id="edge4_Node000004_Node000002" class="edge">
<title>Node4&#45;&gt;Node2</title>
<g id="a_edge4_Node000004_Node000002"><a xlink:title=" ">
<path fill="none" stroke="#63b8ff" d="M146.12,-106.35C128.51,-96.84 106.1,-84.74 90.8,-76.48"/>
<polygon fill="#63b8ff" stroke="#63b8ff" points="144.04,-109.2 154.5,-110.87 147.36,-103.04 144.04,-109.2"/>
</a>
</g>
</g>
<!-- Node4&#45;&gt;Node3 -->
<g id="edge5_Node000004_Node000003" class="edge">
<title>Node4&#45;&gt;Node3</title>
<g id="a_edge5_Node000004_Node000003"><a xlink:title=" ">
<path fill="none" stroke="#63b8ff" d="M188.91,-103C196.7,-94.06 205.78,-83.62 212.16,-76.3"/>
<polygon fill="#63b8ff" stroke="#63b8ff" points="186.36,-100.61 182.43,-110.45 191.64,-105.21 186.36,-100.61"/>
</a>
</g>
</g>
<!-- Node4&#45;&gt;Node5 -->
<g id="edge6_Node000004_Node000005" class="edge">
<title>Node4&#45;&gt;Node5</title>
<g id="a_edge6_Node000004_Node000005"><a xlink:title=" ">
<path fill="none" stroke="#63b8ff" d="M216.07,-108.43C249.32,-98.67 294.71,-85.35 324.95,-76.48"/>
<polygon fill="#63b8ff" stroke="#63b8ff" points="215.36,-104.99 206.75,-111.17 217.33,-111.71 215.36,-104.99"/>
</a>
</g>
</g>
<!-- Node6 -->
<g id="Node000006" class="node">
<title>Node6</title>
<g id="a_Node000006"><a xlink:href="_main_8cpp.html" target="_top" xlink:title=" ">
<polygon fill="white" stroke="#666666" points="332.38,-20 260.12,-20 260.12,0 332.38,0 332.38,-20"/>
<text xml:space="preserve" text-anchor="middle" x="296.25" y="-6.5" font-family="Helvetica,sans-Serif" font-size="10.00">src/Main.cpp</text>
</a>
</g>
</g>
<!-- Node5&#45;&gt;Node6 -->
<g id="edge7_Node000005_Node000006" class="edge">
<title>Node5&#45;&gt;Node6</title>
<g id="a_edge7_Node000005_Node000006"><a xlink:title=" ">
<path fill="none" stroke="#63b8ff" d="M338.19,-48.13C327.81,-38.94 315.38,-27.93 306.75,-20.3"/>
<polygon fill="#63b8ff" stroke="#63b8ff" points="335.68,-50.58 345.49,-54.59 340.32,-45.34 335.68,-50.58"/>
</a>
</g>
</g>
<!-- Node7 -->
<g id="Node000007" class="node">
<title>Node7</title>
<g id="a_Node000007"><a xlink:href="_game_scene_8cpp.html" target="_top" xlink:title=" ">
<polygon fill="white" stroke="#666666" points="486.25,-20 350.25,-20 350.25,0 486.25,0 486.25,-20"/>
<text xml:space="preserve" text-anchor="middle" x="418.25" y="-6.5" font-family="Helvetica,sans-Serif" font-size="10.00">src/Scene/GameScene.cpp</text>
</a>
</g>
</g>
<!-- Node5&#45;&gt;Node7 -->
<g id="edge8_Node000005_Node000007" class="edge">
<title>Node5&#45;&gt;Node7</title>
<g id="a_edge8_Node000005_Node000007"><a xlink:title=" ">
<path fill="none" stroke="#63b8ff" d="M376.31,-48.13C386.69,-38.94 399.12,-27.93 407.75,-20.3"/>
<polygon fill="#63b8ff" stroke="#63b8ff" points="374.18,-45.34 369.01,-54.59 378.82,-50.58 374.18,-45.34"/>
</a>
</g>
</g>
<!-- Node8&#45;&gt;Node5 -->
<g id="edge11_Node000008_Node000005" class="edge">
<title>Node8&#45;&gt;Node5</title>
<g id="a_edge11_Node000008_Node000005"><a xlink:title=" ">
<path fill="none" stroke="#63b8ff" d="M463.83,-107.53C438.42,-97.87 404.81,-85.08 382.18,-76.48"/>
<polygon fill="#63b8ff" stroke="#63b8ff" points="462.51,-110.77 473.1,-111.06 465,-104.23 462.51,-110.77"/>
</a>
</g>
</g>
<!-- Node9 -->
<g id="Node000009" class="node">
<title>Node9</title>
<g id="a_Node000009"><a xlink:href="_oxygen_spot_8cpp.html" target="_top" xlink:title=" ">
<polygon fill="white" stroke="#666666" points="574.25,-76 438.25,-76 438.25,-56 574.25,-56 574.25,-76"/>
<text xml:space="preserve" text-anchor="middle" x="506.25" y="-62.5" font-family="Helvetica,sans-Serif" font-size="10.00">src/Entitie/OxygenSpot.cpp</text>
</a>
</g>
</g>
<!-- Node8&#45;&gt;Node9 -->
<g id="edge10_Node000008_Node000009" class="edge">
<title>Node8&#45;&gt;Node9</title>
<g id="a_edge10_Node000008_Node000009"><a xlink:title=" ">
<path fill="none" stroke="#63b8ff" d="M501.92,-100.43C503,-92.11 504.18,-82.93 505.04,-76.3"/>
<polygon fill="#63b8ff" stroke="#63b8ff" points="498.48,-99.73 500.66,-110.09 505.42,-100.63 498.48,-99.73"/>
</a>
</g>
</g>
<!-- Node11&#45;&gt;Node3 -->
<g id="edge14_Node000011_Node000003" class="edge">
<title>Node11&#45;&gt;Node3</title>
<g id="a_edge14_Node000011_Node000003"><a xlink:title=" ">
<path fill="none" stroke="#63b8ff" d="M300.94,-106.61C281.5,-97.07 256.54,-84.81 239.56,-76.48"/>
<polygon fill="#63b8ff" stroke="#63b8ff" points="299.21,-109.66 309.73,-110.93 302.3,-103.38 299.21,-109.66"/>
</a>
</g>
</g>
<!-- Node11&#45;&gt;Node5 -->
<g id="edge16_Node000011_Node000005" class="edge">
<title>Node11&#45;&gt;Node5</title>
<g id="a_edge16_Node000011_Node000005"><a xlink:title=" ">
<path fill="none" stroke="#63b8ff" d="M339.96,-101.58C344.27,-92.97 349.13,-83.24 352.6,-76.3"/>
<polygon fill="#63b8ff" stroke="#63b8ff" points="336.97,-99.73 335.63,-110.24 343.23,-102.86 336.97,-99.73"/>
</a>
</g>
</g>
<!-- Node11&#45;&gt;Node10 -->
<g id="edge15_Node000011_Node000010" class="edge">
<title>Node11&#45;&gt;Node10</title>
<g id="a_edge15_Node000011_Node000010"><a xlink:title=" ">
<path fill="none" stroke="#63b8ff" d="M391.35,-110.59C449.44,-100.7 536.03,-85.95 592.07,-76.4"/>
<polygon fill="#63b8ff" stroke="#63b8ff" points="390.89,-107.12 381.62,-112.25 392.07,-114.02 390.89,-107.12"/>
</a>
</g>
</g>
</g>
</svg>
