<?xml version="1.0" encoding="UTF-8" standalone="no"?>
<!DOCTYPE svg PUBLIC "-//W3C//DTD SVG 1.1//EN"
 "http://www.w3.org/Graphics/SVG/1.1/DTD/svg11.dtd">
<!-- Generated by graphviz version 14.0.2 (20251019.1705)
 -->
<!-- Title: src/System/UISystem.cpp Pages: 1 -->
<svg width="140pt" height="140pt"
 viewBox="0.00 0.00 140.00 140.00" xmlns="http://www.w3.org/2000/svg" xmlns:xlink="http://www.w3.org/1999/xlink">
<g id="graph0" class="graph" transform="scale(1 1) rotate(0) translate(4 136)">
<title>src/System/UISystem.cpp</title>
<!-- Node1 -->
<g id="Node000001" class="node">
<title>Node1</title>
<g id="a_Node000001"><a xlink:title=" ">
<polygon fill="#999999" stroke="#666666" points="132.25,-132 0,-132 0,-112 132.25,-112 132.25,-132"/>
<text xml:space="preserve" text-anchor="middle" x="66.12" y="-118.5" font-family="Helvetica,sans-Serif" font-size="10.00">src/System/UISystem.cpp</text>
</a>
</g>
</g>
<!-- Node2 -->
<g id="Node000002" class="node">
<title>Node2</title>
<g id="a_Node000002"><a xlink:href="_u_i_system_8h.html" target="_top" xlink:title="UI表示管理システムの定義">
<polygon fill="white" stroke="#666666" points="69.38,-76 0.88,-76 0.88,-56 69.38,-56 69.38,-76"/>
<text xml:space="preserve" text-anchor="middle" x="35.12" y="-62.5" font-family="Helvetica,sans-Serif" font-size="10.00">UISystem.h</text>
</a>
</g>
</g>
<!-- Node1&#45;&gt;Node2 -->
<g id="edge1_Node000001_Node000002" class="edge">
<title>Node1&#45;&gt;Node2</title>
<g id="a_edge1_Node000001_Node000002"><a xlink:title=" ">
<path fill="none" stroke="#63b8ff" d="M60.73,-111.59C56.68,-104.55 51.01,-94.67 46.03,-86"/>
<polygon fill="#63b8ff" stroke="#63b8ff" points="49.23,-84.54 41.22,-77.61 43.16,-88.03 49.23,-84.54"/>
</a>
</g>
</g>
<!-- Node3 -->
<g id="Node000003" class="node">
<title>Node3</title>
<g id="a_Node000003"><a xlink:title=" ">
<polygon fill="#e0e0e0" stroke="#999999" points="97,-20 35.25,-20 35.25,0 97,0 97,-20"/>
<text xml:space="preserve" text-anchor="middle" x="66.12" y="-6.5" font-family="Helvetica,sans-Serif" font-size="10.00">Siv3D.hpp</text>
</a>
</g>
</g>
<!-- Node1&#45;&gt;Node3 -->
<g id="edge3_Node000001_Node000003" class="edge">
<title>Node1&#45;&gt;Node3</title>
<g id="a_edge3_Node000001_Node000003"><a xlink:title=" ">
<path fill="none" stroke="#63b8ff" d="M69.32,-111.83C72.28,-102.84 76.47,-88.67 78.12,-76 80.11,-60.82 76.77,-43.82 73.12,-31.01"/>
<polygon fill="#63b8ff" stroke="#63b8ff" points="76.51,-30.12 70.14,-21.65 69.84,-32.24 76.51,-30.12"/>
</a>
</g>
</g>
<!-- Node2&#45;&gt;Node3 -->
<g id="edge2_Node000002_Node000003" class="edge">
<title>Node2&#45;&gt;Node3</title>
<g id="a_edge2_Node000002_Node000003"><a xlink:title=" ">
<path fill="none" stroke="#63b8ff" d="M40.52,-55.59C44.57,-48.55 50.24,-38.67 55.22,-30"/>
<polygon fill="#63b8ff" stroke="#63b8ff" points="58.09,-32.03 60.03,-21.61 52.02,-28.54 58.09,-32.03"/>
</a>
</g>
</g>
</g>
</svg>
