<?xml version="1.0" encoding="UTF-8" standalone="no"?>
<!DOCTYPE svg PUBLIC "-//W3C//DTD SVG 1.1//EN"
 "http://www.w3.org/Graphics/SVG/1.1/DTD/svg11.dtd">
<!-- Generated by graphviz version 14.0.2 (20251019.1705)
 -->
<!-- Title: src/Core/Utility.h Pages: 1 -->
<svg width="532pt" height="84pt"
 viewBox="0.00 0.00 532.00 84.00" xmlns="http://www.w3.org/2000/svg" xmlns:xlink="http://www.w3.org/1999/xlink">
<g id="graph0" class="graph" transform="scale(1 1) rotate(0) translate(4 80)">
<title>src/Core/Utility.h</title>
<!-- Node1 -->
<g id="Node000001" class="node">
<title>Node1</title>
<g id="a_Node000001"><a xlink:title="ユーティリティ関数の定義">
<polygon fill="#999999" stroke="#666666" points="292.75,-76 203.25,-76 203.25,-56 292.75,-56 292.75,-76"/>
<text xml:space="preserve" text-anchor="middle" x="248" y="-62.5" font-family="Helvetica,sans-Serif" font-size="10.00">src/Core/Utility.h</text>
</a>
</g>
</g>
<!-- Node2 -->
<g id="Node000002" class="node">
<title>Node2</title>
<g id="a_Node000002"><a xlink:href="_utility_8cpp.html" target="_top" xlink:title=" ">
<polygon fill="white" stroke="#666666" points="100,-20 0,-20 0,0 100,0 100,-20"/>
<text xml:space="preserve" text-anchor="middle" x="50" y="-6.5" font-family="Helvetica,sans-Serif" font-size="10.00">src/Core/Utility.cpp</text>
</a>
</g>
</g>
<!-- Node1&#45;&gt;Node2 -->
<g id="edge1_Node000001_Node000002" class="edge">
<title>Node1&#45;&gt;Node2</title>
<g id="a_edge1_Node000001_Node000002"><a xlink:title=" ">
<path fill="none" stroke="#63b8ff" d="M202.85,-52.69C166.99,-42.91 117.58,-29.43 84.76,-20.48"/>
<polygon fill="#63b8ff" stroke="#63b8ff" points="201.48,-55.94 212.05,-55.2 203.32,-49.19 201.48,-55.94"/>
</a>
</g>
</g>
<!-- Node3 -->
<g id="Node000003" class="node">
<title>Node3</title>
<g id="a_Node000003"><a xlink:href="_player_8cpp.html" target="_top" xlink:title=" ">
<polygon fill="white" stroke="#666666" points="227.88,-20 118.12,-20 118.12,0 227.88,0 227.88,-20"/>
<text xml:space="preserve" text-anchor="middle" x="173" y="-6.5" font-family="Helvetica,sans-Serif" font-size="10.00">src/Entitie/Player.cpp</text>
</a>
</g>
</g>
<!-- Node1&#45;&gt;Node3 -->
<g id="edge2_Node000001_Node000003" class="edge">
<title>Node1&#45;&gt;Node3</title>
<g id="a_edge2_Node000001_Node000003"><a xlink:title=" ">
<path fill="none" stroke="#63b8ff" d="M225.78,-49C212.89,-39.72 197.1,-28.35 186.17,-20.48"/>
<polygon fill="#63b8ff" stroke="#63b8ff" points="223.55,-51.71 233.71,-54.71 227.64,-46.03 223.55,-51.71"/>
</a>
</g>
</g>
<!-- Node4 -->
<g id="Node000004" class="node">
<title>Node4</title>
<g id="a_Node000004"><a xlink:href="_camera_system_8cpp.html" target="_top" xlink:title=" ">
<polygon fill="white" stroke="#666666" points="402.12,-20 245.88,-20 245.88,0 402.12,0 402.12,-20"/>
<text xml:space="preserve" text-anchor="middle" x="324" y="-6.5" font-family="Helvetica,sans-Serif" font-size="10.00">src/System/CameraSystem.cpp</text>
</a>
</g>
</g>
<!-- Node1&#45;&gt;Node4 -->
<g id="edge3_Node000001_Node000004" class="edge">
<title>Node1&#45;&gt;Node4</title>
<g id="a_edge3_Node000001_Node000004"><a xlink:title=" ">
<path fill="none" stroke="#63b8ff" d="M270.52,-49C283.58,-39.72 299.58,-28.35 310.66,-20.48"/>
<polygon fill="#63b8ff" stroke="#63b8ff" points="268.6,-46.07 262.47,-54.72 272.65,-51.78 268.6,-46.07"/>
</a>
</g>
</g>
<!-- Node5 -->
<g id="Node000005" class="node">
<title>Node5</title>
<g id="a_Node000005"><a xlink:href="_stage_8cpp.html" target="_top" xlink:title=" ">
<polygon fill="white" stroke="#666666" points="524.25,-20 419.75,-20 419.75,0 524.25,0 524.25,-20"/>
<text xml:space="preserve" text-anchor="middle" x="472" y="-6.5" font-family="Helvetica,sans-Serif" font-size="10.00">src/World/Stage.cpp</text>
</a>
</g>
</g>
<!-- Node1&#45;&gt;Node5 -->
<g id="edge4_Node000001_Node000005" class="edge">
<title>Node1&#45;&gt;Node5</title>
<g id="a_edge4_Node000001_Node000005"><a xlink:title=" ">
<path fill="none" stroke="#63b8ff" d="M298.3,-52.88C338.96,-43.07 395.4,-29.47 432.77,-20.46"/>
<polygon fill="#63b8ff" stroke="#63b8ff" points="297.65,-49.43 288.75,-55.18 299.29,-56.24 297.65,-49.43"/>
</a>
</g>
</g>
</g>
</svg>
