<?xml version="1.0" encoding="UTF-8" standalone="no"?>
<!DOCTYPE svg PUBLIC "-//W3C//DTD SVG 1.1//EN"
 "http://www.w3.org/Graphics/SVG/1.1/DTD/svg11.dtd">
<!-- Generated by graphviz version 14.0.2 (20251019.1705)
 -->
<!-- Title: GameScene Pages: 1 -->
<svg width="734pt" height="250pt"
 viewBox="0.00 0.00 734.00 250.00" xmlns="http://www.w3.org/2000/svg" xmlns:xlink="http://www.w3.org/1999/xlink">
<g id="graph0" class="graph" transform="scale(1 1) rotate(0) translate(4 246)">
<title>GameScene</title>
<!-- Node1 -->
<g id="Node000001" class="node">
<title>Node1</title>
<g id="a_Node000001"><a xlink:title="ゲームシーンを管理する">
<polygon fill="#999999" stroke="#666666" points="328.5,-20 258.5,-20 258.5,0 328.5,0 328.5,-20"/>
<text xml:space="preserve" text-anchor="middle" x="293.5" y="-6.5" font-family="Helvetica,sans-Serif" font-size="10.00">GameScene</text>
</a>
</g>
</g>
<!-- Node2 -->
<g id="Node000002" class="node">
<title>Node2</title>
<g id="a_Node000002"><a xlink:title=" ">
<polygon fill="white" stroke="#666666" points="67,-94 0,-94 0,-74 67,-74 67,-94"/>
<text xml:space="preserve" text-anchor="middle" x="33.5" y="-80.5" font-family="Helvetica,sans-Serif" font-size="10.00">App::Scene</text>
</a>
</g>
</g>
<!-- Node2&#45;&gt;Node1 -->
<g id="edge1_Node000001_Node000002" class="edge">
<title>Node2&#45;&gt;Node1</title>
<g id="a_edge1_Node000001_Node000002"><a xlink:title=" ">
<path fill="none" stroke="#63b8ff" d="M58.86,-67.87C76.65,-57.91 101.31,-45.4 124.5,-38 169.37,-23.69 223.46,-16.75 258.15,-13.54"/>
<polygon fill="#63b8ff" stroke="#63b8ff" points="57.25,-64.76 50.31,-72.77 60.73,-70.83 57.25,-64.76"/>
</a>
</g>
</g>
<!-- Node3 -->
<g id="Node000003" class="node">
<title>Node3</title>
<g id="a_Node000003"><a xlink:href="class_stage.html" target="_top" xlink:title="Tiledで作成されたマップを管理する">
<polygon fill="white" stroke="#666666" points="126.25,-94 84.75,-94 84.75,-74 126.25,-74 126.25,-94"/>
<text xml:space="preserve" text-anchor="middle" x="105.5" y="-80.5" font-family="Helvetica,sans-Serif" font-size="10.00">Stage</text>
</a>
</g>
</g>
<!-- Node3&#45;&gt;Node1 -->
<g id="edge2_Node000001_Node000003" class="edge">
<title>Node3&#45;&gt;Node1</title>
<g id="a_edge2_Node000001_Node000003"><a xlink:title=" ">
<path fill="none" stroke="#9a32cd" stroke-dasharray="5,2" d="M119.67,-65.02C128.12,-55.53 139.64,-44.52 152.25,-38 185.51,-20.79 228.29,-14.48 258.01,-12.2"/>
<polygon fill="#9a32cd" stroke="#9a32cd" points="117.03,-62.72 113.29,-72.63 122.4,-67.22 117.03,-62.72"/>
</a>
</g>
<text xml:space="preserve" text-anchor="start" x="155.25" y="-43.5" font-family="Helvetica,sans-Serif" font-size="10.00" fill="grey">stage_</text>
</g>
<!-- Node4 -->
<g id="Node000004" class="node">
<title>Node4</title>
<g id="a_Node000004"><a xlink:href="struct_tile_map_layer.html" target="_top" xlink:title="タイルマップレイヤーを表現する構造体">
<polygon fill="white" stroke="#666666" points="142.75,-168 68.25,-168 68.25,-148 142.75,-148 142.75,-168"/>
<text xml:space="preserve" text-anchor="middle" x="105.5" y="-154.5" font-family="Helvetica,sans-Serif" font-size="10.00">TileMapLayer</text>
</a>
</g>
</g>
<!-- Node4&#45;&gt;Node3 -->
<g id="edge3_Node000003_Node000004" class="edge">
<title>Node4&#45;&gt;Node3</title>
<g id="a_edge3_Node000003_Node000004"><a xlink:title=" ">
<path fill="none" stroke="#9a32cd" stroke-dasharray="5,2" d="M105.5,-136.18C105.5,-122.29 105.5,-104.71 105.5,-94.19"/>
<polygon fill="#9a32cd" stroke="#9a32cd" points="102,-136.07 105.5,-146.07 109,-136.07 102,-136.07"/>
</a>
</g>
<text xml:space="preserve" text-anchor="start" x="108.5" y="-117.5" font-family="Helvetica,sans-Serif" font-size="10.00" fill="grey">collision_layer_</text>
</g>
<!-- Node5 -->
<g id="Node000005" class="node">
<title>Node5</title>
<g id="a_Node000005"><a xlink:href="class_camera_system.html" target="_top" xlink:title="2Dカメラを管理する">
<polygon fill="white" stroke="#666666" points="228.62,-94 144.38,-94 144.38,-74 228.62,-74 228.62,-94"/>
<text xml:space="preserve" text-anchor="middle" x="186.5" y="-80.5" font-family="Helvetica,sans-Serif" font-size="10.00">CameraSystem</text>
</a>
</g>
</g>
<!-- Node5&#45;&gt;Node1 -->
<g id="edge4_Node000001_Node000005" class="edge">
<title>Node5&#45;&gt;Node1</title>
<g id="a_edge4_Node000001_Node000005"><a xlink:title=" ">
<path fill="none" stroke="#9a32cd" stroke-dasharray="5,2" d="M189.42,-62.56C191.63,-53.94 195.49,-44.44 202.25,-38 217.21,-23.76 239.31,-16.99 258.02,-13.79"/>
<polygon fill="#9a32cd" stroke="#9a32cd" points="186.01,-61.77 187.57,-72.25 192.88,-63.09 186.01,-61.77"/>
</a>
</g>
<text xml:space="preserve" text-anchor="start" x="205.25" y="-43.5" font-family="Helvetica,sans-Serif" font-size="10.00" fill="grey">camera_manager_</text>
</g>
<!-- Node6 -->
<g id="Node000006" class="node">
<title>Node6</title>
<g id="a_Node000006"><a xlink:href="class_player.html" target="_top" xlink:title="プレイヤーを管理する">
<polygon fill="white" stroke="#666666" points="413.38,-94 369.62,-94 369.62,-74 413.38,-74 413.38,-94"/>
<text xml:space="preserve" text-anchor="middle" x="391.5" y="-80.5" font-family="Helvetica,sans-Serif" font-size="10.00">Player</text>
</a>
</g>
</g>
<!-- Node6&#45;&gt;Node1 -->
<g id="edge5_Node000001_Node000006" class="edge">
<title>Node6&#45;&gt;Node1</title>
<g id="a_edge5_Node000001_Node000006"><a xlink:title=" ">
<path fill="none" stroke="#9a32cd" stroke-dasharray="5,2" d="M392.33,-62.19C391.61,-53.77 389.32,-44.53 383.5,-38 369.83,-22.65 347.81,-15.87 328.98,-12.94"/>
<polygon fill="#9a32cd" stroke="#9a32cd" points="388.83,-62.05 392.47,-71.99 395.83,-61.94 388.83,-62.05"/>
</a>
</g>
<text xml:space="preserve" text-anchor="start" x="394.43" y="-43.5" font-family="Helvetica,sans-Serif" font-size="10.00" fill="grey">player_</text>
</g>
<!-- Node7 -->
<g id="Node000007" class="node">
<title>Node7</title>
<g id="a_Node000007"><a xlink:href="struct_collider.html" target="_top" xlink:title="衝突判定を管理する構造体">
<polygon fill="white" stroke="#666666" points="274,-168 225,-168 225,-148 274,-148 274,-168"/>
<text xml:space="preserve" text-anchor="middle" x="249.5" y="-154.5" font-family="Helvetica,sans-Serif" font-size="10.00">Collider</text>
</a>
</g>
</g>
<!-- Node7&#45;&gt;Node6 -->
<g id="edge6_Node000006_Node000007" class="edge">
<title>Node7&#45;&gt;Node6</title>
<g id="a_edge6_Node000006_Node000007"><a xlink:title=" ">
<path fill="none" stroke="#9a32cd" stroke-dasharray="5,2" d="M275.44,-142.15C291.5,-133.12 312.63,-121.53 331.75,-112 344.08,-105.85 358.1,-99.49 369.46,-94.48"/>
<polygon fill="#9a32cd" stroke="#9a32cd" points="273.99,-138.95 267.01,-146.92 277.44,-145.04 273.99,-138.95"/>
</a>
</g>
<text xml:space="preserve" text-anchor="start" x="334.75" y="-117.5" font-family="Helvetica,sans-Serif" font-size="10.00" fill="grey">collider</text>
</g>
<!-- Node11 -->
<g id="Node000011" class="node">
<title>Node11</title>
<g id="a_Node000011"><a xlink:href="class_collision_system.html" target="_top" xlink:title="プレイヤーと他のオブジェクト間の衝突判定を管理する">
<polygon fill="white" stroke="#666666" points="336.12,-94 248.88,-94 248.88,-74 336.12,-74 336.12,-94"/>
<text xml:space="preserve" text-anchor="middle" x="292.5" y="-80.5" font-family="Helvetica,sans-Serif" font-size="10.00">CollisionSystem</text>
</a>
</g>
</g>
<!-- Node7&#45;&gt;Node11 -->
<g id="edge11_Node000011_Node000007" class="edge">
<title>Node7&#45;&gt;Node11</title>
<g id="a_edge11_Node000011_Node000007"><a xlink:title=" ">
<path fill="none" stroke="#9a32cd" stroke-dasharray="5,2" d="M225.82,-140.04C223.06,-137.02 220.65,-133.66 219,-130 215.72,-122.71 214.42,-118.56 219,-112 226,-101.97 237.17,-95.65 248.7,-91.68"/>
<polygon fill="#9a32cd" stroke="#9a32cd" points="223.29,-142.46 233.05,-146.58 227.98,-137.27 223.29,-142.46"/>
</a>
</g>
<text xml:space="preserve" text-anchor="start" x="222" y="-117.5" font-family="Helvetica,sans-Serif" font-size="10.00" fill="grey">player_collider_</text>
</g>
<!-- Node8 -->
<g id="Node000008" class="node">
<title>Node8</title>
<g id="a_Node000008"><a xlink:href="class_animation_controller.html" target="_top" xlink:title="アニメーション再生を管理する">
<polygon fill="white" stroke="#666666" points="425.25,-168 323.75,-168 323.75,-148 425.25,-148 425.25,-168"/>
<text xml:space="preserve" text-anchor="middle" x="374.5" y="-154.5" font-family="Helvetica,sans-Serif" font-size="10.00">AnimationController</text>
</a>
</g>
</g>
<!-- Node8&#45;&gt;Node6 -->
<g id="edge7_Node000006_Node000008" class="edge">
<title>Node8&#45;&gt;Node6</title>
<g id="a_edge7_Node000006_Node000008"><a xlink:title=" ">
<path fill="none" stroke="#9a32cd" stroke-dasharray="5,2" d="M372.61,-136.45C372.47,-128.66 373.02,-119.79 375.25,-112 377.06,-105.69 380.74,-99.36 384.15,-94.42"/>
<polygon fill="#9a32cd" stroke="#9a32cd" points="369.11,-136.55 373.19,-146.32 376.1,-136.13 369.11,-136.55"/>
</a>
</g>
<text xml:space="preserve" text-anchor="start" x="378.25" y="-117.5" font-family="Helvetica,sans-Serif" font-size="10.00" fill="grey">anim_controller_</text>
</g>
<!-- Node9 -->
<g id="Node000009" class="node">
<title>Node9</title>
<g id="a_Node000009"><a xlink:href="struct_animation.html" target="_top" xlink:title="アニメーション再生に必要な情報を保持する構造体">
<polygon fill="white" stroke="#666666" points="404.25,-242 344.75,-242 344.75,-222 404.25,-222 404.25,-242"/>
<text xml:space="preserve" text-anchor="middle" x="374.5" y="-228.5" font-family="Helvetica,sans-Serif" font-size="10.00">Animation</text>
</a>
</g>
</g>
<!-- Node9&#45;&gt;Node8 -->
<g id="edge8_Node000008_Node000009" class="edge">
<title>Node9&#45;&gt;Node8</title>
<g id="a_edge8_Node000008_Node000009"><a xlink:title=" ">
<path fill="none" stroke="#9a32cd" stroke-dasharray="5,2" d="M374.5,-210.18C374.5,-196.29 374.5,-178.71 374.5,-168.19"/>
<polygon fill="#9a32cd" stroke="#9a32cd" points="371,-210.07 374.5,-220.07 378,-210.07 371,-210.07"/>
</a>
</g>
<text xml:space="preserve" text-anchor="start" x="377.5" y="-191.5" font-family="Helvetica,sans-Serif" font-size="10.00" fill="grey">current_animation_</text>
</g>
<!-- Node10 -->
<g id="Node000010" class="node">
<title>Node10</title>
<g id="a_Node000010"><a xlink:href="class_sound_controller.html" target="_top" xlink:title="サウンド再生を管理する">
<polygon fill="white" stroke="#666666" points="572.38,-168 486.62,-168 486.62,-148 572.38,-148 572.38,-168"/>
<text xml:space="preserve" text-anchor="middle" x="529.5" y="-154.5" font-family="Helvetica,sans-Serif" font-size="10.00">SoundController</text>
</a>
</g>
</g>
<!-- Node10&#45;&gt;Node1 -->
<g id="edge12_Node000001_Node000010" class="edge">
<title>Node10&#45;&gt;Node1</title>
<g id="a_edge12_Node000001_Node000010"><a xlink:title=" ">
<path fill="none" stroke="#9a32cd" stroke-dasharray="5,2" d="M552.13,-139.78C554.71,-136.81 556.96,-133.53 558.5,-130 561.69,-122.66 562.47,-118.94 558.5,-112 526.24,-55.64 493.25,-60.97 432.5,-38 398.58,-25.18 357.61,-18.17 328.96,-14.53"/>
<polygon fill="#9a32cd" stroke="#9a32cd" points="549.73,-137.23 544.88,-146.65 554.55,-142.31 549.73,-137.23"/>
</a>
</g>
<text xml:space="preserve" text-anchor="start" x="549.59" y="-80.5" font-family="Helvetica,sans-Serif" font-size="10.00" fill="grey">bgm_controller_</text>
</g>
<!-- Node10&#45;&gt;Node6 -->
<g id="edge9_Node000006_Node000010" class="edge">
<title>Node10&#45;&gt;Node6</title>
<g id="a_edge9_Node000006_Node000010"><a xlink:title=" ">
<path fill="none" stroke="#9a32cd" stroke-dasharray="5,2" d="M498.46,-142.57C490.96,-138.74 483.07,-134.44 476,-130 464.86,-123.01 463.82,-118.71 452.5,-112 440.25,-104.74 425.69,-98.22 413.86,-93.41"/>
<polygon fill="#9a32cd" stroke="#9a32cd" points="496.81,-145.65 507.33,-146.94 499.91,-139.38 496.81,-145.65"/>
</a>
</g>
<text xml:space="preserve" text-anchor="start" x="479" y="-117.5" font-family="Helvetica,sans-Serif" font-size="10.00" fill="grey">sound_controller_</text>
</g>
<!-- Node11&#45;&gt;Node1 -->
<g id="edge10_Node000001_Node000011" class="edge">
<title>Node11&#45;&gt;Node1</title>
<g id="a_edge10_Node000001_Node000011"><a xlink:title=" ">
<path fill="none" stroke="#9a32cd" stroke-dasharray="5,2" d="M292.79,-62.18C292.98,-48.29 293.23,-30.71 293.37,-20.19"/>
<polygon fill="#9a32cd" stroke="#9a32cd" points="289.29,-62.03 292.65,-72.07 296.29,-62.12 289.29,-62.03"/>
</a>
</g>
<text xml:space="preserve" text-anchor="start" x="296.12" y="-43.5" font-family="Helvetica,sans-Serif" font-size="10.00" fill="grey">collision_manager_</text>
</g>
<!-- Node12 -->
<g id="Node000012" class="node">
<title>Node12</title>
<g id="a_Node000012"><a xlink:href="class_u_i_system.html" target="_top" xlink:title="UIの描画を一元管理する">
<polygon fill="white" stroke="#666666" points="725.62,-94 665.38,-94 665.38,-74 725.62,-74 725.62,-94"/>
<text xml:space="preserve" text-anchor="middle" x="695.5" y="-80.5" font-family="Helvetica,sans-Serif" font-size="10.00">UISystem</text>
</a>
</g>
</g>
<!-- Node12&#45;&gt;Node1 -->
<g id="edge13_Node000001_Node000012" class="edge">
<title>Node12&#45;&gt;Node1</title>
<g id="a_edge13_Node000001_Node000012"><a xlink:title=" ">
<path fill="none" stroke="#9a32cd" stroke-dasharray="5,2" d="M667.48,-68.69C645.91,-58.36 615.07,-45.04 586.5,-38 495.49,-15.56 384.41,-11.42 328.79,-10.87"/>
<polygon fill="#9a32cd" stroke="#9a32cd" points="665.67,-71.7 676.19,-72.96 668.75,-65.42 665.67,-71.7"/>
</a>
</g>
<text xml:space="preserve" text-anchor="start" x="641.34" y="-43.5" font-family="Helvetica,sans-Serif" font-size="10.00" fill="grey">ui_manager_</text>
</g>
</g>
</svg>
