<?xml version="1.0" encoding="UTF-8" standalone="no"?>
<!DOCTYPE svg PUBLIC "-//W3C//DTD SVG 1.1//EN"
 "http://www.w3.org/Graphics/SVG/1.1/DTD/svg11.dtd">
<!-- Generated by graphviz version 14.0.2 (20251019.1705)
 -->
<!-- Title: EnemyDataSystem::EnemyDataSystem Pages: 1 -->
<svg width="484pt" height="71pt"
 viewBox="0.00 0.00 484.00 71.00" xmlns="http://www.w3.org/2000/svg" xmlns:xlink="http://www.w3.org/1999/xlink">
<g id="graph0" class="graph" transform="scale(1 1) rotate(0) translate(4 67)">
<title>EnemyDataSystem::EnemyDataSystem</title>
<!-- Node1 -->
<g id="Node000001" class="node">
<title>Node1</title>
<g id="a_Node000001"><a xlink:title="コピーコンストラクタ(削除)">
<polygon fill="#999999" stroke="#666666" points="475.5,-45 316.25,-45 316.25,-13 475.5,-13 475.5,-45"/>
<text xml:space="preserve" text-anchor="start" x="324.25" y="-31.5" font-family="Helvetica,sans-Serif" font-size="10.00">EnemyDataSystem::EnemyData</text>
<text xml:space="preserve" text-anchor="middle" x="395.88" y="-19.5" font-family="Helvetica,sans-Serif" font-size="10.00">System</text>
</a>
</g>
</g>
<!-- Node1&#45;&gt;Node1 -->
<g id="edge1_Node000001_Node000001" class="edge">
<title>Node1&#45;&gt;Node1</title>
<g id="a_edge1_Node000001_Node000001"><a xlink:title=" ">
<path fill="none" stroke="#63b8ff" d="M428.54,-56.71C423.09,-60.48 412.2,-63 395.88,-63 366.02,-63 354.35,-54.58 360.88,-45.44"/>
<polygon fill="#63b8ff" stroke="#63b8ff" points="431.96,-57.43 430.56,-46.92 425.11,-56.01 431.96,-57.43"/>
</a>
</g>
</g>
<!-- Node2 -->
<g id="Node000002" class="node">
<title>Node2</title>
<g id="a_Node000002"><a xlink:href="class_enemy_data_system.html#a903ac6dd6ca6347575e8ff65f0bd5432" target="_top" xlink:title="シングルトンインスタンスを取得する">
<polygon fill="white" stroke="#666666" points="280.25,-58 119.5,-58 119.5,-38 280.25,-38 280.25,-58"/>
<text xml:space="preserve" text-anchor="middle" x="199.88" y="-44.5" font-family="Helvetica,sans-Serif" font-size="10.00">EnemyDataSystem::GetInstance</text>
</a>
</g>
</g>
<!-- Node1&#45;&gt;Node2 -->
<g id="edge2_Node000001_Node000002" class="edge">
<title>Node1&#45;&gt;Node2</title>
<g id="a_edge2_Node000001_Node000002"><a xlink:title=" ">
<path fill="none" stroke="#63b8ff" d="M304.69,-37.83C296.67,-38.62 288.58,-39.41 280.66,-40.19"/>
<polygon fill="#63b8ff" stroke="#63b8ff" points="304.85,-41.33 314.46,-36.88 304.17,-34.37 304.85,-41.33"/>
</a>
</g>
</g>
<!-- Node4 -->
<g id="Node000004" class="node">
<title>Node4</title>
<g id="a_Node000004"><a xlink:href="class_enemy_data_system.html#a48b31da82aa45b7bf1c4533a57bd67de" target="_top" xlink:title="コピー代入演算子(削除)">
<polygon fill="white" stroke="#666666" points="274.25,-20 125.5,-20 125.5,0 274.25,0 274.25,-20"/>
<text xml:space="preserve" text-anchor="middle" x="199.88" y="-6.5" font-family="Helvetica,sans-Serif" font-size="10.00">EnemyDataSystem::operator=</text>
</a>
</g>
</g>
<!-- Node1&#45;&gt;Node4 -->
<g id="edge4_Node000001_Node000004" class="edge">
<title>Node1&#45;&gt;Node4</title>
<g id="a_edge4_Node000001_Node000004"><a xlink:title=" ">
<path fill="none" stroke="#63b8ff" d="M304.69,-20.17C294.65,-19.18 284.51,-18.19 274.7,-17.23"/>
<polygon fill="#63b8ff" stroke="#63b8ff" points="304.17,-23.63 314.46,-21.12 304.85,-16.67 304.17,-23.63"/>
</a>
</g>
</g>
<!-- Node3 -->
<g id="Node000003" class="node">
<title>Node3</title>
<g id="a_Node000003"><a xlink:href="class_enemy.html#aef53170a2c1f62d9e563f56e7c0aa559" target="_top" xlink:title="コンストラクタ">
<polygon fill="white" stroke="#666666" points="83.5,-58 0,-58 0,-38 83.5,-38 83.5,-58"/>
<text xml:space="preserve" text-anchor="middle" x="41.75" y="-44.5" font-family="Helvetica,sans-Serif" font-size="10.00">Enemy::Enemy</text>
</a>
</g>
</g>
<!-- Node2&#45;&gt;Node3 -->
<g id="edge3_Node000002_Node000003" class="edge">
<title>Node2&#45;&gt;Node3</title>
<g id="a_edge3_Node000002_Node000003"><a xlink:title=" ">
<path fill="none" stroke="#63b8ff" d="M108.2,-48C99.71,-48 91.42,-48 83.75,-48"/>
<polygon fill="#63b8ff" stroke="#63b8ff" points="107.93,-51.5 117.93,-48 107.93,-44.5 107.93,-51.5"/>
</a>
</g>
</g>
</g>
</svg>
