<?xml version="1.0" encoding="UTF-8" standalone="no"?>
<!DOCTYPE svg PUBLIC "-//W3C//DTD SVG 1.1//EN"
 "http://www.w3.org/Graphics/SVG/1.1/DTD/svg11.dtd">
<!-- Generated by graphviz version 14.0.2 (20251019.1705)
 -->
<!-- Title: Enemy::Update Pages: 1 -->
<svg width="281pt" height="104pt"
 viewBox="0.00 0.00 281.00 104.00" xmlns="http://www.w3.org/2000/svg" xmlns:xlink="http://www.w3.org/1999/xlink">
<g id="graph0" class="graph" transform="scale(1 1) rotate(0) translate(4 100)">
<title>Enemy::Update</title>
<!-- Node1 -->
<g id="Node000001" class="node">
<title>Node1</title>
<g id="a_Node000001"><a xlink:title="敵を更新する">
<polygon fill="#999999" stroke="#666666" points="84.25,-58 0,-58 0,-38 84.25,-38 84.25,-58"/>
<text xml:space="preserve" text-anchor="middle" x="42.12" y="-44.5" font-family="Helvetica,sans-Serif" font-size="10.00">Enemy::Update</text>
</a>
</g>
</g>
<!-- Node2 -->
<g id="Node000002" class="node">
<title>Node2</title>
<g id="a_Node000002"><a xlink:href="class_enemy.html#abc18b179b21728f683288332e6f17781" target="_top" xlink:title="衝突処理を実行する">
<polygon fill="white" stroke="#666666" points="257,-96 136,-96 136,-76 257,-76 257,-96"/>
<text xml:space="preserve" text-anchor="middle" x="196.5" y="-82.5" font-family="Helvetica,sans-Serif" font-size="10.00">Enemy::HandleCollision</text>
</a>
</g>
</g>
<!-- Node1&#45;&gt;Node2 -->
<g id="edge1_Node000001_Node000002" class="edge">
<title>Node1&#45;&gt;Node2</title>
<g id="a_edge1_Node000001_Node000002"><a xlink:title=" ">
<path fill="none" stroke="#63b8ff" d="M84.36,-58.28C102.26,-62.75 123.45,-68.03 142.51,-72.78"/>
<polygon fill="#63b8ff" stroke="#63b8ff" points="141.42,-76.12 151.97,-75.14 143.11,-69.33 141.42,-76.12"/>
</a>
</g>
</g>
<!-- Node3 -->
<g id="Node000003" class="node">
<title>Node3</title>
<g id="a_Node000003"><a xlink:href="class_enemy.html#aa5eb4bbc1406d4ee5ac263761a0d96dc" target="_top" xlink:title="AIの更新処理">
<polygon fill="white" stroke="#666666" points="243.5,-58 149.5,-58 149.5,-38 243.5,-38 243.5,-58"/>
<text xml:space="preserve" text-anchor="middle" x="196.5" y="-44.5" font-family="Helvetica,sans-Serif" font-size="10.00">Enemy::UpdateAI</text>
</a>
</g>
</g>
<!-- Node1&#45;&gt;Node3 -->
<g id="edge2_Node000001_Node000003" class="edge">
<title>Node1&#45;&gt;Node3</title>
<g id="a_edge2_Node000001_Node000003"><a xlink:title=" ">
<path fill="none" stroke="#63b8ff" d="M84.36,-48C100.77,-48 119.95,-48 137.7,-48"/>
<polygon fill="#63b8ff" stroke="#63b8ff" points="137.61,-51.5 147.61,-48 137.61,-44.5 137.61,-51.5"/>
</a>
</g>
</g>
<!-- Node4 -->
<g id="Node000004" class="node">
<title>Node4</title>
<g id="a_Node000004"><a xlink:href="class_enemy.html#abcd41140bfa1313b846630982ac9d2bc" target="_top" xlink:title="コライダー位置を更新する">
<polygon fill="white" stroke="#666666" points="272.75,-20 120.25,-20 120.25,0 272.75,0 272.75,-20"/>
<text xml:space="preserve" text-anchor="middle" x="196.5" y="-6.5" font-family="Helvetica,sans-Serif" font-size="10.00">Enemy::UpdateColliderPosition</text>
</a>
</g>
</g>
<!-- Node1&#45;&gt;Node4 -->
<g id="edge3_Node000001_Node000004" class="edge">
<title>Node1&#45;&gt;Node4</title>
<g id="a_edge3_Node000001_Node000004"><a xlink:title=" ">
<path fill="none" stroke="#63b8ff" d="M84.36,-37.72C102.26,-33.25 123.45,-27.97 142.51,-23.22"/>
<polygon fill="#63b8ff" stroke="#63b8ff" points="143.11,-26.67 151.97,-20.86 141.42,-19.88 143.11,-26.67"/>
</a>
</g>
</g>
</g>
</svg>
