<?xml version="1.0" encoding="UTF-8" standalone="no"?>
<!DOCTYPE svg PUBLIC "-//W3C//DTD SVG 1.1//EN"
 "http://www.w3.org/Graphics/SVG/1.1/DTD/svg11.dtd">
<!-- Generated by graphviz version 14.0.2 (20251019.1705)
 -->
<!-- Title: CameraSystem::GetViewRect Pages: 1 -->
<svg width="560pt" height="78pt"
 viewBox="0.00 0.00 560.00 78.00" xmlns="http://www.w3.org/2000/svg" xmlns:xlink="http://www.w3.org/1999/xlink">
<g id="graph0" class="graph" transform="scale(1 1) rotate(0) translate(4 74)">
<title>CameraSystem::GetViewRect</title>
<!-- Node1 -->
<g id="Node000001" class="node">
<title>Node1</title>
<g id="a_Node000001"><a xlink:title="ビュー矩形を取得する">
<polygon fill="#999999" stroke="#666666" points="148.75,-42 0,-42 0,-22 148.75,-22 148.75,-42"/>
<text xml:space="preserve" text-anchor="middle" x="74.38" y="-28.5" font-family="Helvetica,sans-Serif" font-size="10.00">CameraSystem::GetViewRect</text>
</a>
</g>
</g>
<!-- Node2 -->
<g id="Node000002" class="node">
<title>Node2</title>
<g id="a_Node000002"><a xlink:href="class_camera_system.html#a974b77a3f97e5cfd7d8bc0ee36bc87e3" target="_top" xlink:title="カメラオフセットを取得する">
<polygon fill="white" stroke="#666666" points="351.5,-42 184.75,-42 184.75,-22 351.5,-22 351.5,-42"/>
<text xml:space="preserve" text-anchor="middle" x="268.12" y="-28.5" font-family="Helvetica,sans-Serif" font-size="10.00">CameraSystem::GetCameraOffset</text>
</a>
</g>
</g>
<!-- Node1&#45;&gt;Node2 -->
<g id="edge1_Node000001_Node000002" class="edge">
<title>Node1&#45;&gt;Node2</title>
<g id="a_edge1_Node000001_Node000002"><a xlink:title=" ">
<path fill="none" stroke="#63b8ff" d="M149.24,-32C157.05,-32 165.07,-32 173.08,-32"/>
<polygon fill="#63b8ff" stroke="#63b8ff" points="172.85,-35.5 182.85,-32 172.85,-28.5 172.85,-35.5"/>
</a>
</g>
</g>
<!-- Node3 -->
<g id="Node000003" class="node">
<title>Node3</title>
<g id="a_Node000003"><a xlink:href="class_camera_system.html#a154a58ca736a1bc9cb4b27eadb25bc11" target="_top" xlink:title="カメラ中心座標を作成する">
<polygon fill="white" stroke="#666666" points="552,-70 387.5,-70 387.5,-38 552,-38 552,-70"/>
<text xml:space="preserve" text-anchor="start" x="395.5" y="-56.5" font-family="Helvetica,sans-Serif" font-size="10.00">CameraSystem::ComputeCamera</text>
<text xml:space="preserve" text-anchor="middle" x="469.75" y="-44.5" font-family="Helvetica,sans-Serif" font-size="10.00">Center</text>
</a>
</g>
</g>
<!-- Node2&#45;&gt;Node3 -->
<g id="edge2_Node000002_Node000003" class="edge">
<title>Node2&#45;&gt;Node3</title>
<g id="a_edge2_Node000002_Node000003"><a xlink:title=" ">
<path fill="none" stroke="#63b8ff" d="M351.76,-41.11C359.71,-41.98 367.8,-42.88 375.84,-43.76"/>
<polygon fill="#63b8ff" stroke="#63b8ff" points="375.31,-47.22 385.64,-44.84 376.08,-40.27 375.31,-47.22"/>
</a>
</g>
</g>
<!-- Node4 -->
<g id="Node000004" class="node">
<title>Node4</title>
<g id="a_Node000004"><a xlink:href="class_camera_system.html#a579af8227e36631553fe0c4cb5a40478" target="_top" xlink:title="ビューサイズの半分を取得する">
<polygon fill="white" stroke="#666666" points="544.5,-20 395,-20 395,0 544.5,0 544.5,-20"/>
<text xml:space="preserve" text-anchor="middle" x="469.75" y="-6.5" font-family="Helvetica,sans-Serif" font-size="10.00">CameraSystem::HalfViewSize</text>
</a>
</g>
</g>
<!-- Node2&#45;&gt;Node4 -->
<g id="edge3_Node000002_Node000004" class="edge">
<title>Node2&#45;&gt;Node4</title>
<g id="a_edge3_Node000002_Node000004"><a xlink:title=" ">
<path fill="none" stroke="#63b8ff" d="M351.76,-22.89C362.24,-21.74 372.97,-20.56 383.49,-19.4"/>
<polygon fill="#63b8ff" stroke="#63b8ff" points="383.73,-22.89 393.29,-18.32 382.97,-15.93 383.73,-22.89"/>
</a>
</g>
</g>
</g>
</svg>
