<?xml version="1.0" encoding="UTF-8" standalone="no"?>
<!DOCTYPE svg PUBLIC "-//W3C//DTD SVG 1.1//EN"
 "http://www.w3.org/Graphics/SVG/1.1/DTD/svg11.dtd">
<!-- Generated by graphviz version 14.0.2 (20251019.1705)
 -->
<!-- Title: Player Pages: 1 -->
<svg width="305pt" height="176pt"
 viewBox="0.00 0.00 305.00 176.00" xmlns="http://www.w3.org/2000/svg" xmlns:xlink="http://www.w3.org/1999/xlink">
<g id="graph0" class="graph" transform="scale(1 1) rotate(0) translate(4 172)">
<title>Player</title>
<!-- Node1 -->
<g id="Node000001" class="node">
<title>Node1</title>
<g id="a_Node000001"><a xlink:title="プレイヤーを管理する">
<polygon fill="#999999" stroke="#666666" points="139.38,-20 95.62,-20 95.62,0 139.38,0 139.38,-20"/>
<text xml:space="preserve" text-anchor="middle" x="117.5" y="-6.5" font-family="Helvetica,sans-Serif" font-size="10.00">Player</text>
</a>
</g>
</g>
<!-- Node2 -->
<g id="Node000002" class="node">
<title>Node2</title>
<g id="a_Node000002"><a xlink:href="struct_collider.html" target="_top" xlink:title="衝突判定を管理する構造体">
<polygon fill="white" stroke="#666666" points="49,-94 0,-94 0,-74 49,-74 49,-94"/>
<text xml:space="preserve" text-anchor="middle" x="24.5" y="-80.5" font-family="Helvetica,sans-Serif" font-size="10.00">Collider</text>
</a>
</g>
</g>
<!-- Node2&#45;&gt;Node1 -->
<g id="edge1_Node000001_Node000002" class="edge">
<title>Node2&#45;&gt;Node1</title>
<g id="a_edge1_Node000001_Node000002"><a xlink:title=" ">
<path fill="none" stroke="#9a32cd" stroke-dasharray="5,2" d="M43.07,-66.01C52.85,-57.32 65.18,-46.76 76.75,-38 85,-31.75 94.65,-25.32 102.48,-20.31"/>
<polygon fill="#9a32cd" stroke="#9a32cd" points="40.81,-63.34 35.71,-72.63 45.49,-68.54 40.81,-63.34"/>
</a>
</g>
<text xml:space="preserve" text-anchor="start" x="79.75" y="-43.5" font-family="Helvetica,sans-Serif" font-size="10.00" fill="grey">collider</text>
</g>
<!-- Node3 -->
<g id="Node000003" class="node">
<title>Node3</title>
<g id="a_Node000003"><a xlink:href="class_animation_controller.html" target="_top" xlink:title="アニメーション再生を管理する">
<polygon fill="white" stroke="#666666" points="168.25,-94 66.75,-94 66.75,-74 168.25,-74 168.25,-94"/>
<text xml:space="preserve" text-anchor="middle" x="117.5" y="-80.5" font-family="Helvetica,sans-Serif" font-size="10.00">AnimationController</text>
</a>
</g>
</g>
<!-- Node3&#45;&gt;Node1 -->
<g id="edge2_Node000001_Node000003" class="edge">
<title>Node3&#45;&gt;Node1</title>
<g id="a_edge2_Node000001_Node000003"><a xlink:title=" ">
<path fill="none" stroke="#9a32cd" stroke-dasharray="5,2" d="M117.5,-62.18C117.5,-48.29 117.5,-30.71 117.5,-20.19"/>
<polygon fill="#9a32cd" stroke="#9a32cd" points="114,-62.07 117.5,-72.07 121,-62.07 114,-62.07"/>
</a>
</g>
<text xml:space="preserve" text-anchor="start" x="120.5" y="-43.5" font-family="Helvetica,sans-Serif" font-size="10.00" fill="grey">anim_controller_</text>
</g>
<!-- Node4 -->
<g id="Node000004" class="node">
<title>Node4</title>
<g id="a_Node000004"><a xlink:href="struct_animation.html" target="_top" xlink:title="アニメーション再生に必要な情報を保持する構造体">
<polygon fill="white" stroke="#666666" points="147.25,-168 87.75,-168 87.75,-148 147.25,-148 147.25,-168"/>
<text xml:space="preserve" text-anchor="middle" x="117.5" y="-154.5" font-family="Helvetica,sans-Serif" font-size="10.00">Animation</text>
</a>
</g>
</g>
<!-- Node4&#45;&gt;Node3 -->
<g id="edge3_Node000003_Node000004" class="edge">
<title>Node4&#45;&gt;Node3</title>
<g id="a_edge3_Node000003_Node000004"><a xlink:title=" ">
<path fill="none" stroke="#9a32cd" stroke-dasharray="5,2" d="M117.5,-136.18C117.5,-122.29 117.5,-104.71 117.5,-94.19"/>
<polygon fill="#9a32cd" stroke="#9a32cd" points="114,-136.07 117.5,-146.07 121,-136.07 114,-136.07"/>
</a>
</g>
<text xml:space="preserve" text-anchor="start" x="120.5" y="-117.5" font-family="Helvetica,sans-Serif" font-size="10.00" fill="grey">current_animation_</text>
</g>
<!-- Node5 -->
<g id="Node000005" class="node">
<title>Node5</title>
<g id="a_Node000005"><a xlink:href="class_sound_controller.html" target="_top" xlink:title="サウンド再生を管理する">
<polygon fill="white" stroke="#666666" points="272.38,-94 186.62,-94 186.62,-74 272.38,-74 272.38,-94"/>
<text xml:space="preserve" text-anchor="middle" x="229.5" y="-80.5" font-family="Helvetica,sans-Serif" font-size="10.00">SoundController</text>
</a>
</g>
</g>
<!-- Node5&#45;&gt;Node1 -->
<g id="edge4_Node000001_Node000005" class="edge">
<title>Node5&#45;&gt;Node1</title>
<g id="a_edge4_Node000001_Node000005"><a xlink:title=" ">
<path fill="none" stroke="#9a32cd" stroke-dasharray="5,2" d="M219.99,-63.74C214.74,-54.82 207.45,-44.73 198.5,-38 181.08,-24.91 156.96,-17.95 139.58,-14.39"/>
<polygon fill="#9a32cd" stroke="#9a32cd" points="216.83,-65.25 224.65,-72.4 223,-61.94 216.83,-65.25"/>
</a>
</g>
<text xml:space="preserve" text-anchor="start" x="217.61" y="-43.5" font-family="Helvetica,sans-Serif" font-size="10.00" fill="grey">sound_controller_</text>
</g>
</g>
</svg>
