<?xml version="1.0" encoding="UTF-8" standalone="no"?>
<!DOCTYPE svg PUBLIC "-//W3C//DTD SVG 1.1//EN"
 "http://www.w3.org/Graphics/SVG/1.1/DTD/svg11.dtd">
<!-- Generated by graphviz version 14.0.2 (20251019.1705)
 -->
<!-- Title: EnemyDataSystem::GetInstance Pages: 1 -->
<svg width="364pt" height="58pt"
 viewBox="0.00 0.00 364.00 58.00" xmlns="http://www.w3.org/2000/svg" xmlns:xlink="http://www.w3.org/1999/xlink">
<g id="graph0" class="graph" transform="scale(1 1) rotate(0) translate(4 54)">
<title>EnemyDataSystem::GetInstance</title>
<!-- Node1 -->
<g id="Node000001" class="node">
<title>Node1</title>
<g id="a_Node000001"><a xlink:title="シングルトンインスタンスを取得する">
<polygon fill="#999999" stroke="#666666" points="160.75,-26 0,-26 0,-6 160.75,-6 160.75,-26"/>
<text xml:space="preserve" text-anchor="middle" x="80.38" y="-12.5" font-family="Helvetica,sans-Serif" font-size="10.00">EnemyDataSystem::GetInstance</text>
</a>
</g>
</g>
<!-- Node2 -->
<g id="Node000002" class="node">
<title>Node2</title>
<g id="a_Node000002"><a xlink:href="class_enemy_data_system.html#aebeb46499c979e05a6e94903f74d50d8" target="_top" xlink:title="コピーコンストラクタ(削除)">
<polygon fill="white" stroke="#666666" points="356,-32 196.75,-32 196.75,0 356,0 356,-32"/>
<text xml:space="preserve" text-anchor="start" x="204.75" y="-18.5" font-family="Helvetica,sans-Serif" font-size="10.00">EnemyDataSystem::EnemyData</text>
<text xml:space="preserve" text-anchor="middle" x="276.38" y="-6.5" font-family="Helvetica,sans-Serif" font-size="10.00">System</text>
</a>
</g>
</g>
<!-- Node1&#45;&gt;Node2 -->
<g id="edge1_Node000001_Node000002" class="edge">
<title>Node1&#45;&gt;Node2</title>
<g id="a_edge1_Node000001_Node000002"><a xlink:title=" ">
<path fill="none" stroke="#63b8ff" d="M161.12,-16C168.92,-16 176.86,-16 184.75,-16"/>
<polygon fill="#63b8ff" stroke="#63b8ff" points="184.74,-19.5 194.74,-16 184.74,-12.5 184.74,-19.5"/>
</a>
</g>
</g>
<!-- Node2&#45;&gt;Node2 -->
<g id="edge2_Node000002_Node000002" class="edge">
<title>Node2&#45;&gt;Node2</title>
<g id="a_edge2_Node000002_Node000002"><a xlink:title=" ">
<path fill="none" stroke="#63b8ff" d="M241.38,-32.44C234.85,-41.58 246.52,-50 276.38,-50 292.7,-50 303.59,-47.48 309.04,-43.71"/>
<polygon fill="#63b8ff" stroke="#63b8ff" points="312.46,-44.43 311.06,-33.92 305.61,-43.01 312.46,-44.43"/>
</a>
</g>
</g>
</g>
</svg>
