<?xml version="1.0" encoding="UTF-8" standalone="no"?>
<!DOCTYPE svg PUBLIC "-//W3C//DTD SVG 1.1//EN"
 "http://www.w3.org/Graphics/SVG/1.1/DTD/svg11.dtd">
<!-- Generated by graphviz version 14.0.2 (20251019.1705)
 -->
<!-- Title: Stage::Draw Pages: 1 -->
<svg width="254pt" height="66pt"
 viewBox="0.00 0.00 254.00 66.00" xmlns="http://www.w3.org/2000/svg" xmlns:xlink="http://www.w3.org/1999/xlink">
<g id="graph0" class="graph" transform="scale(1 1) rotate(0) translate(4 62)">
<title>Stage::Draw</title>
<!-- Node1 -->
<g id="Node000001" class="node">
<title>Node1</title>
<g id="a_Node000001"><a xlink:title="ステージを描画する">
<polygon fill="#999999" stroke="#666666" points="70.75,-39 0,-39 0,-19 70.75,-19 70.75,-39"/>
<text xml:space="preserve" text-anchor="middle" x="35.38" y="-25.5" font-family="Helvetica,sans-Serif" font-size="10.00">Stage::Draw</text>
</a>
</g>
</g>
<!-- Node2 -->
<g id="Node000002" class="node">
<title>Node2</title>
<g id="a_Node000002"><a xlink:href="class_stage.html#ad9f61bd78a0378947176faf7c6b9d5e8" target="_top" xlink:title="ビュー矩形から描画範囲を計算する">
<polygon fill="white" stroke="#666666" points="245.75,-58 106.75,-58 106.75,-38 245.75,-38 245.75,-58"/>
<text xml:space="preserve" text-anchor="middle" x="176.25" y="-44.5" font-family="Helvetica,sans-Serif" font-size="10.00">Stage::ComputeDrawRange</text>
</a>
</g>
</g>
<!-- Node1&#45;&gt;Node2 -->
<g id="edge1_Node000001_Node000002" class="edge">
<title>Node1&#45;&gt;Node2</title>
<g id="a_edge1_Node000001_Node000002"><a xlink:title=" ">
<path fill="none" stroke="#63b8ff" d="M71.06,-33.75C78.55,-34.77 86.76,-35.89 95.18,-37.05"/>
<polygon fill="#63b8ff" stroke="#63b8ff" points="94.46,-40.48 104.84,-38.37 95.41,-33.54 94.46,-40.48"/>
</a>
</g>
</g>
<!-- Node3 -->
<g id="Node000003" class="node">
<title>Node3</title>
<g id="a_Node000003"><a xlink:href="class_stage.html#a66e4f07a9f7811afe745b834d2743e97" target="_top" xlink:title="レイヤーのタイルを描画する">
<polygon fill="white" stroke="#666666" points="234.12,-20 118.38,-20 118.38,0 234.12,0 234.12,-20"/>
<text xml:space="preserve" text-anchor="middle" x="176.25" y="-6.5" font-family="Helvetica,sans-Serif" font-size="10.00">Stage::DrawLayerTiles</text>
</a>
</g>
</g>
<!-- Node1&#45;&gt;Node3 -->
<g id="edge2_Node000001_Node000003" class="edge">
<title>Node1&#45;&gt;Node3</title>
<g id="a_edge2_Node000001_Node000003"><a xlink:title=" ">
<path fill="none" stroke="#63b8ff" d="M71.06,-24.25C81.95,-22.76 94.37,-21.07 106.75,-19.37"/>
<polygon fill="#63b8ff" stroke="#63b8ff" points="107.14,-22.85 116.57,-18.03 106.19,-15.92 107.14,-22.85"/>
</a>
</g>
</g>
</g>
</svg>
