<?xml version="1.0" encoding="UTF-8" standalone="no"?>
<!DOCTYPE svg PUBLIC "-//W3C//DTD SVG 1.1//EN"
 "http://www.w3.org/Graphics/SVG/1.1/DTD/svg11.dtd">
<!-- Generated by graphviz version 14.0.2 (20251019.1705)
 -->
<!-- Title: AssetSystem::PrepareAssets Pages: 1 -->
<svg width="716pt" height="84pt"
 viewBox="0.00 0.00 716.00 84.00" xmlns="http://www.w3.org/2000/svg" xmlns:xlink="http://www.w3.org/1999/xlink">
<g id="graph0" class="graph" transform="scale(1 1) rotate(0) translate(4 80)">
<title>AssetSystem::PrepareAssets</title>
<!-- Node1 -->
<g id="Node000001" class="node">
<title>Node1</title>
<g id="a_Node000001"><a xlink:title="指定したシーン名のアセットを準備する">
<polygon fill="#999999" stroke="#666666" points="145.75,-48 0,-48 0,-28 145.75,-28 145.75,-48"/>
<text xml:space="preserve" text-anchor="middle" x="72.88" y="-34.5" font-family="Helvetica,sans-Serif" font-size="10.00">AssetSystem::PrepareAssets</text>
</a>
</g>
</g>
<!-- Node2 -->
<g id="Node000002" class="node">
<title>Node2</title>
<g id="a_Node000002"><a xlink:href="class_asset_system.html#a89836a6278b0d4237fe0efc49906e437" target="_top" xlink:title="アセットを登録してロードする">
<polygon fill="white" stroke="#666666" points="327.88,-76 192.62,-76 192.62,-44 327.88,-44 327.88,-76"/>
<text xml:space="preserve" text-anchor="start" x="200.62" y="-62.5" font-family="Helvetica,sans-Serif" font-size="10.00">AssetSystem::RegisterAnd</text>
<text xml:space="preserve" text-anchor="middle" x="260.25" y="-50.5" font-family="Helvetica,sans-Serif" font-size="10.00">LoadAsset</text>
</a>
</g>
</g>
<!-- Node1&#45;&gt;Node2 -->
<g id="edge1_Node000001_Node000002" class="edge">
<title>Node1&#45;&gt;Node2</title>
<g id="a_edge1_Node000001_Node000002"><a xlink:title=" ">
<path fill="none" stroke="#63b8ff" d="M146.08,-46.57C157.63,-47.94 169.64,-49.36 181.32,-50.75"/>
<polygon fill="#63b8ff" stroke="#63b8ff" points="180.55,-54.18 190.89,-51.89 181.37,-47.23 180.55,-54.18"/>
</a>
</g>
</g>
<!-- Node3 -->
<g id="Node000003" class="node">
<title>Node3</title>
<g id="a_Node000003"><a xlink:href="class_asset_system.html#ab7a0d836fbd30a0f29e661f9832a15b4" target="_top" xlink:title="現在のシーンのアセット登録をすべて解除する">
<polygon fill="white" stroke="#666666" points="338.75,-26 181.75,-26 181.75,-6 338.75,-6 338.75,-26"/>
<text xml:space="preserve" text-anchor="middle" x="260.25" y="-12.5" font-family="Helvetica,sans-Serif" font-size="10.00">AssetSystem::UnregisterAssets</text>
</a>
</g>
</g>
<!-- Node1&#45;&gt;Node3 -->
<g id="edge2_Node000001_Node000003" class="edge">
<title>Node1&#45;&gt;Node3</title>
<g id="a_edge2_Node000001_Node000003"><a xlink:title=" ">
<path fill="none" stroke="#63b8ff" d="M146.08,-29.43C153.95,-28.5 162.04,-27.54 170.09,-26.58"/>
<polygon fill="#63b8ff" stroke="#63b8ff" points="170.4,-30.07 179.92,-25.42 169.57,-23.12 170.4,-30.07"/>
</a>
</g>
</g>
<!-- Node4 -->
<g id="Node000004" class="node">
<title>Node4</title>
<g id="a_Node000004"><a xlink:href="class_asset_system.html#a88219cddf418f7a49d68ec447eb8ed13" target="_top" xlink:title="非同期ロードが完了するまで待機する">
<polygon fill="white" stroke="#666666" points="524.25,-26 374.75,-26 374.75,-6 524.25,-6 524.25,-26"/>
<text xml:space="preserve" text-anchor="middle" x="449.5" y="-12.5" font-family="Helvetica,sans-Serif" font-size="10.00">AssetSystem::WaitUntilReady</text>
</a>
</g>
</g>
<!-- Node3&#45;&gt;Node4 -->
<g id="edge3_Node000003_Node000004" class="edge">
<title>Node3&#45;&gt;Node4</title>
<g id="a_edge3_Node000003_Node000004"><a xlink:title=" ">
<path fill="none" stroke="#63b8ff" d="M339.03,-16C346.87,-16 354.85,-16 362.76,-16"/>
<polygon fill="#63b8ff" stroke="#63b8ff" points="362.75,-19.5 372.75,-16 362.75,-12.5 362.75,-19.5"/>
</a>
</g>
</g>
<!-- Node5 -->
<g id="Node000005" class="node">
<title>Node5</title>
<g id="a_Node000005"><a xlink:href="class_asset_system.html#a8699ee18bd398670439d3b6340e1f1dc" target="_top" xlink:title="現在のシーンのアセット非同期ロードが完了したか">
<polygon fill="white" stroke="#666666" points="708.25,-32 560.25,-32 560.25,0 708.25,0 708.25,-32"/>
<text xml:space="preserve" text-anchor="start" x="568.25" y="-18.5" font-family="Helvetica,sans-Serif" font-size="10.00">AssetSystem::IsSceneAssets</text>
<text xml:space="preserve" text-anchor="middle" x="634.25" y="-6.5" font-family="Helvetica,sans-Serif" font-size="10.00">Ready</text>
</a>
</g>
</g>
<!-- Node4&#45;&gt;Node5 -->
<g id="edge4_Node000004_Node000005" class="edge">
<title>Node4&#45;&gt;Node5</title>
<g id="a_edge4_Node000004_Node000005"><a xlink:title=" ">
<path fill="none" stroke="#63b8ff" d="M524.57,-16C532.5,-16 540.62,-16 548.67,-16"/>
<polygon fill="#63b8ff" stroke="#63b8ff" points="548.45,-19.5 558.45,-16 548.45,-12.5 548.45,-19.5"/>
</a>
</g>
</g>
</g>
</svg>
