<?xml version="1.0" encoding="UTF-8" standalone="no"?>
<!DOCTYPE svg PUBLIC "-//W3C//DTD SVG 1.1//EN"
 "http://www.w3.org/Graphics/SVG/1.1/DTD/svg11.dtd">
<!-- Generated by graphviz version 14.0.2 (20251019.1705)
 -->
<!-- Title: OxygenSpot Pages: 1 -->
<svg width="189pt" height="176pt"
 viewBox="0.00 0.00 189.00 176.00" xmlns="http://www.w3.org/2000/svg" xmlns:xlink="http://www.w3.org/1999/xlink">
<g id="graph0" class="graph" transform="scale(1 1) rotate(0) translate(4 172)">
<title>OxygenSpot</title>
<!-- Node1 -->
<g id="Node000001" class="node">
<title>Node1</title>
<g id="a_Node000001"><a xlink:title="酸素スポットを管理する">
<polygon fill="#999999" stroke="#666666" points="135.75,-20 65.75,-20 65.75,0 135.75,0 135.75,-20"/>
<text xml:space="preserve" text-anchor="middle" x="100.75" y="-6.5" font-family="Helvetica,sans-Serif" font-size="10.00">OxygenSpot</text>
</a>
</g>
</g>
<!-- Node2 -->
<g id="Node000002" class="node">
<title>Node2</title>
<g id="a_Node000002"><a xlink:href="class_animation_controller.html" target="_top" xlink:title="アニメーション再生を管理する">
<polygon fill="white" stroke="#666666" points="101.5,-94 0,-94 0,-74 101.5,-74 101.5,-94"/>
<text xml:space="preserve" text-anchor="middle" x="50.75" y="-80.5" font-family="Helvetica,sans-Serif" font-size="10.00">AnimationController</text>
</a>
</g>
</g>
<!-- Node2&#45;&gt;Node1 -->
<g id="edge1_Node000001_Node000002" class="edge">
<title>Node2&#45;&gt;Node1</title>
<g id="a_edge1_Node000001_Node000002"><a xlink:title=" ">
<path fill="none" stroke="#9a32cd" stroke-dasharray="5,2" d="M46.83,-62.42C46.33,-54.29 47.16,-45.2 51.5,-38 56.19,-30.24 63.97,-24.55 71.98,-20.46"/>
<polygon fill="#9a32cd" stroke="#9a32cd" points="43.34,-62.69 48.13,-72.14 50.28,-61.76 43.34,-62.69"/>
</a>
</g>
<text xml:space="preserve" text-anchor="start" x="54.5" y="-43.5" font-family="Helvetica,sans-Serif" font-size="10.00" fill="grey">anim_controller_</text>
</g>
<!-- Node3 -->
<g id="Node000003" class="node">
<title>Node3</title>
<g id="a_Node000003"><a xlink:href="struct_animation.html" target="_top" xlink:title="アニメーション再生に必要な情報を保持する構造体">
<polygon fill="white" stroke="#666666" points="80.5,-168 21,-168 21,-148 80.5,-148 80.5,-168"/>
<text xml:space="preserve" text-anchor="middle" x="50.75" y="-154.5" font-family="Helvetica,sans-Serif" font-size="10.00">Animation</text>
</a>
</g>
</g>
<!-- Node3&#45;&gt;Node2 -->
<g id="edge2_Node000002_Node000003" class="edge">
<title>Node3&#45;&gt;Node2</title>
<g id="a_edge2_Node000002_Node000003"><a xlink:title=" ">
<path fill="none" stroke="#9a32cd" stroke-dasharray="5,2" d="M50.75,-136.18C50.75,-122.29 50.75,-104.71 50.75,-94.19"/>
<polygon fill="#9a32cd" stroke="#9a32cd" points="47.25,-136.07 50.75,-146.07 54.25,-136.07 47.25,-136.07"/>
</a>
</g>
<text xml:space="preserve" text-anchor="start" x="53.75" y="-117.5" font-family="Helvetica,sans-Serif" font-size="10.00" fill="grey">current_animation_</text>
</g>
<!-- Node4 -->
<g id="Node000004" class="node">
<title>Node4</title>
<g id="a_Node000004"><a xlink:href="struct_collider.html" target="_top" xlink:title="衝突判定を管理する構造体">
<polygon fill="white" stroke="#666666" points="175.25,-94 126.25,-94 126.25,-74 175.25,-74 175.25,-94"/>
<text xml:space="preserve" text-anchor="middle" x="150.75" y="-80.5" font-family="Helvetica,sans-Serif" font-size="10.00">Collider</text>
</a>
</g>
</g>
<!-- Node4&#45;&gt;Node1 -->
<g id="edge3_Node000001_Node000004" class="edge">
<title>Node4&#45;&gt;Node1</title>
<g id="a_edge3_Node000001_Node000004"><a xlink:title=" ">
<path fill="none" stroke="#9a32cd" stroke-dasharray="5,2" d="M142.81,-63.05C139.12,-54.92 134.32,-45.65 128.75,-38 124.06,-31.56 117.75,-25.32 112.3,-20.46"/>
<polygon fill="#9a32cd" stroke="#9a32cd" points="139.53,-64.27 146.65,-72.11 145.97,-61.54 139.53,-64.27"/>
</a>
</g>
<text xml:space="preserve" text-anchor="start" x="142.28" y="-43.5" font-family="Helvetica,sans-Serif" font-size="10.00" fill="grey">collider_</text>
</g>
</g>
</svg>
