<?xml version="1.0" encoding="UTF-8" standalone="no"?>
<!DOCTYPE svg PUBLIC "-//W3C//DTD SVG 1.1//EN"
 "http://www.w3.org/Graphics/SVG/1.1/DTD/svg11.dtd">
<!-- Generated by graphviz version 14.0.2 (20251019.1705)
 -->
<!-- Title: IBehaviorStrategy Pages: 1 -->
<svg width="339pt" height="84pt"
 viewBox="0.00 0.00 339.00 84.00" xmlns="http://www.w3.org/2000/svg" xmlns:xlink="http://www.w3.org/1999/xlink">
<g id="graph0" class="graph" transform="scale(1 1) rotate(0) translate(4 80)">
<title>IBehaviorStrategy</title>
<!-- Node1 -->
<g id="Node000001" class="node">
<title>Node1</title>
<g id="a_Node000001"><a xlink:title="敵の行動戦略を定義するインターフェース">
<polygon fill="#999999" stroke="#666666" points="221.25,-76 127.25,-76 127.25,-56 221.25,-56 221.25,-76"/>
<text xml:space="preserve" text-anchor="middle" x="174.25" y="-62.5" font-family="Helvetica,sans-Serif" font-size="10.00">IBehaviorStrategy</text>
</a>
</g>
</g>
<!-- Node2 -->
<g id="Node000002" class="node">
<title>Node2</title>
<g id="a_Node000002"><a xlink:href="class_back_and_forth_behavior.html" target="_top" xlink:title="一定距離前後に往復する敵の行動戦略">
<polygon fill="white" stroke="#666666" points="116.5,-20 0,-20 0,0 116.5,0 116.5,-20"/>
<text xml:space="preserve" text-anchor="middle" x="58.25" y="-6.5" font-family="Helvetica,sans-Serif" font-size="10.00">BackAndForthBehavior</text>
</a>
</g>
</g>
<!-- Node1&#45;&gt;Node2 -->
<g id="edge1_Node000001_Node000002" class="edge">
<title>Node1&#45;&gt;Node2</title>
<g id="a_edge1_Node000001_Node000002"><a xlink:title=" ">
<path fill="none" stroke="#63b8ff" d="M143.63,-50.75C123.09,-41.18 96.6,-28.85 78.61,-20.48"/>
<polygon fill="#63b8ff" stroke="#63b8ff" points="142.13,-53.91 152.67,-54.96 145.08,-47.56 142.13,-53.91"/>
</a>
</g>
</g>
<!-- Node3 -->
<g id="Node000003" class="node">
<title>Node3</title>
<g id="a_Node000003"><a xlink:href="class_patrol_behavior.html" target="_top" xlink:title="左右に巡回する敵の行動戦略">
<polygon fill="white" stroke="#666666" points="214.12,-20 134.38,-20 134.38,0 214.12,0 214.12,-20"/>
<text xml:space="preserve" text-anchor="middle" x="174.25" y="-6.5" font-family="Helvetica,sans-Serif" font-size="10.00">PatrolBehavior</text>
</a>
</g>
</g>
<!-- Node1&#45;&gt;Node3 -->
<g id="edge2_Node000001_Node000003" class="edge">
<title>Node1&#45;&gt;Node3</title>
<g id="a_edge2_Node000001_Node000003"><a xlink:title=" ">
<path fill="none" stroke="#63b8ff" d="M174.25,-44.13C174.25,-35.9 174.25,-26.85 174.25,-20.3"/>
<polygon fill="#63b8ff" stroke="#63b8ff" points="170.75,-44.08 174.25,-54.08 177.75,-44.08 170.75,-44.08"/>
</a>
</g>
</g>
<!-- Node4 -->
<g id="Node000004" class="node">
<title>Node4</title>
<g id="a_Node000004"><a xlink:href="class_stationary_behavior.html" target="_top" xlink:title="その場から動かない敵の行動戦略">
<polygon fill="white" stroke="#666666" points="330.5,-20 232,-20 232,0 330.5,0 330.5,-20"/>
<text xml:space="preserve" text-anchor="middle" x="281.25" y="-6.5" font-family="Helvetica,sans-Serif" font-size="10.00">StationaryBehavior</text>
</a>
</g>
</g>
<!-- Node1&#45;&gt;Node4 -->
<g id="edge3_Node000001_Node000004" class="edge">
<title>Node1&#45;&gt;Node4</title>
<g id="a_edge3_Node000001_Node000004"><a xlink:title=" ">
<path fill="none" stroke="#63b8ff" d="M203.02,-50.48C221.89,-40.96 246.03,-28.78 262.47,-20.48"/>
<polygon fill="#63b8ff" stroke="#63b8ff" points="201.59,-47.28 194.24,-54.91 204.74,-53.53 201.59,-47.28"/>
</a>
</g>
</g>
</g>
</svg>
