<?xml version="1.0" encoding="UTF-8" standalone="no"?>
<!DOCTYPE svg PUBLIC "-//W3C//DTD SVG 1.1//EN"
 "http://www.w3.org/Graphics/SVG/1.1/DTD/svg11.dtd">
<!-- Generated by graphviz version 14.0.2 (20251019.1705)
 -->
<!-- Title: AssetSystem::UnregisterAssets Pages: 1 -->
<svg width="535pt" height="40pt"
 viewBox="0.00 0.00 535.00 40.00" xmlns="http://www.w3.org/2000/svg" xmlns:xlink="http://www.w3.org/1999/xlink">
<g id="graph0" class="graph" transform="scale(1 1) rotate(0) translate(4 36)">
<title>AssetSystem::UnregisterAssets</title>
<!-- Node1 -->
<g id="Node000001" class="node">
<title>Node1</title>
<g id="a_Node000001"><a xlink:title="現在のシーンのアセット登録をすべて解除する">
<polygon fill="#999999" stroke="#666666" points="157,-26 0,-26 0,-6 157,-6 157,-26"/>
<text xml:space="preserve" text-anchor="middle" x="78.5" y="-12.5" font-family="Helvetica,sans-Serif" font-size="10.00">AssetSystem::UnregisterAssets</text>
</a>
</g>
</g>
<!-- Node2 -->
<g id="Node000002" class="node">
<title>Node2</title>
<g id="a_Node000002"><a xlink:href="class_asset_system.html#a88219cddf418f7a49d68ec447eb8ed13" target="_top" xlink:title="非同期ロードが完了するまで待機する">
<polygon fill="white" stroke="#666666" points="342.5,-26 193,-26 193,-6 342.5,-6 342.5,-26"/>
<text xml:space="preserve" text-anchor="middle" x="267.75" y="-12.5" font-family="Helvetica,sans-Serif" font-size="10.00">AssetSystem::WaitUntilReady</text>
</a>
</g>
</g>
<!-- Node1&#45;&gt;Node2 -->
<g id="edge1_Node000001_Node000002" class="edge">
<title>Node1&#45;&gt;Node2</title>
<g id="a_edge1_Node000001_Node000002"><a xlink:title=" ">
<path fill="none" stroke="#63b8ff" d="M157.28,-16C165.12,-16 173.1,-16 181.01,-16"/>
<polygon fill="#63b8ff" stroke="#63b8ff" points="181,-19.5 191,-16 181,-12.5 181,-19.5"/>
</a>
</g>
</g>
<!-- Node3 -->
<g id="Node000003" class="node">
<title>Node3</title>
<g id="a_Node000003"><a xlink:href="class_asset_system.html#a8699ee18bd398670439d3b6340e1f1dc" target="_top" xlink:title="現在のシーンのアセット非同期ロードが完了したか">
<polygon fill="white" stroke="#666666" points="526.5,-32 378.5,-32 378.5,0 526.5,0 526.5,-32"/>
<text xml:space="preserve" text-anchor="start" x="386.5" y="-18.5" font-family="Helvetica,sans-Serif" font-size="10.00">AssetSystem::IsSceneAssets</text>
<text xml:space="preserve" text-anchor="middle" x="452.5" y="-6.5" font-family="Helvetica,sans-Serif" font-size="10.00">Ready</text>
</a>
</g>
</g>
<!-- Node2&#45;&gt;Node3 -->
<g id="edge2_Node000002_Node000003" class="edge">
<title>Node2&#45;&gt;Node3</title>
<g id="a_edge2_Node000002_Node000003"><a xlink:title=" ">
<path fill="none" stroke="#63b8ff" d="M342.82,-16C350.75,-16 358.87,-16 366.92,-16"/>
<polygon fill="#63b8ff" stroke="#63b8ff" points="366.7,-19.5 376.7,-16 366.7,-12.5 366.7,-19.5"/>
</a>
</g>
</g>
</g>
</svg>
