<?xml version="1.0" encoding="UTF-8" standalone="no"?>
<!DOCTYPE svg PUBLIC "-//W3C//DTD SVG 1.1//EN"
 "http://www.w3.org/Graphics/SVG/1.1/DTD/svg11.dtd">
<!-- Generated by graphviz version 14.0.2 (20251019.1705)
 -->
<!-- Title: CameraSystem::HalfViewSize Pages: 1 -->
<svg width="545pt" height="28pt"
 viewBox="0.00 0.00 545.00 28.00" xmlns="http://www.w3.org/2000/svg" xmlns:xlink="http://www.w3.org/1999/xlink">
<g id="graph0" class="graph" transform="scale(1 1) rotate(0) translate(4 24)">
<title>CameraSystem::HalfViewSize</title>
<!-- Node1 -->
<g id="Node000001" class="node">
<title>Node1</title>
<g id="a_Node000001"><a xlink:title="ビューサイズの半分を取得する">
<polygon fill="#999999" stroke="#666666" points="537,-20 387.5,-20 387.5,0 537,0 537,-20"/>
<text xml:space="preserve" text-anchor="middle" x="462.25" y="-6.5" font-family="Helvetica,sans-Serif" font-size="10.00">CameraSystem::HalfViewSize</text>
</a>
</g>
</g>
<!-- Node2 -->
<g id="Node000002" class="node">
<title>Node2</title>
<g id="a_Node000002"><a xlink:href="class_camera_system.html#a974b77a3f97e5cfd7d8bc0ee36bc87e3" target="_top" xlink:title="カメラオフセットを取得する">
<polygon fill="white" stroke="#666666" points="351.5,-20 184.75,-20 184.75,0 351.5,0 351.5,-20"/>
<text xml:space="preserve" text-anchor="middle" x="268.12" y="-6.5" font-family="Helvetica,sans-Serif" font-size="10.00">CameraSystem::GetCameraOffset</text>
</a>
</g>
</g>
<!-- Node1&#45;&gt;Node2 -->
<g id="edge1_Node000001_Node000002" class="edge">
<title>Node1&#45;&gt;Node2</title>
<g id="a_edge1_Node000001_Node000002"><a xlink:title=" ">
<path fill="none" stroke="#63b8ff" d="M375.95,-10C367.9,-10 359.75,-10 351.73,-10"/>
<polygon fill="#63b8ff" stroke="#63b8ff" points="375.73,-13.5 385.73,-10 375.73,-6.5 375.73,-13.5"/>
</a>
</g>
</g>
<!-- Node3 -->
<g id="Node000003" class="node">
<title>Node3</title>
<g id="a_Node000003"><a xlink:href="class_camera_system.html#aa2deafb88dba2bffe23d35ac6e4230bd" target="_top" xlink:title="ビュー矩形を取得する">
<polygon fill="white" stroke="#666666" points="148.75,-20 0,-20 0,0 148.75,0 148.75,-20"/>
<text xml:space="preserve" text-anchor="middle" x="74.38" y="-6.5" font-family="Helvetica,sans-Serif" font-size="10.00">CameraSystem::GetViewRect</text>
</a>
</g>
</g>
<!-- Node2&#45;&gt;Node3 -->
<g id="edge2_Node000002_Node000003" class="edge">
<title>Node2&#45;&gt;Node3</title>
<g id="a_edge2_Node000002_Node000003"><a xlink:title=" ">
<path fill="none" stroke="#63b8ff" d="M173.06,-10C165,-10 156.92,-10 149.06,-10"/>
<polygon fill="#63b8ff" stroke="#63b8ff" points="172.9,-13.5 182.9,-10 172.9,-6.5 172.9,-13.5"/>
</a>
</g>
</g>
</g>
</svg>
