<?xml version="1.0" encoding="UTF-8" standalone="no"?>
<!DOCTYPE svg PUBLIC "-//W3C//DTD SVG 1.1//EN"
 "http://www.w3.org/Graphics/SVG/1.1/DTD/svg11.dtd">
<!-- Generated by graphviz version 14.0.2 (20251019.1705)
 -->
<!-- Title: UISystem::Draw Pages: 1 -->
<svg width="287pt" height="66pt"
 viewBox="0.00 0.00 287.00 66.00" xmlns="http://www.w3.org/2000/svg" xmlns:xlink="http://www.w3.org/1999/xlink">
<g id="graph0" class="graph" transform="scale(1 1) rotate(0) translate(4 62)">
<title>UISystem::Draw</title>
<!-- Node1 -->
<g id="Node000001" class="node">
<title>Node1</title>
<g id="a_Node000001"><a xlink:title="UIを描画する">
<polygon fill="#999999" stroke="#666666" points="89.5,-39 0,-39 0,-19 89.5,-19 89.5,-39"/>
<text xml:space="preserve" text-anchor="middle" x="44.75" y="-25.5" font-family="Helvetica,sans-Serif" font-size="10.00">UISystem::Draw</text>
</a>
</g>
</g>
<!-- Node2 -->
<g id="Node000002" class="node">
<title>Node2</title>
<g id="a_Node000002"><a xlink:href="class_u_i_system.html#add73f52b3a30bfc6b1cf9e6da8c4779f" target="_top" xlink:title="酸素ゲージを描画する">
<polygon fill="white" stroke="#666666" points="278,-58 126.25,-58 126.25,-38 278,-38 278,-58"/>
<text xml:space="preserve" text-anchor="middle" x="202.12" y="-44.5" font-family="Helvetica,sans-Serif" font-size="10.00">UISystem::DrawOxygenGauge</text>
</a>
</g>
</g>
<!-- Node1&#45;&gt;Node2 -->
<g id="edge1_Node000001_Node000002" class="edge">
<title>Node1&#45;&gt;Node2</title>
<g id="a_edge1_Node000001_Node000002"><a xlink:title=" ">
<path fill="none" stroke="#63b8ff" d="M89.86,-34.39C97.72,-35.35 106.15,-36.39 114.72,-37.43"/>
<polygon fill="#63b8ff" stroke="#63b8ff" points="114.18,-40.89 124.53,-38.63 115.03,-33.95 114.18,-40.89"/>
</a>
</g>
</g>
<!-- Node3 -->
<g id="Node000003" class="node">
<title>Node3</title>
<g id="a_Node000003"><a xlink:href="class_u_i_system.html#a6d292d581f03920f4e9610c738f5c7bd" target="_top" xlink:title="進捗メーターを描画する">
<polygon fill="white" stroke="#666666" points="278.75,-20 125.5,-20 125.5,0 278.75,0 278.75,-20"/>
<text xml:space="preserve" text-anchor="middle" x="202.12" y="-6.5" font-family="Helvetica,sans-Serif" font-size="10.00">UISystem::DrawProgressMeter</text>
</a>
</g>
</g>
<!-- Node1&#45;&gt;Node3 -->
<g id="edge2_Node000001_Node000003" class="edge">
<title>Node1&#45;&gt;Node3</title>
<g id="a_edge2_Node000001_Node000003"><a xlink:title=" ">
<path fill="none" stroke="#63b8ff" d="M89.86,-23.61C97.45,-22.68 105.56,-21.69 113.82,-20.68"/>
<polygon fill="#63b8ff" stroke="#63b8ff" points="114.14,-24.16 123.65,-19.47 113.29,-17.21 114.14,-24.16"/>
</a>
</g>
</g>
</g>
</svg>
