<?xml version="1.0" encoding="UTF-8" standalone="no"?>
<!DOCTYPE svg PUBLIC "-//W3C//DTD SVG 1.1//EN"
 "http://www.w3.org/Graphics/SVG/1.1/DTD/svg11.dtd">
<!-- Generated by graphviz version 14.0.2 (20251019.1705)
 -->
<!-- Title: GameScene::~GameScene Pages: 1 -->
<svg width="707pt" height="90pt"
 viewBox="0.00 0.00 707.00 90.00" xmlns="http://www.w3.org/2000/svg" xmlns:xlink="http://www.w3.org/1999/xlink">
<g id="graph0" class="graph" transform="scale(1 1) rotate(0) translate(4 86)">
<title>GameScene::~GameScene</title>
<!-- Node1 -->
<g id="Node000001" class="node">
<title>Node1</title>
<g id="a_Node000001"><a xlink:title="デストラクタ">
<polygon fill="#999999" stroke="#666666" points="136,-45 0,-45 0,-25 136,-25 136,-45"/>
<text xml:space="preserve" text-anchor="middle" x="68" y="-31.5" font-family="Helvetica,sans-Serif" font-size="10.00">GameScene::~GameScene</text>
</a>
</g>
</g>
<!-- Node2 -->
<g id="Node000002" class="node">
<title>Node2</title>
<g id="a_Node000002"><a xlink:href="class_asset_system.html#ac182714115a88042762b2c178a6865ca" target="_top" xlink:title="シングルトンインスタンスを取得する">
<polygon fill="white" stroke="#666666" points="317.75,-64 183.25,-64 183.25,-44 317.75,-44 317.75,-64"/>
<text xml:space="preserve" text-anchor="middle" x="250.5" y="-50.5" font-family="Helvetica,sans-Serif" font-size="10.00">AssetSystem::GetInstance</text>
</a>
</g>
</g>
<!-- Node1&#45;&gt;Node2 -->
<g id="edge1_Node000001_Node000002" class="edge">
<title>Node1&#45;&gt;Node2</title>
<g id="a_edge1_Node000001_Node000002"><a xlink:title=" ">
<path fill="none" stroke="#63b8ff" d="M136.47,-42.1C148,-43.32 160.07,-44.59 171.84,-45.83"/>
<polygon fill="#63b8ff" stroke="#63b8ff" points="171.2,-49.28 181.51,-46.84 171.93,-42.32 171.2,-49.28"/>
</a>
</g>
</g>
<!-- Node4 -->
<g id="Node000004" class="node">
<title>Node4</title>
<g id="a_Node000004"><a xlink:href="class_asset_system.html#ab7a0d836fbd30a0f29e661f9832a15b4" target="_top" xlink:title="現在のシーンのアセット登録をすべて解除する">
<polygon fill="white" stroke="#666666" points="329,-26 172,-26 172,-6 329,-6 329,-26"/>
<text xml:space="preserve" text-anchor="middle" x="250.5" y="-12.5" font-family="Helvetica,sans-Serif" font-size="10.00">AssetSystem::UnregisterAssets</text>
</a>
</g>
</g>
<!-- Node1&#45;&gt;Node4 -->
<g id="edge4_Node000001_Node000004" class="edge">
<title>Node1&#45;&gt;Node4</title>
<g id="a_edge4_Node000001_Node000004"><a xlink:title=" ">
<path fill="none" stroke="#63b8ff" d="M136.47,-27.9C144.3,-27.07 152.37,-26.22 160.43,-25.38"/>
<polygon fill="#63b8ff" stroke="#63b8ff" points="160.7,-28.87 170.28,-24.34 159.97,-21.91 160.7,-28.87"/>
</a>
</g>
</g>
<!-- Node3 -->
<g id="Node000003" class="node">
<title>Node3</title>
<g id="a_Node000003"><a xlink:href="class_asset_system.html#a01eef25242d94de3e93ac0644a269127" target="_top" xlink:title="コピーコンストラクタ(削除)">
<polygon fill="white" stroke="#666666" points="510,-64 369.5,-64 369.5,-44 510,-44 510,-64"/>
<text xml:space="preserve" text-anchor="middle" x="439.75" y="-50.5" font-family="Helvetica,sans-Serif" font-size="10.00">AssetSystem::AssetSystem</text>
</a>
</g>
</g>
<!-- Node2&#45;&gt;Node3 -->
<g id="edge2_Node000002_Node000003" class="edge">
<title>Node2&#45;&gt;Node3</title>
<g id="a_edge2_Node000002_Node000003"><a xlink:title=" ">
<path fill="none" stroke="#63b8ff" d="M318.04,-54C331.02,-54 344.76,-54 358.13,-54"/>
<polygon fill="#63b8ff" stroke="#63b8ff" points="357.74,-57.5 367.74,-54 357.74,-50.5 357.74,-57.5"/>
</a>
</g>
</g>
<!-- Node3&#45;&gt;Node3 -->
<g id="edge3_Node000003_Node000003" class="edge">
<title>Node3&#45;&gt;Node3</title>
<g id="a_edge3_Node000003_Node000003"><a xlink:title=" ">
<path fill="none" stroke="#63b8ff" d="M410.4,-64.34C397.85,-72.98 407.64,-82 439.75,-82 457.81,-82 468.81,-79.14 472.75,-75.11"/>
<polygon fill="#63b8ff" stroke="#63b8ff" points="476.11,-74.12 469.59,-65.77 469.48,-76.37 476.11,-74.12"/>
</a>
</g>
</g>
<!-- Node5 -->
<g id="Node000005" class="node">
<title>Node5</title>
<g id="a_Node000005"><a xlink:href="class_asset_system.html#a88219cddf418f7a49d68ec447eb8ed13" target="_top" xlink:title="非同期ロードが完了するまで待機する">
<polygon fill="white" stroke="#666666" points="514.5,-26 365,-26 365,-6 514.5,-6 514.5,-26"/>
<text xml:space="preserve" text-anchor="middle" x="439.75" y="-12.5" font-family="Helvetica,sans-Serif" font-size="10.00">AssetSystem::WaitUntilReady</text>
</a>
</g>
</g>
<!-- Node4&#45;&gt;Node5 -->
<g id="edge5_Node000004_Node000005" class="edge">
<title>Node4&#45;&gt;Node5</title>
<g id="a_edge5_Node000004_Node000005"><a xlink:title=" ">
<path fill="none" stroke="#63b8ff" d="M329.28,-16C337.12,-16 345.1,-16 353.01,-16"/>
<polygon fill="#63b8ff" stroke="#63b8ff" points="353,-19.5 363,-16 353,-12.5 353,-19.5"/>
</a>
</g>
</g>
<!-- Node6 -->
<g id="Node000006" class="node">
<title>Node6</title>
<g id="a_Node000006"><a xlink:href="class_asset_system.html#a8699ee18bd398670439d3b6340e1f1dc" target="_top" xlink:title="現在のシーンのアセット非同期ロードが完了したか">
<polygon fill="white" stroke="#666666" points="698.5,-32 550.5,-32 550.5,0 698.5,0 698.5,-32"/>
<text xml:space="preserve" text-anchor="start" x="558.5" y="-18.5" font-family="Helvetica,sans-Serif" font-size="10.00">AssetSystem::IsSceneAssets</text>
<text xml:space="preserve" text-anchor="middle" x="624.5" y="-6.5" font-family="Helvetica,sans-Serif" font-size="10.00">Ready</text>
</a>
</g>
</g>
<!-- Node5&#45;&gt;Node6 -->
<g id="edge6_Node000005_Node000006" class="edge">
<title>Node5&#45;&gt;Node6</title>
<g id="a_edge6_Node000005_Node000006"><a xlink:title=" ">
<path fill="none" stroke="#63b8ff" d="M514.82,-16C522.75,-16 530.87,-16 538.92,-16"/>
<polygon fill="#63b8ff" stroke="#63b8ff" points="538.7,-19.5 548.7,-16 538.7,-12.5 538.7,-19.5"/>
</a>
</g>
</g>
</g>
</svg>
