<?xml version="1.0" encoding="UTF-8" standalone="no"?>
<!DOCTYPE svg PUBLIC "-//W3C//DTD SVG 1.1//EN"
 "http://www.w3.org/Graphics/SVG/1.1/DTD/svg11.dtd">
<!-- Generated by graphviz version 14.0.2 (20251019.1705)
 -->
<!-- Title: AssetSystem::RegisterAndLoadAsset Pages: 1 -->
<svg width="491pt" height="40pt"
 viewBox="0.00 0.00 491.00 40.00" xmlns="http://www.w3.org/2000/svg" xmlns:xlink="http://www.w3.org/1999/xlink">
<g id="graph0" class="graph" transform="scale(1 1) rotate(0) translate(4 36)">
<title>AssetSystem::RegisterAndLoadAsset</title>
<!-- Node1 -->
<g id="Node000001" class="node">
<title>Node1</title>
<g id="a_Node000001"><a xlink:title="アセットを登録してロードする">
<polygon fill="#999999" stroke="#666666" points="483,-32 347.75,-32 347.75,0 483,0 483,-32"/>
<text xml:space="preserve" text-anchor="start" x="355.75" y="-18.5" font-family="Helvetica,sans-Serif" font-size="10.00">AssetSystem::RegisterAnd</text>
<text xml:space="preserve" text-anchor="middle" x="415.38" y="-6.5" font-family="Helvetica,sans-Serif" font-size="10.00">LoadAsset</text>
</a>
</g>
</g>
<!-- Node2 -->
<g id="Node000002" class="node">
<title>Node2</title>
<g id="a_Node000002"><a xlink:href="class_asset_system.html#a38216f3fc1a218b4cf6910e8ed455be9" target="_top" xlink:title="指定したシーン名のアセットを準備する">
<polygon fill="white" stroke="#666666" points="311.75,-26 166,-26 166,-6 311.75,-6 311.75,-26"/>
<text xml:space="preserve" text-anchor="middle" x="238.88" y="-12.5" font-family="Helvetica,sans-Serif" font-size="10.00">AssetSystem::PrepareAssets</text>
</a>
</g>
</g>
<!-- Node1&#45;&gt;Node2 -->
<g id="edge1_Node000001_Node000002" class="edge">
<title>Node1&#45;&gt;Node2</title>
<g id="a_edge1_Node000001_Node000002"><a xlink:title=" ">
<path fill="none" stroke="#63b8ff" d="M335.92,-16C328.02,-16 320.01,-16 312.17,-16"/>
<polygon fill="#63b8ff" stroke="#63b8ff" points="335.89,-19.5 345.89,-16 335.89,-12.5 335.89,-19.5"/>
</a>
</g>
</g>
<!-- Node3 -->
<g id="Node000003" class="node">
<title>Node3</title>
<g id="a_Node000003"><a xlink:href="class_game_scene.html#aa0fa2a98f139524a96ffb9d25252b145" target="_top" xlink:title="コンストラクタ">
<polygon fill="white" stroke="#666666" points="130,-26 0,-26 0,-6 130,-6 130,-26"/>
<text xml:space="preserve" text-anchor="middle" x="65" y="-12.5" font-family="Helvetica,sans-Serif" font-size="10.00">GameScene::GameScene</text>
</a>
</g>
</g>
<!-- Node2&#45;&gt;Node3 -->
<g id="edge2_Node000002_Node000003" class="edge">
<title>Node2&#45;&gt;Node3</title>
<g id="a_edge2_Node000002_Node000003"><a xlink:title=" ">
<path fill="none" stroke="#63b8ff" d="M154.58,-16C146.49,-16 138.36,-16 130.49,-16"/>
<polygon fill="#63b8ff" stroke="#63b8ff" points="154.47,-19.5 164.47,-16 154.47,-12.5 154.47,-19.5"/>
</a>
</g>
</g>
</g>
</svg>
