<?xml version="1.0" encoding="UTF-8" standalone="no"?>
<!DOCTYPE svg PUBLIC "-//W3C//DTD SVG 1.1//EN"
 "http://www.w3.org/Graphics/SVG/1.1/DTD/svg11.dtd">
<!-- Generated by graphviz version 14.0.2 (20251019.1705)
 -->
<!-- Title: Enemy::Enemy Pages: 1 -->
<svg width="521pt" height="210pt"
 viewBox="0.00 0.00 521.00 210.00" xmlns="http://www.w3.org/2000/svg" xmlns:xlink="http://www.w3.org/1999/xlink">
<g id="graph0" class="graph" transform="scale(1 1) rotate(0) translate(4 206)">
<title>Enemy::Enemy</title>
<!-- Node1 -->
<g id="Node000001" class="node">
<title>Node1</title>
<g id="a_Node000001"><a xlink:title="コンストラクタ">
<polygon fill="#999999" stroke="#666666" points="83.5,-115 0,-115 0,-95 83.5,-95 83.5,-115"/>
<text xml:space="preserve" text-anchor="middle" x="41.75" y="-101.5" font-family="Helvetica,sans-Serif" font-size="10.00">Enemy::Enemy</text>
</a>
</g>
</g>
<!-- Node2 -->
<g id="Node000002" class="node">
<title>Node2</title>
<g id="a_Node000002"><a xlink:href="class_enemy_data_system.html#a903ac6dd6ca6347575e8ff65f0bd5432" target="_top" xlink:title="シングルトンインスタンスを取得する">
<polygon fill="white" stroke="#666666" points="280.25,-156 119.5,-156 119.5,-136 280.25,-136 280.25,-156"/>
<text xml:space="preserve" text-anchor="middle" x="199.88" y="-142.5" font-family="Helvetica,sans-Serif" font-size="10.00">EnemyDataSystem::GetInstance</text>
</a>
</g>
</g>
<!-- Node1&#45;&gt;Node2 -->
<g id="edge1_Node000001_Node000002" class="edge">
<title>Node1&#45;&gt;Node2</title>
<g id="a_edge1_Node000001_Node000002"><a xlink:title=" ">
<path fill="none" stroke="#63b8ff" d="M82.55,-115.45C102.46,-120.68 126.78,-127.07 148.03,-132.65"/>
<polygon fill="#63b8ff" stroke="#63b8ff" points="147.12,-136.03 157.68,-135.18 148.9,-129.26 147.12,-136.03"/>
</a>
</g>
</g>
<!-- Node4 -->
<g id="Node000004" class="node">
<title>Node4</title>
<g id="a_Node000004"><a xlink:href="class_enemy_data_system.html#adf32279bb330b55e88a56b36b2f08345" target="_top" xlink:title="指定したタイプの敵仕様を取得する">
<polygon fill="white" stroke="#666666" points="279.88,-96 119.88,-96 119.88,-76 279.88,-76 279.88,-96"/>
<text xml:space="preserve" text-anchor="middle" x="199.88" y="-82.5" font-family="Helvetica,sans-Serif" font-size="10.00">EnemyDataSystem::TryGetSpec</text>
</a>
</g>
</g>
<!-- Node1&#45;&gt;Node4 -->
<g id="edge4_Node000001_Node000004" class="edge">
<title>Node1&#45;&gt;Node4</title>
<g id="a_edge4_Node000001_Node000004"><a xlink:title=" ">
<path fill="none" stroke="#63b8ff" d="M83.77,-100.01C91.43,-99.08 99.72,-98.07 108.21,-97.03"/>
<polygon fill="#63b8ff" stroke="#63b8ff" points="108.44,-100.53 117.95,-95.85 107.6,-93.58 108.44,-100.53"/>
</a>
</g>
</g>
<!-- Node3 -->
<g id="Node000003" class="node">
<title>Node3</title>
<g id="a_Node000003"><a xlink:href="class_enemy_data_system.html#aebeb46499c979e05a6e94903f74d50d8" target="_top" xlink:title="コピーコンストラクタ(削除)">
<polygon fill="white" stroke="#666666" points="494.25,-184 335,-184 335,-152 494.25,-152 494.25,-184"/>
<text xml:space="preserve" text-anchor="start" x="343" y="-170.5" font-family="Helvetica,sans-Serif" font-size="10.00">EnemyDataSystem::EnemyData</text>
<text xml:space="preserve" text-anchor="middle" x="414.62" y="-158.5" font-family="Helvetica,sans-Serif" font-size="10.00">System</text>
</a>
</g>
</g>
<!-- Node2&#45;&gt;Node3 -->
<g id="edge2_Node000002_Node000003" class="edge">
<title>Node2&#45;&gt;Node3</title>
<g id="a_edge2_Node000002_Node000003"><a xlink:title=" ">
<path fill="none" stroke="#63b8ff" d="M280.7,-154.25C294.66,-155.7 309.26,-157.21 323.47,-158.68"/>
<polygon fill="#63b8ff" stroke="#63b8ff" points="322.95,-162.14 333.26,-159.69 323.67,-155.18 322.95,-162.14"/>
</a>
</g>
</g>
<!-- Node3&#45;&gt;Node3 -->
<g id="edge3_Node000003_Node000003" class="edge">
<title>Node3&#45;&gt;Node3</title>
<g id="a_edge3_Node000003_Node000003"><a xlink:title=" ">
<path fill="none" stroke="#63b8ff" d="M376.29,-184.44C369.13,-193.58 381.91,-202 414.62,-202 432.77,-202 444.79,-199.41 450.66,-195.54"/>
<polygon fill="#63b8ff" stroke="#63b8ff" points="454.06,-196.43 452.66,-185.92 447.2,-195.01 454.06,-196.43"/>
</a>
</g>
</g>
<!-- Node5 -->
<g id="Node000005" class="node">
<title>Node5</title>
<g id="a_Node000005"><a xlink:href="class_enemy_data_system.html#acf1448f15bf85d29c0391a3067608e06" target="_top" xlink:title="JSON全体が有効にロードされているか">
<polygon fill="white" stroke="#666666" points="488.25,-134 341,-134 341,-114 488.25,-114 488.25,-134"/>
<text xml:space="preserve" text-anchor="middle" x="414.62" y="-120.5" font-family="Helvetica,sans-Serif" font-size="10.00">EnemyDataSystem::IsLoaded</text>
</a>
</g>
</g>
<!-- Node4&#45;&gt;Node5 -->
<g id="edge5_Node000004_Node000005" class="edge">
<title>Node4&#45;&gt;Node5</title>
<g id="a_edge5_Node000004_Node000005"><a xlink:title=" ">
<path fill="none" stroke="#63b8ff" d="M259.57,-96.48C285.73,-101.16 316.74,-106.7 344.06,-111.57"/>
<polygon fill="#63b8ff" stroke="#63b8ff" points="343.17,-114.97 353.63,-113.28 344.4,-108.08 343.17,-114.97"/>
</a>
</g>
</g>
<!-- Node6 -->
<g id="Node000006" class="node">
<title>Node6</title>
<g id="a_Node000006"><a xlink:href="class_enemy_data_system.html#ad376a72c69f9b70a320793de24354fb9" target="_top" xlink:title="JSONからアニメーション仕様を読み込む">
<polygon fill="white" stroke="#666666" points="513,-96 316.25,-96 316.25,-76 513,-76 513,-96"/>
<text xml:space="preserve" text-anchor="middle" x="414.62" y="-82.5" font-family="Helvetica,sans-Serif" font-size="10.00">EnemyDataSystem::ReadAnimationSpec</text>
</a>
</g>
</g>
<!-- Node4&#45;&gt;Node6 -->
<g id="edge6_Node000004_Node000006" class="edge">
<title>Node4&#45;&gt;Node6</title>
<g id="a_edge6_Node000004_Node000006"><a xlink:title=" ">
<path fill="none" stroke="#63b8ff" d="M280.1,-86C288.14,-86 296.4,-86 304.68,-86"/>
<polygon fill="#63b8ff" stroke="#63b8ff" points="304.46,-89.5 314.46,-86 304.46,-82.5 304.46,-89.5"/>
</a>
</g>
</g>
<!-- Node7 -->
<g id="Node000007" class="node">
<title>Node7</title>
<g id="a_Node000007"><a xlink:href="class_enemy_data_system.html#a9f4c5889c6e8423ee0454b411dba775d" target="_top" xlink:title="文字列を行動パターンに変換する">
<polygon fill="white" stroke="#666666" points="502.5,-58 326.75,-58 326.75,-38 502.5,-38 502.5,-58"/>
<text xml:space="preserve" text-anchor="middle" x="414.62" y="-44.5" font-family="Helvetica,sans-Serif" font-size="10.00">EnemyDataSystem::ToBehaviorKind</text>
</a>
</g>
</g>
<!-- Node4&#45;&gt;Node7 -->
<g id="edge7_Node000004_Node000007" class="edge">
<title>Node4&#45;&gt;Node7</title>
<g id="a_edge7_Node000004_Node000007"><a xlink:title=" ">
<path fill="none" stroke="#63b8ff" d="M259.57,-75.52C285.73,-70.84 316.74,-65.3 344.06,-60.43"/>
<polygon fill="#63b8ff" stroke="#63b8ff" points="344.4,-63.92 353.63,-58.72 343.17,-57.03 344.4,-63.92"/>
</a>
</g>
</g>
<!-- Node8 -->
<g id="Node000008" class="node">
<title>Node8</title>
<g id="a_Node000008"><a xlink:href="class_enemy_data_system.html#a3e7bee306ac8573953a1c4a565abe514" target="_top" xlink:title="文字列をコライダー図形に変換する">
<polygon fill="white" stroke="#666666" points="499.88,-20 329.38,-20 329.38,0 499.88,0 499.88,-20"/>
<text xml:space="preserve" text-anchor="middle" x="414.62" y="-6.5" font-family="Helvetica,sans-Serif" font-size="10.00">EnemyDataSystem::ToColliderKind</text>
</a>
</g>
</g>
<!-- Node4&#45;&gt;Node8 -->
<g id="edge8_Node000004_Node000008" class="edge">
<title>Node4&#45;&gt;Node8</title>
<g id="a_edge8_Node000004_Node000008"><a xlink:title=" ">
<path fill="none" stroke="#63b8ff" d="M218.23,-75.59C240.28,-62.8 279.84,-41.3 316.25,-29 322.73,-26.81 329.54,-24.84 336.43,-23.08"/>
<polygon fill="#63b8ff" stroke="#63b8ff" points="336.89,-26.57 345.8,-20.84 335.26,-19.76 336.89,-26.57"/>
</a>
</g>
</g>
</g>
</svg>
