<?xml version="1.0" encoding="UTF-8" standalone="no"?>
<!DOCTYPE svg PUBLIC "-//W3C//DTD SVG 1.1//EN"
 "http://www.w3.org/Graphics/SVG/1.1/DTD/svg11.dtd">
<!-- Generated by graphviz version 14.0.2 (20251019.1705)
 -->
<!-- Title: Player::Update Pages: 1 -->
<svg width="584pt" height="341pt"
 viewBox="0.00 0.00 584.00 341.00" xmlns="http://www.w3.org/2000/svg" xmlns:xlink="http://www.w3.org/1999/xlink">
<g id="graph0" class="graph" transform="scale(1 1) rotate(0) translate(4 337)">
<title>Player::Update</title>
<!-- Node1 -->
<g id="Node000001" class="node">
<title>Node1</title>
<g id="a_Node000001"><a xlink:title="プレイヤーを更新する">
<polygon fill="#999999" stroke="#666666" points="81.25,-219 0,-219 0,-199 81.25,-199 81.25,-219"/>
<text xml:space="preserve" text-anchor="middle" x="40.62" y="-205.5" font-family="Helvetica,sans-Serif" font-size="10.00">Player::Update</text>
</a>
</g>
</g>
<!-- Node2 -->
<g id="Node000002" class="node">
<title>Node2</title>
<g id="a_Node000002"><a xlink:href="class_player.html#ad5807ec776b055f5ee154395ad23c88b" target="_top" xlink:title="衝突処理を実行する">
<polygon fill="white" stroke="#666666" points="241.25,-276 118,-276 118,-256 241.25,-256 241.25,-276"/>
<text xml:space="preserve" text-anchor="middle" x="179.62" y="-262.5" font-family="Helvetica,sans-Serif" font-size="10.00">Player::HandleCollisions</text>
</a>
</g>
</g>
<!-- Node1&#45;&gt;Node2 -->
<g id="edge1_Node000001_Node000002" class="edge">
<title>Node1&#45;&gt;Node2</title>
<g id="a_edge1_Node000001_Node000002"><a xlink:title=" ">
<path fill="none" stroke="#63b8ff" d="M60.18,-219.41C75.25,-227.6 97.21,-238.93 117.25,-247 121.56,-248.73 126.09,-250.41 130.65,-251.99"/>
<polygon fill="#63b8ff" stroke="#63b8ff" points="129.25,-255.22 139.84,-255.04 131.45,-248.57 129.25,-255.22"/>
</a>
</g>
</g>
<!-- Node6 -->
<g id="Node000006" class="node">
<title>Node6</title>
<g id="a_Node000006"><a xlink:href="class_player.html#a235c6e2e4fe87bbec295d71a31e5ead2" target="_top" xlink:title="入力を処理する">
<polygon fill="white" stroke="#666666" points="230.75,-323 128.5,-323 128.5,-303 230.75,-303 230.75,-323"/>
<text xml:space="preserve" text-anchor="middle" x="179.62" y="-309.5" font-family="Helvetica,sans-Serif" font-size="10.00">Player::HandleInput</text>
</a>
</g>
</g>
<!-- Node1&#45;&gt;Node6 -->
<g id="edge6_Node000001_Node000006" class="edge">
<title>Node1&#45;&gt;Node6</title>
<g id="a_edge6_Node000001_Node000006"><a xlink:title=" ">
<path fill="none" stroke="#63b8ff" d="M49.75,-219.27C62.66,-235.07 89.29,-265.54 117.25,-285 124.19,-289.83 132.1,-294.16 139.87,-297.89"/>
<polygon fill="#63b8ff" stroke="#63b8ff" points="138.36,-301.05 148.91,-301.98 141.24,-294.67 138.36,-301.05"/>
</a>
</g>
</g>
<!-- Node8 -->
<g id="Node000008" class="node">
<title>Node8</title>
<g id="a_Node000008"><a xlink:href="class_player.html#ab0bcce2ff453becf86020d7544a306dc" target="_top" xlink:title="アニメーションを更新する">
<polygon fill="white" stroke="#666666" points="242,-200 117.25,-200 117.25,-180 242,-180 242,-200"/>
<text xml:space="preserve" text-anchor="middle" x="179.62" y="-186.5" font-family="Helvetica,sans-Serif" font-size="10.00">Player::UpdateAnimation</text>
</a>
</g>
</g>
<!-- Node1&#45;&gt;Node8 -->
<g id="edge9_Node000001_Node000008" class="edge">
<title>Node1&#45;&gt;Node8</title>
<g id="a_edge9_Node000001_Node000008"><a xlink:title=" ">
<path fill="none" stroke="#63b8ff" d="M81.62,-203.45C89.22,-202.4 97.39,-201.27 105.65,-200.12"/>
<polygon fill="#63b8ff" stroke="#63b8ff" points="106,-203.61 115.42,-198.77 105.04,-196.67 106,-203.61"/>
</a>
</g>
</g>
<!-- Node9 -->
<g id="Node000009" class="node">
<title>Node9</title>
<g id="a_Node000009"><a xlink:href="class_player.html#a17e6f8a992c713d22e0e833398a3395b" target="_top" xlink:title="コライダー位置を更新する">
<polygon fill="white" stroke="#666666" points="427.5,-172 278,-172 278,-152 427.5,-152 427.5,-172"/>
<text xml:space="preserve" text-anchor="middle" x="352.75" y="-158.5" font-family="Helvetica,sans-Serif" font-size="10.00">Player::UpdateColliderPosition</text>
</a>
</g>
</g>
<!-- Node1&#45;&gt;Node9 -->
<g id="edge10_Node000001_Node000009" class="edge">
<title>Node1&#45;&gt;Node9</title>
<g id="a_edge10_Node000001_Node000009"><a xlink:title=" ">
<path fill="none" stroke="#63b8ff" d="M57.35,-198.57C72.12,-189.41 95.19,-176.68 117.25,-171 165.52,-158.57 221.22,-155.97 266.21,-156.64"/>
<polygon fill="#63b8ff" stroke="#63b8ff" points="266.12,-160.13 276.2,-156.85 266.27,-153.14 266.12,-160.13"/>
</a>
</g>
</g>
<!-- Node10 -->
<g id="Node000010" class="node">
<title>Node10</title>
<g id="a_Node000010"><a xlink:href="class_player.html#a81f83a6f55bec62fc908f494fd8249cc" target="_top" xlink:title="酸素を更新する">
<polygon fill="white" stroke="#666666" points="237.12,-238 122.12,-238 122.12,-218 237.12,-218 237.12,-238"/>
<text xml:space="preserve" text-anchor="middle" x="179.62" y="-224.5" font-family="Helvetica,sans-Serif" font-size="10.00">Player::UpdateOxygen</text>
</a>
</g>
</g>
<!-- Node1&#45;&gt;Node10 -->
<g id="edge11_Node000001_Node000010" class="edge">
<title>Node1&#45;&gt;Node10</title>
<g id="a_edge11_Node000001_Node000010"><a xlink:title=" ">
<path fill="none" stroke="#63b8ff" d="M81.62,-214.55C90.74,-215.81 100.69,-217.19 110.62,-218.57"/>
<polygon fill="#63b8ff" stroke="#63b8ff" points="109.9,-222 120.28,-219.91 110.86,-215.07 109.9,-222"/>
</a>
</g>
</g>
<!-- Node11 -->
<g id="Node000011" class="node">
<title>Node11</title>
<g id="a_Node000011"><a xlink:href="class_player.html#a9dbda24f6f27cb247da724a92fdd873d" target="_top" xlink:title="物理演算を更新する">
<polygon fill="white" stroke="#666666" points="237.88,-124 121.38,-124 121.38,-104 237.88,-104 237.88,-124"/>
<text xml:space="preserve" text-anchor="middle" x="179.62" y="-110.5" font-family="Helvetica,sans-Serif" font-size="10.00">Player::UpdatePhysics</text>
</a>
</g>
</g>
<!-- Node1&#45;&gt;Node11 -->
<g id="edge13_Node000001_Node000011" class="edge">
<title>Node1&#45;&gt;Node11</title>
<g id="a_edge13_Node000001_Node000011"><a xlink:title=" ">
<path fill="none" stroke="#63b8ff" d="M50.42,-198.52C63.59,-183.38 89.84,-155.31 117.25,-138 122.7,-134.56 128.73,-131.46 134.82,-128.74"/>
<polygon fill="#63b8ff" stroke="#63b8ff" points="135.73,-132.15 143.62,-125.08 133.04,-125.68 135.73,-132.15"/>
</a>
</g>
</g>
<!-- Node3 -->
<g id="Node000003" class="node">
<title>Node3</title>
<g id="a_Node000003"><a xlink:href="class_player.html#a34183eba5b1c359a41c87f8ce9b06f98" target="_top" xlink:title="酸素を回復する">
<polygon fill="white" stroke="#666666" points="412.88,-295 292.62,-295 292.62,-275 412.88,-275 412.88,-295"/>
<text xml:space="preserve" text-anchor="middle" x="352.75" y="-281.5" font-family="Helvetica,sans-Serif" font-size="10.00">Player::RecoverOxygen</text>
</a>
</g>
</g>
<!-- Node2&#45;&gt;Node3 -->
<g id="edge2_Node000002_Node000003" class="edge">
<title>Node2&#45;&gt;Node3</title>
<g id="a_edge2_Node000002_Node000003"><a xlink:title=" ">
<path fill="none" stroke="#63b8ff" d="M241.44,-272.75C254.22,-274.17 267.8,-275.68 280.92,-277.14"/>
<polygon fill="#63b8ff" stroke="#63b8ff" points="280.45,-280.61 290.78,-278.23 281.22,-273.65 280.45,-280.61"/>
</a>
</g>
</g>
<!-- Node5 -->
<g id="Node000005" class="node">
<title>Node5</title>
<g id="a_Node000005"><a xlink:href="class_player.html#a79060b32a95ca6e3f7a482b9ed45fa07" target="_top" xlink:title="ダメージを受ける">
<polygon fill="white" stroke="#666666" points="406.5,-257 299,-257 299,-237 406.5,-237 406.5,-257"/>
<text xml:space="preserve" text-anchor="middle" x="352.75" y="-243.5" font-family="Helvetica,sans-Serif" font-size="10.00">Player::TakeDamage</text>
</a>
</g>
</g>
<!-- Node2&#45;&gt;Node5 -->
<g id="edge4_Node000002_Node000005" class="edge">
<title>Node2&#45;&gt;Node5</title>
<g id="a_edge4_Node000002_Node000005"><a xlink:title=" ">
<path fill="none" stroke="#63b8ff" d="M241.44,-259.25C256.29,-257.6 272.23,-255.83 287.25,-254.16"/>
<polygon fill="#63b8ff" stroke="#63b8ff" points="287.46,-257.66 297.01,-253.08 286.69,-250.7 287.46,-257.66"/>
</a>
</g>
</g>
<!-- Node4 -->
<g id="Node000004" class="node">
<title>Node4</title>
<g id="a_Node000004"><a xlink:href="class_player.html#ac7d159c578eb4da86911b484b499766c" target="_top" xlink:title="酸素量を変更する">
<polygon fill="white" stroke="#666666" points="576.25,-276 463.5,-276 463.5,-256 576.25,-256 576.25,-276"/>
<text xml:space="preserve" text-anchor="middle" x="519.88" y="-262.5" font-family="Helvetica,sans-Serif" font-size="10.00">Player::ModifyOxygen</text>
</a>
</g>
</g>
<!-- Node3&#45;&gt;Node4 -->
<g id="edge3_Node000003_Node000004" class="edge">
<title>Node3&#45;&gt;Node4</title>
<g id="a_edge3_Node000003_Node000004"><a xlink:title=" ">
<path fill="none" stroke="#63b8ff" d="M413.36,-278.14C425.94,-276.69 439.29,-275.16 452.1,-273.68"/>
<polygon fill="#63b8ff" stroke="#63b8ff" points="452.16,-277.2 461.7,-272.58 451.36,-270.25 452.16,-277.2"/>
</a>
</g>
</g>
<!-- Node5&#45;&gt;Node4 -->
<g id="edge5_Node000005_Node000004" class="edge">
<title>Node5&#45;&gt;Node4</title>
<g id="a_edge5_Node000005_Node000004"><a xlink:title=" ">
<path fill="none" stroke="#63b8ff" d="M406.91,-253.12C421.26,-254.77 436.97,-256.58 451.97,-258.3"/>
<polygon fill="#63b8ff" stroke="#63b8ff" points="451.42,-261.76 461.76,-259.43 452.22,-254.81 451.42,-261.76"/>
</a>
</g>
</g>
<!-- Node7 -->
<g id="Node000007" class="node">
<title>Node7</title>
<g id="a_Node000007"><a xlink:href="class_player.html#a075e705cdf3b3d264c034b938e3ed500" target="_top" xlink:title="泳ぎ入力時の処理">
<polygon fill="white" stroke="#666666" points="414.38,-333 291.12,-333 291.12,-313 414.38,-313 414.38,-333"/>
<text xml:space="preserve" text-anchor="middle" x="352.75" y="-319.5" font-family="Helvetica,sans-Serif" font-size="10.00">Player::OnSwimPressed</text>
</a>
</g>
</g>
<!-- Node6&#45;&gt;Node7 -->
<g id="edge7_Node000006_Node000007" class="edge">
<title>Node6&#45;&gt;Node7</title>
<g id="a_edge7_Node000006_Node000007"><a xlink:title=" ">
<path fill="none" stroke="#63b8ff" d="M231.04,-315.95C246.26,-316.84 263.28,-317.83 279.62,-318.79"/>
<polygon fill="#63b8ff" stroke="#63b8ff" points="279.1,-322.26 289.29,-319.35 279.51,-315.27 279.1,-322.26"/>
</a>
</g>
</g>
<!-- Node7&#45;&gt;Node4 -->
<g id="edge8_Node000007_Node000004" class="edge">
<title>Node7&#45;&gt;Node4</title>
<g id="a_edge8_Node000007_Node000004"><a xlink:title=" ">
<path fill="none" stroke="#63b8ff" d="M398.51,-312.56C408.15,-310.01 418.22,-307.11 427.5,-304 447.33,-297.36 468.97,-288.44 486.2,-280.91"/>
<polygon fill="#63b8ff" stroke="#63b8ff" points="487.2,-284.3 494.93,-277.05 484.37,-277.9 487.2,-284.3"/>
</a>
</g>
</g>
<!-- Node10&#45;&gt;Node4 -->
<g id="edge12_Node000010_Node000004" class="edge">
<title>Node10&#45;&gt;Node4</title>
<g id="a_edge12_Node000010_Node000004"><a xlink:title=" ">
<path fill="none" stroke="#63b8ff" d="M237.62,-221.72C288.07,-217.65 363.4,-215.2 427.5,-228 449.27,-232.35 472.33,-241.98 489.85,-250.46"/>
<polygon fill="#63b8ff" stroke="#63b8ff" points="488.11,-253.51 498.62,-254.86 491.25,-247.25 488.11,-253.51"/>
</a>
</g>
</g>
<!-- Node11&#45;&gt;Node9 -->
<g id="edge22_Node000011_Node000009" class="edge">
<title>Node11&#45;&gt;Node9</title>
<g id="a_edge22_Node000011_Node000009"><a xlink:title=" ">
<path fill="none" stroke="#63b8ff" d="M214.33,-124.38C233.04,-130.05 256.75,-137.1 278,-143 284.77,-144.88 291.91,-146.8 298.97,-148.66"/>
<polygon fill="#63b8ff" stroke="#63b8ff" points="297.92,-152 308.48,-151.14 299.69,-145.23 297.92,-152"/>
</a>
</g>
</g>
<!-- Node12 -->
<g id="Node000012" class="node">
<title>Node12</title>
<g id="a_Node000012"><a xlink:href="class_player.html#a6540d726e6044e7a98d720484cba0b96" target="_top" xlink:title="摩擦を適用する">
<polygon fill="white" stroke="#666666" points="406.12,-20 299.38,-20 299.38,0 406.12,0 406.12,-20"/>
<text xml:space="preserve" text-anchor="middle" x="352.75" y="-6.5" font-family="Helvetica,sans-Serif" font-size="10.00">Player::ApplyFriction</text>
</a>
</g>
</g>
<!-- Node11&#45;&gt;Node12 -->
<g id="edge14_Node000011_Node000012" class="edge">
<title>Node11&#45;&gt;Node12</title>
<g id="a_edge14_Node000011_Node000012"><a xlink:title=" ">
<path fill="none" stroke="#63b8ff" d="M189.43,-103.64C205.28,-85.68 240.48,-48.77 278,-29 281.28,-27.27 284.72,-25.7 288.25,-24.26"/>
<polygon fill="#63b8ff" stroke="#63b8ff" points="289.41,-27.56 297.61,-20.87 287.02,-20.98 289.41,-27.56"/>
</a>
</g>
</g>
<!-- Node13 -->
<g id="Node000013" class="node">
<title>Node13</title>
<g id="a_Node000013"><a xlink:href="class_player.html#a34222904c837a901c35e95924e1dc2b7" target="_top" xlink:title="重力を適用する">
<polygon fill="white" stroke="#666666" points="405.75,-134 299.75,-134 299.75,-114 405.75,-114 405.75,-134"/>
<text xml:space="preserve" text-anchor="middle" x="352.75" y="-120.5" font-family="Helvetica,sans-Serif" font-size="10.00">Player::ApplyGravity</text>
</a>
</g>
</g>
<!-- Node11&#45;&gt;Node13 -->
<g id="edge15_Node000011_Node000013" class="edge">
<title>Node11&#45;&gt;Node13</title>
<g id="a_edge15_Node000011_Node000013"><a xlink:title=" ">
<path fill="none" stroke="#63b8ff" d="M238.08,-117.36C254.18,-118.3 271.76,-119.33 288.19,-120.29"/>
<polygon fill="#63b8ff" stroke="#63b8ff" points="287.64,-123.76 297.83,-120.85 288.05,-116.77 287.64,-123.76"/>
</a>
</g>
</g>
<!-- Node14 -->
<g id="Node000014" class="node">
<title>Node14</title>
<g id="a_Node000014"><a xlink:href="class_player.html#abfeffb1320e2b63619161ae38b792e11" target="_top" xlink:title="X軸方向の移動処理">
<polygon fill="white" stroke="#666666" points="393,-58 312.5,-58 312.5,-38 393,-38 393,-58"/>
<text xml:space="preserve" text-anchor="middle" x="352.75" y="-44.5" font-family="Helvetica,sans-Serif" font-size="10.00">Player::MoveX</text>
</a>
</g>
</g>
<!-- Node11&#45;&gt;Node14 -->
<g id="edge16_Node000011_Node000014" class="edge">
<title>Node11&#45;&gt;Node14</title>
<g id="a_edge16_Node000011_Node000014"><a xlink:title=" ">
<path fill="none" stroke="#63b8ff" d="M199.18,-103.68C218.42,-93.3 249.62,-77.39 278,-67 285.43,-64.28 293.41,-61.8 301.28,-59.58"/>
<polygon fill="#63b8ff" stroke="#63b8ff" points="302.05,-63 310.81,-57.03 300.24,-56.24 302.05,-63"/>
</a>
</g>
</g>
<!-- Node17 -->
<g id="Node000017" class="node">
<title>Node17</title>
<g id="a_Node000017"><a xlink:href="class_player.html#ae83f03e905e8fe4771a95345ef626d18" target="_top" xlink:title="Y軸方向の移動処理">
<polygon fill="white" stroke="#666666" points="393,-96 312.5,-96 312.5,-76 393,-76 393,-96"/>
<text xml:space="preserve" text-anchor="middle" x="352.75" y="-82.5" font-family="Helvetica,sans-Serif" font-size="10.00">Player::MoveY</text>
</a>
</g>
</g>
<!-- Node11&#45;&gt;Node17 -->
<g id="edge19_Node000011_Node000017" class="edge">
<title>Node11&#45;&gt;Node17</title>
<g id="a_edge19_Node000011_Node000017"><a xlink:title=" ">
<path fill="none" stroke="#63b8ff" d="M238.08,-104.6C258.46,-101.27 281.22,-97.54 300.99,-94.3"/>
<polygon fill="#63b8ff" stroke="#63b8ff" points="301.45,-97.78 310.76,-92.71 300.32,-90.87 301.45,-97.78"/>
</a>
</g>
</g>
<!-- Node15 -->
<g id="Node000015" class="node">
<title>Node15</title>
<g id="a_Node000015"><a xlink:href="class_stage.html#aa1ee7cbc0b2b77c60aba3665038c2e91" target="_top" xlink:title="タイルサイズを取得する">
<polygon fill="white" stroke="#666666" points="569.12,-58 470.62,-58 470.62,-38 569.12,-38 569.12,-58"/>
<text xml:space="preserve" text-anchor="middle" x="519.88" y="-44.5" font-family="Helvetica,sans-Serif" font-size="10.00">Stage::GetTileSize</text>
</a>
</g>
</g>
<!-- Node14&#45;&gt;Node15 -->
<g id="edge17_Node000014_Node000015" class="edge">
<title>Node14&#45;&gt;Node15</title>
<g id="a_edge17_Node000014_Node000015"><a xlink:title=" ">
<path fill="none" stroke="#63b8ff" d="M393.3,-48C412.87,-48 436.92,-48 458.71,-48"/>
<polygon fill="#63b8ff" stroke="#63b8ff" points="458.69,-51.5 468.69,-48 458.69,-44.5 458.69,-51.5"/>
</a>
</g>
</g>
<!-- Node16 -->
<g id="Node000016" class="node">
<title>Node16</title>
<g id="a_Node000016"><a xlink:href="class_stage.html#a95f9531749e71dfe6c880295abeb9d8c" target="_top" xlink:title="指定したワールド座標が壁タイル上かを判定する">
<polygon fill="white" stroke="#666666" points="558.62,-96 481.12,-96 481.12,-76 558.62,-76 558.62,-96"/>
<text xml:space="preserve" text-anchor="middle" x="519.88" y="-82.5" font-family="Helvetica,sans-Serif" font-size="10.00">Stage::IsSolid</text>
</a>
</g>
</g>
<!-- Node14&#45;&gt;Node16 -->
<g id="edge18_Node000014_Node000016" class="edge">
<title>Node14&#45;&gt;Node16</title>
<g id="a_edge18_Node000014_Node000016"><a xlink:title=" ">
<path fill="none" stroke="#63b8ff" d="M393.3,-57.1C416.2,-62.37 445.22,-69.05 469.6,-74.66"/>
<polygon fill="#63b8ff" stroke="#63b8ff" points="468.78,-78.06 479.31,-76.89 470.35,-71.24 468.78,-78.06"/>
</a>
</g>
</g>
<!-- Node17&#45;&gt;Node15 -->
<g id="edge20_Node000017_Node000015" class="edge">
<title>Node17&#45;&gt;Node15</title>
<g id="a_edge20_Node000017_Node000015"><a xlink:title=" ">
<path fill="none" stroke="#63b8ff" d="M393.3,-76.9C414.05,-72.12 439.82,-66.19 462.6,-60.95"/>
<polygon fill="#63b8ff" stroke="#63b8ff" points="463.08,-64.43 472.04,-58.78 461.51,-57.61 463.08,-64.43"/>
</a>
</g>
</g>
<!-- Node17&#45;&gt;Node16 -->
<g id="edge21_Node000017_Node000016" class="edge">
<title>Node17&#45;&gt;Node16</title>
<g id="a_edge21_Node000017_Node000016"><a xlink:title=" ">
<path fill="none" stroke="#63b8ff" d="M393.3,-86C416.2,-86 445.22,-86 469.6,-86"/>
<polygon fill="#63b8ff" stroke="#63b8ff" points="469.27,-89.5 479.27,-86 469.27,-82.5 469.27,-89.5"/>
</a>
</g>
</g>
</g>
</svg>
