<?xml version="1.0" encoding="UTF-8" standalone="no"?>
<!DOCTYPE svg PUBLIC "-//W3C//DTD SVG 1.1//EN"
 "http://www.w3.org/Graphics/SVG/1.1/DTD/svg11.dtd">
<!-- Generated by graphviz version 14.0.2 (20251019.1705)
 -->
<!-- Title: EnemyDataSystem::operator= Pages: 1 -->
<svg width="352pt" height="58pt"
 viewBox="0.00 0.00 352.00 58.00" xmlns="http://www.w3.org/2000/svg" xmlns:xlink="http://www.w3.org/1999/xlink">
<g id="graph0" class="graph" transform="scale(1 1) rotate(0) translate(4 54)">
<title>EnemyDataSystem::operator=</title>
<!-- Node1 -->
<g id="Node000001" class="node">
<title>Node1</title>
<g id="a_Node000001"><a xlink:title="コピー代入演算子(削除)">
<polygon fill="#999999" stroke="#666666" points="148.75,-26 0,-26 0,-6 148.75,-6 148.75,-26"/>
<text xml:space="preserve" text-anchor="middle" x="74.38" y="-12.5" font-family="Helvetica,sans-Serif" font-size="10.00">EnemyDataSystem::operator=</text>
</a>
</g>
</g>
<!-- Node2 -->
<g id="Node000002" class="node">
<title>Node2</title>
<g id="a_Node000002"><a xlink:href="class_enemy_data_system.html#aebeb46499c979e05a6e94903f74d50d8" target="_top" xlink:title="コピーコンストラクタ(削除)">
<polygon fill="white" stroke="#666666" points="344,-32 184.75,-32 184.75,0 344,0 344,-32"/>
<text xml:space="preserve" text-anchor="start" x="192.75" y="-18.5" font-family="Helvetica,sans-Serif" font-size="10.00">EnemyDataSystem::EnemyData</text>
<text xml:space="preserve" text-anchor="middle" x="264.38" y="-6.5" font-family="Helvetica,sans-Serif" font-size="10.00">System</text>
</a>
</g>
</g>
<!-- Node1&#45;&gt;Node2 -->
<g id="edge1_Node000001_Node000002" class="edge">
<title>Node1&#45;&gt;Node2</title>
<g id="a_edge1_Node000001_Node000002"><a xlink:title=" ">
<path fill="none" stroke="#63b8ff" d="M149.14,-16C157.04,-16 165.14,-16 173.2,-16"/>
<polygon fill="#63b8ff" stroke="#63b8ff" points="173.04,-19.5 183.04,-16 173.04,-12.5 173.04,-19.5"/>
</a>
</g>
</g>
<!-- Node2&#45;&gt;Node2 -->
<g id="edge2_Node000002_Node000002" class="edge">
<title>Node2&#45;&gt;Node2</title>
<g id="a_edge2_Node000002_Node000002"><a xlink:title=" ">
<path fill="none" stroke="#63b8ff" d="M230.45,-32.44C224.12,-41.58 235.43,-50 264.38,-50 280.2,-50 290.76,-47.48 296.04,-43.71"/>
<polygon fill="#63b8ff" stroke="#63b8ff" points="299.46,-44.42 298,-33.93 292.6,-43.04 299.46,-44.42"/>
</a>
</g>
</g>
</g>
</svg>
