<?xml version="1.0" encoding="UTF-8" standalone="no"?>
<!DOCTYPE svg PUBLIC "-//W3C//DTD SVG 1.1//EN"
 "http://www.w3.org/Graphics/SVG/1.1/DTD/svg11.dtd">
<!-- Generated by graphviz version 14.0.2 (20251019.1705)
 -->
<!-- Title: Player::UpdatePhysics Pages: 1 -->
<svg width="445pt" height="180pt"
 viewBox="0.00 0.00 445.00 180.00" xmlns="http://www.w3.org/2000/svg" xmlns:xlink="http://www.w3.org/1999/xlink">
<g id="graph0" class="graph" transform="scale(1 1) rotate(0) translate(4 176)">
<title>Player::UpdatePhysics</title>
<!-- Node1 -->
<g id="Node000001" class="node">
<title>Node1</title>
<g id="a_Node000001"><a xlink:title="物理演算を更新する">
<polygon fill="#999999" stroke="#666666" points="116.5,-96 0,-96 0,-76 116.5,-76 116.5,-96"/>
<text xml:space="preserve" text-anchor="middle" x="58.25" y="-82.5" font-family="Helvetica,sans-Serif" font-size="10.00">Player::UpdatePhysics</text>
</a>
</g>
</g>
<!-- Node2 -->
<g id="Node000002" class="node">
<title>Node2</title>
<g id="a_Node000002"><a xlink:href="class_player.html#a6540d726e6044e7a98d720484cba0b96" target="_top" xlink:title="摩擦を適用する">
<polygon fill="white" stroke="#666666" points="280.62,-172 173.88,-172 173.88,-152 280.62,-152 280.62,-172"/>
<text xml:space="preserve" text-anchor="middle" x="227.25" y="-158.5" font-family="Helvetica,sans-Serif" font-size="10.00">Player::ApplyFriction</text>
</a>
</g>
</g>
<!-- Node1&#45;&gt;Node2 -->
<g id="edge1_Node000001_Node000002" class="edge">
<title>Node1&#45;&gt;Node2</title>
<g id="a_edge1_Node000001_Node000002"><a xlink:title=" ">
<path fill="none" stroke="#63b8ff" d="M73.38,-96.5C91.05,-109.17 122.62,-130.35 152.5,-143 156.88,-144.86 161.49,-146.56 166.18,-148.13"/>
<polygon fill="#63b8ff" stroke="#63b8ff" points="165.14,-151.48 175.73,-151.09 167.21,-144.79 165.14,-151.48"/>
</a>
</g>
</g>
<!-- Node3 -->
<g id="Node000003" class="node">
<title>Node3</title>
<g id="a_Node000003"><a xlink:href="class_player.html#a34222904c837a901c35e95924e1dc2b7" target="_top" xlink:title="重力を適用する">
<polygon fill="white" stroke="#666666" points="280.25,-134 174.25,-134 174.25,-114 280.25,-114 280.25,-134"/>
<text xml:space="preserve" text-anchor="middle" x="227.25" y="-120.5" font-family="Helvetica,sans-Serif" font-size="10.00">Player::ApplyGravity</text>
</a>
</g>
</g>
<!-- Node1&#45;&gt;Node3 -->
<g id="edge2_Node000001_Node000003" class="edge">
<title>Node1&#45;&gt;Node3</title>
<g id="a_edge2_Node000001_Node000003"><a xlink:title=" ">
<path fill="none" stroke="#63b8ff" d="M105.33,-96.48C125.13,-100.99 148.48,-106.3 169.35,-111.05"/>
<polygon fill="#63b8ff" stroke="#63b8ff" points="168.32,-114.41 178.85,-113.21 169.87,-107.58 168.32,-114.41"/>
</a>
</g>
</g>
<!-- Node4 -->
<g id="Node000004" class="node">
<title>Node4</title>
<g id="a_Node000004"><a xlink:href="class_player.html#abfeffb1320e2b63619161ae38b792e11" target="_top" xlink:title="X軸方向の移動処理">
<polygon fill="white" stroke="#666666" points="267.5,-58 187,-58 187,-38 267.5,-38 267.5,-58"/>
<text xml:space="preserve" text-anchor="middle" x="227.25" y="-44.5" font-family="Helvetica,sans-Serif" font-size="10.00">Player::MoveX</text>
</a>
</g>
</g>
<!-- Node1&#45;&gt;Node4 -->
<g id="edge3_Node000001_Node000004" class="edge">
<title>Node1&#45;&gt;Node4</title>
<g id="a_edge3_Node000001_Node000004"><a xlink:title=" ">
<path fill="none" stroke="#63b8ff" d="M105.33,-75.52C127.13,-70.55 153.23,-64.62 175.59,-59.53"/>
<polygon fill="#63b8ff" stroke="#63b8ff" points="176.11,-63 185.09,-57.37 174.56,-56.17 176.11,-63"/>
</a>
</g>
</g>
<!-- Node7 -->
<g id="Node000007" class="node">
<title>Node7</title>
<g id="a_Node000007"><a xlink:href="class_player.html#ae83f03e905e8fe4771a95345ef626d18" target="_top" xlink:title="Y軸方向の移動処理">
<polygon fill="white" stroke="#666666" points="267.5,-96 187,-96 187,-76 267.5,-76 267.5,-96"/>
<text xml:space="preserve" text-anchor="middle" x="227.25" y="-82.5" font-family="Helvetica,sans-Serif" font-size="10.00">Player::MoveY</text>
</a>
</g>
</g>
<!-- Node1&#45;&gt;Node7 -->
<g id="edge6_Node000001_Node000007" class="edge">
<title>Node1&#45;&gt;Node7</title>
<g id="a_edge6_Node000001_Node000007"><a xlink:title=" ">
<path fill="none" stroke="#63b8ff" d="M116.72,-86C135.7,-86 156.66,-86 175.13,-86"/>
<polygon fill="#63b8ff" stroke="#63b8ff" points="175.05,-89.5 185.05,-86 175.05,-82.5 175.05,-89.5"/>
</a>
</g>
</g>
<!-- Node8 -->
<g id="Node000008" class="node">
<title>Node8</title>
<g id="a_Node000008"><a xlink:href="class_player.html#a17e6f8a992c713d22e0e833398a3395b" target="_top" xlink:title="コライダー位置を更新する">
<polygon fill="white" stroke="#666666" points="302,-20 152.5,-20 152.5,0 302,0 302,-20"/>
<text xml:space="preserve" text-anchor="middle" x="227.25" y="-6.5" font-family="Helvetica,sans-Serif" font-size="10.00">Player::UpdateColliderPosition</text>
</a>
</g>
</g>
<!-- Node1&#45;&gt;Node8 -->
<g id="edge9_Node000001_Node000008" class="edge">
<title>Node1&#45;&gt;Node8</title>
<g id="a_edge9_Node000001_Node000008"><a xlink:title=" ">
<path fill="none" stroke="#63b8ff" d="M73.38,-75.5C91.05,-62.83 122.62,-41.65 152.5,-29 156.88,-27.14 161.49,-25.44 166.18,-23.87"/>
<polygon fill="#63b8ff" stroke="#63b8ff" points="167.21,-27.21 175.73,-20.91 165.14,-20.52 167.21,-27.21"/>
</a>
</g>
</g>
<!-- Node5 -->
<g id="Node000005" class="node">
<title>Node5</title>
<g id="a_Node000005"><a xlink:href="class_stage.html#aa1ee7cbc0b2b77c60aba3665038c2e91" target="_top" xlink:title="タイルサイズを取得する">
<polygon fill="white" stroke="#666666" points="436.5,-96 338,-96 338,-76 436.5,-76 436.5,-96"/>
<text xml:space="preserve" text-anchor="middle" x="387.25" y="-82.5" font-family="Helvetica,sans-Serif" font-size="10.00">Stage::GetTileSize</text>
</a>
</g>
</g>
<!-- Node4&#45;&gt;Node5 -->
<g id="edge4_Node000004_Node000005" class="edge">
<title>Node4&#45;&gt;Node5</title>
<g id="a_edge4_Node000004_Node000005"><a xlink:title=" ">
<path fill="none" stroke="#63b8ff" d="M267.71,-57.49C287.08,-62.15 310.72,-67.84 331.78,-72.9"/>
<polygon fill="#63b8ff" stroke="#63b8ff" points="330.84,-76.27 341.38,-75.21 332.47,-69.47 330.84,-76.27"/>
</a>
</g>
</g>
<!-- Node6 -->
<g id="Node000006" class="node">
<title>Node6</title>
<g id="a_Node000006"><a xlink:href="class_stage.html#a95f9531749e71dfe6c880295abeb9d8c" target="_top" xlink:title="指定したワールド座標が壁タイル上かを判定する">
<polygon fill="white" stroke="#666666" points="426,-58 348.5,-58 348.5,-38 426,-38 426,-58"/>
<text xml:space="preserve" text-anchor="middle" x="387.25" y="-44.5" font-family="Helvetica,sans-Serif" font-size="10.00">Stage::IsSolid</text>
</a>
</g>
</g>
<!-- Node4&#45;&gt;Node6 -->
<g id="edge5_Node000004_Node000006" class="edge">
<title>Node4&#45;&gt;Node6</title>
<g id="a_edge5_Node000004_Node000006"><a xlink:title=" ">
<path fill="none" stroke="#63b8ff" d="M267.71,-48C288.65,-48 314.58,-48 336.84,-48"/>
<polygon fill="#63b8ff" stroke="#63b8ff" points="336.59,-51.5 346.59,-48 336.59,-44.5 336.59,-51.5"/>
</a>
</g>
</g>
<!-- Node7&#45;&gt;Node5 -->
<g id="edge7_Node000007_Node000005" class="edge">
<title>Node7&#45;&gt;Node5</title>
<g id="a_edge7_Node000007_Node000005"><a xlink:title=" ">
<path fill="none" stroke="#63b8ff" d="M267.71,-86C285.44,-86 306.74,-86 326.37,-86"/>
<polygon fill="#63b8ff" stroke="#63b8ff" points="326.18,-89.5 336.18,-86 326.18,-82.5 326.18,-89.5"/>
</a>
</g>
</g>
<!-- Node7&#45;&gt;Node6 -->
<g id="edge8_Node000007_Node000006" class="edge">
<title>Node7&#45;&gt;Node6</title>
<g id="a_edge8_Node000007_Node000006"><a xlink:title=" ">
<path fill="none" stroke="#63b8ff" d="M267.71,-76.51C288.75,-71.45 314.82,-65.18 337.15,-59.81"/>
<polygon fill="#63b8ff" stroke="#63b8ff" points="337.73,-63.27 346.64,-57.53 336.09,-56.46 337.73,-63.27"/>
</a>
</g>
</g>
</g>
</svg>
