<?xml version="1.0" encoding="UTF-8" standalone="no"?>
<!DOCTYPE svg PUBLIC "-//W3C//DTD SVG 1.1//EN"
 "http://www.w3.org/Graphics/SVG/1.1/DTD/svg11.dtd">
<!-- Generated by graphviz version 14.0.2 (20251019.1705)
 -->
<!-- Title: AssetSystem::AssetSystem Pages: 1 -->
<svg width="491pt" height="85pt"
 viewBox="0.00 0.00 491.00 85.00" xmlns="http://www.w3.org/2000/svg" xmlns:xlink="http://www.w3.org/1999/xlink">
<g id="graph0" class="graph" transform="scale(1 1) rotate(0) translate(4 81)">
<title>AssetSystem::AssetSystem</title>
<!-- Node1 -->
<g id="Node000001" class="node">
<title>Node1</title>
<g id="a_Node000001"><a xlink:title="コピーコンストラクタ(削除)">
<polygon fill="#999999" stroke="#666666" points="483,-39 342.5,-39 342.5,-19 483,-19 483,-39"/>
<text xml:space="preserve" text-anchor="middle" x="412.75" y="-25.5" font-family="Helvetica,sans-Serif" font-size="10.00">AssetSystem::AssetSystem</text>
</a>
</g>
</g>
<!-- Node1&#45;&gt;Node1 -->
<g id="edge1_Node000001_Node000001" class="edge">
<title>Node1&#45;&gt;Node1</title>
<g id="a_edge1_Node000001_Node000001"><a xlink:title=" ">
<path fill="none" stroke="#63b8ff" d="M443.74,-50.11C440.04,-54.14 429.71,-57 412.75,-57 382.59,-57 373.4,-47.98 385.18,-39.34"/>
<polygon fill="#63b8ff" stroke="#63b8ff" points="447.14,-49.25 440.78,-40.78 440.47,-51.37 447.14,-49.25"/>
</a>
</g>
</g>
<!-- Node2 -->
<g id="Node000002" class="node">
<title>Node2</title>
<g id="a_Node000002"><a xlink:href="class_asset_system.html#ac182714115a88042762b2c178a6865ca" target="_top" xlink:title="シングルトンインスタンスを取得する">
<polygon fill="white" stroke="#666666" points="306.5,-58 172,-58 172,-38 306.5,-38 306.5,-58"/>
<text xml:space="preserve" text-anchor="middle" x="239.25" y="-44.5" font-family="Helvetica,sans-Serif" font-size="10.00">AssetSystem::GetInstance</text>
</a>
</g>
</g>
<!-- Node1&#45;&gt;Node2 -->
<g id="edge2_Node000001_Node000002" class="edge">
<title>Node1&#45;&gt;Node2</title>
<g id="a_edge2_Node000001_Node000002"><a xlink:title=" ">
<path fill="none" stroke="#63b8ff" d="M331.13,-37.93C323.05,-38.83 314.9,-39.73 306.99,-40.61"/>
<polygon fill="#63b8ff" stroke="#63b8ff" points="331.43,-41.42 340.98,-36.84 330.66,-34.46 331.43,-41.42"/>
</a>
</g>
</g>
<!-- Node5 -->
<g id="Node000005" class="node">
<title>Node5</title>
<g id="a_Node000005"><a xlink:href="class_asset_system.html#af585580f85ed1c4eaf30b2b2de0156b5" target="_top" xlink:title="コピー代入演算子(削除)">
<polygon fill="white" stroke="#666666" points="300.5,-20 178,-20 178,0 300.5,0 300.5,-20"/>
<text xml:space="preserve" text-anchor="middle" x="239.25" y="-6.5" font-family="Helvetica,sans-Serif" font-size="10.00">AssetSystem::operator=</text>
</a>
</g>
</g>
<!-- Node1&#45;&gt;Node5 -->
<g id="edge5_Node000001_Node000005" class="edge">
<title>Node1&#45;&gt;Node5</title>
<g id="a_edge5_Node000001_Node000005"><a xlink:title=" ">
<path fill="none" stroke="#63b8ff" d="M331.1,-20.07C320.95,-18.94 310.71,-17.81 300.94,-16.72"/>
<polygon fill="#63b8ff" stroke="#63b8ff" points="330.66,-23.54 340.98,-21.16 331.43,-16.58 330.66,-23.54"/>
</a>
</g>
</g>
<!-- Node3 -->
<g id="Node000003" class="node">
<title>Node3</title>
<g id="a_Node000003"><a xlink:href="class_game_scene.html#aa0fa2a98f139524a96ffb9d25252b145" target="_top" xlink:title="コンストラクタ">
<polygon fill="white" stroke="#666666" points="133,-77 3,-77 3,-57 133,-57 133,-77"/>
<text xml:space="preserve" text-anchor="middle" x="68" y="-63.5" font-family="Helvetica,sans-Serif" font-size="10.00">GameScene::GameScene</text>
</a>
</g>
</g>
<!-- Node2&#45;&gt;Node3 -->
<g id="edge3_Node000002_Node000003" class="edge">
<title>Node2&#45;&gt;Node3</title>
<g id="a_edge3_Node000002_Node000003"><a xlink:title=" ">
<path fill="none" stroke="#63b8ff" d="M160.42,-56.74C151.34,-57.76 142.15,-58.79 133.28,-59.78"/>
<polygon fill="#63b8ff" stroke="#63b8ff" points="160.79,-60.22 170.34,-55.62 160.01,-53.26 160.79,-60.22"/>
</a>
</g>
</g>
<!-- Node4 -->
<g id="Node000004" class="node">
<title>Node4</title>
<g id="a_Node000004"><a xlink:href="class_game_scene.html#a921b4236d2a999c3b5edd8fe1d9086e1" target="_top" xlink:title="デストラクタ">
<polygon fill="white" stroke="#666666" points="136,-39 0,-39 0,-19 136,-19 136,-39"/>
<text xml:space="preserve" text-anchor="middle" x="68" y="-25.5" font-family="Helvetica,sans-Serif" font-size="10.00">GameScene::~GameScene</text>
</a>
</g>
</g>
<!-- Node2&#45;&gt;Node4 -->
<g id="edge4_Node000002_Node000004" class="edge">
<title>Node2&#45;&gt;Node4</title>
<g id="a_edge4_Node000002_Node000004"><a xlink:title=" ">
<path fill="none" stroke="#63b8ff" d="M160.51,-39.27C152.44,-38.37 144.28,-37.45 136.33,-36.56"/>
<polygon fill="#63b8ff" stroke="#63b8ff" points="160.01,-42.74 170.34,-40.38 160.79,-35.78 160.01,-42.74"/>
</a>
</g>
</g>
</g>
</svg>
