<?xml version="1.0" encoding="UTF-8" standalone="no"?>
<!DOCTYPE svg PUBLIC "-//W3C//DTD SVG 1.1//EN"
 "http://www.w3.org/Graphics/SVG/1.1/DTD/svg11.dtd">
<!-- Generated by graphviz version 14.0.2 (20251019.1705)
 -->
<!-- Title: GameScene::GameScene Pages: 1 -->
<svg width="891pt" height="166pt"
 viewBox="0.00 0.00 891.00 166.00" xmlns="http://www.w3.org/2000/svg" xmlns:xlink="http://www.w3.org/1999/xlink">
<g id="graph0" class="graph" transform="scale(1 1) rotate(0) translate(4 162)">
<title>GameScene::GameScene</title>
<!-- Node1 -->
<g id="Node000001" class="node">
<title>Node1</title>
<g id="a_Node000001"><a xlink:title="コンストラクタ">
<polygon fill="#999999" stroke="#666666" points="130,-77 0,-77 0,-57 130,-57 130,-77"/>
<text xml:space="preserve" text-anchor="middle" x="65" y="-63.5" font-family="Helvetica,sans-Serif" font-size="10.00">GameScene::GameScene</text>
</a>
</g>
</g>
<!-- Node2 -->
<g id="Node000002" class="node">
<title>Node2</title>
<g id="a_Node000002"><a xlink:href="class_asset_system.html#ac182714115a88042762b2c178a6865ca" target="_top" xlink:title="シングルトンインスタンスを取得する">
<polygon fill="white" stroke="#666666" points="310.25,-137 175.75,-137 175.75,-117 310.25,-117 310.25,-137"/>
<text xml:space="preserve" text-anchor="middle" x="243" y="-123.5" font-family="Helvetica,sans-Serif" font-size="10.00">AssetSystem::GetInstance</text>
</a>
</g>
</g>
<!-- Node1&#45;&gt;Node2 -->
<g id="edge1_Node000001_Node000002" class="edge">
<title>Node1&#45;&gt;Node2</title>
<g id="a_edge1_Node000001_Node000002"><a xlink:title=" ">
<path fill="none" stroke="#63b8ff" d="M91.69,-77.42C111.77,-85.41 140.46,-96.47 166,-105 174.52,-107.85 183.64,-110.67 192.51,-113.31"/>
<polygon fill="#63b8ff" stroke="#63b8ff" points="191.51,-116.66 202.09,-116.1 193.47,-109.94 191.51,-116.66"/>
</a>
</g>
</g>
<!-- Node4 -->
<g id="Node000004" class="node">
<title>Node4</title>
<g id="a_Node000004"><a xlink:href="class_asset_system.html#a38216f3fc1a218b4cf6910e8ed455be9" target="_top" xlink:title="指定したシーン名のアセットを準備する">
<polygon fill="white" stroke="#666666" points="315.88,-96 170.12,-96 170.12,-76 315.88,-76 315.88,-96"/>
<text xml:space="preserve" text-anchor="middle" x="243" y="-82.5" font-family="Helvetica,sans-Serif" font-size="10.00">AssetSystem::PrepareAssets</text>
</a>
</g>
</g>
<!-- Node1&#45;&gt;Node4 -->
<g id="edge4_Node000001_Node000004" class="edge">
<title>Node1&#45;&gt;Node4</title>
<g id="a_edge4_Node000001_Node000004"><a xlink:title=" ">
<path fill="none" stroke="#63b8ff" d="M130.04,-73.91C139.29,-74.91 148.93,-75.95 158.5,-76.99"/>
<polygon fill="#63b8ff" stroke="#63b8ff" points="157.84,-80.44 168.16,-78.03 158.59,-73.48 157.84,-80.44"/>
</a>
</g>
</g>
<!-- Node9 -->
<g id="Node000009" class="node">
<title>Node9</title>
<g id="a_Node000009"><a xlink:href="class_game_scene.html#a2ed65c70bb08a871fb40b321bfa59457" target="_top" xlink:title="エンティティをスポーンする">
<polygon fill="white" stroke="#666666" points="312.5,-58 173.5,-58 173.5,-38 312.5,-38 312.5,-58"/>
<text xml:space="preserve" text-anchor="middle" x="243" y="-44.5" font-family="Helvetica,sans-Serif" font-size="10.00">GameScene::SpawnEntities</text>
</a>
</g>
</g>
<!-- Node1&#45;&gt;Node9 -->
<g id="edge9_Node000001_Node000009" class="edge">
<title>Node1&#45;&gt;Node9</title>
<g id="a_edge9_Node000001_Node000009"><a xlink:title=" ">
<path fill="none" stroke="#63b8ff" d="M130.04,-60.09C140.47,-58.96 151.39,-57.78 162.14,-56.62"/>
<polygon fill="#63b8ff" stroke="#63b8ff" points="162.19,-60.14 171.76,-55.58 161.44,-53.18 162.19,-60.14"/>
</a>
</g>
</g>
<!-- Node10 -->
<g id="Node000010" class="node">
<title>Node10</title>
<g id="a_Node000010"><a xlink:href="class_game_scene.html#a1717f5abe6408c41d43fc54a5e2c5314" target="_top" xlink:title="BGM再生を開始または遅延させる">
<polygon fill="white" stroke="#666666" points="320,-20 166,-20 166,0 320,0 320,-20"/>
<text xml:space="preserve" text-anchor="middle" x="243" y="-6.5" font-family="Helvetica,sans-Serif" font-size="10.00">GameScene::StartOrDeferBGM</text>
</a>
</g>
</g>
<!-- Node1&#45;&gt;Node10 -->
<g id="edge10_Node000001_Node000010" class="edge">
<title>Node1&#45;&gt;Node10</title>
<g id="a_edge10_Node000001_Node000010"><a xlink:title=" ">
<path fill="none" stroke="#63b8ff" d="M90.78,-56.64C110.84,-48.49 139.95,-37.17 166,-29 172.23,-27.04 178.81,-25.15 185.37,-23.37"/>
<polygon fill="#63b8ff" stroke="#63b8ff" points="186.1,-26.8 194.88,-20.87 184.32,-20.03 186.1,-26.8"/>
</a>
</g>
</g>
<!-- Node3 -->
<g id="Node000003" class="node">
<title>Node3</title>
<g id="a_Node000003"><a xlink:href="class_asset_system.html#a01eef25242d94de3e93ac0644a269127" target="_top" xlink:title="コピーコンストラクタ(削除)">
<polygon fill="white" stroke="#666666" points="504.75,-140 364.25,-140 364.25,-120 504.75,-120 504.75,-140"/>
<text xml:space="preserve" text-anchor="middle" x="434.5" y="-126.5" font-family="Helvetica,sans-Serif" font-size="10.00">AssetSystem::AssetSystem</text>
</a>
</g>
</g>
<!-- Node2&#45;&gt;Node3 -->
<g id="edge2_Node000002_Node000003" class="edge">
<title>Node2&#45;&gt;Node3</title>
<g id="a_edge2_Node000002_Node000003"><a xlink:title=" ">
<path fill="none" stroke="#63b8ff" d="M310.54,-128.05C324.18,-128.27 338.67,-128.5 352.73,-128.72"/>
<polygon fill="#63b8ff" stroke="#63b8ff" points="352.34,-132.22 362.39,-128.87 352.45,-125.22 352.34,-132.22"/>
</a>
</g>
</g>
<!-- Node3&#45;&gt;Node3 -->
<g id="edge3_Node000003_Node000003" class="edge">
<title>Node3&#45;&gt;Node3</title>
<g id="a_edge3_Node000003_Node000003"><a xlink:title=" ">
<path fill="none" stroke="#63b8ff" d="M404.43,-140.34C391.58,-148.98 401.6,-158 434.5,-158 453,-158 464.27,-155.14 468.3,-151.11"/>
<polygon fill="#63b8ff" stroke="#63b8ff" points="471.65,-150.07 465.07,-141.77 465.03,-152.36 471.65,-150.07"/>
</a>
</g>
</g>
<!-- Node5 -->
<g id="Node000005" class="node">
<title>Node5</title>
<g id="a_Node000005"><a xlink:href="class_asset_system.html#a89836a6278b0d4237fe0efc49906e437" target="_top" xlink:title="アセットを登録してロードする">
<polygon fill="white" stroke="#666666" points="502.12,-102 366.88,-102 366.88,-70 502.12,-70 502.12,-102"/>
<text xml:space="preserve" text-anchor="start" x="374.88" y="-88.5" font-family="Helvetica,sans-Serif" font-size="10.00">AssetSystem::RegisterAnd</text>
<text xml:space="preserve" text-anchor="middle" x="434.5" y="-76.5" font-family="Helvetica,sans-Serif" font-size="10.00">LoadAsset</text>
</a>
</g>
</g>
<!-- Node4&#45;&gt;Node5 -->
<g id="edge5_Node000004_Node000005" class="edge">
<title>Node4&#45;&gt;Node5</title>
<g id="a_edge5_Node000004_Node000005"><a xlink:title=" ">
<path fill="none" stroke="#63b8ff" d="M316.18,-86C328.96,-86 342.33,-86 355.27,-86"/>
<polygon fill="#63b8ff" stroke="#63b8ff" points="354.99,-89.5 364.99,-86 354.99,-82.5 354.99,-89.5"/>
</a>
</g>
</g>
<!-- Node6 -->
<g id="Node000006" class="node">
<title>Node6</title>
<g id="a_Node000006"><a xlink:href="class_asset_system.html#ab7a0d836fbd30a0f29e661f9832a15b4" target="_top" xlink:title="現在のシーンのアセット登録をすべて解除する">
<polygon fill="white" stroke="#666666" points="513,-52 356,-52 356,-32 513,-32 513,-52"/>
<text xml:space="preserve" text-anchor="middle" x="434.5" y="-38.5" font-family="Helvetica,sans-Serif" font-size="10.00">AssetSystem::UnregisterAssets</text>
</a>
</g>
</g>
<!-- Node4&#45;&gt;Node6 -->
<g id="edge6_Node000004_Node000006" class="edge">
<title>Node4&#45;&gt;Node6</title>
<g id="a_edge6_Node000004_Node000006"><a xlink:title=" ">
<path fill="none" stroke="#63b8ff" d="M288.91,-75.57C315.48,-69.4 349.36,-61.54 377.65,-54.97"/>
<polygon fill="#63b8ff" stroke="#63b8ff" points="378.16,-58.44 387.11,-52.77 376.58,-51.62 378.16,-58.44"/>
</a>
</g>
</g>
<!-- Node7 -->
<g id="Node000007" class="node">
<title>Node7</title>
<g id="a_Node000007"><a xlink:href="class_asset_system.html#a88219cddf418f7a49d68ec447eb8ed13" target="_top" xlink:title="非同期ロードが完了するまで待機する">
<polygon fill="white" stroke="#666666" points="698.5,-52 549,-52 549,-32 698.5,-32 698.5,-52"/>
<text xml:space="preserve" text-anchor="middle" x="623.75" y="-38.5" font-family="Helvetica,sans-Serif" font-size="10.00">AssetSystem::WaitUntilReady</text>
</a>
</g>
</g>
<!-- Node6&#45;&gt;Node7 -->
<g id="edge7_Node000006_Node000007" class="edge">
<title>Node6&#45;&gt;Node7</title>
<g id="a_edge7_Node000006_Node000007"><a xlink:title=" ">
<path fill="none" stroke="#63b8ff" d="M513.28,-42C521.12,-42 529.1,-42 537.01,-42"/>
<polygon fill="#63b8ff" stroke="#63b8ff" points="537,-45.5 547,-42 537,-38.5 537,-45.5"/>
</a>
</g>
</g>
<!-- Node8 -->
<g id="Node000008" class="node">
<title>Node8</title>
<g id="a_Node000008"><a xlink:href="class_asset_system.html#a8699ee18bd398670439d3b6340e1f1dc" target="_top" xlink:title="現在のシーンのアセット非同期ロードが完了したか">
<polygon fill="white" stroke="#666666" points="882.5,-58 734.5,-58 734.5,-26 882.5,-26 882.5,-58"/>
<text xml:space="preserve" text-anchor="start" x="742.5" y="-44.5" font-family="Helvetica,sans-Serif" font-size="10.00">AssetSystem::IsSceneAssets</text>
<text xml:space="preserve" text-anchor="middle" x="808.5" y="-32.5" font-family="Helvetica,sans-Serif" font-size="10.00">Ready</text>
</a>
</g>
</g>
<!-- Node7&#45;&gt;Node8 -->
<g id="edge8_Node000007_Node000008" class="edge">
<title>Node7&#45;&gt;Node8</title>
<g id="a_edge8_Node000007_Node000008"><a xlink:title=" ">
<path fill="none" stroke="#63b8ff" d="M698.82,-42C706.75,-42 714.87,-42 722.92,-42"/>
<polygon fill="#63b8ff" stroke="#63b8ff" points="722.7,-45.5 732.7,-42 722.7,-38.5 722.7,-45.5"/>
</a>
</g>
</g>
</g>
</svg>
