<?xml version="1.0" encoding="UTF-8" standalone="no"?>
<!DOCTYPE svg PUBLIC "-//W3C//DTD SVG 1.1//EN"
 "http://www.w3.org/Graphics/SVG/1.1/DTD/svg11.dtd">
<!-- Generated by graphviz version 14.0.2 (20251019.1705)
 -->
<!-- Title: EnemyDataSystem::TryGetSpec Pages: 1 -->
<svg width="401pt" height="142pt"
 viewBox="0.00 0.00 401.00 142.00" xmlns="http://www.w3.org/2000/svg" xmlns:xlink="http://www.w3.org/1999/xlink">
<g id="graph0" class="graph" transform="scale(1 1) rotate(0) translate(4 138)">
<title>EnemyDataSystem::TryGetSpec</title>
<!-- Node1 -->
<g id="Node000001" class="node">
<title>Node1</title>
<g id="a_Node000001"><a xlink:title="指定したタイプの敵仕様を取得する">
<polygon fill="#999999" stroke="#666666" points="160,-77 0,-77 0,-57 160,-57 160,-77"/>
<text xml:space="preserve" text-anchor="middle" x="80" y="-63.5" font-family="Helvetica,sans-Serif" font-size="10.00">EnemyDataSystem::TryGetSpec</text>
</a>
</g>
</g>
<!-- Node2 -->
<g id="Node000002" class="node">
<title>Node2</title>
<g id="a_Node000002"><a xlink:href="class_enemy_data_system.html#acf1448f15bf85d29c0391a3067608e06" target="_top" xlink:title="JSON全体が有効にロードされているか">
<polygon fill="white" stroke="#666666" points="368,-134 220.75,-134 220.75,-114 368,-114 368,-134"/>
<text xml:space="preserve" text-anchor="middle" x="294.38" y="-120.5" font-family="Helvetica,sans-Serif" font-size="10.00">EnemyDataSystem::IsLoaded</text>
</a>
</g>
</g>
<!-- Node1&#45;&gt;Node2 -->
<g id="edge1_Node000001_Node000002" class="edge">
<title>Node1&#45;&gt;Node2</title>
<g id="a_edge1_Node000001_Node000002"><a xlink:title=" ">
<path fill="none" stroke="#63b8ff" d="M109.06,-77.38C132.16,-85.65 165.89,-97.12 196,-105 204.44,-107.21 213.34,-109.28 222.21,-111.2"/>
<polygon fill="#63b8ff" stroke="#63b8ff" points="221.38,-114.6 231.89,-113.22 222.81,-107.75 221.38,-114.6"/>
</a>
</g>
</g>
<!-- Node3 -->
<g id="Node000003" class="node">
<title>Node3</title>
<g id="a_Node000003"><a xlink:href="class_enemy_data_system.html#ad376a72c69f9b70a320793de24354fb9" target="_top" xlink:title="JSONからアニメーション仕様を読み込む">
<polygon fill="white" stroke="#666666" points="392.75,-96 196,-96 196,-76 392.75,-76 392.75,-96"/>
<text xml:space="preserve" text-anchor="middle" x="294.38" y="-82.5" font-family="Helvetica,sans-Serif" font-size="10.00">EnemyDataSystem::ReadAnimationSpec</text>
</a>
</g>
</g>
<!-- Node1&#45;&gt;Node3 -->
<g id="edge2_Node000001_Node000003" class="edge">
<title>Node1&#45;&gt;Node3</title>
<g id="a_edge2_Node000001_Node000003"><a xlink:title=" ">
<path fill="none" stroke="#63b8ff" d="M160.38,-74.1C168.23,-74.8 176.29,-75.52 184.37,-76.25"/>
<polygon fill="#63b8ff" stroke="#63b8ff" points="184,-79.73 194.27,-77.13 184.63,-72.76 184,-79.73"/>
</a>
</g>
</g>
<!-- Node4 -->
<g id="Node000004" class="node">
<title>Node4</title>
<g id="a_Node000004"><a xlink:href="class_enemy_data_system.html#a9f4c5889c6e8423ee0454b411dba775d" target="_top" xlink:title="文字列を行動パターンに変換する">
<polygon fill="white" stroke="#666666" points="382.25,-58 206.5,-58 206.5,-38 382.25,-38 382.25,-58"/>
<text xml:space="preserve" text-anchor="middle" x="294.38" y="-44.5" font-family="Helvetica,sans-Serif" font-size="10.00">EnemyDataSystem::ToBehaviorKind</text>
</a>
</g>
</g>
<!-- Node1&#45;&gt;Node4 -->
<g id="edge3_Node000001_Node000004" class="edge">
<title>Node1&#45;&gt;Node4</title>
<g id="a_edge3_Node000001_Node000004"><a xlink:title=" ">
<path fill="none" stroke="#63b8ff" d="M160.38,-59.9C171.72,-58.88 183.5,-57.83 195.14,-56.79"/>
<polygon fill="#63b8ff" stroke="#63b8ff" points="195.1,-60.31 204.74,-55.93 194.47,-53.33 195.1,-60.31"/>
</a>
</g>
</g>
<!-- Node5 -->
<g id="Node000005" class="node">
<title>Node5</title>
<g id="a_Node000005"><a xlink:href="class_enemy_data_system.html#a3e7bee306ac8573953a1c4a565abe514" target="_top" xlink:title="文字列をコライダー図形に変換する">
<polygon fill="white" stroke="#666666" points="379.62,-20 209.12,-20 209.12,0 379.62,0 379.62,-20"/>
<text xml:space="preserve" text-anchor="middle" x="294.38" y="-6.5" font-family="Helvetica,sans-Serif" font-size="10.00">EnemyDataSystem::ToColliderKind</text>
</a>
</g>
</g>
<!-- Node1&#45;&gt;Node5 -->
<g id="edge4_Node000001_Node000005" class="edge">
<title>Node1&#45;&gt;Node5</title>
<g id="a_edge4_Node000001_Node000005"><a xlink:title=" ">
<path fill="none" stroke="#63b8ff" d="M109.06,-56.62C132.16,-48.35 165.89,-36.88 196,-29 204.44,-26.79 213.34,-24.72 222.21,-22.8"/>
<polygon fill="#63b8ff" stroke="#63b8ff" points="222.81,-26.25 231.89,-20.78 221.38,-19.4 222.81,-26.25"/>
</a>
</g>
</g>
</g>
</svg>
