<?xml version="1.0" encoding="UTF-8" standalone="no"?>
<!DOCTYPE svg PUBLIC "-//W3C//DTD SVG 1.1//EN"
 "http://www.w3.org/Graphics/SVG/1.1/DTD/svg11.dtd">
<!-- Generated by graphviz version 14.0.2 (20251019.1705)
 -->
<!-- Title: PatrolBehavior::Update Pages: 1 -->
<svg width="260pt" height="66pt"
 viewBox="0.00 0.00 260.00 66.00" xmlns="http://www.w3.org/2000/svg" xmlns:xlink="http://www.w3.org/1999/xlink">
<g id="graph0" class="graph" transform="scale(1 1) rotate(0) translate(4 62)">
<title>PatrolBehavior::Update</title>
<!-- Node1 -->
<g id="Node000001" class="node">
<title>Node1</title>
<g id="a_Node000001"><a xlink:title="敵の行動を更新する">
<polygon fill="#999999" stroke="#666666" points="117.25,-39 0,-39 0,-19 117.25,-19 117.25,-39"/>
<text xml:space="preserve" text-anchor="middle" x="58.62" y="-25.5" font-family="Helvetica,sans-Serif" font-size="10.00">PatrolBehavior::Update</text>
</a>
</g>
</g>
<!-- Node2 -->
<g id="Node000002" class="node">
<title>Node2</title>
<g id="a_Node000002"><a xlink:href="class_stage.html#aa1ee7cbc0b2b77c60aba3665038c2e91" target="_top" xlink:title="タイルサイズを取得する">
<polygon fill="white" stroke="#666666" points="251.75,-58 153.25,-58 153.25,-38 251.75,-38 251.75,-58"/>
<text xml:space="preserve" text-anchor="middle" x="202.5" y="-44.5" font-family="Helvetica,sans-Serif" font-size="10.00">Stage::GetTileSize</text>
</a>
</g>
</g>
<!-- Node1&#45;&gt;Node2 -->
<g id="edge1_Node000001_Node000002" class="edge">
<title>Node1&#45;&gt;Node2</title>
<g id="a_edge1_Node000001_Node000002"><a xlink:title=" ">
<path fill="none" stroke="#63b8ff" d="M117.74,-36.78C125.56,-37.83 133.59,-38.9 141.43,-39.96"/>
<polygon fill="#63b8ff" stroke="#63b8ff" points="140.88,-43.41 151.26,-41.27 141.81,-36.47 140.88,-43.41"/>
</a>
</g>
</g>
<!-- Node3 -->
<g id="Node000003" class="node">
<title>Node3</title>
<g id="a_Node000003"><a xlink:href="class_stage.html#a95f9531749e71dfe6c880295abeb9d8c" target="_top" xlink:title="指定したワールド座標が壁タイル上かを判定する">
<polygon fill="white" stroke="#666666" points="241.25,-20 163.75,-20 163.75,0 241.25,0 241.25,-20"/>
<text xml:space="preserve" text-anchor="middle" x="202.5" y="-6.5" font-family="Helvetica,sans-Serif" font-size="10.00">Stage::IsSolid</text>
</a>
</g>
</g>
<!-- Node1&#45;&gt;Node3 -->
<g id="edge2_Node000001_Node000003" class="edge">
<title>Node1&#45;&gt;Node3</title>
<g id="a_edge2_Node000001_Node000003"><a xlink:title=" ">
<path fill="none" stroke="#63b8ff" d="M117.74,-21.22C129.21,-19.68 141.15,-18.08 152.29,-16.59"/>
<polygon fill="#63b8ff" stroke="#63b8ff" points="152.62,-20.08 162.07,-15.28 151.69,-13.14 152.62,-20.08"/>
</a>
</g>
</g>
</g>
</svg>
