<?xml version="1.0" encoding="UTF-8" standalone="no"?>
<!DOCTYPE svg PUBLIC "-//W3C//DTD SVG 1.1//EN"
 "http://www.w3.org/Graphics/SVG/1.1/DTD/svg11.dtd">
<!-- Generated by graphviz version 14.0.2 (20251019.1705)
 -->
<!-- Title: Player::MoveX Pages: 1 -->
<svg width="358pt" height="28pt"
 viewBox="0.00 0.00 358.00 28.00" xmlns="http://www.w3.org/2000/svg" xmlns:xlink="http://www.w3.org/1999/xlink">
<g id="graph0" class="graph" transform="scale(1 1) rotate(0) translate(4 24)">
<title>Player::MoveX</title>
<!-- Node1 -->
<g id="Node000001" class="node">
<title>Node1</title>
<g id="a_Node000001"><a xlink:title="X軸方向の移動処理">
<polygon fill="#999999" stroke="#666666" points="350.25,-20 269.75,-20 269.75,0 350.25,0 350.25,-20"/>
<text xml:space="preserve" text-anchor="middle" x="310" y="-6.5" font-family="Helvetica,sans-Serif" font-size="10.00">Player::MoveX</text>
</a>
</g>
</g>
<!-- Node2 -->
<g id="Node000002" class="node">
<title>Node2</title>
<g id="a_Node000002"><a xlink:href="class_player.html#a9dbda24f6f27cb247da724a92fdd873d" target="_top" xlink:title="物理演算を更新する">
<polygon fill="white" stroke="#666666" points="233.75,-20 117.25,-20 117.25,0 233.75,0 233.75,-20"/>
<text xml:space="preserve" text-anchor="middle" x="175.5" y="-6.5" font-family="Helvetica,sans-Serif" font-size="10.00">Player::UpdatePhysics</text>
</a>
</g>
</g>
<!-- Node1&#45;&gt;Node2 -->
<g id="edge1_Node000001_Node000002" class="edge">
<title>Node1&#45;&gt;Node2</title>
<g id="a_edge1_Node000001_Node000002"><a xlink:title=" ">
<path fill="none" stroke="#63b8ff" d="M258.3,-10C250.4,-10 242.18,-10 234.14,-10"/>
<polygon fill="#63b8ff" stroke="#63b8ff" points="258.09,-13.5 268.09,-10 258.09,-6.5 258.09,-13.5"/>
</a>
</g>
</g>
<!-- Node3 -->
<g id="Node000003" class="node">
<title>Node3</title>
<g id="a_Node000003"><a xlink:href="class_player.html#a4b224bdee973f00772184b1e87970633" target="_top" xlink:title="プレイヤーを更新する">
<polygon fill="white" stroke="#666666" points="81.25,-20 0,-20 0,0 81.25,0 81.25,-20"/>
<text xml:space="preserve" text-anchor="middle" x="40.62" y="-6.5" font-family="Helvetica,sans-Serif" font-size="10.00">Player::Update</text>
</a>
</g>
</g>
<!-- Node2&#45;&gt;Node3 -->
<g id="edge2_Node000002_Node000003" class="edge">
<title>Node2&#45;&gt;Node3</title>
<g id="a_edge2_Node000002_Node000003"><a xlink:title=" ">
<path fill="none" stroke="#63b8ff" d="M105.75,-10C97.49,-10 89.28,-10 81.62,-10"/>
<polygon fill="#63b8ff" stroke="#63b8ff" points="105.48,-13.5 115.48,-10 105.48,-6.5 105.48,-13.5"/>
</a>
</g>
</g>
</g>
</svg>
