<?xml version="1.0" encoding="UTF-8" standalone="no"?>
<!DOCTYPE svg PUBLIC "-//W3C//DTD SVG 1.1//EN"
 "http://www.w3.org/Graphics/SVG/1.1/DTD/svg11.dtd">
<!-- Generated by graphviz version 14.0.2 (20251019.1705)
 -->
<!-- Title: Player::HandleCollisions Pages: 1 -->
<svg width="436pt" height="66pt"
 viewBox="0.00 0.00 436.00 66.00" xmlns="http://www.w3.org/2000/svg" xmlns:xlink="http://www.w3.org/1999/xlink">
<g id="graph0" class="graph" transform="scale(1 1) rotate(0) translate(4 62)">
<title>Player::HandleCollisions</title>
<!-- Node1 -->
<g id="Node000001" class="node">
<title>Node1</title>
<g id="a_Node000001"><a xlink:title="衝突処理を実行する">
<polygon fill="#999999" stroke="#666666" points="123.25,-39 0,-39 0,-19 123.25,-19 123.25,-39"/>
<text xml:space="preserve" text-anchor="middle" x="61.62" y="-25.5" font-family="Helvetica,sans-Serif" font-size="10.00">Player::HandleCollisions</text>
</a>
</g>
</g>
<!-- Node2 -->
<g id="Node000002" class="node">
<title>Node2</title>
<g id="a_Node000002"><a xlink:href="class_player.html#a34183eba5b1c359a41c87f8ce9b06f98" target="_top" xlink:title="酸素を回復する">
<polygon fill="white" stroke="#666666" points="279.5,-58 159.25,-58 159.25,-38 279.5,-38 279.5,-58"/>
<text xml:space="preserve" text-anchor="middle" x="219.38" y="-44.5" font-family="Helvetica,sans-Serif" font-size="10.00">Player::RecoverOxygen</text>
</a>
</g>
</g>
<!-- Node1&#45;&gt;Node2 -->
<g id="edge1_Node000001_Node000002" class="edge">
<title>Node1&#45;&gt;Node2</title>
<g id="a_edge1_Node000001_Node000002"><a xlink:title=" ">
<path fill="none" stroke="#63b8ff" d="M123.73,-36.45C131.61,-37.42 139.73,-38.41 147.75,-39.38"/>
<polygon fill="#63b8ff" stroke="#63b8ff" points="147.12,-42.83 157.47,-40.57 147.97,-35.88 147.12,-42.83"/>
</a>
</g>
</g>
<!-- Node4 -->
<g id="Node000004" class="node">
<title>Node4</title>
<g id="a_Node000004"><a xlink:href="class_player.html#a79060b32a95ca6e3f7a482b9ed45fa07" target="_top" xlink:title="ダメージを受ける">
<polygon fill="white" stroke="#666666" points="273.12,-20 165.62,-20 165.62,0 273.12,0 273.12,-20"/>
<text xml:space="preserve" text-anchor="middle" x="219.38" y="-6.5" font-family="Helvetica,sans-Serif" font-size="10.00">Player::TakeDamage</text>
</a>
</g>
</g>
<!-- Node1&#45;&gt;Node4 -->
<g id="edge3_Node000001_Node000004" class="edge">
<title>Node1&#45;&gt;Node4</title>
<g id="a_edge3_Node000001_Node000004"><a xlink:title=" ">
<path fill="none" stroke="#63b8ff" d="M123.73,-21.55C133.77,-20.32 144.19,-19.05 154.29,-17.82"/>
<polygon fill="#63b8ff" stroke="#63b8ff" points="154.51,-21.32 164.02,-16.63 153.67,-14.37 154.51,-21.32"/>
</a>
</g>
</g>
<!-- Node3 -->
<g id="Node000003" class="node">
<title>Node3</title>
<g id="a_Node000003"><a xlink:href="class_player.html#ac7d159c578eb4da86911b484b499766c" target="_top" xlink:title="酸素量を変更する">
<polygon fill="white" stroke="#666666" points="428.25,-39 315.5,-39 315.5,-19 428.25,-19 428.25,-39"/>
<text xml:space="preserve" text-anchor="middle" x="371.88" y="-25.5" font-family="Helvetica,sans-Serif" font-size="10.00">Player::ModifyOxygen</text>
</a>
</g>
</g>
<!-- Node2&#45;&gt;Node3 -->
<g id="edge2_Node000002_Node000003" class="edge">
<title>Node2&#45;&gt;Node3</title>
<g id="a_edge2_Node000002_Node000003"><a xlink:title=" ">
<path fill="none" stroke="#63b8ff" d="M279.86,-40.49C287.79,-39.49 295.96,-38.46 304.01,-37.44"/>
<polygon fill="#63b8ff" stroke="#63b8ff" points="304.27,-40.94 313.75,-36.21 303.39,-33.99 304.27,-40.94"/>
</a>
</g>
</g>
<!-- Node4&#45;&gt;Node3 -->
<g id="edge4_Node000004_Node000003" class="edge">
<title>Node4&#45;&gt;Node3</title>
<g id="a_edge4_Node000004_Node000003"><a xlink:title=" ">
<path fill="none" stroke="#63b8ff" d="M273.44,-16.7C283.27,-17.94 293.67,-19.25 303.86,-20.54"/>
<polygon fill="#63b8ff" stroke="#63b8ff" points="303.37,-24.01 313.73,-21.79 304.25,-17.06 303.37,-24.01"/>
</a>
</g>
</g>
</g>
</svg>
