<?xml version="1.0" encoding="UTF-8" standalone="no"?>
<!DOCTYPE svg PUBLIC "-//W3C//DTD SVG 1.1//EN"
 "http://www.w3.org/Graphics/SVG/1.1/DTD/svg11.dtd">
<!-- Generated by graphviz version 14.0.2 (20251019.1705)
 -->
<!-- Title: Stage::Stage Pages: 1 -->
<svg width="407pt" height="123pt"
 viewBox="0.00 0.00 407.00 123.00" xmlns="http://www.w3.org/2000/svg" xmlns:xlink="http://www.w3.org/1999/xlink">
<g id="graph0" class="graph" transform="scale(1 1) rotate(0) translate(4 119)">
<title>Stage::Stage</title>
<!-- Node1 -->
<g id="Node000001" class="node">
<title>Node1</title>
<g id="a_Node000001"><a xlink:title="コンストラクタ">
<polygon fill="#999999" stroke="#666666" points="73,-77 0,-77 0,-57 73,-57 73,-77"/>
<text xml:space="preserve" text-anchor="middle" x="36.5" y="-63.5" font-family="Helvetica,sans-Serif" font-size="10.00">Stage::Stage</text>
</a>
</g>
</g>
<!-- Node2 -->
<g id="Node000002" class="node">
<title>Node2</title>
<g id="a_Node000002"><a xlink:href="class_stage.html#a2688bb80c7887089f15bba99b0da6a4f" target="_top" xlink:title="タイルテクスチャリージョンを生成する">
<polygon fill="white" stroke="#666666" points="237.5,-115 109,-115 109,-95 237.5,-95 237.5,-115"/>
<text xml:space="preserve" text-anchor="middle" x="173.25" y="-101.5" font-family="Helvetica,sans-Serif" font-size="10.00">Stage::CreateTileRegions</text>
</a>
</g>
</g>
<!-- Node1&#45;&gt;Node2 -->
<g id="edge1_Node000001_Node000002" class="edge">
<title>Node1&#45;&gt;Node2</title>
<g id="a_edge1_Node000001_Node000002"><a xlink:title=" ">
<path fill="none" stroke="#63b8ff" d="M73.26,-77.08C88.99,-81.52 107.7,-86.8 124.59,-91.56"/>
<polygon fill="#63b8ff" stroke="#63b8ff" points="123.35,-94.85 133.93,-94.19 125.25,-88.11 123.35,-94.85"/>
</a>
</g>
</g>
<!-- Node3 -->
<g id="Node000003" class="node">
<title>Node3</title>
<g id="a_Node000003"><a xlink:href="class_stage.html#a5a4516bbbf1bebe3ba0ee9611791523b" target="_top" xlink:title="衝突判定レイヤーを探索する">
<polygon fill="white" stroke="#666666" points="237.12,-77 109.38,-77 109.38,-57 237.12,-57 237.12,-77"/>
<text xml:space="preserve" text-anchor="middle" x="173.25" y="-63.5" font-family="Helvetica,sans-Serif" font-size="10.00">Stage::FindCollisionLayer</text>
</a>
</g>
</g>
<!-- Node1&#45;&gt;Node3 -->
<g id="edge2_Node000001_Node000003" class="edge">
<title>Node1&#45;&gt;Node3</title>
<g id="a_edge2_Node000001_Node000003"><a xlink:title=" ">
<path fill="none" stroke="#63b8ff" d="M73.26,-67C80.81,-67 89.06,-67 97.46,-67"/>
<polygon fill="#63b8ff" stroke="#63b8ff" points="97.45,-70.5 107.45,-67 97.45,-63.5 97.45,-70.5"/>
</a>
</g>
</g>
<!-- Node4 -->
<g id="Node000004" class="node">
<title>Node4</title>
<g id="a_Node000004"><a xlink:href="class_stage.html#a046289fe3fa7e0cc0c6b6c039a3e8d16" target="_top" xlink:title="JSONからマップデータを読み込む">
<polygon fill="white" stroke="#666666" points="229.25,-39 117.25,-39 117.25,-19 229.25,-19 229.25,-39"/>
<text xml:space="preserve" text-anchor="middle" x="173.25" y="-25.5" font-family="Helvetica,sans-Serif" font-size="10.00">Stage::LoadFromJson</text>
</a>
</g>
</g>
<!-- Node1&#45;&gt;Node4 -->
<g id="edge3_Node000001_Node000004" class="edge">
<title>Node1&#45;&gt;Node4</title>
<g id="a_edge3_Node000001_Node000004"><a xlink:title=" ">
<path fill="none" stroke="#63b8ff" d="M73.26,-56.92C88.99,-52.48 107.7,-47.2 124.59,-42.44"/>
<polygon fill="#63b8ff" stroke="#63b8ff" points="125.25,-45.89 133.93,-39.81 123.35,-39.15 125.25,-45.89"/>
</a>
</g>
</g>
<!-- Node5 -->
<g id="Node000005" class="node">
<title>Node5</title>
<g id="a_Node000005"><a xlink:href="class_stage.html#ab7eb2696fab166bc7924120333715077" target="_top" xlink:title="オブジェクトレイヤーを解析する">
<polygon fill="white" stroke="#666666" points="399,-58 273.5,-58 273.5,-38 399,-38 399,-58"/>
<text xml:space="preserve" text-anchor="middle" x="336.25" y="-44.5" font-family="Helvetica,sans-Serif" font-size="10.00">Stage::ParseObjectLayer</text>
</a>
</g>
</g>
<!-- Node4&#45;&gt;Node5 -->
<g id="edge4_Node000004_Node000005" class="edge">
<title>Node4&#45;&gt;Node5</title>
<g id="a_edge4_Node000004_Node000005"><a xlink:title=" ">
<path fill="none" stroke="#63b8ff" d="M229.66,-35.54C240.05,-36.77 251.07,-38.07 261.91,-39.35"/>
<polygon fill="#63b8ff" stroke="#63b8ff" points="261.27,-42.79 271.61,-40.49 262.09,-35.84 261.27,-42.79"/>
</a>
</g>
</g>
<!-- Node6 -->
<g id="Node000006" class="node">
<title>Node6</title>
<g id="a_Node000006"><a xlink:href="class_stage.html#af45be338beccbbe57fc49b79572282d8" target="_top" xlink:title="タイルレイヤーを解析する">
<polygon fill="white" stroke="#666666" points="392.62,-20 279.88,-20 279.88,0 392.62,0 392.62,-20"/>
<text xml:space="preserve" text-anchor="middle" x="336.25" y="-6.5" font-family="Helvetica,sans-Serif" font-size="10.00">Stage::ParseTileLayer</text>
</a>
</g>
</g>
<!-- Node4&#45;&gt;Node6 -->
<g id="edge5_Node000004_Node000006" class="edge">
<title>Node4&#45;&gt;Node6</title>
<g id="a_edge5_Node000004_Node000006"><a xlink:title=" ">
<path fill="none" stroke="#63b8ff" d="M229.66,-22.46C242.11,-20.99 255.45,-19.42 268.32,-17.9"/>
<polygon fill="#63b8ff" stroke="#63b8ff" points="268.44,-21.41 277.96,-16.76 267.62,-14.46 268.44,-21.41"/>
</a>
</g>
</g>
</g>
</svg>
