<?xml version="1.0" encoding="UTF-8" standalone="no"?>
<!DOCTYPE svg PUBLIC "-//W3C//DTD SVG 1.1//EN"
 "http://www.w3.org/Graphics/SVG/1.1/DTD/svg11.dtd">
<!-- Generated by graphviz version 14.0.2 (20251019.1705)
 -->
<!-- Title: Player::TakeDamage Pages: 1 -->
<svg width="392pt" height="28pt"
 viewBox="0.00 0.00 392.00 28.00" xmlns="http://www.w3.org/2000/svg" xmlns:xlink="http://www.w3.org/1999/xlink">
<g id="graph0" class="graph" transform="scale(1 1) rotate(0) translate(4 24)">
<title>Player::TakeDamage</title>
<!-- Node1 -->
<g id="Node000001" class="node">
<title>Node1</title>
<g id="a_Node000001"><a xlink:title="ダメージを受ける">
<polygon fill="#999999" stroke="#666666" points="384,-20 276.5,-20 276.5,0 384,0 384,-20"/>
<text xml:space="preserve" text-anchor="middle" x="330.25" y="-6.5" font-family="Helvetica,sans-Serif" font-size="10.00">Player::TakeDamage</text>
</a>
</g>
</g>
<!-- Node2 -->
<g id="Node000002" class="node">
<title>Node2</title>
<g id="a_Node000002"><a xlink:href="class_player.html#ad5807ec776b055f5ee154395ad23c88b" target="_top" xlink:title="衝突処理を実行する">
<polygon fill="white" stroke="#666666" points="240.5,-20 117.25,-20 117.25,0 240.5,0 240.5,-20"/>
<text xml:space="preserve" text-anchor="middle" x="178.88" y="-6.5" font-family="Helvetica,sans-Serif" font-size="10.00">Player::HandleCollisions</text>
</a>
</g>
</g>
<!-- Node1&#45;&gt;Node2 -->
<g id="edge1_Node000001_Node000002" class="edge">
<title>Node1&#45;&gt;Node2</title>
<g id="a_edge1_Node000001_Node000002"><a xlink:title=" ">
<path fill="none" stroke="#63b8ff" d="M264.74,-10C256.84,-10 248.79,-10 240.94,-10"/>
<polygon fill="#63b8ff" stroke="#63b8ff" points="264.65,-13.5 274.65,-10 264.65,-6.5 264.65,-13.5"/>
</a>
</g>
</g>
<!-- Node3 -->
<g id="Node000003" class="node">
<title>Node3</title>
<g id="a_Node000003"><a xlink:href="class_player.html#a4b224bdee973f00772184b1e87970633" target="_top" xlink:title="プレイヤーを更新する">
<polygon fill="white" stroke="#666666" points="81.25,-20 0,-20 0,0 81.25,0 81.25,-20"/>
<text xml:space="preserve" text-anchor="middle" x="40.62" y="-6.5" font-family="Helvetica,sans-Serif" font-size="10.00">Player::Update</text>
</a>
</g>
</g>
<!-- Node2&#45;&gt;Node3 -->
<g id="edge2_Node000002_Node000003" class="edge">
<title>Node2&#45;&gt;Node3</title>
<g id="a_edge2_Node000002_Node000003"><a xlink:title=" ">
<path fill="none" stroke="#63b8ff" d="M105.59,-10C97.28,-10 89.05,-10 81.41,-10"/>
<polygon fill="#63b8ff" stroke="#63b8ff" points="105.41,-13.5 115.41,-10 105.41,-6.5 105.41,-13.5"/>
</a>
</g>
</g>
</g>
</svg>
