<?xml version="1.0" encoding="UTF-8" standalone="no"?>
<!DOCTYPE svg PUBLIC "-//W3C//DTD SVG 1.1//EN"
 "http://www.w3.org/Graphics/SVG/1.1/DTD/svg11.dtd">
<!-- Generated by graphviz version 14.0.2 (20251019.1705)
 -->
<!-- Title: GameScene::update Pages: 1 -->
<svg width="546pt" height="142pt"
 viewBox="0.00 0.00 546.00 142.00" xmlns="http://www.w3.org/2000/svg" xmlns:xlink="http://www.w3.org/1999/xlink">
<g id="graph0" class="graph" transform="scale(1 1) rotate(0) translate(4 138)">
<title>GameScene::update</title>
<!-- Node1 -->
<g id="Node000001" class="node">
<title>Node1</title>
<g id="a_Node000001"><a xlink:title="シーンを更新する">
<polygon fill="#999999" stroke="#666666" points="105.25,-77 0,-77 0,-57 105.25,-57 105.25,-77"/>
<text xml:space="preserve" text-anchor="middle" x="52.62" y="-63.5" font-family="Helvetica,sans-Serif" font-size="10.00">GameScene::update</text>
</a>
</g>
</g>
<!-- Node2 -->
<g id="Node000002" class="node">
<title>Node2</title>
<g id="a_Node000002"><a xlink:href="class_game_scene.html#a023567377dcb2a8caadf8f6cab2cb4a4" target="_top" xlink:title="最も近いリスポーン地点を探索する">
<polygon fill="white" stroke="#666666" points="332,-134 141.25,-134 141.25,-114 332,-114 332,-134"/>
<text xml:space="preserve" text-anchor="middle" x="236.62" y="-120.5" font-family="Helvetica,sans-Serif" font-size="10.00">GameScene::FindNearestRespawnSpot</text>
</a>
</g>
</g>
<!-- Node1&#45;&gt;Node2 -->
<g id="edge1_Node000001_Node000002" class="edge">
<title>Node1&#45;&gt;Node2</title>
<g id="a_edge1_Node000001_Node000002"><a xlink:title=" ">
<path fill="none" stroke="#63b8ff" d="M74.4,-77.49C91.86,-85.95 117.68,-97.61 141.25,-105 148.19,-107.18 155.49,-109.16 162.84,-110.96"/>
<polygon fill="#63b8ff" stroke="#63b8ff" points="161.97,-114.35 172.5,-113.2 163.55,-107.53 161.97,-114.35"/>
</a>
</g>
</g>
<!-- Node3 -->
<g id="Node000003" class="node">
<title>Node3</title>
<g id="a_Node000003"><a xlink:href="class_game_scene.html#ad736ded9ab220b8f39601204775908ff" target="_top" xlink:title="プレイヤーが死亡した時の処理">
<polygon fill="white" stroke="#666666" points="305,-96 168.25,-96 168.25,-76 305,-76 305,-96"/>
<text xml:space="preserve" text-anchor="middle" x="236.62" y="-82.5" font-family="Helvetica,sans-Serif" font-size="10.00">GameScene::OnPlayerDied</text>
</a>
</g>
</g>
<!-- Node1&#45;&gt;Node3 -->
<g id="edge2_Node000001_Node000003" class="edge">
<title>Node1&#45;&gt;Node3</title>
<g id="a_edge2_Node000001_Node000003"><a xlink:title=" ">
<path fill="none" stroke="#63b8ff" d="M105.29,-72.39C121.24,-74.06 139.19,-75.93 156.54,-77.74"/>
<polygon fill="#63b8ff" stroke="#63b8ff" points="156.02,-81.21 166.33,-78.77 156.75,-74.25 156.02,-81.21"/>
</a>
</g>
</g>
<!-- Node4 -->
<g id="Node000004" class="node">
<title>Node4</title>
<g id="a_Node000004"><a xlink:href="class_game_scene.html#a1717f5abe6408c41d43fc54a5e2c5314" target="_top" xlink:title="BGM再生を開始または遅延させる">
<polygon fill="white" stroke="#666666" points="529.88,-58 375.88,-58 375.88,-38 529.88,-38 529.88,-58"/>
<text xml:space="preserve" text-anchor="middle" x="452.88" y="-44.5" font-family="Helvetica,sans-Serif" font-size="10.00">GameScene::StartOrDeferBGM</text>
</a>
</g>
</g>
<!-- Node1&#45;&gt;Node4 -->
<g id="edge3_Node000001_Node000004" class="edge">
<title>Node1&#45;&gt;Node4</title>
<g id="a_edge3_Node000001_Node000004"><a xlink:title=" ">
<path fill="none" stroke="#63b8ff" d="M105.69,-64.52C171.3,-61.39 285.04,-55.96 364.17,-52.18"/>
<polygon fill="#63b8ff" stroke="#63b8ff" points="364.25,-55.68 374.07,-51.71 363.92,-48.69 364.25,-55.68"/>
</a>
</g>
</g>
<!-- Node5 -->
<g id="Node000005" class="node">
<title>Node5</title>
<g id="a_Node000005"><a xlink:href="class_game_scene.html#a90075ad52095e3d625ae3aa13fada7e8" target="_top" xlink:title="BGMを更新する">
<polygon fill="white" stroke="#666666" points="301.62,-20 171.62,-20 171.62,0 301.62,0 301.62,-20"/>
<text xml:space="preserve" text-anchor="middle" x="236.62" y="-6.5" font-family="Helvetica,sans-Serif" font-size="10.00">GameScene::UpdateBGM</text>
</a>
</g>
</g>
<!-- Node1&#45;&gt;Node5 -->
<g id="edge4_Node000001_Node000005" class="edge">
<title>Node1&#45;&gt;Node5</title>
<g id="a_edge4_Node000001_Node000005"><a xlink:title=" ">
<path fill="none" stroke="#63b8ff" d="M79.05,-56.57C96.4,-49.66 120,-40.68 141.25,-34 153.47,-30.16 166.73,-26.49 179.34,-23.22"/>
<polygon fill="#63b8ff" stroke="#63b8ff" points="179.91,-26.69 188.75,-20.84 178.19,-19.9 179.91,-26.69"/>
</a>
</g>
</g>
<!-- Node5&#45;&gt;Node4 -->
<g id="edge6_Node000005_Node000004" class="edge">
<title>Node5&#45;&gt;Node4</title>
<g id="a_edge6_Node000005_Node000004"><a xlink:title=" ">
<path fill="none" stroke="#63b8ff" d="M296.74,-20.48C323.08,-25.16 354.31,-30.7 381.82,-35.57"/>
<polygon fill="#63b8ff" stroke="#63b8ff" points="381.01,-38.99 391.47,-37.29 382.23,-32.09 381.01,-38.99"/>
</a>
</g>
</g>
<!-- Node6 -->
<g id="Node000006" class="node">
<title>Node6</title>
<g id="a_Node000006"><a xlink:href="class_game_scene.html#aa563b355724487c1568bd4ab41c4d95d" target="_top" xlink:title="保留中のBGM再生を処理する">
<polygon fill="white" stroke="#666666" points="537.75,-20 368,-20 368,0 537.75,0 537.75,-20"/>
<text xml:space="preserve" text-anchor="middle" x="452.88" y="-6.5" font-family="Helvetica,sans-Serif" font-size="10.00">GameScene::ProcessPendingBGM</text>
</a>
</g>
</g>
<!-- Node5&#45;&gt;Node6 -->
<g id="edge5_Node000005_Node000006" class="edge">
<title>Node5&#45;&gt;Node6</title>
<g id="a_edge5_Node000005_Node000006"><a xlink:title=" ">
<path fill="none" stroke="#63b8ff" d="M301.91,-10C319.06,-10 337.96,-10 356.39,-10"/>
<polygon fill="#63b8ff" stroke="#63b8ff" points="356.28,-13.5 366.28,-10 356.28,-6.5 356.28,-13.5"/>
</a>
</g>
</g>
</g>
</svg>
