<?xml version="1.0" encoding="UTF-8" standalone="no"?>
<!DOCTYPE svg PUBLIC "-//W3C//DTD SVG 1.1//EN"
 "http://www.w3.org/Graphics/SVG/1.1/DTD/svg11.dtd">
<!-- Generated by graphviz version 14.0.2 (20251019.1705)
 -->
<!-- Title: CameraSystem::GetCameraOffset Pages: 1 -->
<svg width="375pt" height="78pt"
 viewBox="0.00 0.00 375.00 78.00" xmlns="http://www.w3.org/2000/svg" xmlns:xlink="http://www.w3.org/1999/xlink">
<g id="graph0" class="graph" transform="scale(1 1) rotate(0) translate(4 74)">
<title>CameraSystem::GetCameraOffset</title>
<!-- Node1 -->
<g id="Node000001" class="node">
<title>Node1</title>
<g id="a_Node000001"><a xlink:title="カメラオフセットを取得する">
<polygon fill="#999999" stroke="#666666" points="166.75,-42 0,-42 0,-22 166.75,-22 166.75,-42"/>
<text xml:space="preserve" text-anchor="middle" x="83.38" y="-28.5" font-family="Helvetica,sans-Serif" font-size="10.00">CameraSystem::GetCameraOffset</text>
</a>
</g>
</g>
<!-- Node2 -->
<g id="Node000002" class="node">
<title>Node2</title>
<g id="a_Node000002"><a xlink:href="class_camera_system.html#a154a58ca736a1bc9cb4b27eadb25bc11" target="_top" xlink:title="カメラ中心座標を作成する">
<polygon fill="white" stroke="#666666" points="367.25,-70 202.75,-70 202.75,-38 367.25,-38 367.25,-70"/>
<text xml:space="preserve" text-anchor="start" x="210.75" y="-56.5" font-family="Helvetica,sans-Serif" font-size="10.00">CameraSystem::ComputeCamera</text>
<text xml:space="preserve" text-anchor="middle" x="285" y="-44.5" font-family="Helvetica,sans-Serif" font-size="10.00">Center</text>
</a>
</g>
</g>
<!-- Node1&#45;&gt;Node2 -->
<g id="edge1_Node000001_Node000002" class="edge">
<title>Node1&#45;&gt;Node2</title>
<g id="a_edge1_Node000001_Node000002"><a xlink:title=" ">
<path fill="none" stroke="#63b8ff" d="M167.01,-41.11C174.96,-41.98 183.05,-42.88 191.09,-43.76"/>
<polygon fill="#63b8ff" stroke="#63b8ff" points="190.56,-47.22 200.89,-44.84 191.33,-40.27 190.56,-47.22"/>
</a>
</g>
</g>
<!-- Node3 -->
<g id="Node000003" class="node">
<title>Node3</title>
<g id="a_Node000003"><a xlink:href="class_camera_system.html#a579af8227e36631553fe0c4cb5a40478" target="_top" xlink:title="ビューサイズの半分を取得する">
<polygon fill="white" stroke="#666666" points="359.75,-20 210.25,-20 210.25,0 359.75,0 359.75,-20"/>
<text xml:space="preserve" text-anchor="middle" x="285" y="-6.5" font-family="Helvetica,sans-Serif" font-size="10.00">CameraSystem::HalfViewSize</text>
</a>
</g>
</g>
<!-- Node1&#45;&gt;Node3 -->
<g id="edge2_Node000001_Node000003" class="edge">
<title>Node1&#45;&gt;Node3</title>
<g id="a_edge2_Node000001_Node000003"><a xlink:title=" ">
<path fill="none" stroke="#63b8ff" d="M167.01,-22.89C177.49,-21.74 188.22,-20.56 198.74,-19.4"/>
<polygon fill="#63b8ff" stroke="#63b8ff" points="198.98,-22.89 208.54,-18.32 198.22,-15.93 198.98,-22.89"/>
</a>
</g>
</g>
</g>
</svg>
