<?xml version="1.0" encoding="UTF-8" standalone="no"?>
<!DOCTYPE svg PUBLIC "-//W3C//DTD SVG 1.1//EN"
 "http://www.w3.org/Graphics/SVG/1.1/DTD/svg11.dtd">
<!-- Generated by graphviz version 14.0.2 (20251019.1705)
 -->
<!-- Title: Player::MoveY Pages: 1 -->
<svg width="223pt" height="66pt"
 viewBox="0.00 0.00 223.00 66.00" xmlns="http://www.w3.org/2000/svg" xmlns:xlink="http://www.w3.org/1999/xlink">
<g id="graph0" class="graph" transform="scale(1 1) rotate(0) translate(4 62)">
<title>Player::MoveY</title>
<!-- Node1 -->
<g id="Node000001" class="node">
<title>Node1</title>
<g id="a_Node000001"><a xlink:title="Y軸方向の移動処理">
<polygon fill="#999999" stroke="#666666" points="80.5,-39 0,-39 0,-19 80.5,-19 80.5,-39"/>
<text xml:space="preserve" text-anchor="middle" x="40.25" y="-25.5" font-family="Helvetica,sans-Serif" font-size="10.00">Player::MoveY</text>
</a>
</g>
</g>
<!-- Node2 -->
<g id="Node000002" class="node">
<title>Node2</title>
<g id="a_Node000002"><a xlink:href="class_stage.html#aa1ee7cbc0b2b77c60aba3665038c2e91" target="_top" xlink:title="タイルサイズを取得する">
<polygon fill="white" stroke="#666666" points="215,-58 116.5,-58 116.5,-38 215,-38 215,-58"/>
<text xml:space="preserve" text-anchor="middle" x="165.75" y="-44.5" font-family="Helvetica,sans-Serif" font-size="10.00">Stage::GetTileSize</text>
</a>
</g>
</g>
<!-- Node1&#45;&gt;Node2 -->
<g id="edge1_Node000001_Node000002" class="edge">
<title>Node1&#45;&gt;Node2</title>
<g id="a_edge1_Node000001_Node000002"><a xlink:title=" ">
<path fill="none" stroke="#63b8ff" d="M80.67,-35.06C88.43,-36.26 96.74,-37.54 105,-38.81"/>
<polygon fill="#63b8ff" stroke="#63b8ff" points="104.27,-42.24 114.69,-40.3 105.34,-35.32 104.27,-42.24"/>
</a>
</g>
</g>
<!-- Node3 -->
<g id="Node000003" class="node">
<title>Node3</title>
<g id="a_Node000003"><a xlink:href="class_stage.html#a95f9531749e71dfe6c880295abeb9d8c" target="_top" xlink:title="指定したワールド座標が壁タイル上かを判定する">
<polygon fill="white" stroke="#666666" points="204.5,-20 127,-20 127,0 204.5,0 204.5,-20"/>
<text xml:space="preserve" text-anchor="middle" x="165.75" y="-6.5" font-family="Helvetica,sans-Serif" font-size="10.00">Stage::IsSolid</text>
</a>
</g>
</g>
<!-- Node1&#45;&gt;Node3 -->
<g id="edge2_Node000001_Node000003" class="edge">
<title>Node1&#45;&gt;Node3</title>
<g id="a_edge2_Node000001_Node000003"><a xlink:title=" ">
<path fill="none" stroke="#63b8ff" d="M80.67,-22.94C91.68,-21.24 103.79,-19.38 115.3,-17.61"/>
<polygon fill="#63b8ff" stroke="#63b8ff" points="115.7,-21.09 125.06,-16.11 114.64,-14.17 115.7,-21.09"/>
</a>
</g>
</g>
</g>
</svg>
