<?xml version="1.0" encoding="UTF-8" standalone="no"?>
<!DOCTYPE svg PUBLIC "-//W3C//DTD SVG 1.1//EN"
 "http://www.w3.org/Graphics/SVG/1.1/DTD/svg11.dtd">
<!-- Generated by graphviz version 14.0.2 (20251019.1705)
 -->
<!-- Title: Player::ModifyOxygen Pages: 1 -->
<svg width="557pt" height="132pt"
 viewBox="0.00 0.00 557.00 132.00" xmlns="http://www.w3.org/2000/svg" xmlns:xlink="http://www.w3.org/1999/xlink">
<g id="graph0" class="graph" transform="scale(1 1) rotate(0) translate(4 128)">
<title>Player::ModifyOxygen</title>
<!-- Node1 -->
<g id="Node000001" class="node">
<title>Node1</title>
<g id="a_Node000001"><a xlink:title="酸素量を変更する">
<polygon fill="#999999" stroke="#666666" points="548.5,-67 435.75,-67 435.75,-47 548.5,-47 548.5,-67"/>
<text xml:space="preserve" text-anchor="middle" x="492.12" y="-53.5" font-family="Helvetica,sans-Serif" font-size="10.00">Player::ModifyOxygen</text>
</a>
</g>
</g>
<!-- Node2 -->
<g id="Node000002" class="node">
<title>Node2</title>
<g id="a_Node000002"><a xlink:href="class_player.html#a075e705cdf3b3d264c034b938e3ed500" target="_top" xlink:title="泳ぎ入力時の処理">
<polygon fill="white" stroke="#666666" points="399.75,-124 276.5,-124 276.5,-104 399.75,-104 399.75,-124"/>
<text xml:space="preserve" text-anchor="middle" x="338.12" y="-110.5" font-family="Helvetica,sans-Serif" font-size="10.00">Player::OnSwimPressed</text>
</a>
</g>
</g>
<!-- Node1&#45;&gt;Node2 -->
<g id="edge1_Node000001_Node000002" class="edge">
<title>Node1&#45;&gt;Node2</title>
<g id="a_edge1_Node000001_Node000002"><a xlink:title=" ">
<path fill="none" stroke="#63b8ff" d="M457.6,-71.8C440.44,-79.15 419.14,-87.95 399.75,-95 391.56,-97.98 382.65,-100.93 374.25,-103.58"/>
<polygon fill="#63b8ff" stroke="#63b8ff" points="458.51,-75.22 466.3,-68.03 455.73,-68.79 458.51,-75.22"/>
</a>
</g>
</g>
<!-- Node5 -->
<g id="Node000005" class="node">
<title>Node5</title>
<g id="a_Node000005"><a xlink:href="class_player.html#a34183eba5b1c359a41c87f8ce9b06f98" target="_top" xlink:title="酸素を回復する">
<polygon fill="white" stroke="#666666" points="398.25,-86 278,-86 278,-66 398.25,-66 398.25,-86"/>
<text xml:space="preserve" text-anchor="middle" x="338.12" y="-72.5" font-family="Helvetica,sans-Serif" font-size="10.00">Player::RecoverOxygen</text>
</a>
</g>
</g>
<!-- Node1&#45;&gt;Node5 -->
<g id="edge4_Node000001_Node000005" class="edge">
<title>Node1&#45;&gt;Node5</title>
<g id="a_edge4_Node000001_Node000005"><a xlink:title=" ">
<path fill="none" stroke="#63b8ff" d="M424.02,-65.39C415.58,-66.44 407,-67.52 398.69,-68.55"/>
<polygon fill="#63b8ff" stroke="#63b8ff" points="424.4,-68.87 433.89,-64.15 423.53,-61.92 424.4,-68.87"/>
</a>
</g>
</g>
<!-- Node7 -->
<g id="Node000007" class="node">
<title>Node7</title>
<g id="a_Node000007"><a xlink:href="class_player.html#a79060b32a95ca6e3f7a482b9ed45fa07" target="_top" xlink:title="ダメージを受ける">
<polygon fill="white" stroke="#666666" points="391.88,-48 284.38,-48 284.38,-28 391.88,-28 391.88,-48"/>
<text xml:space="preserve" text-anchor="middle" x="338.12" y="-34.5" font-family="Helvetica,sans-Serif" font-size="10.00">Player::TakeDamage</text>
</a>
</g>
</g>
<!-- Node1&#45;&gt;Node7 -->
<g id="edge7_Node000001_Node000007" class="edge">
<title>Node1&#45;&gt;Node7</title>
<g id="a_edge7_Node000001_Node000007"><a xlink:title=" ">
<path fill="none" stroke="#63b8ff" d="M424.01,-48.61C413.4,-47.28 402.56,-45.93 392.32,-44.65"/>
<polygon fill="#63b8ff" stroke="#63b8ff" points="423.53,-52.08 433.89,-49.85 424.4,-45.13 423.53,-52.08"/>
</a>
</g>
</g>
<!-- Node8 -->
<g id="Node000008" class="node">
<title>Node8</title>
<g id="a_Node000008"><a xlink:href="class_player.html#a81f83a6f55bec62fc908f494fd8249cc" target="_top" xlink:title="酸素を更新する">
<polygon fill="white" stroke="#666666" points="236.38,-20 121.38,-20 121.38,0 236.38,0 236.38,-20"/>
<text xml:space="preserve" text-anchor="middle" x="178.88" y="-6.5" font-family="Helvetica,sans-Serif" font-size="10.00">Player::UpdateOxygen</text>
</a>
</g>
</g>
<!-- Node1&#45;&gt;Node8 -->
<g id="edge9_Node000001_Node000008" class="edge">
<title>Node1&#45;&gt;Node8</title>
<g id="a_edge9_Node000001_Node000008"><a xlink:title=" ">
<path fill="none" stroke="#63b8ff" d="M461.69,-41.63C444.2,-33.3 421.28,-23.76 399.75,-19 345.29,-6.96 281.43,-5.73 236.61,-6.89"/>
<polygon fill="#63b8ff" stroke="#63b8ff" points="459.94,-44.67 470.46,-45.94 463.03,-38.39 459.94,-44.67"/>
</a>
</g>
</g>
<!-- Node3 -->
<g id="Node000003" class="node">
<title>Node3</title>
<g id="a_Node000003"><a xlink:href="class_player.html#a235c6e2e4fe87bbec295d71a31e5ead2" target="_top" xlink:title="入力を処理する">
<polygon fill="white" stroke="#666666" points="230,-114 127.75,-114 127.75,-94 230,-94 230,-114"/>
<text xml:space="preserve" text-anchor="middle" x="178.88" y="-100.5" font-family="Helvetica,sans-Serif" font-size="10.00">Player::HandleInput</text>
</a>
</g>
</g>
<!-- Node2&#45;&gt;Node3 -->
<g id="edge2_Node000002_Node000003" class="edge">
<title>Node2&#45;&gt;Node3</title>
<g id="a_edge2_Node000002_Node000003"><a xlink:title=" ">
<path fill="none" stroke="#63b8ff" d="M265.15,-109.42C253.38,-108.67 241.42,-107.91 230.32,-107.21"/>
<polygon fill="#63b8ff" stroke="#63b8ff" points="264.62,-112.9 274.82,-110.04 265.06,-105.91 264.62,-112.9"/>
</a>
</g>
</g>
<!-- Node4 -->
<g id="Node000004" class="node">
<title>Node4</title>
<g id="a_Node000004"><a xlink:href="class_player.html#a4b224bdee973f00772184b1e87970633" target="_top" xlink:title="プレイヤーを更新する">
<polygon fill="white" stroke="#666666" points="81.25,-67 0,-67 0,-47 81.25,-47 81.25,-67"/>
<text xml:space="preserve" text-anchor="middle" x="40.62" y="-53.5" font-family="Helvetica,sans-Serif" font-size="10.00">Player::Update</text>
</a>
</g>
</g>
<!-- Node3&#45;&gt;Node4 -->
<g id="edge3_Node000003_Node000004" class="edge">
<title>Node3&#45;&gt;Node4</title>
<g id="a_edge3_Node000003_Node000004"><a xlink:title=" ">
<path fill="none" stroke="#63b8ff" d="M136.81,-89.83C115.89,-82.62 90.9,-74 71.78,-67.4"/>
<polygon fill="#63b8ff" stroke="#63b8ff" points="135.61,-93.12 146.21,-93.08 137.89,-86.51 135.61,-93.12"/>
</a>
</g>
</g>
<!-- Node6 -->
<g id="Node000006" class="node">
<title>Node6</title>
<g id="a_Node000006"><a xlink:href="class_player.html#ad5807ec776b055f5ee154395ad23c88b" target="_top" xlink:title="衝突処理を実行する">
<polygon fill="white" stroke="#666666" points="240.5,-67 117.25,-67 117.25,-47 240.5,-47 240.5,-67"/>
<text xml:space="preserve" text-anchor="middle" x="178.88" y="-53.5" font-family="Helvetica,sans-Serif" font-size="10.00">Player::HandleCollisions</text>
</a>
</g>
</g>
<!-- Node5&#45;&gt;Node6 -->
<g id="edge5_Node000005_Node000006" class="edge">
<title>Node5&#45;&gt;Node6</title>
<g id="a_edge5_Node000005_Node000006"><a xlink:title=" ">
<path fill="none" stroke="#63b8ff" d="M266.27,-67.44C257.83,-66.42 249.27,-65.38 240.98,-64.38"/>
<polygon fill="#63b8ff" stroke="#63b8ff" points="265.83,-70.91 276.17,-68.64 266.66,-63.96 265.83,-70.91"/>
</a>
</g>
</g>
<!-- Node6&#45;&gt;Node4 -->
<g id="edge6_Node000006_Node000004" class="edge">
<title>Node6&#45;&gt;Node4</title>
<g id="a_edge6_Node000006_Node000004"><a xlink:title=" ">
<path fill="none" stroke="#63b8ff" d="M105.59,-57C97.28,-57 89.05,-57 81.41,-57"/>
<polygon fill="#63b8ff" stroke="#63b8ff" points="105.41,-60.5 115.41,-57 105.41,-53.5 105.41,-60.5"/>
</a>
</g>
</g>
<!-- Node7&#45;&gt;Node6 -->
<g id="edge8_Node000007_Node000006" class="edge">
<title>Node7&#45;&gt;Node6</title>
<g id="a_edge8_Node000007_Node000006"><a xlink:title=" ">
<path fill="none" stroke="#63b8ff" d="M272.67,-45.79C262.17,-47.06 251.33,-48.37 240.92,-49.62"/>
<polygon fill="#63b8ff" stroke="#63b8ff" points="272.88,-49.29 282.38,-44.61 272.04,-42.34 272.88,-49.29"/>
</a>
</g>
</g>
<!-- Node8&#45;&gt;Node4 -->
<g id="edge10_Node000008_Node000004" class="edge">
<title>Node8&#45;&gt;Node4</title>
<g id="a_edge10_Node000008_Node000004"><a xlink:title=" ">
<path fill="none" stroke="#63b8ff" d="M136.81,-24.17C115.89,-31.38 90.9,-40 71.78,-46.6"/>
<polygon fill="#63b8ff" stroke="#63b8ff" points="137.89,-27.49 146.21,-20.92 135.61,-20.88 137.89,-27.49"/>
</a>
</g>
</g>
</g>
</svg>
