<?xml version="1.0" encoding="UTF-8" standalone="no"?>
<!DOCTYPE svg PUBLIC "-//W3C//DTD SVG 1.1//EN"
 "http://www.w3.org/Graphics/SVG/1.1/DTD/svg11.dtd">
<!-- Generated by graphviz version 14.0.2 (20251019.1705)
 -->
<!-- Title: CameraSystem::Update Pages: 1 -->
<svg width="330pt" height="116pt"
 viewBox="0.00 0.00 330.00 116.00" xmlns="http://www.w3.org/2000/svg" xmlns:xlink="http://www.w3.org/1999/xlink">
<g id="graph0" class="graph" transform="scale(1 1) rotate(0) translate(4 112)">
<title>CameraSystem::Update</title>
<!-- Node1 -->
<g id="Node000001" class="node">
<title>Node1</title>
<g id="a_Node000001"><a xlink:title="カメラを更新する">
<polygon fill="#999999" stroke="#666666" points="121.75,-58 0,-58 0,-38 121.75,-38 121.75,-58"/>
<text xml:space="preserve" text-anchor="middle" x="60.88" y="-44.5" font-family="Helvetica,sans-Serif" font-size="10.00">CameraSystem::Update</text>
</a>
</g>
</g>
<!-- Node2 -->
<g id="Node000002" class="node">
<title>Node2</title>
<g id="a_Node000002"><a xlink:href="class_camera_system.html#a154a58ca736a1bc9cb4b27eadb25bc11" target="_top" xlink:title="カメラ中心座標を作成する">
<polygon fill="white" stroke="#666666" points="322.25,-108 157.75,-108 157.75,-76 322.25,-76 322.25,-108"/>
<text xml:space="preserve" text-anchor="start" x="165.75" y="-94.5" font-family="Helvetica,sans-Serif" font-size="10.00">CameraSystem::ComputeCamera</text>
<text xml:space="preserve" text-anchor="middle" x="240" y="-82.5" font-family="Helvetica,sans-Serif" font-size="10.00">Center</text>
</a>
</g>
</g>
<!-- Node1&#45;&gt;Node2 -->
<g id="edge1_Node000001_Node000002" class="edge">
<title>Node1&#45;&gt;Node2</title>
<g id="a_edge1_Node000001_Node000002"><a xlink:title=" ">
<path fill="none" stroke="#63b8ff" d="M103.85,-58.43C121.2,-62.74 141.89,-67.88 161.79,-72.82"/>
<polygon fill="#63b8ff" stroke="#63b8ff" points="160.73,-76.16 171.28,-75.18 162.41,-69.37 160.73,-76.16"/>
</a>
</g>
</g>
<!-- Node3 -->
<g id="Node000003" class="node">
<title>Node3</title>
<g id="a_Node000003"><a xlink:href="class_camera_system.html#a5e67f39df251b89b9b2c5509018d079e" target="_top" xlink:title="カメラ中心の目標Yを計算する">
<polygon fill="white" stroke="#666666" points="318.5,-58 161.5,-58 161.5,-38 318.5,-38 318.5,-58"/>
<text xml:space="preserve" text-anchor="middle" x="240" y="-44.5" font-family="Helvetica,sans-Serif" font-size="10.00">CameraSystem::ComputeGoalY</text>
</a>
</g>
</g>
<!-- Node1&#45;&gt;Node3 -->
<g id="edge2_Node000001_Node000003" class="edge">
<title>Node1&#45;&gt;Node3</title>
<g id="a_edge2_Node000001_Node000003"><a xlink:title=" ">
<path fill="none" stroke="#63b8ff" d="M121.84,-48C130.83,-48 140.26,-48 149.7,-48"/>
<polygon fill="#63b8ff" stroke="#63b8ff" points="149.68,-51.5 159.68,-48 149.68,-44.5 149.68,-51.5"/>
</a>
</g>
</g>
<!-- Node4 -->
<g id="Node000004" class="node">
<title>Node4</title>
<g id="a_Node000004"><a xlink:href="class_camera_system.html#a5d1c042584093e6114683962330c8a3d" target="_top" xlink:title="現在値を目標に滑らかに補間する">
<polygon fill="white" stroke="#666666" points="307.25,-20 172.75,-20 172.75,0 307.25,0 307.25,-20"/>
<text xml:space="preserve" text-anchor="middle" x="240" y="-6.5" font-family="Helvetica,sans-Serif" font-size="10.00">CameraSystem::SmoothTo</text>
</a>
</g>
</g>
<!-- Node1&#45;&gt;Node4 -->
<g id="edge3_Node000001_Node000004" class="edge">
<title>Node1&#45;&gt;Node4</title>
<g id="a_edge3_Node000001_Node000004"><a xlink:title=" ">
<path fill="none" stroke="#63b8ff" d="M110.74,-37.52C131.94,-32.97 156.97,-27.6 179.26,-22.82"/>
<polygon fill="#63b8ff" stroke="#63b8ff" points="179.77,-26.29 188.81,-20.77 178.3,-19.44 179.77,-26.29"/>
</a>
</g>
</g>
</g>
</svg>
