<?xml version="1.0" encoding="UTF-8" standalone="no"?>
<!DOCTYPE svg PUBLIC "-//W3C//DTD SVG 1.1//EN"
 "http://www.w3.org/Graphics/SVG/1.1/DTD/svg11.dtd">
<!-- Generated by graphviz version 14.0.2 (20251019.1705)
 -->
<!-- Title: GameScene::UpdateBGM Pages: 1 -->
<svg width="344pt" height="66pt"
 viewBox="0.00 0.00 344.00 66.00" xmlns="http://www.w3.org/2000/svg" xmlns:xlink="http://www.w3.org/1999/xlink">
<g id="graph0" class="graph" transform="scale(1 1) rotate(0) translate(4 62)">
<title>GameScene::UpdateBGM</title>
<!-- Node1 -->
<g id="Node000001" class="node">
<title>Node1</title>
<g id="a_Node000001"><a xlink:title="BGMを更新する">
<polygon fill="#999999" stroke="#666666" points="130,-39 0,-39 0,-19 130,-19 130,-39"/>
<text xml:space="preserve" text-anchor="middle" x="65" y="-25.5" font-family="Helvetica,sans-Serif" font-size="10.00">GameScene::UpdateBGM</text>
</a>
</g>
</g>
<!-- Node2 -->
<g id="Node000002" class="node">
<title>Node2</title>
<g id="a_Node000002"><a xlink:href="class_game_scene.html#aa563b355724487c1568bd4ab41c4d95d" target="_top" xlink:title="保留中のBGM再生を処理する">
<polygon fill="white" stroke="#666666" points="335.75,-58 166,-58 166,-38 335.75,-38 335.75,-58"/>
<text xml:space="preserve" text-anchor="middle" x="250.88" y="-44.5" font-family="Helvetica,sans-Serif" font-size="10.00">GameScene::ProcessPendingBGM</text>
</a>
</g>
</g>
<!-- Node1&#45;&gt;Node2 -->
<g id="edge1_Node000001_Node000002" class="edge">
<title>Node1&#45;&gt;Node2</title>
<g id="a_edge1_Node000001_Node000002"><a xlink:title=" ">
<path fill="none" stroke="#63b8ff" d="M130.31,-35.65C138.05,-36.45 146.08,-37.28 154.15,-38.11"/>
<polygon fill="#63b8ff" stroke="#63b8ff" points="153.75,-41.59 164.06,-39.13 154.47,-34.62 153.75,-41.59"/>
</a>
</g>
</g>
<!-- Node3 -->
<g id="Node000003" class="node">
<title>Node3</title>
<g id="a_Node000003"><a xlink:href="class_game_scene.html#a1717f5abe6408c41d43fc54a5e2c5314" target="_top" xlink:title="BGM再生を開始または遅延させる">
<polygon fill="white" stroke="#666666" points="327.88,-20 173.88,-20 173.88,0 327.88,0 327.88,-20"/>
<text xml:space="preserve" text-anchor="middle" x="250.88" y="-6.5" font-family="Helvetica,sans-Serif" font-size="10.00">GameScene::StartOrDeferBGM</text>
</a>
</g>
</g>
<!-- Node1&#45;&gt;Node3 -->
<g id="edge2_Node000001_Node000003" class="edge">
<title>Node1&#45;&gt;Node3</title>
<g id="a_edge2_Node000001_Node000003"><a xlink:title=" ">
<path fill="none" stroke="#63b8ff" d="M130.31,-22.35C140.69,-21.28 151.58,-20.16 162.39,-19.04"/>
<polygon fill="#63b8ff" stroke="#63b8ff" points="162.51,-22.55 172.1,-18.04 161.79,-15.58 162.51,-22.55"/>
</a>
</g>
</g>
</g>
</svg>
