<?xml version="1.0" encoding="UTF-8" standalone="no"?>
<!DOCTYPE svg PUBLIC "-//W3C//DTD SVG 1.1//EN"
 "http://www.w3.org/Graphics/SVG/1.1/DTD/svg11.dtd">
<!-- Generated by graphviz version 14.0.2 (20251019.1705)
 -->
<!-- Title: AssetSystem::operator= Pages: 1 -->
<svg width="307pt" height="46pt"
 viewBox="0.00 0.00 307.00 46.00" xmlns="http://www.w3.org/2000/svg" xmlns:xlink="http://www.w3.org/1999/xlink">
<g id="graph0" class="graph" transform="scale(1 1) rotate(0) translate(4 42)">
<title>AssetSystem::operator=</title>
<!-- Node1 -->
<g id="Node000001" class="node">
<title>Node1</title>
<g id="a_Node000001"><a xlink:title="コピー代入演算子(削除)">
<polygon fill="#999999" stroke="#666666" points="122.5,-20 0,-20 0,0 122.5,0 122.5,-20"/>
<text xml:space="preserve" text-anchor="middle" x="61.25" y="-6.5" font-family="Helvetica,sans-Serif" font-size="10.00">AssetSystem::operator=</text>
</a>
</g>
</g>
<!-- Node2 -->
<g id="Node000002" class="node">
<title>Node2</title>
<g id="a_Node000002"><a xlink:href="class_asset_system.html#a01eef25242d94de3e93ac0644a269127" target="_top" xlink:title="コピーコンストラクタ(削除)">
<polygon fill="white" stroke="#666666" points="299,-20 158.5,-20 158.5,0 299,0 299,-20"/>
<text xml:space="preserve" text-anchor="middle" x="228.75" y="-6.5" font-family="Helvetica,sans-Serif" font-size="10.00">AssetSystem::AssetSystem</text>
</a>
</g>
</g>
<!-- Node1&#45;&gt;Node2 -->
<g id="edge1_Node000001_Node000002" class="edge">
<title>Node1&#45;&gt;Node2</title>
<g id="a_edge1_Node000001_Node000002"><a xlink:title=" ">
<path fill="none" stroke="#63b8ff" d="M122.94,-10C130.71,-10 138.77,-10 146.8,-10"/>
<polygon fill="#63b8ff" stroke="#63b8ff" points="146.6,-13.5 156.6,-10 146.6,-6.5 146.6,-13.5"/>
</a>
</g>
</g>
<!-- Node2&#45;&gt;Node2 -->
<g id="edge2_Node000002_Node000002" class="edge">
<title>Node2&#45;&gt;Node2</title>
<g id="a_edge2_Node000002_Node000002"><a xlink:title=" ">
<path fill="none" stroke="#63b8ff" d="M202.14,-20.34C190.76,-28.98 199.63,-38 228.75,-38 244.67,-38 254.54,-35.3 258.35,-31.44"/>
<polygon fill="#63b8ff" stroke="#63b8ff" points="261.74,-30.55 255.76,-21.8 254.98,-32.37 261.74,-30.55"/>
</a>
</g>
</g>
</g>
</svg>
