<?xml version="1.0" encoding="UTF-8" standalone="no"?>
<!DOCTYPE svg PUBLIC "-//W3C//DTD SVG 1.1//EN"
 "http://www.w3.org/Graphics/SVG/1.1/DTD/svg11.dtd">
<!-- Generated by graphviz version 14.0.2 (20251019.1705)
 -->
<!-- Title: EnemyDataSystem::IsLoaded Pages: 1 -->
<svg width="471pt" height="28pt"
 viewBox="0.00 0.00 471.00 28.00" xmlns="http://www.w3.org/2000/svg" xmlns:xlink="http://www.w3.org/1999/xlink">
<g id="graph0" class="graph" transform="scale(1 1) rotate(0) translate(4 24)">
<title>EnemyDataSystem::IsLoaded</title>
<!-- Node1 -->
<g id="Node000001" class="node">
<title>Node1</title>
<g id="a_Node000001"><a xlink:title="JSON全体が有効にロードされているか">
<polygon fill="#999999" stroke="#666666" points="462.75,-20 315.5,-20 315.5,0 462.75,0 462.75,-20"/>
<text xml:space="preserve" text-anchor="middle" x="389.12" y="-6.5" font-family="Helvetica,sans-Serif" font-size="10.00">EnemyDataSystem::IsLoaded</text>
</a>
</g>
</g>
<!-- Node2 -->
<g id="Node000002" class="node">
<title>Node2</title>
<g id="a_Node000002"><a xlink:href="class_enemy_data_system.html#adf32279bb330b55e88a56b36b2f08345" target="_top" xlink:title="指定したタイプの敵仕様を取得する">
<polygon fill="white" stroke="#666666" points="279.5,-20 119.5,-20 119.5,0 279.5,0 279.5,-20"/>
<text xml:space="preserve" text-anchor="middle" x="199.5" y="-6.5" font-family="Helvetica,sans-Serif" font-size="10.00">EnemyDataSystem::TryGetSpec</text>
</a>
</g>
</g>
<!-- Node1&#45;&gt;Node2 -->
<g id="edge1_Node000001_Node000002" class="edge">
<title>Node1&#45;&gt;Node2</title>
<g id="a_edge1_Node000001_Node000002"><a xlink:title=" ">
<path fill="none" stroke="#63b8ff" d="M303.59,-10C295.7,-10 287.73,-10 279.9,-10"/>
<polygon fill="#63b8ff" stroke="#63b8ff" points="303.53,-13.5 313.53,-10 303.53,-6.5 303.53,-13.5"/>
</a>
</g>
</g>
<!-- Node3 -->
<g id="Node000003" class="node">
<title>Node3</title>
<g id="a_Node000003"><a xlink:href="class_enemy.html#aef53170a2c1f62d9e563f56e7c0aa559" target="_top" xlink:title="コンストラクタ">
<polygon fill="white" stroke="#666666" points="83.5,-20 0,-20 0,0 83.5,0 83.5,-20"/>
<text xml:space="preserve" text-anchor="middle" x="41.75" y="-6.5" font-family="Helvetica,sans-Serif" font-size="10.00">Enemy::Enemy</text>
</a>
</g>
</g>
<!-- Node2&#45;&gt;Node3 -->
<g id="edge2_Node000002_Node000003" class="edge">
<title>Node2&#45;&gt;Node3</title>
<g id="a_edge2_Node000002_Node000003"><a xlink:title=" ">
<path fill="none" stroke="#63b8ff" d="M107.75,-10C99.38,-10 91.22,-10 83.66,-10"/>
<polygon fill="#63b8ff" stroke="#63b8ff" points="107.74,-13.5 117.74,-10 107.74,-6.5 107.74,-13.5"/>
</a>
</g>
</g>
</g>
</svg>
