<?xml version="1.0" encoding="UTF-8" standalone="no"?>
<!DOCTYPE svg PUBLIC "-//W3C//DTD SVG 1.1//EN"
 "http://www.w3.org/Graphics/SVG/1.1/DTD/svg11.dtd">
<!-- Generated by graphviz version 14.0.2 (20251019.1705)
 -->
<!-- Title: Stage::IsSolid Pages: 1 -->
<svg width="509pt" height="104pt"
 viewBox="0.00 0.00 509.00 104.00" xmlns="http://www.w3.org/2000/svg" xmlns:xlink="http://www.w3.org/1999/xlink">
<g id="graph0" class="graph" transform="scale(1 1) rotate(0) translate(4 100)">
<title>Stage::IsSolid</title>
<!-- Node1 -->
<g id="Node000001" class="node">
<title>Node1</title>
<g id="a_Node000001"><a xlink:title="指定したワールド座標が壁タイル上かを判定する">
<polygon fill="#999999" stroke="#666666" points="500.5,-58 423,-58 423,-38 500.5,-38 500.5,-58"/>
<text xml:space="preserve" text-anchor="middle" x="461.75" y="-44.5" font-family="Helvetica,sans-Serif" font-size="10.00">Stage::IsSolid</text>
</a>
</g>
</g>
<!-- Node2 -->
<g id="Node000002" class="node">
<title>Node2</title>
<g id="a_Node000002"><a xlink:href="class_player.html#abfeffb1320e2b63619161ae38b792e11" target="_top" xlink:title="X軸方向の移動処理">
<polygon fill="white" stroke="#666666" points="368.62,-96 288.12,-96 288.12,-76 368.62,-76 368.62,-96"/>
<text xml:space="preserve" text-anchor="middle" x="328.38" y="-82.5" font-family="Helvetica,sans-Serif" font-size="10.00">Player::MoveX</text>
</a>
</g>
</g>
<!-- Node1&#45;&gt;Node2 -->
<g id="edge1_Node000001_Node000002" class="edge">
<title>Node1&#45;&gt;Node2</title>
<g id="a_edge1_Node000001_Node000002"><a xlink:title=" ">
<path fill="none" stroke="#63b8ff" d="M413.81,-61.58C397.91,-66.18 380.42,-71.23 365.5,-75.55"/>
<polygon fill="#63b8ff" stroke="#63b8ff" points="414.42,-65.05 423.05,-58.9 412.47,-58.32 414.42,-65.05"/>
</a>
</g>
</g>
<!-- Node5 -->
<g id="Node000005" class="node">
<title>Node5</title>
<g id="a_Node000005"><a xlink:href="class_player.html#ae83f03e905e8fe4771a95345ef626d18" target="_top" xlink:title="Y軸方向の移動処理">
<polygon fill="white" stroke="#666666" points="368.62,-58 288.12,-58 288.12,-38 368.62,-38 368.62,-58"/>
<text xml:space="preserve" text-anchor="middle" x="328.38" y="-44.5" font-family="Helvetica,sans-Serif" font-size="10.00">Player::MoveY</text>
</a>
</g>
</g>
<!-- Node1&#45;&gt;Node5 -->
<g id="edge4_Node000001_Node000005" class="edge">
<title>Node1&#45;&gt;Node5</title>
<g id="a_edge4_Node000001_Node000005"><a xlink:title=" ">
<path fill="none" stroke="#63b8ff" d="M411.34,-48C397.4,-48 382.41,-48 369.12,-48"/>
<polygon fill="#63b8ff" stroke="#63b8ff" points="411.24,-51.5 421.24,-48 411.24,-44.5 411.24,-51.5"/>
</a>
</g>
</g>
<!-- Node6 -->
<g id="Node000006" class="node">
<title>Node6</title>
<g id="a_Node000006"><a xlink:href="class_patrol_behavior.html#a9c9dd52a110aab66dc26391364d71d7e" target="_top" xlink:title="敵の行動を更新する">
<polygon fill="white" stroke="#666666" points="387,-20 269.75,-20 269.75,0 387,0 387,-20"/>
<text xml:space="preserve" text-anchor="middle" x="328.38" y="-6.5" font-family="Helvetica,sans-Serif" font-size="10.00">PatrolBehavior::Update</text>
</a>
</g>
</g>
<!-- Node1&#45;&gt;Node6 -->
<g id="edge6_Node000001_Node000006" class="edge">
<title>Node1&#45;&gt;Node6</title>
<g id="a_edge6_Node000001_Node000006"><a xlink:title=" ">
<path fill="none" stroke="#63b8ff" d="M413.81,-34.42C397.91,-29.82 380.42,-24.77 365.5,-20.45"/>
<polygon fill="#63b8ff" stroke="#63b8ff" points="412.47,-37.68 423.05,-37.1 414.42,-30.95 412.47,-37.68"/>
</a>
</g>
</g>
<!-- Node3 -->
<g id="Node000003" class="node">
<title>Node3</title>
<g id="a_Node000003"><a xlink:href="class_player.html#a9dbda24f6f27cb247da724a92fdd873d" target="_top" xlink:title="物理演算を更新する">
<polygon fill="white" stroke="#666666" points="233.75,-77 117.25,-77 117.25,-57 233.75,-57 233.75,-77"/>
<text xml:space="preserve" text-anchor="middle" x="175.5" y="-63.5" font-family="Helvetica,sans-Serif" font-size="10.00">Player::UpdatePhysics</text>
</a>
</g>
</g>
<!-- Node2&#45;&gt;Node3 -->
<g id="edge2_Node000002_Node000003" class="edge">
<title>Node2&#45;&gt;Node3</title>
<g id="a_edge2_Node000002_Node000003"><a xlink:title=" ">
<path fill="none" stroke="#63b8ff" d="M276.59,-79.6C262.92,-77.88 248.04,-76.01 234.04,-74.25"/>
<polygon fill="#63b8ff" stroke="#63b8ff" points="275.87,-83.04 286.23,-80.82 276.75,-76.1 275.87,-83.04"/>
</a>
</g>
</g>
<!-- Node4 -->
<g id="Node000004" class="node">
<title>Node4</title>
<g id="a_Node000004"><a xlink:href="class_player.html#a4b224bdee973f00772184b1e87970633" target="_top" xlink:title="プレイヤーを更新する">
<polygon fill="white" stroke="#666666" points="81.25,-77 0,-77 0,-57 81.25,-57 81.25,-77"/>
<text xml:space="preserve" text-anchor="middle" x="40.62" y="-63.5" font-family="Helvetica,sans-Serif" font-size="10.00">Player::Update</text>
</a>
</g>
</g>
<!-- Node3&#45;&gt;Node4 -->
<g id="edge3_Node000003_Node000004" class="edge">
<title>Node3&#45;&gt;Node4</title>
<g id="a_edge3_Node000003_Node000004"><a xlink:title=" ">
<path fill="none" stroke="#63b8ff" d="M105.75,-67C97.49,-67 89.28,-67 81.62,-67"/>
<polygon fill="#63b8ff" stroke="#63b8ff" points="105.48,-70.5 115.48,-67 105.48,-63.5 105.48,-70.5"/>
</a>
</g>
</g>
<!-- Node5&#45;&gt;Node3 -->
<g id="edge5_Node000005_Node000003" class="edge">
<title>Node5&#45;&gt;Node3</title>
<g id="a_edge5_Node000005_Node000003"><a xlink:title=" ">
<path fill="none" stroke="#63b8ff" d="M276.59,-54.4C262.92,-56.12 248.04,-57.99 234.04,-59.75"/>
<polygon fill="#63b8ff" stroke="#63b8ff" points="276.75,-57.9 286.23,-53.18 275.87,-50.96 276.75,-57.9"/>
</a>
</g>
</g>
</g>
</svg>
