<?xml version="1.0" encoding="UTF-8" standalone="no"?>
<!DOCTYPE svg PUBLIC "-//W3C//DTD SVG 1.1//EN"
 "http://www.w3.org/Graphics/SVG/1.1/DTD/svg11.dtd">
<!-- Generated by graphviz version 14.0.2 (20251019.1705)
 -->
<!-- Title: AssetSystem::UnregisterAssets Pages: 1 -->
<svg width="513pt" height="66pt"
 viewBox="0.00 0.00 513.00 66.00" xmlns="http://www.w3.org/2000/svg" xmlns:xlink="http://www.w3.org/1999/xlink">
<g id="graph0" class="graph" transform="scale(1 1) rotate(0) translate(4 62)">
<title>AssetSystem::UnregisterAssets</title>
<!-- Node1 -->
<g id="Node000001" class="node">
<title>Node1</title>
<g id="a_Node000001"><a xlink:title="現在のシーンのアセット登録をすべて解除する">
<polygon fill="#999999" stroke="#666666" points="504.75,-39 347.75,-39 347.75,-19 504.75,-19 504.75,-39"/>
<text xml:space="preserve" text-anchor="middle" x="426.25" y="-25.5" font-family="Helvetica,sans-Serif" font-size="10.00">AssetSystem::UnregisterAssets</text>
</a>
</g>
</g>
<!-- Node2 -->
<g id="Node000002" class="node">
<title>Node2</title>
<g id="a_Node000002"><a xlink:href="class_asset_system.html#a38216f3fc1a218b4cf6910e8ed455be9" target="_top" xlink:title="指定したシーン名のアセットを準備する">
<polygon fill="white" stroke="#666666" points="311.75,-58 166,-58 166,-38 311.75,-38 311.75,-58"/>
<text xml:space="preserve" text-anchor="middle" x="238.88" y="-44.5" font-family="Helvetica,sans-Serif" font-size="10.00">AssetSystem::PrepareAssets</text>
</a>
</g>
</g>
<!-- Node1&#45;&gt;Node2 -->
<g id="edge1_Node000001_Node000002" class="edge">
<title>Node1&#45;&gt;Node2</title>
<g id="a_edge1_Node000001_Node000002"><a xlink:title=" ">
<path fill="none" stroke="#63b8ff" d="M336.13,-38.13C328.1,-38.96 320.03,-39.78 312.16,-40.59"/>
<polygon fill="#63b8ff" stroke="#63b8ff" points="336.34,-41.63 345.93,-37.13 335.63,-34.67 336.34,-41.63"/>
</a>
</g>
</g>
<!-- Node4 -->
<g id="Node000004" class="node">
<title>Node4</title>
<g id="a_Node000004"><a xlink:href="class_game_scene.html#a921b4236d2a999c3b5edd8fe1d9086e1" target="_top" xlink:title="デストラクタ">
<polygon fill="white" stroke="#666666" points="306.88,-20 170.88,-20 170.88,0 306.88,0 306.88,-20"/>
<text xml:space="preserve" text-anchor="middle" x="238.88" y="-6.5" font-family="Helvetica,sans-Serif" font-size="10.00">GameScene::~GameScene</text>
</a>
</g>
</g>
<!-- Node1&#45;&gt;Node4 -->
<g id="edge3_Node000001_Node000004" class="edge">
<title>Node1&#45;&gt;Node4</title>
<g id="a_edge3_Node000001_Node000004"><a xlink:title=" ">
<path fill="none" stroke="#63b8ff" d="M336.08,-19.86C326.36,-18.86 316.59,-17.86 307.19,-16.9"/>
<polygon fill="#63b8ff" stroke="#63b8ff" points="335.63,-23.33 345.93,-20.87 336.34,-16.37 335.63,-23.33"/>
</a>
</g>
</g>
<!-- Node3 -->
<g id="Node000003" class="node">
<title>Node3</title>
<g id="a_Node000003"><a xlink:href="class_game_scene.html#aa0fa2a98f139524a96ffb9d25252b145" target="_top" xlink:title="コンストラクタ">
<polygon fill="white" stroke="#666666" points="130,-58 0,-58 0,-38 130,-38 130,-58"/>
<text xml:space="preserve" text-anchor="middle" x="65" y="-44.5" font-family="Helvetica,sans-Serif" font-size="10.00">GameScene::GameScene</text>
</a>
</g>
</g>
<!-- Node2&#45;&gt;Node3 -->
<g id="edge2_Node000002_Node000003" class="edge">
<title>Node2&#45;&gt;Node3</title>
<g id="a_edge2_Node000002_Node000003"><a xlink:title=" ">
<path fill="none" stroke="#63b8ff" d="M154.58,-48C146.49,-48 138.36,-48 130.49,-48"/>
<polygon fill="#63b8ff" stroke="#63b8ff" points="154.47,-51.5 164.47,-48 154.47,-44.5 154.47,-51.5"/>
</a>
</g>
</g>
</g>
</svg>
