<?xml version="1.0" encoding="UTF-8" standalone="no"?>
<!DOCTYPE svg PUBLIC "-//W3C//DTD SVG 1.1//EN"
 "http://www.w3.org/Graphics/SVG/1.1/DTD/svg11.dtd">
<!-- Generated by graphviz version 14.0.2 (20251019.1705)
 -->
<!-- Title: Stage::ParseTileLayer Pages: 1 -->
<svg width="378pt" height="28pt"
 viewBox="0.00 0.00 378.00 28.00" xmlns="http://www.w3.org/2000/svg" xmlns:xlink="http://www.w3.org/1999/xlink">
<g id="graph0" class="graph" transform="scale(1 1) rotate(0) translate(4 24)">
<title>Stage::ParseTileLayer</title>
<!-- Node1 -->
<g id="Node000001" class="node">
<title>Node1</title>
<g id="a_Node000001"><a xlink:title="タイルレイヤーを解析する">
<polygon fill="#999999" stroke="#666666" points="369.75,-20 257,-20 257,0 369.75,0 369.75,-20"/>
<text xml:space="preserve" text-anchor="middle" x="313.38" y="-6.5" font-family="Helvetica,sans-Serif" font-size="10.00">Stage::ParseTileLayer</text>
</a>
</g>
</g>
<!-- Node2 -->
<g id="Node000002" class="node">
<title>Node2</title>
<g id="a_Node000002"><a xlink:href="class_stage.html#a046289fe3fa7e0cc0c6b6c039a3e8d16" target="_top" xlink:title="JSONからマップデータを読み込む">
<polygon fill="white" stroke="#666666" points="221,-20 109,-20 109,0 221,0 221,-20"/>
<text xml:space="preserve" text-anchor="middle" x="165" y="-6.5" font-family="Helvetica,sans-Serif" font-size="10.00">Stage::LoadFromJson</text>
</a>
</g>
</g>
<!-- Node1&#45;&gt;Node2 -->
<g id="edge1_Node000001_Node000002" class="edge">
<title>Node1&#45;&gt;Node2</title>
<g id="a_edge1_Node000001_Node000002"><a xlink:title=" ">
<path fill="none" stroke="#63b8ff" d="M245.29,-10C237.2,-10 229.01,-10 221.12,-10"/>
<polygon fill="#63b8ff" stroke="#63b8ff" points="245.11,-13.5 255.11,-10 245.11,-6.5 245.11,-13.5"/>
</a>
</g>
</g>
<!-- Node3 -->
<g id="Node000003" class="node">
<title>Node3</title>
<g id="a_Node000003"><a xlink:href="class_stage.html#a635602a35a967a2f052e1d02eea88606" target="_top" xlink:title="コンストラクタ">
<polygon fill="white" stroke="#666666" points="73,-20 0,-20 0,0 73,0 73,-20"/>
<text xml:space="preserve" text-anchor="middle" x="36.5" y="-6.5" font-family="Helvetica,sans-Serif" font-size="10.00">Stage::Stage</text>
</a>
</g>
</g>
<!-- Node2&#45;&gt;Node3 -->
<g id="edge2_Node000002_Node000003" class="edge">
<title>Node2&#45;&gt;Node3</title>
<g id="a_edge2_Node000002_Node000003"><a xlink:title=" ">
<path fill="none" stroke="#63b8ff" d="M97.26,-10C89,-10 80.82,-10 73.28,-10"/>
<polygon fill="#63b8ff" stroke="#63b8ff" points="97,-13.5 107,-10 97,-6.5 97,-13.5"/>
</a>
</g>
</g>
</g>
</svg>
