<?xml version="1.0" encoding="UTF-8" standalone="no"?>
<!DOCTYPE svg PUBLIC "-//W3C//DTD SVG 1.1//EN"
 "http://www.w3.org/Graphics/SVG/1.1/DTD/svg11.dtd">
<!-- Generated by graphviz version 14.0.2 (20251019.1705)
 -->
<!-- Title: CameraSystem::ComputeCameraCenter Pages: 1 -->
<svg width="560pt" height="66pt"
 viewBox="0.00 0.00 560.00 66.00" xmlns="http://www.w3.org/2000/svg" xmlns:xlink="http://www.w3.org/1999/xlink">
<g id="graph0" class="graph" transform="scale(1 1) rotate(0) translate(4 62)">
<title>CameraSystem::ComputeCameraCenter</title>
<!-- Node1 -->
<g id="Node000001" class="node">
<title>Node1</title>
<g id="a_Node000001"><a xlink:title="カメラ中心座標を作成する">
<polygon fill="#999999" stroke="#666666" points="552,-45 387.5,-45 387.5,-13 552,-13 552,-45"/>
<text xml:space="preserve" text-anchor="start" x="395.5" y="-31.5" font-family="Helvetica,sans-Serif" font-size="10.00">CameraSystem::ComputeCamera</text>
<text xml:space="preserve" text-anchor="middle" x="469.75" y="-19.5" font-family="Helvetica,sans-Serif" font-size="10.00">Center</text>
</a>
</g>
</g>
<!-- Node2 -->
<g id="Node000002" class="node">
<title>Node2</title>
<g id="a_Node000002"><a xlink:href="class_camera_system.html#a974b77a3f97e5cfd7d8bc0ee36bc87e3" target="_top" xlink:title="カメラオフセットを取得する">
<polygon fill="white" stroke="#666666" points="351.5,-58 184.75,-58 184.75,-38 351.5,-38 351.5,-58"/>
<text xml:space="preserve" text-anchor="middle" x="268.12" y="-44.5" font-family="Helvetica,sans-Serif" font-size="10.00">CameraSystem::GetCameraOffset</text>
</a>
</g>
</g>
<!-- Node1&#45;&gt;Node2 -->
<g id="edge1_Node000001_Node000002" class="edge">
<title>Node1&#45;&gt;Node2</title>
<g id="a_edge1_Node000001_Node000002"><a xlink:title=" ">
<path fill="none" stroke="#63b8ff" d="M375.99,-37.83C367.98,-38.59 359.9,-39.36 351.97,-40.12"/>
<polygon fill="#63b8ff" stroke="#63b8ff" points="376.14,-41.33 385.76,-36.9 375.47,-34.36 376.14,-41.33"/>
</a>
</g>
</g>
<!-- Node4 -->
<g id="Node000004" class="node">
<title>Node4</title>
<g id="a_Node000004"><a xlink:href="class_camera_system.html#ac2a02c40c7d6c3a9876461ab771796c8" target="_top" xlink:title="カメラを更新する">
<polygon fill="white" stroke="#666666" points="329,-20 207.25,-20 207.25,0 329,0 329,-20"/>
<text xml:space="preserve" text-anchor="middle" x="268.12" y="-6.5" font-family="Helvetica,sans-Serif" font-size="10.00">CameraSystem::Update</text>
</a>
</g>
</g>
<!-- Node1&#45;&gt;Node4 -->
<g id="edge3_Node000001_Node000004" class="edge">
<title>Node1&#45;&gt;Node4</title>
<g id="a_edge3_Node000001_Node000004"><a xlink:title=" ">
<path fill="none" stroke="#63b8ff" d="M375.81,-20.15C359.99,-18.65 343.93,-17.12 329.25,-15.72"/>
<polygon fill="#63b8ff" stroke="#63b8ff" points="375.47,-23.64 385.76,-21.1 376.14,-16.67 375.47,-23.64"/>
</a>
</g>
</g>
<!-- Node3 -->
<g id="Node000003" class="node">
<title>Node3</title>
<g id="a_Node000003"><a xlink:href="class_camera_system.html#aa2deafb88dba2bffe23d35ac6e4230bd" target="_top" xlink:title="ビュー矩形を取得する">
<polygon fill="white" stroke="#666666" points="148.75,-58 0,-58 0,-38 148.75,-38 148.75,-58"/>
<text xml:space="preserve" text-anchor="middle" x="74.38" y="-44.5" font-family="Helvetica,sans-Serif" font-size="10.00">CameraSystem::GetViewRect</text>
</a>
</g>
</g>
<!-- Node2&#45;&gt;Node3 -->
<g id="edge2_Node000002_Node000003" class="edge">
<title>Node2&#45;&gt;Node3</title>
<g id="a_edge2_Node000002_Node000003"><a xlink:title=" ">
<path fill="none" stroke="#63b8ff" d="M173.06,-48C165,-48 156.92,-48 149.06,-48"/>
<polygon fill="#63b8ff" stroke="#63b8ff" points="172.9,-51.5 182.9,-48 172.9,-44.5 172.9,-51.5"/>
</a>
</g>
</g>
</g>
</svg>
