<?xml version="1.0" encoding="UTF-8" standalone="no"?>
<!DOCTYPE svg PUBLIC "-//W3C//DTD SVG 1.1//EN"
 "http://www.w3.org/Graphics/SVG/1.1/DTD/svg11.dtd">
<!-- Generated by graphviz version 14.0.2 (20251019.1705)
 -->
<!-- Title: Stage::LoadFromJson Pages: 1 -->
<svg width="282pt" height="66pt"
 viewBox="0.00 0.00 282.00 66.00" xmlns="http://www.w3.org/2000/svg" xmlns:xlink="http://www.w3.org/1999/xlink">
<g id="graph0" class="graph" transform="scale(1 1) rotate(0) translate(4 62)">
<title>Stage::LoadFromJson</title>
<!-- Node1 -->
<g id="Node000001" class="node">
<title>Node1</title>
<g id="a_Node000001"><a xlink:title="JSONからマップデータを読み込む">
<polygon fill="#999999" stroke="#666666" points="112,-39 0,-39 0,-19 112,-19 112,-39"/>
<text xml:space="preserve" text-anchor="middle" x="56" y="-25.5" font-family="Helvetica,sans-Serif" font-size="10.00">Stage::LoadFromJson</text>
</a>
</g>
</g>
<!-- Node2 -->
<g id="Node000002" class="node">
<title>Node2</title>
<g id="a_Node000002"><a xlink:href="class_stage.html#ab7eb2696fab166bc7924120333715077" target="_top" xlink:title="オブジェクトレイヤーを解析する">
<polygon fill="white" stroke="#666666" points="273.5,-58 148,-58 148,-38 273.5,-38 273.5,-58"/>
<text xml:space="preserve" text-anchor="middle" x="210.75" y="-44.5" font-family="Helvetica,sans-Serif" font-size="10.00">Stage::ParseObjectLayer</text>
</a>
</g>
</g>
<!-- Node1&#45;&gt;Node2 -->
<g id="edge1_Node000001_Node000002" class="edge">
<title>Node1&#45;&gt;Node2</title>
<g id="a_edge1_Node000001_Node000002"><a xlink:title=" ">
<path fill="none" stroke="#63b8ff" d="M112.15,-35.86C119.99,-36.83 128.15,-37.85 136.27,-38.86"/>
<polygon fill="#63b8ff" stroke="#63b8ff" points="135.83,-42.33 146.19,-40.09 136.7,-35.39 135.83,-42.33"/>
</a>
</g>
</g>
<!-- Node3 -->
<g id="Node000003" class="node">
<title>Node3</title>
<g id="a_Node000003"><a xlink:href="class_stage.html#af45be338beccbbe57fc49b79572282d8" target="_top" xlink:title="タイルレイヤーを解析する">
<polygon fill="white" stroke="#666666" points="267.12,-20 154.38,-20 154.38,0 267.12,0 267.12,-20"/>
<text xml:space="preserve" text-anchor="middle" x="210.75" y="-6.5" font-family="Helvetica,sans-Serif" font-size="10.00">Stage::ParseTileLayer</text>
</a>
</g>
</g>
<!-- Node1&#45;&gt;Node3 -->
<g id="edge2_Node000001_Node000003" class="edge">
<title>Node1&#45;&gt;Node3</title>
<g id="a_edge2_Node000001_Node000003"><a xlink:title=" ">
<path fill="none" stroke="#63b8ff" d="M112.15,-22.14C122.02,-20.91 132.4,-19.62 142.57,-18.36"/>
<polygon fill="#63b8ff" stroke="#63b8ff" points="142.92,-21.84 152.41,-17.13 142.06,-14.89 142.92,-21.84"/>
</a>
</g>
</g>
</g>
</svg>
