<?xml version="1.0" encoding="UTF-8" standalone="no"?>
<!DOCTYPE svg PUBLIC "-//W3C//DTD SVG 1.1//EN"
 "http://www.w3.org/Graphics/SVG/1.1/DTD/svg11.dtd">
<!-- Generated by graphviz version 14.0.2 (20251019.1705)
 -->
<!-- Title: GameScene::ProcessPendingBGM Pages: 1 -->
<svg width="485pt" height="28pt"
 viewBox="0.00 0.00 485.00 28.00" xmlns="http://www.w3.org/2000/svg" xmlns:xlink="http://www.w3.org/1999/xlink">
<g id="graph0" class="graph" transform="scale(1 1) rotate(0) translate(4 24)">
<title>GameScene::ProcessPendingBGM</title>
<!-- Node1 -->
<g id="Node000001" class="node">
<title>Node1</title>
<g id="a_Node000001"><a xlink:title="保留中のBGM再生を処理する">
<polygon fill="#999999" stroke="#666666" points="477,-20 307.25,-20 307.25,0 477,0 477,-20"/>
<text xml:space="preserve" text-anchor="middle" x="392.12" y="-6.5" font-family="Helvetica,sans-Serif" font-size="10.00">GameScene::ProcessPendingBGM</text>
</a>
</g>
</g>
<!-- Node2 -->
<g id="Node000002" class="node">
<title>Node2</title>
<g id="a_Node000002"><a xlink:href="class_game_scene.html#a90075ad52095e3d625ae3aa13fada7e8" target="_top" xlink:title="BGMを更新する">
<polygon fill="white" stroke="#666666" points="271.25,-20 141.25,-20 141.25,0 271.25,0 271.25,-20"/>
<text xml:space="preserve" text-anchor="middle" x="206.25" y="-6.5" font-family="Helvetica,sans-Serif" font-size="10.00">GameScene::UpdateBGM</text>
</a>
</g>
</g>
<!-- Node1&#45;&gt;Node2 -->
<g id="edge1_Node000001_Node000002" class="edge">
<title>Node1&#45;&gt;Node2</title>
<g id="a_edge1_Node000001_Node000002"><a xlink:title=" ">
<path fill="none" stroke="#63b8ff" d="M295.51,-10C287.39,-10 279.31,-10 271.53,-10"/>
<polygon fill="#63b8ff" stroke="#63b8ff" points="295.48,-13.5 305.48,-10 295.48,-6.5 295.48,-13.5"/>
</a>
</g>
</g>
<!-- Node3 -->
<g id="Node000003" class="node">
<title>Node3</title>
<g id="a_Node000003"><a xlink:href="class_game_scene.html#a70464c5d4ccd05d39a9cb168e332c93a" target="_top" xlink:title="シーンを更新する">
<polygon fill="white" stroke="#666666" points="105.25,-20 0,-20 0,0 105.25,0 105.25,-20"/>
<text xml:space="preserve" text-anchor="middle" x="52.62" y="-6.5" font-family="Helvetica,sans-Serif" font-size="10.00">GameScene::update</text>
</a>
</g>
</g>
<!-- Node2&#45;&gt;Node3 -->
<g id="edge2_Node000002_Node000003" class="edge">
<title>Node2&#45;&gt;Node3</title>
<g id="a_edge2_Node000002_Node000003"><a xlink:title=" ">
<path fill="none" stroke="#63b8ff" d="M129.55,-10C121.45,-10 113.36,-10 105.63,-10"/>
<polygon fill="#63b8ff" stroke="#63b8ff" points="129.43,-13.5 139.43,-10 129.43,-6.5 129.43,-13.5"/>
</a>
</g>
</g>
</g>
</svg>
