<?xml version="1.0" encoding="UTF-8" standalone="no"?>
<!DOCTYPE svg PUBLIC "-//W3C//DTD SVG 1.1//EN"
 "http://www.w3.org/Graphics/SVG/1.1/DTD/svg11.dtd">
<!-- Generated by graphviz version 14.0.2 (20251019.1705)
 -->
<!-- Title: Player::OnSwimPressed Pages: 1 -->
<svg width="387pt" height="28pt"
 viewBox="0.00 0.00 387.00 28.00" xmlns="http://www.w3.org/2000/svg" xmlns:xlink="http://www.w3.org/1999/xlink">
<g id="graph0" class="graph" transform="scale(1 1) rotate(0) translate(4 24)">
<title>Player::OnSwimPressed</title>
<!-- Node1 -->
<g id="Node000001" class="node">
<title>Node1</title>
<g id="a_Node000001"><a xlink:title="泳ぎ入力時の処理">
<polygon fill="#999999" stroke="#666666" points="378.75,-20 255.5,-20 255.5,0 378.75,0 378.75,-20"/>
<text xml:space="preserve" text-anchor="middle" x="317.12" y="-6.5" font-family="Helvetica,sans-Serif" font-size="10.00">Player::OnSwimPressed</text>
</a>
</g>
</g>
<!-- Node2 -->
<g id="Node000002" class="node">
<title>Node2</title>
<g id="a_Node000002"><a xlink:href="class_player.html#a235c6e2e4fe87bbec295d71a31e5ead2" target="_top" xlink:title="入力を処理する">
<polygon fill="white" stroke="#666666" points="219.5,-20 117.25,-20 117.25,0 219.5,0 219.5,-20"/>
<text xml:space="preserve" text-anchor="middle" x="168.38" y="-6.5" font-family="Helvetica,sans-Serif" font-size="10.00">Player::HandleInput</text>
</a>
</g>
</g>
<!-- Node1&#45;&gt;Node2 -->
<g id="edge1_Node000001_Node000002" class="edge">
<title>Node1&#45;&gt;Node2</title>
<g id="a_edge1_Node000001_Node000002"><a xlink:title=" ">
<path fill="none" stroke="#63b8ff" d="M243.72,-10C235.59,-10 227.44,-10 219.67,-10"/>
<polygon fill="#63b8ff" stroke="#63b8ff" points="243.65,-13.5 253.65,-10 243.65,-6.5 243.65,-13.5"/>
</a>
</g>
</g>
<!-- Node3 -->
<g id="Node000003" class="node">
<title>Node3</title>
<g id="a_Node000003"><a xlink:href="class_player.html#a4b224bdee973f00772184b1e87970633" target="_top" xlink:title="プレイヤーを更新する">
<polygon fill="white" stroke="#666666" points="81.25,-20 0,-20 0,0 81.25,0 81.25,-20"/>
<text xml:space="preserve" text-anchor="middle" x="40.62" y="-6.5" font-family="Helvetica,sans-Serif" font-size="10.00">Player::Update</text>
</a>
</g>
</g>
<!-- Node2&#45;&gt;Node3 -->
<g id="edge2_Node000002_Node000003" class="edge">
<title>Node2&#45;&gt;Node3</title>
<g id="a_edge2_Node000002_Node000003"><a xlink:title=" ">
<path fill="none" stroke="#63b8ff" d="M105.53,-10C97.4,-10 89.25,-10 81.61,-10"/>
<polygon fill="#63b8ff" stroke="#63b8ff" points="105.44,-13.5 115.44,-10 105.44,-6.5 105.44,-13.5"/>
</a>
</g>
</g>
</g>
</svg>
