<?xml version="1.0" encoding="UTF-8" standalone="no"?>
<!DOCTYPE svg PUBLIC "-//W3C//DTD SVG 1.1//EN"
 "http://www.w3.org/Graphics/SVG/1.1/DTD/svg11.dtd">
<!-- Generated by graphviz version 14.0.2 (20251019.1705)
 -->
<!-- Title: AssetSystem::GetInstance Pages: 1 -->
<svg width="315pt" height="66pt"
 viewBox="0.00 0.00 315.00 66.00" xmlns="http://www.w3.org/2000/svg" xmlns:xlink="http://www.w3.org/1999/xlink">
<g id="graph0" class="graph" transform="scale(1 1) rotate(0) translate(4 62)">
<title>AssetSystem::GetInstance</title>
<!-- Node1 -->
<g id="Node000001" class="node">
<title>Node1</title>
<g id="a_Node000001"><a xlink:title="シングルトンインスタンスを取得する">
<polygon fill="#999999" stroke="#666666" points="306.5,-39 172,-39 172,-19 306.5,-19 306.5,-39"/>
<text xml:space="preserve" text-anchor="middle" x="239.25" y="-25.5" font-family="Helvetica,sans-Serif" font-size="10.00">AssetSystem::GetInstance</text>
</a>
</g>
</g>
<!-- Node2 -->
<g id="Node000002" class="node">
<title>Node2</title>
<g id="a_Node000002"><a xlink:href="class_game_scene.html#aa0fa2a98f139524a96ffb9d25252b145" target="_top" xlink:title="コンストラクタ">
<polygon fill="white" stroke="#666666" points="133,-58 3,-58 3,-38 133,-38 133,-58"/>
<text xml:space="preserve" text-anchor="middle" x="68" y="-44.5" font-family="Helvetica,sans-Serif" font-size="10.00">GameScene::GameScene</text>
</a>
</g>
</g>
<!-- Node1&#45;&gt;Node2 -->
<g id="edge1_Node000001_Node000002" class="edge">
<title>Node1&#45;&gt;Node2</title>
<g id="a_edge1_Node000001_Node000002"><a xlink:title=" ">
<path fill="none" stroke="#63b8ff" d="M160.42,-37.74C151.34,-38.76 142.15,-39.79 133.28,-40.78"/>
<polygon fill="#63b8ff" stroke="#63b8ff" points="160.79,-41.22 170.34,-36.62 160.01,-34.26 160.79,-41.22"/>
</a>
</g>
</g>
<!-- Node3 -->
<g id="Node000003" class="node">
<title>Node3</title>
<g id="a_Node000003"><a xlink:href="class_game_scene.html#a921b4236d2a999c3b5edd8fe1d9086e1" target="_top" xlink:title="デストラクタ">
<polygon fill="white" stroke="#666666" points="136,-20 0,-20 0,0 136,0 136,-20"/>
<text xml:space="preserve" text-anchor="middle" x="68" y="-6.5" font-family="Helvetica,sans-Serif" font-size="10.00">GameScene::~GameScene</text>
</a>
</g>
</g>
<!-- Node1&#45;&gt;Node3 -->
<g id="edge2_Node000001_Node000003" class="edge">
<title>Node1&#45;&gt;Node3</title>
<g id="a_edge2_Node000001_Node000003"><a xlink:title=" ">
<path fill="none" stroke="#63b8ff" d="M160.51,-20.27C152.44,-19.37 144.28,-18.45 136.33,-17.56"/>
<polygon fill="#63b8ff" stroke="#63b8ff" points="160.01,-23.74 170.34,-21.38 160.79,-16.78 160.01,-23.74"/>
</a>
</g>
</g>
</g>
</svg>
