<?xml version="1.0" encoding="UTF-8" standalone="no"?>
<!DOCTYPE svg PUBLIC "-//W3C//DTD SVG 1.1//EN"
 "http://www.w3.org/Graphics/SVG/1.1/DTD/svg11.dtd">
<!-- Generated by graphviz version 14.0.2 (20251019.1705)
 -->
<!-- Title: Player::UpdateColliderPosition Pages: 1 -->
<svg width="427pt" height="47pt"
 viewBox="0.00 0.00 427.00 47.00" xmlns="http://www.w3.org/2000/svg" xmlns:xlink="http://www.w3.org/1999/xlink">
<g id="graph0" class="graph" transform="scale(1 1) rotate(0) translate(4 43)">
<title>Player::UpdateColliderPosition</title>
<!-- Node1 -->
<g id="Node000001" class="node">
<title>Node1</title>
<g id="a_Node000001"><a xlink:title="コライダー位置を更新する">
<polygon fill="#999999" stroke="#666666" points="419.25,-39 269.75,-39 269.75,-19 419.25,-19 419.25,-39"/>
<text xml:space="preserve" text-anchor="middle" x="344.5" y="-25.5" font-family="Helvetica,sans-Serif" font-size="10.00">Player::UpdateColliderPosition</text>
</a>
</g>
</g>
<!-- Node2 -->
<g id="Node000002" class="node">
<title>Node2</title>
<g id="a_Node000002"><a xlink:href="class_player.html#a4b224bdee973f00772184b1e87970633" target="_top" xlink:title="プレイヤーを更新する">
<polygon fill="white" stroke="#666666" points="81.25,-39 0,-39 0,-19 81.25,-19 81.25,-39"/>
<text xml:space="preserve" text-anchor="middle" x="40.62" y="-25.5" font-family="Helvetica,sans-Serif" font-size="10.00">Player::Update</text>
</a>
</g>
</g>
<!-- Node1&#45;&gt;Node2 -->
<g id="edge1_Node000001_Node000002" class="edge">
<title>Node1&#45;&gt;Node2</title>
<g id="a_edge1_Node000001_Node000002"><a xlink:title=" ">
<path fill="none" stroke="#63b8ff" d="M257.9,-29C199.93,-29 126.02,-29 81.34,-29"/>
<polygon fill="#63b8ff" stroke="#63b8ff" points="257.75,-32.5 267.75,-29 257.75,-25.5 257.75,-32.5"/>
</a>
</g>
</g>
<!-- Node3 -->
<g id="Node000003" class="node">
<title>Node3</title>
<g id="a_Node000003"><a xlink:href="class_player.html#a9dbda24f6f27cb247da724a92fdd873d" target="_top" xlink:title="物理演算を更新する">
<polygon fill="white" stroke="#666666" points="233.75,-20 117.25,-20 117.25,0 233.75,0 233.75,-20"/>
<text xml:space="preserve" text-anchor="middle" x="175.5" y="-6.5" font-family="Helvetica,sans-Serif" font-size="10.00">Player::UpdatePhysics</text>
</a>
</g>
</g>
<!-- Node1&#45;&gt;Node3 -->
<g id="edge2_Node000001_Node000003" class="edge">
<title>Node1&#45;&gt;Node3</title>
<g id="a_edge2_Node000001_Node000003"><a xlink:title=" ">
<path fill="none" stroke="#63b8ff" d="M257.93,-19.26C249.9,-18.35 241.89,-17.44 234.2,-16.56"/>
<polygon fill="#63b8ff" stroke="#63b8ff" points="257.44,-22.73 267.77,-20.38 258.23,-15.78 257.44,-22.73"/>
</a>
</g>
</g>
<!-- Node3&#45;&gt;Node2 -->
<g id="edge3_Node000003_Node000002" class="edge">
<title>Node3&#45;&gt;Node2</title>
<g id="a_edge3_Node000003_Node000002"><a xlink:title=" ">
<path fill="none" stroke="#63b8ff" d="M105.75,-19.83C97.49,-21.01 89.28,-22.19 81.62,-23.28"/>
<polygon fill="#63b8ff" stroke="#63b8ff" points="106.09,-23.32 115.49,-18.44 105.1,-16.39 106.09,-23.32"/>
</a>
</g>
</g>
</g>
</svg>
