<?xml version="1.0" encoding="UTF-8" standalone="no"?>
<!DOCTYPE svg PUBLIC "-//W3C//DTD SVG 1.1//EN"
 "http://www.w3.org/Graphics/SVG/1.1/DTD/svg11.dtd">
<!-- Generated by graphviz version 14.0.2 (20251019.1705)
 -->
<!-- Title: GameScene::StartOrDeferBGM Pages: 1 -->
<svg width="469pt" height="104pt"
 viewBox="0.00 0.00 469.00 104.00" xmlns="http://www.w3.org/2000/svg" xmlns:xlink="http://www.w3.org/1999/xlink">
<g id="graph0" class="graph" transform="scale(1 1) rotate(0) translate(4 100)">
<title>GameScene::StartOrDeferBGM</title>
<!-- Node1 -->
<g id="Node000001" class="node">
<title>Node1</title>
<g id="a_Node000001"><a xlink:title="BGM再生を開始または遅延させる">
<polygon fill="#999999" stroke="#666666" points="461.25,-58 307.25,-58 307.25,-38 461.25,-38 461.25,-58"/>
<text xml:space="preserve" text-anchor="middle" x="384.25" y="-44.5" font-family="Helvetica,sans-Serif" font-size="10.00">GameScene::StartOrDeferBGM</text>
</a>
</g>
</g>
<!-- Node2 -->
<g id="Node000002" class="node">
<title>Node2</title>
<g id="a_Node000002"><a xlink:href="class_game_scene.html#aa0fa2a98f139524a96ffb9d25252b145" target="_top" xlink:title="コンストラクタ">
<polygon fill="white" stroke="#666666" points="271.25,-96 141.25,-96 141.25,-76 271.25,-76 271.25,-96"/>
<text xml:space="preserve" text-anchor="middle" x="206.25" y="-82.5" font-family="Helvetica,sans-Serif" font-size="10.00">GameScene::GameScene</text>
</a>
</g>
</g>
<!-- Node1&#45;&gt;Node2 -->
<g id="edge1_Node000001_Node000002" class="edge">
<title>Node1&#45;&gt;Node2</title>
<g id="a_edge1_Node000001_Node000002"><a xlink:title=" ">
<path fill="none" stroke="#63b8ff" d="M323.72,-60.85C301.56,-65.64 276.7,-71.01 255.65,-75.55"/>
<polygon fill="#63b8ff" stroke="#63b8ff" points="324.18,-64.34 333.21,-58.8 322.7,-57.49 324.18,-64.34"/>
</a>
</g>
</g>
<!-- Node3 -->
<g id="Node000003" class="node">
<title>Node3</title>
<g id="a_Node000003"><a xlink:href="class_game_scene.html#a70464c5d4ccd05d39a9cb168e332c93a" target="_top" xlink:title="シーンを更新する">
<polygon fill="white" stroke="#666666" points="105.25,-39 0,-39 0,-19 105.25,-19 105.25,-39"/>
<text xml:space="preserve" text-anchor="middle" x="52.62" y="-25.5" font-family="Helvetica,sans-Serif" font-size="10.00">GameScene::update</text>
</a>
</g>
</g>
<!-- Node1&#45;&gt;Node3 -->
<g id="edge2_Node000001_Node000003" class="edge">
<title>Node1&#45;&gt;Node3</title>
<g id="a_edge2_Node000001_Node000003"><a xlink:title=" ">
<path fill="none" stroke="#63b8ff" d="M295.32,-42.93C234.77,-39.44 156.36,-34.92 105.54,-31.99"/>
<polygon fill="#63b8ff" stroke="#63b8ff" points="295.1,-46.42 305.29,-43.51 295.51,-39.44 295.1,-46.42"/>
</a>
</g>
</g>
<!-- Node4 -->
<g id="Node000004" class="node">
<title>Node4</title>
<g id="a_Node000004"><a xlink:href="class_game_scene.html#a90075ad52095e3d625ae3aa13fada7e8" target="_top" xlink:title="BGMを更新する">
<polygon fill="white" stroke="#666666" points="271.25,-20 141.25,-20 141.25,0 271.25,0 271.25,-20"/>
<text xml:space="preserve" text-anchor="middle" x="206.25" y="-6.5" font-family="Helvetica,sans-Serif" font-size="10.00">GameScene::UpdateBGM</text>
</a>
</g>
</g>
<!-- Node1&#45;&gt;Node4 -->
<g id="edge3_Node000001_Node000004" class="edge">
<title>Node1&#45;&gt;Node4</title>
<g id="a_edge3_Node000001_Node000004"><a xlink:title=" ">
<path fill="none" stroke="#63b8ff" d="M323.72,-35.15C301.56,-30.36 276.7,-24.99 255.65,-20.45"/>
<polygon fill="#63b8ff" stroke="#63b8ff" points="322.7,-38.51 333.21,-37.2 324.18,-31.66 322.7,-38.51"/>
</a>
</g>
</g>
<!-- Node4&#45;&gt;Node3 -->
<g id="edge4_Node000004_Node000003" class="edge">
<title>Node4&#45;&gt;Node3</title>
<g id="a_edge4_Node000004_Node000003"><a xlink:title=" ">
<path fill="none" stroke="#63b8ff" d="M129.55,-19.49C121.45,-20.5 113.36,-21.51 105.63,-22.48"/>
<polygon fill="#63b8ff" stroke="#63b8ff" points="129.96,-22.96 139.45,-18.25 129.09,-16.02 129.96,-22.96"/>
</a>
</g>
</g>
</g>
</svg>
