<?xml version="1.0" encoding="UTF-8" standalone="no"?>
<!DOCTYPE svg PUBLIC "-//W3C//DTD SVG 1.1//EN"
 "http://www.w3.org/Graphics/SVG/1.1/DTD/svg11.dtd">
<!-- Generated by graphviz version 14.0.2 (20251019.1705)
 -->
<!-- Title: Player::HandleInput Pages: 1 -->
<svg width="418pt" height="28pt"
 viewBox="0.00 0.00 418.00 28.00" xmlns="http://www.w3.org/2000/svg" xmlns:xlink="http://www.w3.org/1999/xlink">
<g id="graph0" class="graph" transform="scale(1 1) rotate(0) translate(4 24)">
<title>Player::HandleInput</title>
<!-- Node1 -->
<g id="Node000001" class="node">
<title>Node1</title>
<g id="a_Node000001"><a xlink:title="入力を処理する">
<polygon fill="#999999" stroke="#666666" points="102.25,-20 0,-20 0,0 102.25,0 102.25,-20"/>
<text xml:space="preserve" text-anchor="middle" x="51.12" y="-6.5" font-family="Helvetica,sans-Serif" font-size="10.00">Player::HandleInput</text>
</a>
</g>
</g>
<!-- Node2 -->
<g id="Node000002" class="node">
<title>Node2</title>
<g id="a_Node000002"><a xlink:href="class_player.html#a075e705cdf3b3d264c034b938e3ed500" target="_top" xlink:title="泳ぎ入力時の処理">
<polygon fill="white" stroke="#666666" points="261.5,-20 138.25,-20 138.25,0 261.5,0 261.5,-20"/>
<text xml:space="preserve" text-anchor="middle" x="199.88" y="-6.5" font-family="Helvetica,sans-Serif" font-size="10.00">Player::OnSwimPressed</text>
</a>
</g>
</g>
<!-- Node1&#45;&gt;Node2 -->
<g id="edge1_Node000001_Node000002" class="edge">
<title>Node1&#45;&gt;Node2</title>
<g id="a_edge1_Node000001_Node000002"><a xlink:title=" ">
<path fill="none" stroke="#63b8ff" d="M102.63,-10C110.35,-10 118.44,-10 126.52,-10"/>
<polygon fill="#63b8ff" stroke="#63b8ff" points="126.38,-13.5 136.38,-10 126.38,-6.5 126.38,-13.5"/>
</a>
</g>
</g>
<!-- Node3 -->
<g id="Node000003" class="node">
<title>Node3</title>
<g id="a_Node000003"><a xlink:href="class_player.html#ac7d159c578eb4da86911b484b499766c" target="_top" xlink:title="酸素量を変更する">
<polygon fill="white" stroke="#666666" points="410.25,-20 297.5,-20 297.5,0 410.25,0 410.25,-20"/>
<text xml:space="preserve" text-anchor="middle" x="353.88" y="-6.5" font-family="Helvetica,sans-Serif" font-size="10.00">Player::ModifyOxygen</text>
</a>
</g>
</g>
<!-- Node2&#45;&gt;Node3 -->
<g id="edge2_Node000002_Node000003" class="edge">
<title>Node2&#45;&gt;Node3</title>
<g id="a_edge2_Node000002_Node000003"><a xlink:title=" ">
<path fill="none" stroke="#63b8ff" d="M261.82,-10C269.79,-10 278,-10 286.06,-10"/>
<polygon fill="#63b8ff" stroke="#63b8ff" points="285.81,-13.5 295.81,-10 285.81,-6.5 285.81,-13.5"/>
</a>
</g>
</g>
</g>
</svg>
