<?xml version="1.0" encoding="UTF-8" standalone="no"?>
<!DOCTYPE svg PUBLIC "-//W3C//DTD SVG 1.1//EN"
 "http://www.w3.org/Graphics/SVG/1.1/DTD/svg11.dtd">
<!-- Generated by graphviz version 14.0.2 (20251019.1705)
 -->
<!-- Title: src Pages: 1 -->
<svg width="276pt" height="340pt"
 viewBox="0.00 0.00 276.00 340.00" xmlns="http://www.w3.org/2000/svg" xmlns:xlink="http://www.w3.org/1999/xlink">
<g id="graph0" class="graph" transform="scale(1 1) rotate(0) translate(4 336)">
<title>src</title>
<g id="clust1" class="cluster">
<title>clusterdir_68267d1309a1af8e8297ef4c3efbcdba</title>
<g id="a_clust1"><a xlink:href="dir_68267d1309a1af8e8297ef4c3efbcdba.html" target="_top">
<polygon fill="#edf0f7" stroke="#404040" stroke-width="2" points="8,-8 8,-324 260,-324 260,-8 8,-8"/>
</a>
</g>
</g>
<!-- dir_68267d1309a1af8e8297ef4c3efbcdba -->
<g id="node1" class="node">
<title>dir_68267d1309a1af8e8297ef4c3efbcdba</title>
<text xml:space="preserve" text-anchor="middle" x="159" y="-302.5" font-family="Helvetica,sans-Serif" font-size="10.00">src</text>
</g>
<!-- dir_a2f0e5642e47e7ed59fe0f0829eafb5f -->
<g id="node4" class="node">
<title>dir_a2f0e5642e47e7ed59fe0f0829eafb5f</title>
<g id="a_node4"><a xlink:href="dir_a2f0e5642e47e7ed59fe0f0829eafb5f.html" target="_top" xlink:title="Core">
<polygon fill="#a2b4d6" stroke="#404040" points="225.5,-36 188.5,-36 188.5,-16 225.5,-16 225.5,-36"/>
<text xml:space="preserve" text-anchor="middle" x="207" y="-22.5" font-family="Helvetica,sans-Serif" font-size="10.00">Core</text>
</a>
</g>
</g>
<!-- dir_68267d1309a1af8e8297ef4c3efbcdba&#45;&gt;dir_a2f0e5642e47e7ed59fe0f0829eafb5f -->
<g id="edge2" class="edge">
<title>dir_68267d1309a1af8e8297ef4c3efbcdba&#45;&gt;dir_a2f0e5642e47e7ed59fe0f0829eafb5f</title>
<g id="a_edge2"><a xlink:href="dir_000006_000002.html" target="_top">
<path fill="none" stroke="#63b8ff" d="M173.38,-296.78C199.25,-280.78 251,-242.8 251,-195 251,-195 251,-195 251,-137 251,-103.04 232.7,-67.13 219.7,-45.91"/>
<polygon fill="#63b8ff" stroke="#63b8ff" points="222.83,-44.31 214.5,-37.77 216.93,-48.08 222.83,-44.31"/>
</a>
</g>
<g id="a_edge2&#45;headlabel"><a xlink:href="dir_000006_000002.html" target="_top" xlink:title="7">
<text xml:space="preserve" text-anchor="middle" x="226.35" y="-41.03" font-family="Helvetica,sans-Serif" font-size="10.00" fill="#63b8ff">7</text>
</a>
</g>
</g>
<!-- dir_204260ac86670e69c647eaba8962e745 -->
<g id="node7" class="node">
<title>dir_204260ac86670e69c647eaba8962e745</title>
<g id="a_node7"><a xlink:href="dir_204260ac86670e69c647eaba8962e745.html" target="_top" xlink:title="Scene">
<polygon fill="#a2b4d6" stroke="#404040" points="169.88,-260 126.12,-260 126.12,-240 169.88,-240 169.88,-260"/>
<text xml:space="preserve" text-anchor="middle" x="148" y="-246.5" font-family="Helvetica,sans-Serif" font-size="10.00">Scene</text>
</a>
</g>
</g>
<!-- dir_68267d1309a1af8e8297ef4c3efbcdba&#45;&gt;dir_204260ac86670e69c647eaba8962e745 -->
<g id="edge1" class="edge">
<title>dir_68267d1309a1af8e8297ef4c3efbcdba&#45;&gt;dir_204260ac86670e69c647eaba8962e745</title>
<g id="a_edge1"><a xlink:href="dir_000006_000005.html" target="_top">
<path fill="none" stroke="#63b8ff" d="M157.18,-296.08C155.82,-289.4 153.91,-279.99 152.18,-271.5"/>
<polygon fill="#63b8ff" stroke="#63b8ff" points="155.66,-271.06 150.23,-261.96 148.8,-272.46 155.66,-271.06"/>
</a>
</g>
<g id="a_edge1&#45;headlabel"><a xlink:href="dir_000006_000005.html" target="_top" xlink:title="1">
<text xml:space="preserve" text-anchor="middle" x="158.86" y="-269.03" font-family="Helvetica,sans-Serif" font-size="10.00" fill="#63b8ff">1</text>
</a>
</g>
</g>
<!-- dir_14e07faf3d815f1aca245c7d62887211 -->
<g id="node2" class="node">
<title>dir_14e07faf3d815f1aca245c7d62887211</title>
<g id="a_node2"><a xlink:href="dir_14e07faf3d815f1aca245c7d62887211.html" target="_top" xlink:title="AI">
<polygon fill="#a2b4d6" stroke="#404040" points="64.4,-148 35.6,-148 35.6,-128 64.4,-128 64.4,-148"/>
<text xml:space="preserve" text-anchor="middle" x="50" y="-134.5" font-family="Helvetica,sans-Serif" font-size="10.00">AI</text>
</a>
</g>
</g>
<!-- dir_679f494023f10296bb6c15dff701d1f4 -->
<g id="node5" class="node">
<title>dir_679f494023f10296bb6c15dff701d1f4</title>
<g id="a_node5"><a xlink:href="dir_679f494023f10296bb6c15dff701d1f4.html" target="_top" xlink:title="Entitie">
<polygon fill="#a2b4d6" stroke="#404040" points="123.88,-204 80.12,-204 80.12,-184 123.88,-184 123.88,-204"/>
<text xml:space="preserve" text-anchor="middle" x="102" y="-190.5" font-family="Helvetica,sans-Serif" font-size="10.00">Entitie</text>
</a>
</g>
</g>
<!-- dir_14e07faf3d815f1aca245c7d62887211&#45;&gt;dir_679f494023f10296bb6c15dff701d1f4 -->
<g id="edge3" class="edge">
<title>dir_14e07faf3d815f1aca245c7d62887211&#45;&gt;dir_679f494023f10296bb6c15dff701d1f4</title>
<g id="a_edge3"><a xlink:href="dir_000000_000003.html" target="_top">
<path fill="none" stroke="#63b8ff" d="M64.2,-148.3C72.74,-155.62 83.17,-166.06 91.07,-175"/>
<polygon fill="#63b8ff" stroke="#63b8ff" points="88.16,-176.97 97.24,-182.43 93.55,-172.5 88.16,-176.97"/>
</a>
</g>
<g id="a_edge3&#45;headlabel"><a xlink:href="dir_000000_000003.html" target="_top" xlink:title="1">
<text xml:space="preserve" text-anchor="middle" x="84.65" y="-173.69" font-family="Helvetica,sans-Serif" font-size="10.00" fill="#63b8ff">1</text>
</a>
</g>
</g>
<!-- dir_b1100b59100e68d963dd98d5fca42f64 -->
<g id="node9" class="node">
<title>dir_b1100b59100e68d963dd98d5fca42f64</title>
<g id="a_node9"><a xlink:href="dir_b1100b59100e68d963dd98d5fca42f64.html" target="_top" xlink:title="World">
<polygon fill="#a2b4d6" stroke="#404040" points="77.38,-92 36.62,-92 36.62,-72 77.38,-72 77.38,-92"/>
<text xml:space="preserve" text-anchor="middle" x="57" y="-78.5" font-family="Helvetica,sans-Serif" font-size="10.00">World</text>
</a>
</g>
</g>
<!-- dir_14e07faf3d815f1aca245c7d62887211&#45;&gt;dir_b1100b59100e68d963dd98d5fca42f64 -->
<g id="edge4" class="edge">
<title>dir_14e07faf3d815f1aca245c7d62887211&#45;&gt;dir_b1100b59100e68d963dd98d5fca42f64</title>
<g id="a_edge4"><a xlink:href="dir_000000_000008.html" target="_top">
<path fill="none" stroke="#63b8ff" d="M51.22,-127.59C52.08,-120.93 53.27,-111.75 54.35,-103.44"/>
<polygon fill="#63b8ff" stroke="#63b8ff" points="57.79,-104.17 55.6,-93.8 50.84,-103.27 57.79,-104.17"/>
</a>
</g>
<g id="a_edge4&#45;headlabel"><a xlink:href="dir_000000_000008.html" target="_top" xlink:title="1">
<text xml:space="preserve" text-anchor="middle" x="60.33" y="-103.1" font-family="Helvetica,sans-Serif" font-size="10.00" fill="#63b8ff">1</text>
</a>
</g>
</g>
<!-- dir_00946f189ad6d7d24c61713ba78696b7 -->
<g id="node3" class="node">
<title>dir_00946f189ad6d7d24c61713ba78696b7</title>
<g id="a_node3"><a xlink:href="dir_00946f189ad6d7d24c61713ba78696b7.html" target="_top" xlink:title="Component">
<polygon fill="#a2b4d6" stroke="#404040" points="188.12,-92 121.88,-92 121.88,-72 188.12,-72 188.12,-92"/>
<text xml:space="preserve" text-anchor="middle" x="155" y="-78.5" font-family="Helvetica,sans-Serif" font-size="10.00">Component</text>
</a>
</g>
</g>
<!-- dir_679f494023f10296bb6c15dff701d1f4&#45;&gt;dir_14e07faf3d815f1aca245c7d62887211 -->
<g id="edge6" class="edge">
<title>dir_679f494023f10296bb6c15dff701d1f4&#45;&gt;dir_14e07faf3d815f1aca245c7d62887211</title>
<g id="a_edge6"><a xlink:href="dir_000003_000000.html" target="_top">
<path fill="none" stroke="#63b8ff" d="M87.68,-183.59C79.21,-176.32 68.91,-166.02 61.06,-157.15"/>
<polygon fill="#63b8ff" stroke="#63b8ff" points="63.76,-154.92 54.68,-149.46 58.37,-159.39 63.76,-154.92"/>
</a>
</g>
<g id="a_edge6&#45;headlabel"><a xlink:href="dir_000003_000000.html" target="_top" xlink:title="2">
<text xml:space="preserve" text-anchor="middle" x="67.27" y="-151.21" font-family="Helvetica,sans-Serif" font-size="10.00" fill="#63b8ff">2</text>
</a>
</g>
</g>
<!-- dir_679f494023f10296bb6c15dff701d1f4&#45;&gt;dir_00946f189ad6d7d24c61713ba78696b7 -->
<g id="edge5" class="edge">
<title>dir_679f494023f10296bb6c15dff701d1f4&#45;&gt;dir_00946f189ad6d7d24c61713ba78696b7</title>
<g id="a_edge5"><a xlink:href="dir_000003_000001.html" target="_top">
<path fill="none" stroke="#63b8ff" d="M106.52,-183.62C115.12,-165.76 134.03,-126.53 145.52,-102.67"/>
<polygon fill="#63b8ff" stroke="#63b8ff" points="148.65,-104.25 149.84,-93.72 142.34,-101.21 148.65,-104.25"/>
</a>
</g>
<g id="a_edge5&#45;headlabel"><a xlink:href="dir_000003_000001.html" target="_top" xlink:title="10">
<text xml:space="preserve" text-anchor="middle" x="150.3" y="-103.85" font-family="Helvetica,sans-Serif" font-size="10.00" fill="#63b8ff">10</text>
</a>
</g>
</g>
<!-- dir_679f494023f10296bb6c15dff701d1f4&#45;&gt;dir_a2f0e5642e47e7ed59fe0f0829eafb5f -->
<g id="edge7" class="edge">
<title>dir_679f494023f10296bb6c15dff701d1f4&#45;&gt;dir_a2f0e5642e47e7ed59fe0f0829eafb5f</title>
<g id="a_edge7"><a xlink:href="dir_000003_000002.html" target="_top">
<path fill="none" stroke="#63b8ff" d="M100.02,-183.79C95.89,-162.1 88.68,-106.99 113,-72 127.88,-50.59 155.79,-39.03 177.35,-33.01"/>
<polygon fill="#63b8ff" stroke="#63b8ff" points="177.93,-36.47 186.78,-30.64 176.23,-29.68 177.93,-36.47"/>
</a>
</g>
<g id="a_edge7&#45;headlabel"><a xlink:href="dir_000003_000002.html" target="_top" xlink:title="2">
<text xml:space="preserve" text-anchor="middle" x="176.6" y="-36.23" font-family="Helvetica,sans-Serif" font-size="10.00" fill="#63b8ff">2</text>
</a>
</g>
</g>
<!-- dir_ef68f1e1f5148ff8ef7fb1c955106c3c -->
<g id="node8" class="node">
<title>dir_ef68f1e1f5148ff8ef7fb1c955106c3c</title>
<g id="a_node8"><a xlink:href="dir_ef68f1e1f5148ff8ef7fb1c955106c3c.html" target="_top" xlink:title="System">
<polygon fill="#a2b4d6" stroke="#404040" points="211.88,-148 162.12,-148 162.12,-128 211.88,-128 211.88,-148"/>
<text xml:space="preserve" text-anchor="middle" x="187" y="-134.5" font-family="Helvetica,sans-Serif" font-size="10.00">System</text>
</a>
</g>
</g>
<!-- dir_679f494023f10296bb6c15dff701d1f4&#45;&gt;dir_ef68f1e1f5148ff8ef7fb1c955106c3c -->
<g id="edge9" class="edge">
<title>dir_679f494023f10296bb6c15dff701d1f4&#45;&gt;dir_ef68f1e1f5148ff8ef7fb1c955106c3c</title>
<g id="a_edge9"><a xlink:href="dir_000003_000007.html" target="_top">
<path fill="none" stroke="#63b8ff" d="M116.81,-183.59C129.4,-175.59 147.75,-163.93 162.53,-154.54"/>
<polygon fill="#63b8ff" stroke="#63b8ff" points="164.24,-157.61 170.8,-149.29 160.48,-151.7 164.24,-157.61"/>
</a>
</g>
<g id="a_edge9&#45;headlabel"><a xlink:href="dir_000003_000007.html" target="_top" xlink:title="1">
<text xml:space="preserve" text-anchor="middle" x="164" y="-157.62" font-family="Helvetica,sans-Serif" font-size="10.00" fill="#63b8ff">1</text>
</a>
</g>
</g>
<!-- dir_679f494023f10296bb6c15dff701d1f4&#45;&gt;dir_b1100b59100e68d963dd98d5fca42f64 -->
<g id="edge8" class="edge">
<title>dir_679f494023f10296bb6c15dff701d1f4&#45;&gt;dir_b1100b59100e68d963dd98d5fca42f64</title>
<g id="a_edge8"><a xlink:href="dir_000003_000008.html" target="_top">
<path fill="none" stroke="#63b8ff" d="M98.16,-183.62C90.89,-165.84 74.95,-126.88 65.18,-103"/>
<polygon fill="#63b8ff" stroke="#63b8ff" points="68.43,-101.69 61.4,-93.76 61.95,-104.34 68.43,-101.69"/>
</a>
</g>
<g id="a_edge8&#45;headlabel"><a xlink:href="dir_000003_000008.html" target="_top" xlink:title="5">
<text xml:space="preserve" text-anchor="middle" x="71.84" y="-99.04" font-family="Helvetica,sans-Serif" font-size="10.00" fill="#63b8ff">5</text>
</a>
</g>
</g>
<!-- dir_4352f877eacf8987ed9e54d8b8506651 -->
<g id="node6" class="node">
<title>dir_4352f877eacf8987ed9e54d8b8506651</title>
<g id="a_node6"><a xlink:href="dir_4352f877eacf8987ed9e54d8b8506651.html" target="_top" xlink:title="pch">
<polygon fill="#a2b4d6" stroke="#404040" points="245.88,-316 214.12,-316 214.12,-296 245.88,-296 245.88,-316"/>
<text xml:space="preserve" text-anchor="middle" x="230" y="-302.5" font-family="Helvetica,sans-Serif" font-size="10.00">pch</text>
</a>
</g>
</g>
<!-- dir_204260ac86670e69c647eaba8962e745&#45;&gt;dir_00946f189ad6d7d24c61713ba78696b7 -->
<g id="edge10" class="edge">
<title>dir_204260ac86670e69c647eaba8962e745&#45;&gt;dir_00946f189ad6d7d24c61713ba78696b7</title>
<g id="a_edge10"><a xlink:href="dir_000005_000001.html" target="_top">
<path fill="none" stroke="#63b8ff" d="M148.38,-239.59C149.2,-219.23 151.22,-169.59 153,-128 153.34,-120.09 153.72,-111.4 154.06,-103.79"/>
<polygon fill="#63b8ff" stroke="#63b8ff" points="157.56,-103.97 154.51,-93.82 150.57,-103.65 157.56,-103.97"/>
</a>
</g>
<g id="a_edge10&#45;headlabel"><a xlink:href="dir_000005_000001.html" target="_top" xlink:title="1">
<text xml:space="preserve" text-anchor="middle" x="160.3" y="-102.67" font-family="Helvetica,sans-Serif" font-size="10.00" fill="#63b8ff">1</text>
</a>
</g>
</g>
<!-- dir_204260ac86670e69c647eaba8962e745&#45;&gt;dir_a2f0e5642e47e7ed59fe0f0829eafb5f -->
<g id="edge12" class="edge">
<title>dir_204260ac86670e69c647eaba8962e745&#45;&gt;dir_a2f0e5642e47e7ed59fe0f0829eafb5f</title>
<g id="a_edge12"><a xlink:href="dir_000005_000002.html" target="_top">
<path fill="none" stroke="#63b8ff" d="M158.07,-239.6C174.98,-223.03 208.48,-186.7 221,-148 232.08,-113.75 222.23,-71.54 214.39,-47.11"/>
<polygon fill="#63b8ff" stroke="#63b8ff" points="217.75,-46.12 211.19,-37.8 211.13,-48.4 217.75,-46.12"/>
</a>
</g>
<g id="a_edge12&#45;headlabel"><a xlink:href="dir_000005_000002.html" target="_top" xlink:title="2">
<text xml:space="preserve" text-anchor="middle" x="221.12" y="-43.66" font-family="Helvetica,sans-Serif" font-size="10.00" fill="#63b8ff">2</text>
</a>
</g>
</g>
<!-- dir_204260ac86670e69c647eaba8962e745&#45;&gt;dir_679f494023f10296bb6c15dff701d1f4 -->
<g id="edge11" class="edge">
<title>dir_204260ac86670e69c647eaba8962e745&#45;&gt;dir_679f494023f10296bb6c15dff701d1f4</title>
<g id="a_edge11"><a xlink:href="dir_000005_000003.html" target="_top">
<path fill="none" stroke="#63b8ff" d="M139.99,-239.59C133.72,-232.24 124.83,-221.8 117.22,-212.87"/>
<polygon fill="#63b8ff" stroke="#63b8ff" points="120.05,-210.79 110.9,-205.45 114.72,-215.33 120.05,-210.79"/>
</a>
</g>
<g id="a_edge11&#45;headlabel"><a xlink:href="dir_000005_000003.html" target="_top" xlink:title="3">
<text xml:space="preserve" text-anchor="middle" x="123.56" y="-207.04" font-family="Helvetica,sans-Serif" font-size="10.00" fill="#63b8ff">3</text>
</a>
</g>
</g>
<!-- dir_204260ac86670e69c647eaba8962e745&#45;&gt;dir_ef68f1e1f5148ff8ef7fb1c955106c3c -->
<g id="edge14" class="edge">
<title>dir_204260ac86670e69c647eaba8962e745&#45;&gt;dir_ef68f1e1f5148ff8ef7fb1c955106c3c</title>
<g id="a_edge14"><a xlink:href="dir_000005_000007.html" target="_top">
<path fill="none" stroke="#63b8ff" d="M151.33,-239.62C157.63,-221.84 171.44,-182.88 179.91,-159"/>
<polygon fill="#63b8ff" stroke="#63b8ff" points="183.13,-160.38 183.18,-149.78 176.54,-158.04 183.13,-160.38"/>
</a>
</g>
<g id="a_edge14&#45;headlabel"><a xlink:href="dir_000005_000007.html" target="_top" xlink:title="4">
<text xml:space="preserve" text-anchor="middle" x="185.12" y="-159.79" font-family="Helvetica,sans-Serif" font-size="10.00" fill="#63b8ff">4</text>
</a>
</g>
</g>
<!-- dir_204260ac86670e69c647eaba8962e745&#45;&gt;dir_b1100b59100e68d963dd98d5fca42f64 -->
<g id="edge13" class="edge">
<title>dir_204260ac86670e69c647eaba8962e745&#45;&gt;dir_b1100b59100e68d963dd98d5fca42f64</title>
<g id="a_edge13"><a xlink:href="dir_000005_000008.html" target="_top">
<path fill="none" stroke="#63b8ff" d="M125.84,-239.53C95.49,-225.05 42.97,-194.16 27,-148 21.37,-131.71 30.64,-114 40.32,-101.19"/>
<polygon fill="#63b8ff" stroke="#63b8ff" points="42.91,-103.54 46.6,-93.61 37.52,-99.08 42.91,-103.54"/>
</a>
</g>
<g id="a_edge13&#45;headlabel"><a xlink:href="dir_000005_000008.html" target="_top" xlink:title="2">
<text xml:space="preserve" text-anchor="middle" x="43.77" y="-103.46" font-family="Helvetica,sans-Serif" font-size="10.00" fill="#63b8ff">2</text>
</a>
</g>
</g>
<!-- dir_ef68f1e1f5148ff8ef7fb1c955106c3c&#45;&gt;dir_00946f189ad6d7d24c61713ba78696b7 -->
<g id="edge15" class="edge">
<title>dir_ef68f1e1f5148ff8ef7fb1c955106c3c&#45;&gt;dir_00946f189ad6d7d24c61713ba78696b7</title>
<g id="a_edge15"><a xlink:href="dir_000007_000001.html" target="_top">
<path fill="none" stroke="#63b8ff" d="M181.43,-127.59C177.25,-120.55 171.4,-110.67 166.26,-102"/>
<polygon fill="#63b8ff" stroke="#63b8ff" points="169.39,-100.42 161.28,-93.6 163.37,-103.99 169.39,-100.42"/>
</a>
</g>
<g id="a_edge15&#45;headlabel"><a xlink:href="dir_000007_000001.html" target="_top" xlink:title="1">
<text xml:space="preserve" text-anchor="middle" x="172.89" y="-97.26" font-family="Helvetica,sans-Serif" font-size="10.00" fill="#63b8ff">1</text>
</a>
</g>
</g>
<!-- dir_ef68f1e1f5148ff8ef7fb1c955106c3c&#45;&gt;dir_a2f0e5642e47e7ed59fe0f0829eafb5f -->
<g id="edge16" class="edge">
<title>dir_ef68f1e1f5148ff8ef7fb1c955106c3c&#45;&gt;dir_a2f0e5642e47e7ed59fe0f0829eafb5f</title>
<g id="a_edge16"><a xlink:href="dir_000007_000002.html" target="_top">
<path fill="none" stroke="#63b8ff" d="M189.25,-127.73C191.4,-118.66 194.67,-104.43 197,-92 199.78,-77.19 202.35,-60.37 204.19,-47.55"/>
<polygon fill="#63b8ff" stroke="#63b8ff" points="207.64,-48.18 205.56,-37.79 200.71,-47.21 207.64,-48.18"/>
</a>
</g>
<g id="a_edge16&#45;headlabel"><a xlink:href="dir_000007_000002.html" target="_top" xlink:title="1">
<text xml:space="preserve" text-anchor="middle" x="210.16" y="-47.13" font-family="Helvetica,sans-Serif" font-size="10.00" fill="#63b8ff">1</text>
</a>
</g>
</g>
<!-- dir_b1100b59100e68d963dd98d5fca42f64&#45;&gt;dir_a2f0e5642e47e7ed59fe0f0829eafb5f -->
<g id="edge17" class="edge">
<title>dir_b1100b59100e68d963dd98d5fca42f64&#45;&gt;dir_a2f0e5642e47e7ed59fe0f0829eafb5f</title>
<g id="a_edge17"><a xlink:href="dir_000008_000002.html" target="_top">
<path fill="none" stroke="#63b8ff" d="M77.86,-73.49C103.84,-64.14 148.39,-48.1 177.76,-37.52"/>
<polygon fill="#63b8ff" stroke="#63b8ff" points="178.56,-40.96 186.79,-34.28 176.19,-34.37 178.56,-40.96"/>
</a>
</g>
<g id="a_edge17&#45;headlabel"><a xlink:href="dir_000008_000002.html" target="_top" xlink:title="1">
<text xml:space="preserve" text-anchor="middle" x="177.57" y="-40.83" font-family="Helvetica,sans-Serif" font-size="10.00" fill="#63b8ff">1</text>
</a>
</g>
</g>
</g>
</svg>
