<?xml version="1.0" encoding="UTF-8" standalone="no"?>
<!DOCTYPE svg PUBLIC "-//W3C//DTD SVG 1.1//EN"
 "http://www.w3.org/Graphics/SVG/1.1/DTD/svg11.dtd">
<!-- Generated by graphviz version 14.0.2 (20251019.1705)
 -->
<!-- Title: クラス階層図 Pages: 1 -->
<svg width="255pt" height="104pt"
 viewBox="0.00 0.00 255.00 104.00" xmlns="http://www.w3.org/2000/svg" xmlns:xlink="http://www.w3.org/1999/xlink">
<g id="graph0" class="graph" transform="scale(1 1) rotate(0) translate(4 100)">
<title>クラス階層図</title>
<!-- Node0 -->
<g id="Node000000" class="node">
<title>Node0</title>
<g id="a_Node000000"><a xlink:href="class_i_behavior_strategy.html" target="_top" xlink:title="敵の行動戦略を定義するインターフェース">
<polygon fill="white" stroke="#666666" points="94,-58 0,-58 0,-38 94,-38 94,-58"/>
<text xml:space="preserve" text-anchor="middle" x="47" y="-44.5" font-family="Helvetica,sans-Serif" font-size="10.00">IBehaviorStrategy</text>
</a>
</g>
</g>
<!-- Node1 -->
<g id="Node000001" class="node">
<title>Node1</title>
<g id="a_Node000001"><a xlink:href="class_back_and_forth_behavior.html" target="_top" xlink:title="一定距離前後に往復する敵の行動戦略">
<polygon fill="white" stroke="#666666" points="246.5,-96 130,-96 130,-76 246.5,-76 246.5,-96"/>
<text xml:space="preserve" text-anchor="middle" x="188.25" y="-82.5" font-family="Helvetica,sans-Serif" font-size="10.00">BackAndForthBehavior</text>
</a>
</g>
</g>
<!-- Node0&#45;&gt;Node1 -->
<g id="edge2_Node000000_Node000001" class="edge">
<title>Node0&#45;&gt;Node1</title>
<g id="a_edge2_Node000000_Node000001"><a xlink:title=" ">
<path fill="none" stroke="#63b8ff" d="M97.27,-61.45C114.25,-66.08 132.99,-71.19 148.96,-75.55"/>
<polygon fill="#63b8ff" stroke="#63b8ff" points="98.45,-58.14 87.88,-58.88 96.61,-64.89 98.45,-58.14"/>
</a>
</g>
</g>
<!-- Node2 -->
<g id="Node000002" class="node">
<title>Node2</title>
<g id="a_Node000002"><a xlink:href="class_patrol_behavior.html" target="_top" xlink:title="左右に巡回する敵の行動戦略">
<polygon fill="white" stroke="#666666" points="228.12,-58 148.38,-58 148.38,-38 228.12,-38 228.12,-58"/>
<text xml:space="preserve" text-anchor="middle" x="188.25" y="-44.5" font-family="Helvetica,sans-Serif" font-size="10.00">PatrolBehavior</text>
</a>
</g>
</g>
<!-- Node0&#45;&gt;Node2 -->
<g id="edge3_Node000000_Node000002" class="edge">
<title>Node0&#45;&gt;Node2</title>
<g id="a_edge3_Node000000_Node000002"><a xlink:title=" ">
<path fill="none" stroke="#63b8ff" d="M105.63,-48C119.91,-48 134.89,-48 148.06,-48"/>
<polygon fill="#63b8ff" stroke="#63b8ff" points="105.88,-44.5 95.88,-48 105.88,-51.5 105.88,-44.5"/>
</a>
</g>
</g>
<!-- Node3 -->
<g id="Node000003" class="node">
<title>Node3</title>
<g id="a_Node000003"><a xlink:href="class_stationary_behavior.html" target="_top" xlink:title="その場から動かない敵の行動戦略">
<polygon fill="white" stroke="#666666" points="237.5,-20 139,-20 139,0 237.5,0 237.5,-20"/>
<text xml:space="preserve" text-anchor="middle" x="188.25" y="-6.5" font-family="Helvetica,sans-Serif" font-size="10.00">StationaryBehavior</text>
</a>
</g>
</g>
<!-- Node0&#45;&gt;Node3 -->
<g id="edge4_Node000000_Node000003" class="edge">
<title>Node0&#45;&gt;Node3</title>
<g id="a_edge4_Node000000_Node000003"><a xlink:title=" ">
<path fill="none" stroke="#63b8ff" d="M97.27,-34.55C114.25,-29.92 132.99,-24.81 148.96,-20.45"/>
<polygon fill="#63b8ff" stroke="#63b8ff" points="96.61,-31.11 87.88,-37.12 98.45,-37.86 96.61,-31.11"/>
</a>
</g>
</g>
</g>
</svg>
